G04 #@! TF.GenerationSoftware,KiCad,Pcbnew,(5.1.4)-1*
G04 #@! TF.CreationDate,2020-12-11T11:15:29+01:00*
G04 #@! TF.ProjectId,dot_flipper,646f745f-666c-4697-9070-65722e6b6963,rev?*
G04 #@! TF.SameCoordinates,Original*
G04 #@! TF.FileFunction,Copper,L2,Inr*
G04 #@! TF.FilePolarity,Positive*
%FSLAX46Y46*%
G04 Gerber Fmt 4.6, Leading zero omitted, Abs format (unit mm)*
G04 Created by KiCad (PCBNEW (5.1.4)-1) date 2020-12-11 11:15:29*
%MOMM*%
%LPD*%
G04 APERTURE LIST*
%ADD10R,1.000000X1.000000*%
%ADD11O,1.000000X1.000000*%
%ADD12C,0.100000*%
%ADD13C,1.500000*%
%ADD14O,1.500000X1.500000*%
%ADD15C,3.300000*%
%ADD16C,0.800000*%
%ADD17C,1.750000*%
%ADD18C,0.600000*%
%ADD19C,0.500000*%
%ADD20C,0.150000*%
%ADD21C,0.200000*%
G04 APERTURE END LIST*
D10*
X62087001Y-68765001D03*
D11*
X63357001Y-68765001D03*
X64627001Y-68765001D03*
X65897001Y-68765001D03*
X67167001Y-68765001D03*
D12*
G36*
X41888757Y-67746807D02*
G01*
X41925160Y-67752207D01*
X41960858Y-67761148D01*
X41995507Y-67773546D01*
X42028775Y-67789281D01*
X42060340Y-67808200D01*
X42089898Y-67830122D01*
X42117166Y-67854836D01*
X42141880Y-67882104D01*
X42163802Y-67911662D01*
X42182721Y-67943227D01*
X42198456Y-67976495D01*
X42210854Y-68011144D01*
X42219795Y-68046842D01*
X42225195Y-68083245D01*
X42227001Y-68120001D01*
X42227001Y-68870001D01*
X42225195Y-68906757D01*
X42219795Y-68943160D01*
X42210854Y-68978858D01*
X42198456Y-69013507D01*
X42182721Y-69046775D01*
X42163802Y-69078340D01*
X42141880Y-69107898D01*
X42117166Y-69135166D01*
X42089898Y-69159880D01*
X42060340Y-69181802D01*
X42028775Y-69200721D01*
X41995507Y-69216456D01*
X41960858Y-69228854D01*
X41925160Y-69237795D01*
X41888757Y-69243195D01*
X41852001Y-69245001D01*
X41102001Y-69245001D01*
X41065245Y-69243195D01*
X41028842Y-69237795D01*
X40993144Y-69228854D01*
X40958495Y-69216456D01*
X40925227Y-69200721D01*
X40893662Y-69181802D01*
X40864104Y-69159880D01*
X40836836Y-69135166D01*
X40812122Y-69107898D01*
X40790200Y-69078340D01*
X40771281Y-69046775D01*
X40755546Y-69013507D01*
X40743148Y-68978858D01*
X40734207Y-68943160D01*
X40728807Y-68906757D01*
X40727001Y-68870001D01*
X40727001Y-68120001D01*
X40728807Y-68083245D01*
X40734207Y-68046842D01*
X40743148Y-68011144D01*
X40755546Y-67976495D01*
X40771281Y-67943227D01*
X40790200Y-67911662D01*
X40812122Y-67882104D01*
X40836836Y-67854836D01*
X40864104Y-67830122D01*
X40893662Y-67808200D01*
X40925227Y-67789281D01*
X40958495Y-67773546D01*
X40993144Y-67761148D01*
X41028842Y-67752207D01*
X41065245Y-67746807D01*
X41102001Y-67745001D01*
X41852001Y-67745001D01*
X41888757Y-67746807D01*
X41888757Y-67746807D01*
G37*
D13*
X41477001Y-68495001D03*
D14*
X44017001Y-68495001D03*
D12*
G36*
X41888757Y-60286807D02*
G01*
X41925160Y-60292207D01*
X41960858Y-60301148D01*
X41995507Y-60313546D01*
X42028775Y-60329281D01*
X42060340Y-60348200D01*
X42089898Y-60370122D01*
X42117166Y-60394836D01*
X42141880Y-60422104D01*
X42163802Y-60451662D01*
X42182721Y-60483227D01*
X42198456Y-60516495D01*
X42210854Y-60551144D01*
X42219795Y-60586842D01*
X42225195Y-60623245D01*
X42227001Y-60660001D01*
X42227001Y-61410001D01*
X42225195Y-61446757D01*
X42219795Y-61483160D01*
X42210854Y-61518858D01*
X42198456Y-61553507D01*
X42182721Y-61586775D01*
X42163802Y-61618340D01*
X42141880Y-61647898D01*
X42117166Y-61675166D01*
X42089898Y-61699880D01*
X42060340Y-61721802D01*
X42028775Y-61740721D01*
X41995507Y-61756456D01*
X41960858Y-61768854D01*
X41925160Y-61777795D01*
X41888757Y-61783195D01*
X41852001Y-61785001D01*
X41102001Y-61785001D01*
X41065245Y-61783195D01*
X41028842Y-61777795D01*
X40993144Y-61768854D01*
X40958495Y-61756456D01*
X40925227Y-61740721D01*
X40893662Y-61721802D01*
X40864104Y-61699880D01*
X40836836Y-61675166D01*
X40812122Y-61647898D01*
X40790200Y-61618340D01*
X40771281Y-61586775D01*
X40755546Y-61553507D01*
X40743148Y-61518858D01*
X40734207Y-61483160D01*
X40728807Y-61446757D01*
X40727001Y-61410001D01*
X40727001Y-60660001D01*
X40728807Y-60623245D01*
X40734207Y-60586842D01*
X40743148Y-60551144D01*
X40755546Y-60516495D01*
X40771281Y-60483227D01*
X40790200Y-60451662D01*
X40812122Y-60422104D01*
X40836836Y-60394836D01*
X40864104Y-60370122D01*
X40893662Y-60348200D01*
X40925227Y-60329281D01*
X40958495Y-60313546D01*
X40993144Y-60301148D01*
X41028842Y-60292207D01*
X41065245Y-60286807D01*
X41102001Y-60285001D01*
X41852001Y-60285001D01*
X41888757Y-60286807D01*
X41888757Y-60286807D01*
G37*
D13*
X41477001Y-61035001D03*
D14*
X44017001Y-61035001D03*
D12*
G36*
X72368757Y-67746807D02*
G01*
X72405160Y-67752207D01*
X72440858Y-67761148D01*
X72475507Y-67773546D01*
X72508775Y-67789281D01*
X72540340Y-67808200D01*
X72569898Y-67830122D01*
X72597166Y-67854836D01*
X72621880Y-67882104D01*
X72643802Y-67911662D01*
X72662721Y-67943227D01*
X72678456Y-67976495D01*
X72690854Y-68011144D01*
X72699795Y-68046842D01*
X72705195Y-68083245D01*
X72707001Y-68120001D01*
X72707001Y-68870001D01*
X72705195Y-68906757D01*
X72699795Y-68943160D01*
X72690854Y-68978858D01*
X72678456Y-69013507D01*
X72662721Y-69046775D01*
X72643802Y-69078340D01*
X72621880Y-69107898D01*
X72597166Y-69135166D01*
X72569898Y-69159880D01*
X72540340Y-69181802D01*
X72508775Y-69200721D01*
X72475507Y-69216456D01*
X72440858Y-69228854D01*
X72405160Y-69237795D01*
X72368757Y-69243195D01*
X72332001Y-69245001D01*
X71582001Y-69245001D01*
X71545245Y-69243195D01*
X71508842Y-69237795D01*
X71473144Y-69228854D01*
X71438495Y-69216456D01*
X71405227Y-69200721D01*
X71373662Y-69181802D01*
X71344104Y-69159880D01*
X71316836Y-69135166D01*
X71292122Y-69107898D01*
X71270200Y-69078340D01*
X71251281Y-69046775D01*
X71235546Y-69013507D01*
X71223148Y-68978858D01*
X71214207Y-68943160D01*
X71208807Y-68906757D01*
X71207001Y-68870001D01*
X71207001Y-68120001D01*
X71208807Y-68083245D01*
X71214207Y-68046842D01*
X71223148Y-68011144D01*
X71235546Y-67976495D01*
X71251281Y-67943227D01*
X71270200Y-67911662D01*
X71292122Y-67882104D01*
X71316836Y-67854836D01*
X71344104Y-67830122D01*
X71373662Y-67808200D01*
X71405227Y-67789281D01*
X71438495Y-67773546D01*
X71473144Y-67761148D01*
X71508842Y-67752207D01*
X71545245Y-67746807D01*
X71582001Y-67745001D01*
X72332001Y-67745001D01*
X72368757Y-67746807D01*
X72368757Y-67746807D01*
G37*
D13*
X71957001Y-68495001D03*
D14*
X74497001Y-68495001D03*
D12*
G36*
X72368757Y-60286807D02*
G01*
X72405160Y-60292207D01*
X72440858Y-60301148D01*
X72475507Y-60313546D01*
X72508775Y-60329281D01*
X72540340Y-60348200D01*
X72569898Y-60370122D01*
X72597166Y-60394836D01*
X72621880Y-60422104D01*
X72643802Y-60451662D01*
X72662721Y-60483227D01*
X72678456Y-60516495D01*
X72690854Y-60551144D01*
X72699795Y-60586842D01*
X72705195Y-60623245D01*
X72707001Y-60660001D01*
X72707001Y-61410001D01*
X72705195Y-61446757D01*
X72699795Y-61483160D01*
X72690854Y-61518858D01*
X72678456Y-61553507D01*
X72662721Y-61586775D01*
X72643802Y-61618340D01*
X72621880Y-61647898D01*
X72597166Y-61675166D01*
X72569898Y-61699880D01*
X72540340Y-61721802D01*
X72508775Y-61740721D01*
X72475507Y-61756456D01*
X72440858Y-61768854D01*
X72405160Y-61777795D01*
X72368757Y-61783195D01*
X72332001Y-61785001D01*
X71582001Y-61785001D01*
X71545245Y-61783195D01*
X71508842Y-61777795D01*
X71473144Y-61768854D01*
X71438495Y-61756456D01*
X71405227Y-61740721D01*
X71373662Y-61721802D01*
X71344104Y-61699880D01*
X71316836Y-61675166D01*
X71292122Y-61647898D01*
X71270200Y-61618340D01*
X71251281Y-61586775D01*
X71235546Y-61553507D01*
X71223148Y-61518858D01*
X71214207Y-61483160D01*
X71208807Y-61446757D01*
X71207001Y-61410001D01*
X71207001Y-60660001D01*
X71208807Y-60623245D01*
X71214207Y-60586842D01*
X71223148Y-60551144D01*
X71235546Y-60516495D01*
X71251281Y-60483227D01*
X71270200Y-60451662D01*
X71292122Y-60422104D01*
X71316836Y-60394836D01*
X71344104Y-60370122D01*
X71373662Y-60348200D01*
X71405227Y-60329281D01*
X71438495Y-60313546D01*
X71473144Y-60301148D01*
X71508842Y-60292207D01*
X71545245Y-60286807D01*
X71582001Y-60285001D01*
X72332001Y-60285001D01*
X72368757Y-60286807D01*
X72368757Y-60286807D01*
G37*
D13*
X71957001Y-61035001D03*
D14*
X74497001Y-61035001D03*
D12*
G36*
X82528757Y-67746807D02*
G01*
X82565160Y-67752207D01*
X82600858Y-67761148D01*
X82635507Y-67773546D01*
X82668775Y-67789281D01*
X82700340Y-67808200D01*
X82729898Y-67830122D01*
X82757166Y-67854836D01*
X82781880Y-67882104D01*
X82803802Y-67911662D01*
X82822721Y-67943227D01*
X82838456Y-67976495D01*
X82850854Y-68011144D01*
X82859795Y-68046842D01*
X82865195Y-68083245D01*
X82867001Y-68120001D01*
X82867001Y-68870001D01*
X82865195Y-68906757D01*
X82859795Y-68943160D01*
X82850854Y-68978858D01*
X82838456Y-69013507D01*
X82822721Y-69046775D01*
X82803802Y-69078340D01*
X82781880Y-69107898D01*
X82757166Y-69135166D01*
X82729898Y-69159880D01*
X82700340Y-69181802D01*
X82668775Y-69200721D01*
X82635507Y-69216456D01*
X82600858Y-69228854D01*
X82565160Y-69237795D01*
X82528757Y-69243195D01*
X82492001Y-69245001D01*
X81742001Y-69245001D01*
X81705245Y-69243195D01*
X81668842Y-69237795D01*
X81633144Y-69228854D01*
X81598495Y-69216456D01*
X81565227Y-69200721D01*
X81533662Y-69181802D01*
X81504104Y-69159880D01*
X81476836Y-69135166D01*
X81452122Y-69107898D01*
X81430200Y-69078340D01*
X81411281Y-69046775D01*
X81395546Y-69013507D01*
X81383148Y-68978858D01*
X81374207Y-68943160D01*
X81368807Y-68906757D01*
X81367001Y-68870001D01*
X81367001Y-68120001D01*
X81368807Y-68083245D01*
X81374207Y-68046842D01*
X81383148Y-68011144D01*
X81395546Y-67976495D01*
X81411281Y-67943227D01*
X81430200Y-67911662D01*
X81452122Y-67882104D01*
X81476836Y-67854836D01*
X81504104Y-67830122D01*
X81533662Y-67808200D01*
X81565227Y-67789281D01*
X81598495Y-67773546D01*
X81633144Y-67761148D01*
X81668842Y-67752207D01*
X81705245Y-67746807D01*
X81742001Y-67745001D01*
X82492001Y-67745001D01*
X82528757Y-67746807D01*
X82528757Y-67746807D01*
G37*
D13*
X82117001Y-68495001D03*
D14*
X84657001Y-68495001D03*
D12*
G36*
X82528757Y-60286807D02*
G01*
X82565160Y-60292207D01*
X82600858Y-60301148D01*
X82635507Y-60313546D01*
X82668775Y-60329281D01*
X82700340Y-60348200D01*
X82729898Y-60370122D01*
X82757166Y-60394836D01*
X82781880Y-60422104D01*
X82803802Y-60451662D01*
X82822721Y-60483227D01*
X82838456Y-60516495D01*
X82850854Y-60551144D01*
X82859795Y-60586842D01*
X82865195Y-60623245D01*
X82867001Y-60660001D01*
X82867001Y-61410001D01*
X82865195Y-61446757D01*
X82859795Y-61483160D01*
X82850854Y-61518858D01*
X82838456Y-61553507D01*
X82822721Y-61586775D01*
X82803802Y-61618340D01*
X82781880Y-61647898D01*
X82757166Y-61675166D01*
X82729898Y-61699880D01*
X82700340Y-61721802D01*
X82668775Y-61740721D01*
X82635507Y-61756456D01*
X82600858Y-61768854D01*
X82565160Y-61777795D01*
X82528757Y-61783195D01*
X82492001Y-61785001D01*
X81742001Y-61785001D01*
X81705245Y-61783195D01*
X81668842Y-61777795D01*
X81633144Y-61768854D01*
X81598495Y-61756456D01*
X81565227Y-61740721D01*
X81533662Y-61721802D01*
X81504104Y-61699880D01*
X81476836Y-61675166D01*
X81452122Y-61647898D01*
X81430200Y-61618340D01*
X81411281Y-61586775D01*
X81395546Y-61553507D01*
X81383148Y-61518858D01*
X81374207Y-61483160D01*
X81368807Y-61446757D01*
X81367001Y-61410001D01*
X81367001Y-60660001D01*
X81368807Y-60623245D01*
X81374207Y-60586842D01*
X81383148Y-60551144D01*
X81395546Y-60516495D01*
X81411281Y-60483227D01*
X81430200Y-60451662D01*
X81452122Y-60422104D01*
X81476836Y-60394836D01*
X81504104Y-60370122D01*
X81533662Y-60348200D01*
X81565227Y-60329281D01*
X81598495Y-60313546D01*
X81633144Y-60301148D01*
X81668842Y-60292207D01*
X81705245Y-60286807D01*
X81742001Y-60285001D01*
X82492001Y-60285001D01*
X82528757Y-60286807D01*
X82528757Y-60286807D01*
G37*
D13*
X82117001Y-61035001D03*
D14*
X84657001Y-61035001D03*
D15*
X101387001Y-61965001D03*
X34787001Y-67565001D03*
D16*
X62587001Y-64265001D03*
D17*
X100247001Y-68265001D03*
X90087001Y-68265001D03*
X79927001Y-68265001D03*
X69767001Y-68265001D03*
X59607001Y-68265001D03*
X49447001Y-68265001D03*
X97047001Y-61265001D03*
X86887001Y-61265001D03*
X76727001Y-61265001D03*
X66567001Y-61265001D03*
X56407001Y-61265001D03*
X46247001Y-61265001D03*
X39287001Y-68265001D03*
X36087001Y-61265001D03*
D18*
X63324273Y-63467617D03*
X58639688Y-63265023D03*
X57766268Y-63377863D03*
X69186082Y-65739953D03*
X59537001Y-61015001D03*
X70248138Y-65671621D03*
X60637001Y-61065001D03*
X93987001Y-62165001D03*
X38187001Y-60964997D03*
X63087001Y-65065001D03*
X39487001Y-61365001D03*
X39487001Y-61365001D03*
X68587001Y-62314968D03*
X41687003Y-62715001D03*
X48287001Y-61665001D03*
X46487001Y-67865001D03*
X62563278Y-67164999D03*
X67094469Y-63190023D03*
X49637001Y-62005001D03*
X54187001Y-62265001D03*
X62417898Y-65514957D03*
X53987001Y-67665001D03*
X57986997Y-65840022D03*
X69187001Y-64089915D03*
X69737001Y-61170019D03*
X77287001Y-67614999D03*
X57137001Y-68465001D03*
X73298768Y-62653944D03*
X67186997Y-64565001D03*
X80037001Y-61465001D03*
X57687001Y-67365001D03*
X87087001Y-68065001D03*
X79211263Y-61465001D03*
X67191765Y-65948462D03*
X89892001Y-62070001D03*
X93287001Y-67039991D03*
X58780338Y-66338858D03*
X89007001Y-62155001D03*
X68087001Y-66365003D03*
X92037003Y-61165001D03*
X58741960Y-65288847D03*
X97487001Y-67665001D03*
X58537006Y-61865006D03*
X58471963Y-60966455D03*
X50787001Y-61390011D03*
X62937007Y-61315001D03*
X62237001Y-63415059D03*
D19*
X90337001Y-66465001D02*
X86687001Y-66465001D01*
X86687001Y-66465001D02*
X84687001Y-68465001D01*
X92537014Y-68665014D02*
X90337001Y-66465001D01*
X97935757Y-68665013D02*
X92537014Y-68665014D01*
X86787001Y-63165001D02*
X91550999Y-63165001D01*
X84657001Y-61035001D02*
X86787001Y-63165001D01*
X98487013Y-68113757D02*
X97935757Y-68665013D01*
X91550999Y-63165001D02*
X93450999Y-61265001D01*
X93450999Y-61265001D02*
X94487001Y-61265001D01*
X94487001Y-61265001D02*
X98487013Y-65265013D01*
X98487013Y-65265013D02*
X98487013Y-68113757D01*
D20*
X71957001Y-68495001D02*
X69201953Y-65739953D01*
X69201953Y-65739953D02*
X69186082Y-65739953D01*
X70248138Y-65676138D02*
X70248138Y-65671621D01*
X71537001Y-66965001D02*
X70248138Y-65676138D01*
X74497001Y-68495001D02*
X72967001Y-66965001D01*
X72967001Y-66965001D02*
X71537001Y-66965001D01*
X98012002Y-66190002D02*
X94287000Y-62465000D01*
X94287000Y-62465000D02*
X93987001Y-62165001D01*
X98012002Y-67917002D02*
X98012002Y-66190002D01*
X68934080Y-65214951D02*
X69962632Y-65214951D01*
X70262639Y-64914944D02*
X90237058Y-64914944D01*
X69962632Y-65214951D02*
X70262639Y-64914944D01*
X68661072Y-65487959D02*
X68934080Y-65214951D01*
X93512116Y-68190002D02*
X97739002Y-68190002D01*
X68661072Y-67190930D02*
X68661072Y-65487959D01*
X90237058Y-64914944D02*
X93512116Y-68190002D01*
X67087001Y-68765001D02*
X68661072Y-67190930D01*
X97739002Y-68190002D02*
X98012002Y-67917002D01*
X59772618Y-64913710D02*
X59322743Y-64463835D01*
X59322743Y-64463835D02*
X58365691Y-64463835D01*
X42962024Y-64840024D02*
X39787000Y-61665000D01*
X62935710Y-64913710D02*
X59772618Y-64913710D01*
X57989502Y-64840024D02*
X42962024Y-64840024D01*
X58365691Y-64463835D02*
X57989502Y-64840024D01*
X39787000Y-61665000D02*
X39487001Y-61365001D01*
X63087001Y-65065001D02*
X62935710Y-64913710D01*
X68587001Y-62314968D02*
X68587001Y-62739232D01*
X60686578Y-64163824D02*
X58241423Y-64163824D01*
X58241423Y-64163824D02*
X57865234Y-64540013D01*
X68587001Y-62739232D02*
X67611209Y-63715024D01*
X43512015Y-64540013D02*
X41987002Y-63015000D01*
X67611209Y-63715024D02*
X65912746Y-63715024D01*
X65912746Y-63715024D02*
X65081447Y-62883725D01*
X61966677Y-62883725D02*
X60686578Y-64163824D01*
X65081447Y-62883725D02*
X61966677Y-62883725D01*
X41987002Y-63015000D02*
X41687003Y-62715001D01*
X57865234Y-64540013D02*
X43512015Y-64540013D01*
X61989016Y-67015001D02*
X62139014Y-67164999D01*
X58487001Y-67015001D02*
X61989016Y-67015001D01*
X58012000Y-66540000D02*
X58487001Y-67015001D01*
X47887001Y-66465001D02*
X50587001Y-66465001D01*
X46487001Y-67865001D02*
X47887001Y-66465001D01*
X50587001Y-66465001D02*
X52787001Y-68665001D01*
X52787001Y-68665001D02*
X55165309Y-68665001D01*
X55165309Y-68665001D02*
X57290310Y-66540000D01*
X62139014Y-67164999D02*
X62563278Y-67164999D01*
X57290310Y-66540000D02*
X58012000Y-66540000D01*
X62060732Y-62339989D02*
X60536908Y-63863813D01*
X60536908Y-63863813D02*
X58117155Y-63863813D01*
X67094469Y-63190023D02*
X66244435Y-62339989D01*
X66244435Y-62339989D02*
X62060732Y-62339989D01*
X51872002Y-64240002D02*
X49937000Y-62305000D01*
X49937000Y-62305000D02*
X49637001Y-62005001D01*
X58117155Y-63863813D02*
X57740966Y-64240002D01*
X57740966Y-64240002D02*
X51872002Y-64240002D01*
X62417898Y-65514957D02*
X59745072Y-65514957D01*
X58993961Y-64763846D02*
X58489959Y-64763846D01*
X58113770Y-65140035D02*
X56511967Y-65140035D01*
X54287000Y-67365002D02*
X53987001Y-67665001D01*
X58489959Y-64763846D02*
X58113770Y-65140035D01*
X56511967Y-65140035D02*
X54287000Y-67365002D01*
X59745072Y-65514957D02*
X58993961Y-64763846D01*
X67486996Y-64265002D02*
X67186997Y-64565001D01*
X68736997Y-63015001D02*
X67486996Y-64265002D01*
X71937001Y-63015001D02*
X68736997Y-63015001D01*
X72287001Y-62665001D02*
X71937001Y-63015001D01*
X73298768Y-62653944D02*
X73287711Y-62665001D01*
X73287711Y-62665001D02*
X72287001Y-62665001D01*
X69838360Y-64914944D02*
X68802660Y-64914944D01*
X90861943Y-64614933D02*
X70138371Y-64614933D01*
X65036967Y-65415035D02*
X63813145Y-66638857D01*
X59080337Y-66638857D02*
X58780338Y-66338858D01*
X93287001Y-67039991D02*
X90861943Y-64614933D01*
X63813145Y-66638857D02*
X59080337Y-66638857D01*
X68802660Y-64914944D02*
X68302569Y-65415035D01*
X68302569Y-65415035D02*
X65036967Y-65415035D01*
X70138371Y-64614933D02*
X69838360Y-64914944D01*
X91736922Y-64314922D02*
X95087001Y-67665001D01*
X69986623Y-64314922D02*
X91736922Y-64314922D01*
X69686613Y-64614932D02*
X69986623Y-64314922D01*
X59568114Y-66115001D02*
X63912722Y-66115001D01*
X95087001Y-67665001D02*
X97487001Y-67665001D01*
X58741960Y-65288847D02*
X59568114Y-66115001D01*
X63912722Y-66115001D02*
X64912699Y-65115024D01*
X64912699Y-65115024D02*
X68061256Y-65115024D01*
X68061256Y-65115024D02*
X68561348Y-64614932D01*
X68561348Y-64614932D02*
X69686613Y-64614932D01*
X41477001Y-61035001D02*
X43407012Y-62965012D01*
X47762000Y-61413000D02*
X48309999Y-60865001D01*
X58077000Y-61865006D02*
X58112742Y-61865006D01*
X47762000Y-61914281D02*
X47762000Y-61413000D01*
X48309999Y-60865001D02*
X53772722Y-60865001D01*
X55652733Y-62745012D02*
X57196994Y-62745012D01*
X53772722Y-60865001D02*
X55652733Y-62745012D01*
X57196994Y-62745012D02*
X58077000Y-61865006D01*
X58112742Y-61865006D02*
X58537006Y-61865006D01*
X46711269Y-62965012D02*
X47762000Y-61914281D01*
X43407012Y-62965012D02*
X46711269Y-62965012D01*
X58047699Y-60966455D02*
X58471963Y-60966455D01*
X57837001Y-61177153D02*
X58047699Y-60966455D01*
X57837001Y-61525001D02*
X57837001Y-61177153D01*
X55777001Y-62445001D02*
X56917001Y-62445001D01*
X53896990Y-60564990D02*
X55777001Y-62445001D01*
X56917001Y-62445001D02*
X57837001Y-61525001D01*
X45647001Y-62665001D02*
X46587001Y-62665001D01*
X44017001Y-61035001D02*
X45647001Y-62665001D01*
X46587001Y-62665001D02*
X47461989Y-61790013D01*
X47461989Y-61790013D02*
X47461989Y-61288732D01*
X47461989Y-61288732D02*
X48185731Y-60564990D01*
X48185731Y-60564990D02*
X53896990Y-60564990D01*
X62512743Y-61315001D02*
X62937007Y-61315001D01*
X57322106Y-63045023D02*
X57927127Y-62440002D01*
X57927127Y-62440002D02*
X61387742Y-62440002D01*
X50787001Y-61390011D02*
X52442013Y-63045023D01*
X61387742Y-62440002D02*
X62512743Y-61315001D01*
X52442013Y-63045023D02*
X57322106Y-63045023D01*
D21*
G36*
X35337982Y-60352319D02*
G01*
X35174319Y-60515982D01*
X35045730Y-60708430D01*
X34957156Y-60922266D01*
X34912001Y-61149274D01*
X34912001Y-61380728D01*
X34957156Y-61607736D01*
X35045730Y-61821572D01*
X35174319Y-62014020D01*
X35337982Y-62177683D01*
X35530430Y-62306272D01*
X35744266Y-62394846D01*
X35971274Y-62440001D01*
X36202728Y-62440001D01*
X36429736Y-62394846D01*
X36643572Y-62306272D01*
X36836020Y-62177683D01*
X36999683Y-62014020D01*
X37128272Y-61821572D01*
X37216846Y-61607736D01*
X37262001Y-61380728D01*
X37262001Y-61149274D01*
X37216846Y-60922266D01*
X37210068Y-60905902D01*
X37587001Y-60905902D01*
X37587001Y-61024092D01*
X37610059Y-61140011D01*
X37655288Y-61249204D01*
X37720951Y-61347475D01*
X37804523Y-61431047D01*
X37902794Y-61496710D01*
X38011987Y-61541939D01*
X38127906Y-61564997D01*
X38246096Y-61564997D01*
X38362015Y-61541939D01*
X38471208Y-61496710D01*
X38569479Y-61431047D01*
X38653051Y-61347475D01*
X38718714Y-61249204D01*
X38763943Y-61140011D01*
X38787001Y-61024092D01*
X38787001Y-60905902D01*
X38763943Y-60789983D01*
X38718714Y-60680790D01*
X38653051Y-60582519D01*
X38569479Y-60498947D01*
X38471208Y-60433284D01*
X38362015Y-60388055D01*
X38246096Y-60364997D01*
X38127906Y-60364997D01*
X38011987Y-60388055D01*
X37902794Y-60433284D01*
X37804523Y-60498947D01*
X37720951Y-60582519D01*
X37655288Y-60680790D01*
X37610059Y-60789983D01*
X37587001Y-60905902D01*
X37210068Y-60905902D01*
X37128272Y-60708430D01*
X36999683Y-60515982D01*
X36836020Y-60352319D01*
X36705339Y-60265001D01*
X40555297Y-60265001D01*
X40539553Y-60284185D01*
X40477042Y-60401134D01*
X40438548Y-60528032D01*
X40425550Y-60660001D01*
X40425550Y-61410001D01*
X40438548Y-61541970D01*
X40477042Y-61668868D01*
X40539553Y-61785817D01*
X40623678Y-61888324D01*
X40726185Y-61972449D01*
X40843134Y-62034960D01*
X40970032Y-62073454D01*
X41102001Y-62086452D01*
X41852001Y-62086452D01*
X41983970Y-62073454D01*
X41984856Y-62073185D01*
X43128821Y-63217151D01*
X43140564Y-63231460D01*
X43154871Y-63243201D01*
X43197665Y-63278322D01*
X43242119Y-63302082D01*
X43262812Y-63313143D01*
X43333499Y-63334586D01*
X43388593Y-63340012D01*
X43388596Y-63340012D01*
X43407012Y-63341826D01*
X43425428Y-63340012D01*
X46692853Y-63340012D01*
X46711269Y-63341826D01*
X46729685Y-63340012D01*
X46729688Y-63340012D01*
X46784782Y-63334586D01*
X46855469Y-63313143D01*
X46920616Y-63278321D01*
X46977717Y-63231460D01*
X46989464Y-63217146D01*
X48007817Y-62198794D01*
X48111987Y-62241943D01*
X48227906Y-62265001D01*
X48346096Y-62265001D01*
X48462015Y-62241943D01*
X48571208Y-62196714D01*
X48669479Y-62131051D01*
X48753051Y-62047479D01*
X48818714Y-61949208D01*
X48863943Y-61840015D01*
X48887001Y-61724096D01*
X48887001Y-61605906D01*
X48863943Y-61489987D01*
X48818714Y-61380794D01*
X48753051Y-61282523D01*
X48710529Y-61240001D01*
X50205085Y-61240001D01*
X50187001Y-61330916D01*
X50187001Y-61449106D01*
X50210059Y-61565025D01*
X50255288Y-61674218D01*
X50320951Y-61772489D01*
X50404523Y-61856061D01*
X50502794Y-61921724D01*
X50611987Y-61966953D01*
X50727906Y-61990011D01*
X50846096Y-61990011D01*
X50854917Y-61988256D01*
X52163822Y-63297162D01*
X52175565Y-63311471D01*
X52189872Y-63323212D01*
X52232665Y-63358332D01*
X52248682Y-63366893D01*
X52297813Y-63393154D01*
X52368500Y-63414597D01*
X52423594Y-63420023D01*
X52423596Y-63420023D01*
X52442012Y-63421837D01*
X52460428Y-63420023D01*
X57166268Y-63420023D01*
X57166268Y-63436958D01*
X57189326Y-63552877D01*
X57234555Y-63662070D01*
X57300218Y-63760341D01*
X57383790Y-63843913D01*
X57415352Y-63865002D01*
X52027332Y-63865002D01*
X50235246Y-62072917D01*
X50237001Y-62064096D01*
X50237001Y-61945906D01*
X50213943Y-61829987D01*
X50168714Y-61720794D01*
X50103051Y-61622523D01*
X50019479Y-61538951D01*
X49921208Y-61473288D01*
X49812015Y-61428059D01*
X49696096Y-61405001D01*
X49577906Y-61405001D01*
X49461987Y-61428059D01*
X49352794Y-61473288D01*
X49254523Y-61538951D01*
X49170951Y-61622523D01*
X49105288Y-61720794D01*
X49060059Y-61829987D01*
X49037001Y-61945906D01*
X49037001Y-62064096D01*
X49060059Y-62180015D01*
X49105288Y-62289208D01*
X49170951Y-62387479D01*
X49254523Y-62471051D01*
X49352794Y-62536714D01*
X49461987Y-62581943D01*
X49577906Y-62605001D01*
X49696096Y-62605001D01*
X49704917Y-62603246D01*
X51266683Y-64165013D01*
X43667345Y-64165013D01*
X42285248Y-62782917D01*
X42287003Y-62774096D01*
X42287003Y-62655906D01*
X42263945Y-62539987D01*
X42218716Y-62430794D01*
X42153053Y-62332523D01*
X42069481Y-62248951D01*
X41971210Y-62183288D01*
X41862017Y-62138059D01*
X41746098Y-62115001D01*
X41627908Y-62115001D01*
X41511989Y-62138059D01*
X41402796Y-62183288D01*
X41304525Y-62248951D01*
X41220953Y-62332523D01*
X41155290Y-62430794D01*
X41134153Y-62481824D01*
X40085246Y-61432917D01*
X40087001Y-61424096D01*
X40087001Y-61305906D01*
X40063943Y-61189987D01*
X40018714Y-61080794D01*
X39953051Y-60982523D01*
X39869479Y-60898951D01*
X39771208Y-60833288D01*
X39662015Y-60788059D01*
X39546096Y-60765001D01*
X39427906Y-60765001D01*
X39311987Y-60788059D01*
X39202794Y-60833288D01*
X39104523Y-60898951D01*
X39020951Y-60982523D01*
X38955288Y-61080794D01*
X38910059Y-61189987D01*
X38887001Y-61305906D01*
X38887001Y-61424096D01*
X38910059Y-61540015D01*
X38955288Y-61649208D01*
X39020951Y-61747479D01*
X39104523Y-61831051D01*
X39202794Y-61896714D01*
X39311987Y-61941943D01*
X39427906Y-61965001D01*
X39546096Y-61965001D01*
X39554917Y-61963246D01*
X42683833Y-65092163D01*
X42695576Y-65106472D01*
X42752677Y-65153333D01*
X42817824Y-65188155D01*
X42888511Y-65209598D01*
X42943605Y-65215024D01*
X42943607Y-65215024D01*
X42962023Y-65216838D01*
X42980439Y-65215024D01*
X55906648Y-65215024D01*
X54054917Y-67066756D01*
X54046096Y-67065001D01*
X53927906Y-67065001D01*
X53811987Y-67088059D01*
X53702794Y-67133288D01*
X53604523Y-67198951D01*
X53520951Y-67282523D01*
X53455288Y-67380794D01*
X53410059Y-67489987D01*
X53387001Y-67605906D01*
X53387001Y-67724096D01*
X53410059Y-67840015D01*
X53455288Y-67949208D01*
X53520951Y-68047479D01*
X53604523Y-68131051D01*
X53702794Y-68196714D01*
X53811987Y-68241943D01*
X53927906Y-68265001D01*
X54046096Y-68265001D01*
X54162015Y-68241943D01*
X54271208Y-68196714D01*
X54369479Y-68131051D01*
X54453051Y-68047479D01*
X54518714Y-67949208D01*
X54563943Y-67840015D01*
X54587001Y-67724096D01*
X54587001Y-67605906D01*
X54585246Y-67597085D01*
X56667297Y-65515035D01*
X57482532Y-65515035D01*
X57455284Y-65555815D01*
X57410055Y-65665008D01*
X57386997Y-65780927D01*
X57386997Y-65899117D01*
X57410055Y-66015036D01*
X57455284Y-66124229D01*
X57482526Y-66165000D01*
X57308725Y-66165000D01*
X57290309Y-66163186D01*
X57271893Y-66165000D01*
X57271891Y-66165000D01*
X57216797Y-66170426D01*
X57146110Y-66191869D01*
X57146108Y-66191870D01*
X57080963Y-66226691D01*
X57038168Y-66261811D01*
X57038165Y-66261814D01*
X57023862Y-66273552D01*
X57012124Y-66287855D01*
X55009980Y-68290001D01*
X52942331Y-68290001D01*
X50865196Y-66212867D01*
X50853449Y-66198553D01*
X50796348Y-66151692D01*
X50731201Y-66116870D01*
X50660514Y-66095427D01*
X50605420Y-66090001D01*
X50605417Y-66090001D01*
X50587001Y-66088187D01*
X50568585Y-66090001D01*
X47905417Y-66090001D01*
X47887001Y-66088187D01*
X47868585Y-66090001D01*
X47868582Y-66090001D01*
X47813488Y-66095427D01*
X47742801Y-66116870D01*
X47677654Y-66151692D01*
X47620553Y-66198553D01*
X47608810Y-66212862D01*
X46554917Y-67266756D01*
X46546096Y-67265001D01*
X46427906Y-67265001D01*
X46311987Y-67288059D01*
X46202794Y-67333288D01*
X46104523Y-67398951D01*
X46020951Y-67482523D01*
X45955288Y-67580794D01*
X45910059Y-67689987D01*
X45887001Y-67805906D01*
X45887001Y-67924096D01*
X45910059Y-68040015D01*
X45955288Y-68149208D01*
X46020951Y-68247479D01*
X46104523Y-68331051D01*
X46202794Y-68396714D01*
X46311987Y-68441943D01*
X46427906Y-68465001D01*
X46546096Y-68465001D01*
X46662015Y-68441943D01*
X46771208Y-68396714D01*
X46869479Y-68331051D01*
X46931878Y-68268652D01*
X48266321Y-68268652D01*
X48289720Y-68498920D01*
X48357593Y-68720200D01*
X48463274Y-68917917D01*
X48630608Y-69010683D01*
X49376290Y-68265001D01*
X49517712Y-68265001D01*
X50263394Y-69010683D01*
X50430728Y-68917917D01*
X50539204Y-68713455D01*
X50605706Y-68491760D01*
X50627681Y-68261350D01*
X50604282Y-68031082D01*
X50536409Y-67809802D01*
X50430728Y-67612085D01*
X50263394Y-67519319D01*
X49517712Y-68265001D01*
X49376290Y-68265001D01*
X48630608Y-67519319D01*
X48463274Y-67612085D01*
X48354798Y-67816547D01*
X48288296Y-68038242D01*
X48266321Y-68268652D01*
X46931878Y-68268652D01*
X46953051Y-68247479D01*
X47018714Y-68149208D01*
X47063943Y-68040015D01*
X47087001Y-67924096D01*
X47087001Y-67805906D01*
X47085246Y-67797085D01*
X47433723Y-67448608D01*
X48701319Y-67448608D01*
X49447001Y-68194290D01*
X50192683Y-67448608D01*
X50099917Y-67281274D01*
X49895455Y-67172798D01*
X49673760Y-67106296D01*
X49443350Y-67084321D01*
X49213082Y-67107720D01*
X48991802Y-67175593D01*
X48794085Y-67281274D01*
X48701319Y-67448608D01*
X47433723Y-67448608D01*
X48042331Y-66840001D01*
X50431672Y-66840001D01*
X52508810Y-68917140D01*
X52520553Y-68931449D01*
X52577654Y-68978310D01*
X52642801Y-69013132D01*
X52713488Y-69034575D01*
X52768582Y-69040001D01*
X52768585Y-69040001D01*
X52787001Y-69041815D01*
X52805417Y-69040001D01*
X55146893Y-69040001D01*
X55165309Y-69041815D01*
X55183725Y-69040001D01*
X55183728Y-69040001D01*
X55238822Y-69034575D01*
X55309509Y-69013132D01*
X55374656Y-68978310D01*
X55431757Y-68931449D01*
X55443504Y-68917135D01*
X55954733Y-68405906D01*
X56537001Y-68405906D01*
X56537001Y-68524096D01*
X56560059Y-68640015D01*
X56605288Y-68749208D01*
X56670951Y-68847479D01*
X56754523Y-68931051D01*
X56852794Y-68996714D01*
X56961987Y-69041943D01*
X57077906Y-69065001D01*
X57196096Y-69065001D01*
X57312015Y-69041943D01*
X57421208Y-68996714D01*
X57519479Y-68931051D01*
X57603051Y-68847479D01*
X57668714Y-68749208D01*
X57713943Y-68640015D01*
X57737001Y-68524096D01*
X57737001Y-68405906D01*
X57713943Y-68289987D01*
X57705106Y-68268652D01*
X58426321Y-68268652D01*
X58449720Y-68498920D01*
X58517593Y-68720200D01*
X58623274Y-68917917D01*
X58790608Y-69010683D01*
X59536290Y-68265001D01*
X59677712Y-68265001D01*
X60423394Y-69010683D01*
X60590728Y-68917917D01*
X60699204Y-68713455D01*
X60765706Y-68491760D01*
X60787681Y-68261350D01*
X60764282Y-68031082D01*
X60696409Y-67809802D01*
X60590728Y-67612085D01*
X60423394Y-67519319D01*
X59677712Y-68265001D01*
X59536290Y-68265001D01*
X58790608Y-67519319D01*
X58623274Y-67612085D01*
X58514798Y-67816547D01*
X58448296Y-68038242D01*
X58426321Y-68268652D01*
X57705106Y-68268652D01*
X57668714Y-68180794D01*
X57603051Y-68082523D01*
X57519479Y-67998951D01*
X57421208Y-67933288D01*
X57312015Y-67888059D01*
X57196096Y-67865001D01*
X57077906Y-67865001D01*
X56961987Y-67888059D01*
X56852794Y-67933288D01*
X56754523Y-67998951D01*
X56670951Y-68082523D01*
X56605288Y-68180794D01*
X56560059Y-68289987D01*
X56537001Y-68405906D01*
X55954733Y-68405906D01*
X57095013Y-67265628D01*
X57087001Y-67305906D01*
X57087001Y-67424096D01*
X57110059Y-67540015D01*
X57155288Y-67649208D01*
X57220951Y-67747479D01*
X57304523Y-67831051D01*
X57402794Y-67896714D01*
X57511987Y-67941943D01*
X57627906Y-67965001D01*
X57746096Y-67965001D01*
X57862015Y-67941943D01*
X57971208Y-67896714D01*
X58069479Y-67831051D01*
X58153051Y-67747479D01*
X58218714Y-67649208D01*
X58263943Y-67540015D01*
X58287001Y-67424096D01*
X58287001Y-67333306D01*
X58342801Y-67363132D01*
X58413488Y-67384575D01*
X58468582Y-67390001D01*
X58468585Y-67390001D01*
X58487001Y-67391815D01*
X58505417Y-67390001D01*
X58893809Y-67390001D01*
X58861319Y-67448608D01*
X59607001Y-68194290D01*
X60352683Y-67448608D01*
X60320193Y-67390001D01*
X61833687Y-67390001D01*
X61860819Y-67417133D01*
X61872566Y-67431447D01*
X61929667Y-67478308D01*
X61994814Y-67513130D01*
X62065501Y-67534573D01*
X62090233Y-67537009D01*
X62097228Y-67547477D01*
X62180800Y-67631049D01*
X62279071Y-67696712D01*
X62388264Y-67741941D01*
X62504183Y-67764999D01*
X62622373Y-67764999D01*
X62738292Y-67741941D01*
X62847485Y-67696712D01*
X62945756Y-67631049D01*
X63029328Y-67547477D01*
X63094991Y-67449206D01*
X63140220Y-67340013D01*
X63163278Y-67224094D01*
X63163278Y-67105904D01*
X63144968Y-67013857D01*
X63794729Y-67013857D01*
X63813145Y-67015671D01*
X63831561Y-67013857D01*
X63831564Y-67013857D01*
X63886658Y-67008431D01*
X63957345Y-66986988D01*
X64022492Y-66952166D01*
X64079593Y-66905305D01*
X64091340Y-66890991D01*
X65192297Y-65790035D01*
X66611524Y-65790035D01*
X66591765Y-65889367D01*
X66591765Y-66007557D01*
X66614823Y-66123476D01*
X66660052Y-66232669D01*
X66725715Y-66330940D01*
X66809287Y-66414512D01*
X66907558Y-66480175D01*
X67016751Y-66525404D01*
X67132670Y-66548462D01*
X67250860Y-66548462D01*
X67366779Y-66525404D01*
X67475972Y-66480175D01*
X67495553Y-66467091D01*
X67510059Y-66540017D01*
X67555288Y-66649210D01*
X67620951Y-66747481D01*
X67704523Y-66831053D01*
X67802794Y-66896716D01*
X67911987Y-66941945D01*
X68027906Y-66965003D01*
X68146096Y-66965003D01*
X68262015Y-66941945D01*
X68286072Y-66931980D01*
X68286072Y-67035600D01*
X67340146Y-67981527D01*
X67323828Y-67976577D01*
X67206294Y-67965001D01*
X67127708Y-67965001D01*
X67010174Y-67976577D01*
X66859373Y-68022322D01*
X66720395Y-68096608D01*
X66598579Y-68196579D01*
X66532001Y-68277705D01*
X66465423Y-68196579D01*
X66343607Y-68096608D01*
X66204629Y-68022322D01*
X66053828Y-67976577D01*
X65936294Y-67965001D01*
X65857708Y-67965001D01*
X65740174Y-67976577D01*
X65589373Y-68022322D01*
X65450395Y-68096608D01*
X65328579Y-68196579D01*
X65260054Y-68280078D01*
X65179373Y-68186304D01*
X65055861Y-68089661D01*
X64915868Y-68018971D01*
X64801288Y-67984217D01*
X64677001Y-68041727D01*
X64677001Y-68715001D01*
X64697001Y-68715001D01*
X64697001Y-68815001D01*
X64677001Y-68815001D01*
X64677001Y-68835001D01*
X64577001Y-68835001D01*
X64577001Y-68815001D01*
X64557001Y-68815001D01*
X64557001Y-68715001D01*
X64577001Y-68715001D01*
X64577001Y-68041727D01*
X64452714Y-67984217D01*
X64338134Y-68018971D01*
X64198141Y-68089661D01*
X64074629Y-68186304D01*
X63993948Y-68280078D01*
X63925423Y-68196579D01*
X63803607Y-68096608D01*
X63664629Y-68022322D01*
X63513828Y-67976577D01*
X63396294Y-67965001D01*
X63317708Y-67965001D01*
X63200174Y-67976577D01*
X63049373Y-68022322D01*
X62910395Y-68096608D01*
X62859489Y-68138385D01*
X62837648Y-68097524D01*
X62800159Y-68051843D01*
X62754478Y-68014354D01*
X62702361Y-67986497D01*
X62645811Y-67969342D01*
X62587001Y-67963550D01*
X61587001Y-67963550D01*
X61528191Y-67969342D01*
X61471641Y-67986497D01*
X61419524Y-68014354D01*
X61373843Y-68051843D01*
X61336354Y-68097524D01*
X61308497Y-68149641D01*
X61291342Y-68206191D01*
X61285550Y-68265001D01*
X61285550Y-69265001D01*
X60229472Y-69265001D01*
X60259917Y-69248728D01*
X60352683Y-69081394D01*
X59607001Y-68335712D01*
X58861319Y-69081394D01*
X58954085Y-69248728D01*
X58984757Y-69265001D01*
X50069472Y-69265001D01*
X50099917Y-69248728D01*
X50192683Y-69081394D01*
X49447001Y-68335712D01*
X48701319Y-69081394D01*
X48794085Y-69248728D01*
X48824757Y-69265001D01*
X44733877Y-69265001D01*
X44763055Y-69241055D01*
X44894268Y-69081172D01*
X44991768Y-68898763D01*
X45051808Y-68700837D01*
X45072081Y-68495001D01*
X45051808Y-68289165D01*
X44991768Y-68091239D01*
X44894268Y-67908830D01*
X44763055Y-67748947D01*
X44603172Y-67617734D01*
X44420763Y-67520234D01*
X44222837Y-67460194D01*
X44068579Y-67445001D01*
X43965423Y-67445001D01*
X43811165Y-67460194D01*
X43613239Y-67520234D01*
X43430830Y-67617734D01*
X43270947Y-67748947D01*
X43139734Y-67908830D01*
X43042234Y-68091239D01*
X42982194Y-68289165D01*
X42961921Y-68495001D01*
X42982194Y-68700837D01*
X43042234Y-68898763D01*
X43139734Y-69081172D01*
X43270947Y-69241055D01*
X43300125Y-69265001D01*
X42398705Y-69265001D01*
X42414449Y-69245817D01*
X42476960Y-69128868D01*
X42515454Y-69001970D01*
X42528452Y-68870001D01*
X42528452Y-68120001D01*
X42515454Y-67988032D01*
X42476960Y-67861134D01*
X42414449Y-67744185D01*
X42330324Y-67641678D01*
X42227817Y-67557553D01*
X42110868Y-67495042D01*
X41983970Y-67456548D01*
X41852001Y-67443550D01*
X41102001Y-67443550D01*
X40970032Y-67456548D01*
X40843134Y-67495042D01*
X40726185Y-67557553D01*
X40623678Y-67641678D01*
X40539553Y-67744185D01*
X40477042Y-67861134D01*
X40438548Y-67988032D01*
X40436732Y-68006468D01*
X40376409Y-67809802D01*
X40270728Y-67612085D01*
X40103394Y-67519319D01*
X39357712Y-68265001D01*
X40103394Y-69010683D01*
X40270728Y-68917917D01*
X40379204Y-68713455D01*
X40425550Y-68558953D01*
X40425550Y-68870001D01*
X40438548Y-69001970D01*
X40477042Y-69128868D01*
X40539553Y-69245817D01*
X40555297Y-69265001D01*
X39909472Y-69265001D01*
X39939917Y-69248728D01*
X40032683Y-69081394D01*
X39287001Y-68335712D01*
X38541319Y-69081394D01*
X38634085Y-69248728D01*
X38664757Y-69265001D01*
X35744821Y-69265001D01*
X35853102Y-69209024D01*
X35897902Y-69179090D01*
X36083674Y-68932384D01*
X34787001Y-67635712D01*
X33490328Y-68932384D01*
X33676100Y-69179090D01*
X33831645Y-69265001D01*
X33087001Y-69265001D01*
X33087001Y-68522821D01*
X33142978Y-68631102D01*
X33172912Y-68675902D01*
X33419618Y-68861674D01*
X34716290Y-67565001D01*
X34857712Y-67565001D01*
X36154384Y-68861674D01*
X36401090Y-68675902D01*
X36586802Y-68339663D01*
X36609413Y-68268652D01*
X38106321Y-68268652D01*
X38129720Y-68498920D01*
X38197593Y-68720200D01*
X38303274Y-68917917D01*
X38470608Y-69010683D01*
X39216290Y-68265001D01*
X38470608Y-67519319D01*
X38303274Y-67612085D01*
X38194798Y-67816547D01*
X38128296Y-68038242D01*
X38106321Y-68268652D01*
X36609413Y-68268652D01*
X36703348Y-67973654D01*
X36746250Y-67591941D01*
X36734121Y-67448608D01*
X38541319Y-67448608D01*
X39287001Y-68194290D01*
X40032683Y-67448608D01*
X39939917Y-67281274D01*
X39735455Y-67172798D01*
X39513760Y-67106296D01*
X39283350Y-67084321D01*
X39053082Y-67107720D01*
X38831802Y-67175593D01*
X38634085Y-67281274D01*
X38541319Y-67448608D01*
X36734121Y-67448608D01*
X36713859Y-67209193D01*
X36607421Y-66840118D01*
X36431024Y-66498900D01*
X36401090Y-66454100D01*
X36154384Y-66268328D01*
X34857712Y-67565001D01*
X34716290Y-67565001D01*
X33419618Y-66268328D01*
X33172912Y-66454100D01*
X33087001Y-66609645D01*
X33087001Y-66197618D01*
X33490328Y-66197618D01*
X34787001Y-67494290D01*
X36083674Y-66197618D01*
X35897902Y-65950912D01*
X35561663Y-65765200D01*
X35195654Y-65648654D01*
X34813941Y-65605752D01*
X34431193Y-65638143D01*
X34062118Y-65744581D01*
X33720900Y-65920978D01*
X33676100Y-65950912D01*
X33490328Y-66197618D01*
X33087001Y-66197618D01*
X33087001Y-60265001D01*
X35468663Y-60265001D01*
X35337982Y-60352319D01*
X35337982Y-60352319D01*
G37*
X35337982Y-60352319D02*
X35174319Y-60515982D01*
X35045730Y-60708430D01*
X34957156Y-60922266D01*
X34912001Y-61149274D01*
X34912001Y-61380728D01*
X34957156Y-61607736D01*
X35045730Y-61821572D01*
X35174319Y-62014020D01*
X35337982Y-62177683D01*
X35530430Y-62306272D01*
X35744266Y-62394846D01*
X35971274Y-62440001D01*
X36202728Y-62440001D01*
X36429736Y-62394846D01*
X36643572Y-62306272D01*
X36836020Y-62177683D01*
X36999683Y-62014020D01*
X37128272Y-61821572D01*
X37216846Y-61607736D01*
X37262001Y-61380728D01*
X37262001Y-61149274D01*
X37216846Y-60922266D01*
X37210068Y-60905902D01*
X37587001Y-60905902D01*
X37587001Y-61024092D01*
X37610059Y-61140011D01*
X37655288Y-61249204D01*
X37720951Y-61347475D01*
X37804523Y-61431047D01*
X37902794Y-61496710D01*
X38011987Y-61541939D01*
X38127906Y-61564997D01*
X38246096Y-61564997D01*
X38362015Y-61541939D01*
X38471208Y-61496710D01*
X38569479Y-61431047D01*
X38653051Y-61347475D01*
X38718714Y-61249204D01*
X38763943Y-61140011D01*
X38787001Y-61024092D01*
X38787001Y-60905902D01*
X38763943Y-60789983D01*
X38718714Y-60680790D01*
X38653051Y-60582519D01*
X38569479Y-60498947D01*
X38471208Y-60433284D01*
X38362015Y-60388055D01*
X38246096Y-60364997D01*
X38127906Y-60364997D01*
X38011987Y-60388055D01*
X37902794Y-60433284D01*
X37804523Y-60498947D01*
X37720951Y-60582519D01*
X37655288Y-60680790D01*
X37610059Y-60789983D01*
X37587001Y-60905902D01*
X37210068Y-60905902D01*
X37128272Y-60708430D01*
X36999683Y-60515982D01*
X36836020Y-60352319D01*
X36705339Y-60265001D01*
X40555297Y-60265001D01*
X40539553Y-60284185D01*
X40477042Y-60401134D01*
X40438548Y-60528032D01*
X40425550Y-60660001D01*
X40425550Y-61410001D01*
X40438548Y-61541970D01*
X40477042Y-61668868D01*
X40539553Y-61785817D01*
X40623678Y-61888324D01*
X40726185Y-61972449D01*
X40843134Y-62034960D01*
X40970032Y-62073454D01*
X41102001Y-62086452D01*
X41852001Y-62086452D01*
X41983970Y-62073454D01*
X41984856Y-62073185D01*
X43128821Y-63217151D01*
X43140564Y-63231460D01*
X43154871Y-63243201D01*
X43197665Y-63278322D01*
X43242119Y-63302082D01*
X43262812Y-63313143D01*
X43333499Y-63334586D01*
X43388593Y-63340012D01*
X43388596Y-63340012D01*
X43407012Y-63341826D01*
X43425428Y-63340012D01*
X46692853Y-63340012D01*
X46711269Y-63341826D01*
X46729685Y-63340012D01*
X46729688Y-63340012D01*
X46784782Y-63334586D01*
X46855469Y-63313143D01*
X46920616Y-63278321D01*
X46977717Y-63231460D01*
X46989464Y-63217146D01*
X48007817Y-62198794D01*
X48111987Y-62241943D01*
X48227906Y-62265001D01*
X48346096Y-62265001D01*
X48462015Y-62241943D01*
X48571208Y-62196714D01*
X48669479Y-62131051D01*
X48753051Y-62047479D01*
X48818714Y-61949208D01*
X48863943Y-61840015D01*
X48887001Y-61724096D01*
X48887001Y-61605906D01*
X48863943Y-61489987D01*
X48818714Y-61380794D01*
X48753051Y-61282523D01*
X48710529Y-61240001D01*
X50205085Y-61240001D01*
X50187001Y-61330916D01*
X50187001Y-61449106D01*
X50210059Y-61565025D01*
X50255288Y-61674218D01*
X50320951Y-61772489D01*
X50404523Y-61856061D01*
X50502794Y-61921724D01*
X50611987Y-61966953D01*
X50727906Y-61990011D01*
X50846096Y-61990011D01*
X50854917Y-61988256D01*
X52163822Y-63297162D01*
X52175565Y-63311471D01*
X52189872Y-63323212D01*
X52232665Y-63358332D01*
X52248682Y-63366893D01*
X52297813Y-63393154D01*
X52368500Y-63414597D01*
X52423594Y-63420023D01*
X52423596Y-63420023D01*
X52442012Y-63421837D01*
X52460428Y-63420023D01*
X57166268Y-63420023D01*
X57166268Y-63436958D01*
X57189326Y-63552877D01*
X57234555Y-63662070D01*
X57300218Y-63760341D01*
X57383790Y-63843913D01*
X57415352Y-63865002D01*
X52027332Y-63865002D01*
X50235246Y-62072917D01*
X50237001Y-62064096D01*
X50237001Y-61945906D01*
X50213943Y-61829987D01*
X50168714Y-61720794D01*
X50103051Y-61622523D01*
X50019479Y-61538951D01*
X49921208Y-61473288D01*
X49812015Y-61428059D01*
X49696096Y-61405001D01*
X49577906Y-61405001D01*
X49461987Y-61428059D01*
X49352794Y-61473288D01*
X49254523Y-61538951D01*
X49170951Y-61622523D01*
X49105288Y-61720794D01*
X49060059Y-61829987D01*
X49037001Y-61945906D01*
X49037001Y-62064096D01*
X49060059Y-62180015D01*
X49105288Y-62289208D01*
X49170951Y-62387479D01*
X49254523Y-62471051D01*
X49352794Y-62536714D01*
X49461987Y-62581943D01*
X49577906Y-62605001D01*
X49696096Y-62605001D01*
X49704917Y-62603246D01*
X51266683Y-64165013D01*
X43667345Y-64165013D01*
X42285248Y-62782917D01*
X42287003Y-62774096D01*
X42287003Y-62655906D01*
X42263945Y-62539987D01*
X42218716Y-62430794D01*
X42153053Y-62332523D01*
X42069481Y-62248951D01*
X41971210Y-62183288D01*
X41862017Y-62138059D01*
X41746098Y-62115001D01*
X41627908Y-62115001D01*
X41511989Y-62138059D01*
X41402796Y-62183288D01*
X41304525Y-62248951D01*
X41220953Y-62332523D01*
X41155290Y-62430794D01*
X41134153Y-62481824D01*
X40085246Y-61432917D01*
X40087001Y-61424096D01*
X40087001Y-61305906D01*
X40063943Y-61189987D01*
X40018714Y-61080794D01*
X39953051Y-60982523D01*
X39869479Y-60898951D01*
X39771208Y-60833288D01*
X39662015Y-60788059D01*
X39546096Y-60765001D01*
X39427906Y-60765001D01*
X39311987Y-60788059D01*
X39202794Y-60833288D01*
X39104523Y-60898951D01*
X39020951Y-60982523D01*
X38955288Y-61080794D01*
X38910059Y-61189987D01*
X38887001Y-61305906D01*
X38887001Y-61424096D01*
X38910059Y-61540015D01*
X38955288Y-61649208D01*
X39020951Y-61747479D01*
X39104523Y-61831051D01*
X39202794Y-61896714D01*
X39311987Y-61941943D01*
X39427906Y-61965001D01*
X39546096Y-61965001D01*
X39554917Y-61963246D01*
X42683833Y-65092163D01*
X42695576Y-65106472D01*
X42752677Y-65153333D01*
X42817824Y-65188155D01*
X42888511Y-65209598D01*
X42943605Y-65215024D01*
X42943607Y-65215024D01*
X42962023Y-65216838D01*
X42980439Y-65215024D01*
X55906648Y-65215024D01*
X54054917Y-67066756D01*
X54046096Y-67065001D01*
X53927906Y-67065001D01*
X53811987Y-67088059D01*
X53702794Y-67133288D01*
X53604523Y-67198951D01*
X53520951Y-67282523D01*
X53455288Y-67380794D01*
X53410059Y-67489987D01*
X53387001Y-67605906D01*
X53387001Y-67724096D01*
X53410059Y-67840015D01*
X53455288Y-67949208D01*
X53520951Y-68047479D01*
X53604523Y-68131051D01*
X53702794Y-68196714D01*
X53811987Y-68241943D01*
X53927906Y-68265001D01*
X54046096Y-68265001D01*
X54162015Y-68241943D01*
X54271208Y-68196714D01*
X54369479Y-68131051D01*
X54453051Y-68047479D01*
X54518714Y-67949208D01*
X54563943Y-67840015D01*
X54587001Y-67724096D01*
X54587001Y-67605906D01*
X54585246Y-67597085D01*
X56667297Y-65515035D01*
X57482532Y-65515035D01*
X57455284Y-65555815D01*
X57410055Y-65665008D01*
X57386997Y-65780927D01*
X57386997Y-65899117D01*
X57410055Y-66015036D01*
X57455284Y-66124229D01*
X57482526Y-66165000D01*
X57308725Y-66165000D01*
X57290309Y-66163186D01*
X57271893Y-66165000D01*
X57271891Y-66165000D01*
X57216797Y-66170426D01*
X57146110Y-66191869D01*
X57146108Y-66191870D01*
X57080963Y-66226691D01*
X57038168Y-66261811D01*
X57038165Y-66261814D01*
X57023862Y-66273552D01*
X57012124Y-66287855D01*
X55009980Y-68290001D01*
X52942331Y-68290001D01*
X50865196Y-66212867D01*
X50853449Y-66198553D01*
X50796348Y-66151692D01*
X50731201Y-66116870D01*
X50660514Y-66095427D01*
X50605420Y-66090001D01*
X50605417Y-66090001D01*
X50587001Y-66088187D01*
X50568585Y-66090001D01*
X47905417Y-66090001D01*
X47887001Y-66088187D01*
X47868585Y-66090001D01*
X47868582Y-66090001D01*
X47813488Y-66095427D01*
X47742801Y-66116870D01*
X47677654Y-66151692D01*
X47620553Y-66198553D01*
X47608810Y-66212862D01*
X46554917Y-67266756D01*
X46546096Y-67265001D01*
X46427906Y-67265001D01*
X46311987Y-67288059D01*
X46202794Y-67333288D01*
X46104523Y-67398951D01*
X46020951Y-67482523D01*
X45955288Y-67580794D01*
X45910059Y-67689987D01*
X45887001Y-67805906D01*
X45887001Y-67924096D01*
X45910059Y-68040015D01*
X45955288Y-68149208D01*
X46020951Y-68247479D01*
X46104523Y-68331051D01*
X46202794Y-68396714D01*
X46311987Y-68441943D01*
X46427906Y-68465001D01*
X46546096Y-68465001D01*
X46662015Y-68441943D01*
X46771208Y-68396714D01*
X46869479Y-68331051D01*
X46931878Y-68268652D01*
X48266321Y-68268652D01*
X48289720Y-68498920D01*
X48357593Y-68720200D01*
X48463274Y-68917917D01*
X48630608Y-69010683D01*
X49376290Y-68265001D01*
X49517712Y-68265001D01*
X50263394Y-69010683D01*
X50430728Y-68917917D01*
X50539204Y-68713455D01*
X50605706Y-68491760D01*
X50627681Y-68261350D01*
X50604282Y-68031082D01*
X50536409Y-67809802D01*
X50430728Y-67612085D01*
X50263394Y-67519319D01*
X49517712Y-68265001D01*
X49376290Y-68265001D01*
X48630608Y-67519319D01*
X48463274Y-67612085D01*
X48354798Y-67816547D01*
X48288296Y-68038242D01*
X48266321Y-68268652D01*
X46931878Y-68268652D01*
X46953051Y-68247479D01*
X47018714Y-68149208D01*
X47063943Y-68040015D01*
X47087001Y-67924096D01*
X47087001Y-67805906D01*
X47085246Y-67797085D01*
X47433723Y-67448608D01*
X48701319Y-67448608D01*
X49447001Y-68194290D01*
X50192683Y-67448608D01*
X50099917Y-67281274D01*
X49895455Y-67172798D01*
X49673760Y-67106296D01*
X49443350Y-67084321D01*
X49213082Y-67107720D01*
X48991802Y-67175593D01*
X48794085Y-67281274D01*
X48701319Y-67448608D01*
X47433723Y-67448608D01*
X48042331Y-66840001D01*
X50431672Y-66840001D01*
X52508810Y-68917140D01*
X52520553Y-68931449D01*
X52577654Y-68978310D01*
X52642801Y-69013132D01*
X52713488Y-69034575D01*
X52768582Y-69040001D01*
X52768585Y-69040001D01*
X52787001Y-69041815D01*
X52805417Y-69040001D01*
X55146893Y-69040001D01*
X55165309Y-69041815D01*
X55183725Y-69040001D01*
X55183728Y-69040001D01*
X55238822Y-69034575D01*
X55309509Y-69013132D01*
X55374656Y-68978310D01*
X55431757Y-68931449D01*
X55443504Y-68917135D01*
X55954733Y-68405906D01*
X56537001Y-68405906D01*
X56537001Y-68524096D01*
X56560059Y-68640015D01*
X56605288Y-68749208D01*
X56670951Y-68847479D01*
X56754523Y-68931051D01*
X56852794Y-68996714D01*
X56961987Y-69041943D01*
X57077906Y-69065001D01*
X57196096Y-69065001D01*
X57312015Y-69041943D01*
X57421208Y-68996714D01*
X57519479Y-68931051D01*
X57603051Y-68847479D01*
X57668714Y-68749208D01*
X57713943Y-68640015D01*
X57737001Y-68524096D01*
X57737001Y-68405906D01*
X57713943Y-68289987D01*
X57705106Y-68268652D01*
X58426321Y-68268652D01*
X58449720Y-68498920D01*
X58517593Y-68720200D01*
X58623274Y-68917917D01*
X58790608Y-69010683D01*
X59536290Y-68265001D01*
X59677712Y-68265001D01*
X60423394Y-69010683D01*
X60590728Y-68917917D01*
X60699204Y-68713455D01*
X60765706Y-68491760D01*
X60787681Y-68261350D01*
X60764282Y-68031082D01*
X60696409Y-67809802D01*
X60590728Y-67612085D01*
X60423394Y-67519319D01*
X59677712Y-68265001D01*
X59536290Y-68265001D01*
X58790608Y-67519319D01*
X58623274Y-67612085D01*
X58514798Y-67816547D01*
X58448296Y-68038242D01*
X58426321Y-68268652D01*
X57705106Y-68268652D01*
X57668714Y-68180794D01*
X57603051Y-68082523D01*
X57519479Y-67998951D01*
X57421208Y-67933288D01*
X57312015Y-67888059D01*
X57196096Y-67865001D01*
X57077906Y-67865001D01*
X56961987Y-67888059D01*
X56852794Y-67933288D01*
X56754523Y-67998951D01*
X56670951Y-68082523D01*
X56605288Y-68180794D01*
X56560059Y-68289987D01*
X56537001Y-68405906D01*
X55954733Y-68405906D01*
X57095013Y-67265628D01*
X57087001Y-67305906D01*
X57087001Y-67424096D01*
X57110059Y-67540015D01*
X57155288Y-67649208D01*
X57220951Y-67747479D01*
X57304523Y-67831051D01*
X57402794Y-67896714D01*
X57511987Y-67941943D01*
X57627906Y-67965001D01*
X57746096Y-67965001D01*
X57862015Y-67941943D01*
X57971208Y-67896714D01*
X58069479Y-67831051D01*
X58153051Y-67747479D01*
X58218714Y-67649208D01*
X58263943Y-67540015D01*
X58287001Y-67424096D01*
X58287001Y-67333306D01*
X58342801Y-67363132D01*
X58413488Y-67384575D01*
X58468582Y-67390001D01*
X58468585Y-67390001D01*
X58487001Y-67391815D01*
X58505417Y-67390001D01*
X58893809Y-67390001D01*
X58861319Y-67448608D01*
X59607001Y-68194290D01*
X60352683Y-67448608D01*
X60320193Y-67390001D01*
X61833687Y-67390001D01*
X61860819Y-67417133D01*
X61872566Y-67431447D01*
X61929667Y-67478308D01*
X61994814Y-67513130D01*
X62065501Y-67534573D01*
X62090233Y-67537009D01*
X62097228Y-67547477D01*
X62180800Y-67631049D01*
X62279071Y-67696712D01*
X62388264Y-67741941D01*
X62504183Y-67764999D01*
X62622373Y-67764999D01*
X62738292Y-67741941D01*
X62847485Y-67696712D01*
X62945756Y-67631049D01*
X63029328Y-67547477D01*
X63094991Y-67449206D01*
X63140220Y-67340013D01*
X63163278Y-67224094D01*
X63163278Y-67105904D01*
X63144968Y-67013857D01*
X63794729Y-67013857D01*
X63813145Y-67015671D01*
X63831561Y-67013857D01*
X63831564Y-67013857D01*
X63886658Y-67008431D01*
X63957345Y-66986988D01*
X64022492Y-66952166D01*
X64079593Y-66905305D01*
X64091340Y-66890991D01*
X65192297Y-65790035D01*
X66611524Y-65790035D01*
X66591765Y-65889367D01*
X66591765Y-66007557D01*
X66614823Y-66123476D01*
X66660052Y-66232669D01*
X66725715Y-66330940D01*
X66809287Y-66414512D01*
X66907558Y-66480175D01*
X67016751Y-66525404D01*
X67132670Y-66548462D01*
X67250860Y-66548462D01*
X67366779Y-66525404D01*
X67475972Y-66480175D01*
X67495553Y-66467091D01*
X67510059Y-66540017D01*
X67555288Y-66649210D01*
X67620951Y-66747481D01*
X67704523Y-66831053D01*
X67802794Y-66896716D01*
X67911987Y-66941945D01*
X68027906Y-66965003D01*
X68146096Y-66965003D01*
X68262015Y-66941945D01*
X68286072Y-66931980D01*
X68286072Y-67035600D01*
X67340146Y-67981527D01*
X67323828Y-67976577D01*
X67206294Y-67965001D01*
X67127708Y-67965001D01*
X67010174Y-67976577D01*
X66859373Y-68022322D01*
X66720395Y-68096608D01*
X66598579Y-68196579D01*
X66532001Y-68277705D01*
X66465423Y-68196579D01*
X66343607Y-68096608D01*
X66204629Y-68022322D01*
X66053828Y-67976577D01*
X65936294Y-67965001D01*
X65857708Y-67965001D01*
X65740174Y-67976577D01*
X65589373Y-68022322D01*
X65450395Y-68096608D01*
X65328579Y-68196579D01*
X65260054Y-68280078D01*
X65179373Y-68186304D01*
X65055861Y-68089661D01*
X64915868Y-68018971D01*
X64801288Y-67984217D01*
X64677001Y-68041727D01*
X64677001Y-68715001D01*
X64697001Y-68715001D01*
X64697001Y-68815001D01*
X64677001Y-68815001D01*
X64677001Y-68835001D01*
X64577001Y-68835001D01*
X64577001Y-68815001D01*
X64557001Y-68815001D01*
X64557001Y-68715001D01*
X64577001Y-68715001D01*
X64577001Y-68041727D01*
X64452714Y-67984217D01*
X64338134Y-68018971D01*
X64198141Y-68089661D01*
X64074629Y-68186304D01*
X63993948Y-68280078D01*
X63925423Y-68196579D01*
X63803607Y-68096608D01*
X63664629Y-68022322D01*
X63513828Y-67976577D01*
X63396294Y-67965001D01*
X63317708Y-67965001D01*
X63200174Y-67976577D01*
X63049373Y-68022322D01*
X62910395Y-68096608D01*
X62859489Y-68138385D01*
X62837648Y-68097524D01*
X62800159Y-68051843D01*
X62754478Y-68014354D01*
X62702361Y-67986497D01*
X62645811Y-67969342D01*
X62587001Y-67963550D01*
X61587001Y-67963550D01*
X61528191Y-67969342D01*
X61471641Y-67986497D01*
X61419524Y-68014354D01*
X61373843Y-68051843D01*
X61336354Y-68097524D01*
X61308497Y-68149641D01*
X61291342Y-68206191D01*
X61285550Y-68265001D01*
X61285550Y-69265001D01*
X60229472Y-69265001D01*
X60259917Y-69248728D01*
X60352683Y-69081394D01*
X59607001Y-68335712D01*
X58861319Y-69081394D01*
X58954085Y-69248728D01*
X58984757Y-69265001D01*
X50069472Y-69265001D01*
X50099917Y-69248728D01*
X50192683Y-69081394D01*
X49447001Y-68335712D01*
X48701319Y-69081394D01*
X48794085Y-69248728D01*
X48824757Y-69265001D01*
X44733877Y-69265001D01*
X44763055Y-69241055D01*
X44894268Y-69081172D01*
X44991768Y-68898763D01*
X45051808Y-68700837D01*
X45072081Y-68495001D01*
X45051808Y-68289165D01*
X44991768Y-68091239D01*
X44894268Y-67908830D01*
X44763055Y-67748947D01*
X44603172Y-67617734D01*
X44420763Y-67520234D01*
X44222837Y-67460194D01*
X44068579Y-67445001D01*
X43965423Y-67445001D01*
X43811165Y-67460194D01*
X43613239Y-67520234D01*
X43430830Y-67617734D01*
X43270947Y-67748947D01*
X43139734Y-67908830D01*
X43042234Y-68091239D01*
X42982194Y-68289165D01*
X42961921Y-68495001D01*
X42982194Y-68700837D01*
X43042234Y-68898763D01*
X43139734Y-69081172D01*
X43270947Y-69241055D01*
X43300125Y-69265001D01*
X42398705Y-69265001D01*
X42414449Y-69245817D01*
X42476960Y-69128868D01*
X42515454Y-69001970D01*
X42528452Y-68870001D01*
X42528452Y-68120001D01*
X42515454Y-67988032D01*
X42476960Y-67861134D01*
X42414449Y-67744185D01*
X42330324Y-67641678D01*
X42227817Y-67557553D01*
X42110868Y-67495042D01*
X41983970Y-67456548D01*
X41852001Y-67443550D01*
X41102001Y-67443550D01*
X40970032Y-67456548D01*
X40843134Y-67495042D01*
X40726185Y-67557553D01*
X40623678Y-67641678D01*
X40539553Y-67744185D01*
X40477042Y-67861134D01*
X40438548Y-67988032D01*
X40436732Y-68006468D01*
X40376409Y-67809802D01*
X40270728Y-67612085D01*
X40103394Y-67519319D01*
X39357712Y-68265001D01*
X40103394Y-69010683D01*
X40270728Y-68917917D01*
X40379204Y-68713455D01*
X40425550Y-68558953D01*
X40425550Y-68870001D01*
X40438548Y-69001970D01*
X40477042Y-69128868D01*
X40539553Y-69245817D01*
X40555297Y-69265001D01*
X39909472Y-69265001D01*
X39939917Y-69248728D01*
X40032683Y-69081394D01*
X39287001Y-68335712D01*
X38541319Y-69081394D01*
X38634085Y-69248728D01*
X38664757Y-69265001D01*
X35744821Y-69265001D01*
X35853102Y-69209024D01*
X35897902Y-69179090D01*
X36083674Y-68932384D01*
X34787001Y-67635712D01*
X33490328Y-68932384D01*
X33676100Y-69179090D01*
X33831645Y-69265001D01*
X33087001Y-69265001D01*
X33087001Y-68522821D01*
X33142978Y-68631102D01*
X33172912Y-68675902D01*
X33419618Y-68861674D01*
X34716290Y-67565001D01*
X34857712Y-67565001D01*
X36154384Y-68861674D01*
X36401090Y-68675902D01*
X36586802Y-68339663D01*
X36609413Y-68268652D01*
X38106321Y-68268652D01*
X38129720Y-68498920D01*
X38197593Y-68720200D01*
X38303274Y-68917917D01*
X38470608Y-69010683D01*
X39216290Y-68265001D01*
X38470608Y-67519319D01*
X38303274Y-67612085D01*
X38194798Y-67816547D01*
X38128296Y-68038242D01*
X38106321Y-68268652D01*
X36609413Y-68268652D01*
X36703348Y-67973654D01*
X36746250Y-67591941D01*
X36734121Y-67448608D01*
X38541319Y-67448608D01*
X39287001Y-68194290D01*
X40032683Y-67448608D01*
X39939917Y-67281274D01*
X39735455Y-67172798D01*
X39513760Y-67106296D01*
X39283350Y-67084321D01*
X39053082Y-67107720D01*
X38831802Y-67175593D01*
X38634085Y-67281274D01*
X38541319Y-67448608D01*
X36734121Y-67448608D01*
X36713859Y-67209193D01*
X36607421Y-66840118D01*
X36431024Y-66498900D01*
X36401090Y-66454100D01*
X36154384Y-66268328D01*
X34857712Y-67565001D01*
X34716290Y-67565001D01*
X33419618Y-66268328D01*
X33172912Y-66454100D01*
X33087001Y-66609645D01*
X33087001Y-66197618D01*
X33490328Y-66197618D01*
X34787001Y-67494290D01*
X36083674Y-66197618D01*
X35897902Y-65950912D01*
X35561663Y-65765200D01*
X35195654Y-65648654D01*
X34813941Y-65605752D01*
X34431193Y-65638143D01*
X34062118Y-65744581D01*
X33720900Y-65920978D01*
X33676100Y-65950912D01*
X33490328Y-66197618D01*
X33087001Y-66197618D01*
X33087001Y-60265001D01*
X35468663Y-60265001D01*
X35337982Y-60352319D01*
G36*
X68950606Y-67519320D02*
G01*
X68783274Y-67612085D01*
X68674798Y-67816547D01*
X68608296Y-68038242D01*
X68586321Y-68268652D01*
X68609720Y-68498920D01*
X68677593Y-68720200D01*
X68783274Y-68917917D01*
X68950608Y-69010683D01*
X69696290Y-68265001D01*
X69682148Y-68250859D01*
X69752859Y-68180148D01*
X69767001Y-68194290D01*
X69781143Y-68180148D01*
X69851854Y-68250859D01*
X69837712Y-68265001D01*
X70583394Y-69010683D01*
X70750728Y-68917917D01*
X70859204Y-68713455D01*
X70905550Y-68558953D01*
X70905550Y-68870001D01*
X70918548Y-69001970D01*
X70957042Y-69128868D01*
X71019553Y-69245817D01*
X71035297Y-69265001D01*
X70389472Y-69265001D01*
X70419917Y-69248728D01*
X70512683Y-69081394D01*
X69767001Y-68335712D01*
X69021319Y-69081394D01*
X69114085Y-69248728D01*
X69144757Y-69265001D01*
X67791575Y-69265001D01*
X67835394Y-69211607D01*
X67909680Y-69072629D01*
X67955425Y-68921828D01*
X67970871Y-68765001D01*
X67955425Y-68608174D01*
X67913236Y-68469095D01*
X68906809Y-67475523D01*
X68950606Y-67519320D01*
X68950606Y-67519320D01*
G37*
X68950606Y-67519320D02*
X68783274Y-67612085D01*
X68674798Y-67816547D01*
X68608296Y-68038242D01*
X68586321Y-68268652D01*
X68609720Y-68498920D01*
X68677593Y-68720200D01*
X68783274Y-68917917D01*
X68950608Y-69010683D01*
X69696290Y-68265001D01*
X69682148Y-68250859D01*
X69752859Y-68180148D01*
X69767001Y-68194290D01*
X69781143Y-68180148D01*
X69851854Y-68250859D01*
X69837712Y-68265001D01*
X70583394Y-69010683D01*
X70750728Y-68917917D01*
X70859204Y-68713455D01*
X70905550Y-68558953D01*
X70905550Y-68870001D01*
X70918548Y-69001970D01*
X70957042Y-69128868D01*
X71019553Y-69245817D01*
X71035297Y-69265001D01*
X70389472Y-69265001D01*
X70419917Y-69248728D01*
X70512683Y-69081394D01*
X69767001Y-68335712D01*
X69021319Y-69081394D01*
X69114085Y-69248728D01*
X69144757Y-69265001D01*
X67791575Y-69265001D01*
X67835394Y-69211607D01*
X67909680Y-69072629D01*
X67955425Y-68921828D01*
X67970871Y-68765001D01*
X67955425Y-68608174D01*
X67913236Y-68469095D01*
X68906809Y-67475523D01*
X68950606Y-67519320D01*
G36*
X92906799Y-68115015D02*
G01*
X92764833Y-68115015D01*
X90745014Y-66095197D01*
X90727791Y-66074211D01*
X90693173Y-66045800D01*
X90644043Y-66005480D01*
X90618997Y-65992093D01*
X90548495Y-65954409D01*
X90444820Y-65922959D01*
X90364019Y-65915001D01*
X90364009Y-65915001D01*
X90337001Y-65912341D01*
X90309993Y-65915001D01*
X86714008Y-65915001D01*
X86687000Y-65912341D01*
X86659992Y-65915001D01*
X86659983Y-65915001D01*
X86579182Y-65922959D01*
X86475507Y-65954409D01*
X86431029Y-65978183D01*
X86379958Y-66005480D01*
X86317196Y-66056988D01*
X86317191Y-66056993D01*
X86296211Y-66074211D01*
X86278993Y-66095191D01*
X84902085Y-67472100D01*
X84862837Y-67460194D01*
X84708579Y-67445001D01*
X84605423Y-67445001D01*
X84451165Y-67460194D01*
X84253239Y-67520234D01*
X84070830Y-67617734D01*
X83910947Y-67748947D01*
X83779734Y-67908830D01*
X83682234Y-68091239D01*
X83622194Y-68289165D01*
X83601921Y-68495001D01*
X83622194Y-68700837D01*
X83682234Y-68898763D01*
X83779734Y-69081172D01*
X83910947Y-69241055D01*
X83940125Y-69265001D01*
X83166483Y-69265001D01*
X83168453Y-69245001D01*
X83167001Y-68620001D01*
X83092001Y-68545001D01*
X82167001Y-68545001D01*
X82167001Y-68565001D01*
X82067001Y-68565001D01*
X82067001Y-68545001D01*
X82047001Y-68545001D01*
X82047001Y-68445001D01*
X82067001Y-68445001D01*
X82067001Y-67520001D01*
X82167001Y-67520001D01*
X82167001Y-68445001D01*
X83092001Y-68445001D01*
X83167001Y-68370001D01*
X83168453Y-67745001D01*
X83162661Y-67686191D01*
X83145506Y-67629640D01*
X83117649Y-67577523D01*
X83080160Y-67531842D01*
X83034479Y-67494353D01*
X82982362Y-67466496D01*
X82925811Y-67449341D01*
X82867001Y-67443549D01*
X82242001Y-67445001D01*
X82167001Y-67520001D01*
X82067001Y-67520001D01*
X81992001Y-67445001D01*
X81367001Y-67443549D01*
X81308191Y-67449341D01*
X81251640Y-67466496D01*
X81199523Y-67494353D01*
X81153842Y-67531842D01*
X81116353Y-67577523D01*
X81088496Y-67629640D01*
X81071341Y-67686191D01*
X81065549Y-67745001D01*
X81066076Y-67971726D01*
X81016409Y-67809802D01*
X80910728Y-67612085D01*
X80743394Y-67519319D01*
X79997712Y-68265001D01*
X80743394Y-69010683D01*
X80910728Y-68917917D01*
X81019204Y-68713455D01*
X81069735Y-68545003D01*
X81141999Y-68545003D01*
X81067001Y-68620001D01*
X81065549Y-69245001D01*
X81067519Y-69265001D01*
X80549472Y-69265001D01*
X80579917Y-69248728D01*
X80672683Y-69081394D01*
X79927001Y-68335712D01*
X79181319Y-69081394D01*
X79274085Y-69248728D01*
X79304757Y-69265001D01*
X75213877Y-69265001D01*
X75243055Y-69241055D01*
X75374268Y-69081172D01*
X75471768Y-68898763D01*
X75531808Y-68700837D01*
X75552081Y-68495001D01*
X75531808Y-68289165D01*
X75525586Y-68268652D01*
X78746321Y-68268652D01*
X78769720Y-68498920D01*
X78837593Y-68720200D01*
X78943274Y-68917917D01*
X79110608Y-69010683D01*
X79856290Y-68265001D01*
X79110608Y-67519319D01*
X78943274Y-67612085D01*
X78834798Y-67816547D01*
X78768296Y-68038242D01*
X78746321Y-68268652D01*
X75525586Y-68268652D01*
X75471768Y-68091239D01*
X75374268Y-67908830D01*
X75243055Y-67748947D01*
X75083172Y-67617734D01*
X74967497Y-67555904D01*
X76687001Y-67555904D01*
X76687001Y-67674094D01*
X76710059Y-67790013D01*
X76755288Y-67899206D01*
X76820951Y-67997477D01*
X76904523Y-68081049D01*
X77002794Y-68146712D01*
X77111987Y-68191941D01*
X77227906Y-68214999D01*
X77346096Y-68214999D01*
X77462015Y-68191941D01*
X77571208Y-68146712D01*
X77669479Y-68081049D01*
X77753051Y-67997477D01*
X77818714Y-67899206D01*
X77863943Y-67790013D01*
X77887001Y-67674094D01*
X77887001Y-67555904D01*
X77865659Y-67448608D01*
X79181319Y-67448608D01*
X79927001Y-68194290D01*
X80672683Y-67448608D01*
X80579917Y-67281274D01*
X80375455Y-67172798D01*
X80153760Y-67106296D01*
X79923350Y-67084321D01*
X79693082Y-67107720D01*
X79471802Y-67175593D01*
X79274085Y-67281274D01*
X79181319Y-67448608D01*
X77865659Y-67448608D01*
X77863943Y-67439985D01*
X77818714Y-67330792D01*
X77753051Y-67232521D01*
X77669479Y-67148949D01*
X77571208Y-67083286D01*
X77462015Y-67038057D01*
X77346096Y-67014999D01*
X77227906Y-67014999D01*
X77111987Y-67038057D01*
X77002794Y-67083286D01*
X76904523Y-67148949D01*
X76820951Y-67232521D01*
X76755288Y-67330792D01*
X76710059Y-67439985D01*
X76687001Y-67555904D01*
X74967497Y-67555904D01*
X74900763Y-67520234D01*
X74702837Y-67460194D01*
X74548579Y-67445001D01*
X74445423Y-67445001D01*
X74291165Y-67460194D01*
X74093239Y-67520234D01*
X74066732Y-67534402D01*
X73245196Y-66712867D01*
X73233449Y-66698553D01*
X73176348Y-66651692D01*
X73111201Y-66616870D01*
X73040514Y-66595427D01*
X72985420Y-66590001D01*
X72985417Y-66590001D01*
X72967001Y-66588187D01*
X72948585Y-66590001D01*
X71692331Y-66590001D01*
X70845634Y-65743305D01*
X70848138Y-65730716D01*
X70848138Y-65612526D01*
X70825080Y-65496607D01*
X70779851Y-65387414D01*
X70714723Y-65289944D01*
X90081729Y-65289944D01*
X92906799Y-68115015D01*
X92906799Y-68115015D01*
G37*
X92906799Y-68115015D02*
X92764833Y-68115015D01*
X90745014Y-66095197D01*
X90727791Y-66074211D01*
X90693173Y-66045800D01*
X90644043Y-66005480D01*
X90618997Y-65992093D01*
X90548495Y-65954409D01*
X90444820Y-65922959D01*
X90364019Y-65915001D01*
X90364009Y-65915001D01*
X90337001Y-65912341D01*
X90309993Y-65915001D01*
X86714008Y-65915001D01*
X86687000Y-65912341D01*
X86659992Y-65915001D01*
X86659983Y-65915001D01*
X86579182Y-65922959D01*
X86475507Y-65954409D01*
X86431029Y-65978183D01*
X86379958Y-66005480D01*
X86317196Y-66056988D01*
X86317191Y-66056993D01*
X86296211Y-66074211D01*
X86278993Y-66095191D01*
X84902085Y-67472100D01*
X84862837Y-67460194D01*
X84708579Y-67445001D01*
X84605423Y-67445001D01*
X84451165Y-67460194D01*
X84253239Y-67520234D01*
X84070830Y-67617734D01*
X83910947Y-67748947D01*
X83779734Y-67908830D01*
X83682234Y-68091239D01*
X83622194Y-68289165D01*
X83601921Y-68495001D01*
X83622194Y-68700837D01*
X83682234Y-68898763D01*
X83779734Y-69081172D01*
X83910947Y-69241055D01*
X83940125Y-69265001D01*
X83166483Y-69265001D01*
X83168453Y-69245001D01*
X83167001Y-68620001D01*
X83092001Y-68545001D01*
X82167001Y-68545001D01*
X82167001Y-68565001D01*
X82067001Y-68565001D01*
X82067001Y-68545001D01*
X82047001Y-68545001D01*
X82047001Y-68445001D01*
X82067001Y-68445001D01*
X82067001Y-67520001D01*
X82167001Y-67520001D01*
X82167001Y-68445001D01*
X83092001Y-68445001D01*
X83167001Y-68370001D01*
X83168453Y-67745001D01*
X83162661Y-67686191D01*
X83145506Y-67629640D01*
X83117649Y-67577523D01*
X83080160Y-67531842D01*
X83034479Y-67494353D01*
X82982362Y-67466496D01*
X82925811Y-67449341D01*
X82867001Y-67443549D01*
X82242001Y-67445001D01*
X82167001Y-67520001D01*
X82067001Y-67520001D01*
X81992001Y-67445001D01*
X81367001Y-67443549D01*
X81308191Y-67449341D01*
X81251640Y-67466496D01*
X81199523Y-67494353D01*
X81153842Y-67531842D01*
X81116353Y-67577523D01*
X81088496Y-67629640D01*
X81071341Y-67686191D01*
X81065549Y-67745001D01*
X81066076Y-67971726D01*
X81016409Y-67809802D01*
X80910728Y-67612085D01*
X80743394Y-67519319D01*
X79997712Y-68265001D01*
X80743394Y-69010683D01*
X80910728Y-68917917D01*
X81019204Y-68713455D01*
X81069735Y-68545003D01*
X81141999Y-68545003D01*
X81067001Y-68620001D01*
X81065549Y-69245001D01*
X81067519Y-69265001D01*
X80549472Y-69265001D01*
X80579917Y-69248728D01*
X80672683Y-69081394D01*
X79927001Y-68335712D01*
X79181319Y-69081394D01*
X79274085Y-69248728D01*
X79304757Y-69265001D01*
X75213877Y-69265001D01*
X75243055Y-69241055D01*
X75374268Y-69081172D01*
X75471768Y-68898763D01*
X75531808Y-68700837D01*
X75552081Y-68495001D01*
X75531808Y-68289165D01*
X75525586Y-68268652D01*
X78746321Y-68268652D01*
X78769720Y-68498920D01*
X78837593Y-68720200D01*
X78943274Y-68917917D01*
X79110608Y-69010683D01*
X79856290Y-68265001D01*
X79110608Y-67519319D01*
X78943274Y-67612085D01*
X78834798Y-67816547D01*
X78768296Y-68038242D01*
X78746321Y-68268652D01*
X75525586Y-68268652D01*
X75471768Y-68091239D01*
X75374268Y-67908830D01*
X75243055Y-67748947D01*
X75083172Y-67617734D01*
X74967497Y-67555904D01*
X76687001Y-67555904D01*
X76687001Y-67674094D01*
X76710059Y-67790013D01*
X76755288Y-67899206D01*
X76820951Y-67997477D01*
X76904523Y-68081049D01*
X77002794Y-68146712D01*
X77111987Y-68191941D01*
X77227906Y-68214999D01*
X77346096Y-68214999D01*
X77462015Y-68191941D01*
X77571208Y-68146712D01*
X77669479Y-68081049D01*
X77753051Y-67997477D01*
X77818714Y-67899206D01*
X77863943Y-67790013D01*
X77887001Y-67674094D01*
X77887001Y-67555904D01*
X77865659Y-67448608D01*
X79181319Y-67448608D01*
X79927001Y-68194290D01*
X80672683Y-67448608D01*
X80579917Y-67281274D01*
X80375455Y-67172798D01*
X80153760Y-67106296D01*
X79923350Y-67084321D01*
X79693082Y-67107720D01*
X79471802Y-67175593D01*
X79274085Y-67281274D01*
X79181319Y-67448608D01*
X77865659Y-67448608D01*
X77863943Y-67439985D01*
X77818714Y-67330792D01*
X77753051Y-67232521D01*
X77669479Y-67148949D01*
X77571208Y-67083286D01*
X77462015Y-67038057D01*
X77346096Y-67014999D01*
X77227906Y-67014999D01*
X77111987Y-67038057D01*
X77002794Y-67083286D01*
X76904523Y-67148949D01*
X76820951Y-67232521D01*
X76755288Y-67330792D01*
X76710059Y-67439985D01*
X76687001Y-67555904D01*
X74967497Y-67555904D01*
X74900763Y-67520234D01*
X74702837Y-67460194D01*
X74548579Y-67445001D01*
X74445423Y-67445001D01*
X74291165Y-67460194D01*
X74093239Y-67520234D01*
X74066732Y-67534402D01*
X73245196Y-66712867D01*
X73233449Y-66698553D01*
X73176348Y-66651692D01*
X73111201Y-66616870D01*
X73040514Y-66595427D01*
X72985420Y-66590001D01*
X72985417Y-66590001D01*
X72967001Y-66588187D01*
X72948585Y-66590001D01*
X71692331Y-66590001D01*
X70845634Y-65743305D01*
X70848138Y-65730716D01*
X70848138Y-65612526D01*
X70825080Y-65496607D01*
X70779851Y-65387414D01*
X70714723Y-65289944D01*
X90081729Y-65289944D01*
X92906799Y-68115015D01*
G36*
X96297982Y-60352319D02*
G01*
X96134319Y-60515982D01*
X96005730Y-60708430D01*
X95917156Y-60922266D01*
X95872001Y-61149274D01*
X95872001Y-61380728D01*
X95917156Y-61607736D01*
X96005730Y-61821572D01*
X96134319Y-62014020D01*
X96297982Y-62177683D01*
X96490430Y-62306272D01*
X96704266Y-62394846D01*
X96931274Y-62440001D01*
X97162728Y-62440001D01*
X97389736Y-62394846D01*
X97603572Y-62306272D01*
X97796020Y-62177683D01*
X97959683Y-62014020D01*
X98010436Y-61938061D01*
X99427752Y-61938061D01*
X99460143Y-62320809D01*
X99566581Y-62689884D01*
X99742978Y-63031102D01*
X99772912Y-63075902D01*
X100019618Y-63261674D01*
X101316290Y-61965001D01*
X100019618Y-60668328D01*
X99772912Y-60854100D01*
X99587200Y-61190339D01*
X99470654Y-61556348D01*
X99427752Y-61938061D01*
X98010436Y-61938061D01*
X98088272Y-61821572D01*
X98176846Y-61607736D01*
X98222001Y-61380728D01*
X98222001Y-61149274D01*
X98176846Y-60922266D01*
X98088272Y-60708430D01*
X97959683Y-60515982D01*
X97796020Y-60352319D01*
X97665339Y-60265001D01*
X100429181Y-60265001D01*
X100320900Y-60320978D01*
X100276100Y-60350912D01*
X100090328Y-60597618D01*
X101387001Y-61894290D01*
X102683674Y-60597618D01*
X102497902Y-60350912D01*
X102342357Y-60265001D01*
X103087001Y-60265001D01*
X103087001Y-61007181D01*
X103031024Y-60898900D01*
X103001090Y-60854100D01*
X102754384Y-60668328D01*
X101457712Y-61965001D01*
X102754384Y-63261674D01*
X103001090Y-63075902D01*
X103087001Y-62920357D01*
X103087001Y-69265001D01*
X100869472Y-69265001D01*
X100899917Y-69248728D01*
X100992683Y-69081394D01*
X100247001Y-68335712D01*
X99501319Y-69081394D01*
X99594085Y-69248728D01*
X99624757Y-69265001D01*
X90709472Y-69265001D01*
X90739917Y-69248728D01*
X90832683Y-69081394D01*
X90087001Y-68335712D01*
X89341319Y-69081394D01*
X89434085Y-69248728D01*
X89464757Y-69265001D01*
X85373877Y-69265001D01*
X85403055Y-69241055D01*
X85534268Y-69081172D01*
X85631768Y-68898763D01*
X85691808Y-68700837D01*
X85712081Y-68495001D01*
X85691808Y-68289165D01*
X85679902Y-68249917D01*
X85923913Y-68005906D01*
X86487001Y-68005906D01*
X86487001Y-68124096D01*
X86510059Y-68240015D01*
X86555288Y-68349208D01*
X86620951Y-68447479D01*
X86704523Y-68531051D01*
X86802794Y-68596714D01*
X86911987Y-68641943D01*
X87027906Y-68665001D01*
X87146096Y-68665001D01*
X87262015Y-68641943D01*
X87371208Y-68596714D01*
X87469479Y-68531051D01*
X87553051Y-68447479D01*
X87618714Y-68349208D01*
X87652081Y-68268652D01*
X88906321Y-68268652D01*
X88929720Y-68498920D01*
X88997593Y-68720200D01*
X89103274Y-68917917D01*
X89270608Y-69010683D01*
X90016290Y-68265001D01*
X89270608Y-67519319D01*
X89103274Y-67612085D01*
X88994798Y-67816547D01*
X88928296Y-68038242D01*
X88906321Y-68268652D01*
X87652081Y-68268652D01*
X87663943Y-68240015D01*
X87687001Y-68124096D01*
X87687001Y-68005906D01*
X87663943Y-67889987D01*
X87618714Y-67780794D01*
X87553051Y-67682523D01*
X87469479Y-67598951D01*
X87371208Y-67533288D01*
X87262015Y-67488059D01*
X87146096Y-67465001D01*
X87027906Y-67465001D01*
X86911987Y-67488059D01*
X86802794Y-67533288D01*
X86704523Y-67598951D01*
X86620951Y-67682523D01*
X86555288Y-67780794D01*
X86510059Y-67889987D01*
X86487001Y-68005906D01*
X85923913Y-68005906D01*
X86914819Y-67015001D01*
X90109184Y-67015001D01*
X90188536Y-67094353D01*
X90083350Y-67084321D01*
X89853082Y-67107720D01*
X89631802Y-67175593D01*
X89434085Y-67281274D01*
X89341319Y-67448608D01*
X90087001Y-68194290D01*
X90101143Y-68180148D01*
X90171854Y-68250859D01*
X90157712Y-68265001D01*
X90903394Y-69010683D01*
X91070728Y-68917917D01*
X91179204Y-68713455D01*
X91245706Y-68491760D01*
X91267681Y-68261350D01*
X91257744Y-68163562D01*
X92129011Y-69034829D01*
X92146225Y-69055804D01*
X92167200Y-69073018D01*
X92167209Y-69073027D01*
X92229971Y-69124534D01*
X92248755Y-69134574D01*
X92325521Y-69175606D01*
X92429196Y-69207056D01*
X92509997Y-69215014D01*
X92510005Y-69215014D01*
X92537013Y-69217674D01*
X92564021Y-69215014D01*
X97908739Y-69215012D01*
X97935757Y-69217673D01*
X97997347Y-69211607D01*
X98043576Y-69207054D01*
X98147251Y-69175604D01*
X98242799Y-69124534D01*
X98305561Y-69073026D01*
X98305567Y-69073020D01*
X98326547Y-69055802D01*
X98343765Y-69034822D01*
X98856817Y-68521770D01*
X98877803Y-68504547D01*
X98946534Y-68420799D01*
X98980116Y-68357971D01*
X98997605Y-68325252D01*
X99014774Y-68268652D01*
X99066321Y-68268652D01*
X99089720Y-68498920D01*
X99157593Y-68720200D01*
X99263274Y-68917917D01*
X99430608Y-69010683D01*
X100176290Y-68265001D01*
X100317712Y-68265001D01*
X101063394Y-69010683D01*
X101230728Y-68917917D01*
X101339204Y-68713455D01*
X101405706Y-68491760D01*
X101427681Y-68261350D01*
X101404282Y-68031082D01*
X101336409Y-67809802D01*
X101230728Y-67612085D01*
X101063394Y-67519319D01*
X100317712Y-68265001D01*
X100176290Y-68265001D01*
X99430608Y-67519319D01*
X99263274Y-67612085D01*
X99154798Y-67816547D01*
X99088296Y-68038242D01*
X99066321Y-68268652D01*
X99014774Y-68268652D01*
X99029055Y-68221576D01*
X99030639Y-68205492D01*
X99037013Y-68140775D01*
X99037013Y-68140768D01*
X99039673Y-68113757D01*
X99037013Y-68086746D01*
X99037013Y-67448608D01*
X99501319Y-67448608D01*
X100247001Y-68194290D01*
X100992683Y-67448608D01*
X100899917Y-67281274D01*
X100695455Y-67172798D01*
X100473760Y-67106296D01*
X100243350Y-67084321D01*
X100013082Y-67107720D01*
X99791802Y-67175593D01*
X99594085Y-67281274D01*
X99501319Y-67448608D01*
X99037013Y-67448608D01*
X99037013Y-65292020D01*
X99039673Y-65265012D01*
X99037013Y-65238004D01*
X99037013Y-65237995D01*
X99029055Y-65157194D01*
X98997605Y-65053519D01*
X98946534Y-64957971D01*
X98929128Y-64936762D01*
X98895026Y-64895208D01*
X98895021Y-64895203D01*
X98877803Y-64874223D01*
X98856823Y-64857005D01*
X97332202Y-63332384D01*
X100090328Y-63332384D01*
X100276100Y-63579090D01*
X100612339Y-63764802D01*
X100978348Y-63881348D01*
X101360061Y-63924250D01*
X101742809Y-63891859D01*
X102111884Y-63785421D01*
X102453102Y-63609024D01*
X102497902Y-63579090D01*
X102683674Y-63332384D01*
X101387001Y-62035712D01*
X100090328Y-63332384D01*
X97332202Y-63332384D01*
X94895014Y-60895197D01*
X94877791Y-60874211D01*
X94794043Y-60805480D01*
X94698495Y-60754409D01*
X94594820Y-60722959D01*
X94514019Y-60715001D01*
X94514009Y-60715001D01*
X94487001Y-60712341D01*
X94459993Y-60715001D01*
X93478010Y-60715001D01*
X93450999Y-60712341D01*
X93423988Y-60715001D01*
X93423981Y-60715001D01*
X93343180Y-60722959D01*
X93239504Y-60754409D01*
X93153575Y-60800339D01*
X93143957Y-60805480D01*
X93060209Y-60874211D01*
X93042986Y-60895197D01*
X92617863Y-61320320D01*
X92637003Y-61224096D01*
X92637003Y-61105906D01*
X92613945Y-60989987D01*
X92568716Y-60880794D01*
X92503053Y-60782523D01*
X92419481Y-60698951D01*
X92321210Y-60633288D01*
X92212017Y-60588059D01*
X92096098Y-60565001D01*
X91977908Y-60565001D01*
X91861989Y-60588059D01*
X91752796Y-60633288D01*
X91654525Y-60698951D01*
X91570953Y-60782523D01*
X91505290Y-60880794D01*
X91460061Y-60989987D01*
X91437003Y-61105906D01*
X91437003Y-61224096D01*
X91460061Y-61340015D01*
X91505290Y-61449208D01*
X91570953Y-61547479D01*
X91654525Y-61631051D01*
X91752796Y-61696714D01*
X91861989Y-61741943D01*
X91977908Y-61765001D01*
X92096098Y-61765001D01*
X92192322Y-61745861D01*
X91323182Y-62615001D01*
X90144130Y-62615001D01*
X90176208Y-62601714D01*
X90274479Y-62536051D01*
X90358051Y-62452479D01*
X90423714Y-62354208D01*
X90468943Y-62245015D01*
X90492001Y-62129096D01*
X90492001Y-62010906D01*
X90468943Y-61894987D01*
X90423714Y-61785794D01*
X90358051Y-61687523D01*
X90274479Y-61603951D01*
X90176208Y-61538288D01*
X90067015Y-61493059D01*
X89951096Y-61470001D01*
X89832906Y-61470001D01*
X89716987Y-61493059D01*
X89607794Y-61538288D01*
X89509523Y-61603951D01*
X89425951Y-61687523D01*
X89410770Y-61710242D01*
X89389479Y-61688951D01*
X89291208Y-61623288D01*
X89182015Y-61578059D01*
X89066096Y-61555001D01*
X88947906Y-61555001D01*
X88831987Y-61578059D01*
X88722794Y-61623288D01*
X88624523Y-61688951D01*
X88540951Y-61772523D01*
X88475288Y-61870794D01*
X88430059Y-61979987D01*
X88407001Y-62095906D01*
X88407001Y-62214096D01*
X88430059Y-62330015D01*
X88475288Y-62439208D01*
X88540951Y-62537479D01*
X88618473Y-62615001D01*
X87014819Y-62615001D01*
X86839819Y-62440001D01*
X87002728Y-62440001D01*
X87229736Y-62394846D01*
X87443572Y-62306272D01*
X87636020Y-62177683D01*
X87799683Y-62014020D01*
X87928272Y-61821572D01*
X88016846Y-61607736D01*
X88062001Y-61380728D01*
X88062001Y-61149274D01*
X88016846Y-60922266D01*
X87928272Y-60708430D01*
X87799683Y-60515982D01*
X87636020Y-60352319D01*
X87505339Y-60265001D01*
X96428663Y-60265001D01*
X96297982Y-60352319D01*
X96297982Y-60352319D01*
G37*
X96297982Y-60352319D02*
X96134319Y-60515982D01*
X96005730Y-60708430D01*
X95917156Y-60922266D01*
X95872001Y-61149274D01*
X95872001Y-61380728D01*
X95917156Y-61607736D01*
X96005730Y-61821572D01*
X96134319Y-62014020D01*
X96297982Y-62177683D01*
X96490430Y-62306272D01*
X96704266Y-62394846D01*
X96931274Y-62440001D01*
X97162728Y-62440001D01*
X97389736Y-62394846D01*
X97603572Y-62306272D01*
X97796020Y-62177683D01*
X97959683Y-62014020D01*
X98010436Y-61938061D01*
X99427752Y-61938061D01*
X99460143Y-62320809D01*
X99566581Y-62689884D01*
X99742978Y-63031102D01*
X99772912Y-63075902D01*
X100019618Y-63261674D01*
X101316290Y-61965001D01*
X100019618Y-60668328D01*
X99772912Y-60854100D01*
X99587200Y-61190339D01*
X99470654Y-61556348D01*
X99427752Y-61938061D01*
X98010436Y-61938061D01*
X98088272Y-61821572D01*
X98176846Y-61607736D01*
X98222001Y-61380728D01*
X98222001Y-61149274D01*
X98176846Y-60922266D01*
X98088272Y-60708430D01*
X97959683Y-60515982D01*
X97796020Y-60352319D01*
X97665339Y-60265001D01*
X100429181Y-60265001D01*
X100320900Y-60320978D01*
X100276100Y-60350912D01*
X100090328Y-60597618D01*
X101387001Y-61894290D01*
X102683674Y-60597618D01*
X102497902Y-60350912D01*
X102342357Y-60265001D01*
X103087001Y-60265001D01*
X103087001Y-61007181D01*
X103031024Y-60898900D01*
X103001090Y-60854100D01*
X102754384Y-60668328D01*
X101457712Y-61965001D01*
X102754384Y-63261674D01*
X103001090Y-63075902D01*
X103087001Y-62920357D01*
X103087001Y-69265001D01*
X100869472Y-69265001D01*
X100899917Y-69248728D01*
X100992683Y-69081394D01*
X100247001Y-68335712D01*
X99501319Y-69081394D01*
X99594085Y-69248728D01*
X99624757Y-69265001D01*
X90709472Y-69265001D01*
X90739917Y-69248728D01*
X90832683Y-69081394D01*
X90087001Y-68335712D01*
X89341319Y-69081394D01*
X89434085Y-69248728D01*
X89464757Y-69265001D01*
X85373877Y-69265001D01*
X85403055Y-69241055D01*
X85534268Y-69081172D01*
X85631768Y-68898763D01*
X85691808Y-68700837D01*
X85712081Y-68495001D01*
X85691808Y-68289165D01*
X85679902Y-68249917D01*
X85923913Y-68005906D01*
X86487001Y-68005906D01*
X86487001Y-68124096D01*
X86510059Y-68240015D01*
X86555288Y-68349208D01*
X86620951Y-68447479D01*
X86704523Y-68531051D01*
X86802794Y-68596714D01*
X86911987Y-68641943D01*
X87027906Y-68665001D01*
X87146096Y-68665001D01*
X87262015Y-68641943D01*
X87371208Y-68596714D01*
X87469479Y-68531051D01*
X87553051Y-68447479D01*
X87618714Y-68349208D01*
X87652081Y-68268652D01*
X88906321Y-68268652D01*
X88929720Y-68498920D01*
X88997593Y-68720200D01*
X89103274Y-68917917D01*
X89270608Y-69010683D01*
X90016290Y-68265001D01*
X89270608Y-67519319D01*
X89103274Y-67612085D01*
X88994798Y-67816547D01*
X88928296Y-68038242D01*
X88906321Y-68268652D01*
X87652081Y-68268652D01*
X87663943Y-68240015D01*
X87687001Y-68124096D01*
X87687001Y-68005906D01*
X87663943Y-67889987D01*
X87618714Y-67780794D01*
X87553051Y-67682523D01*
X87469479Y-67598951D01*
X87371208Y-67533288D01*
X87262015Y-67488059D01*
X87146096Y-67465001D01*
X87027906Y-67465001D01*
X86911987Y-67488059D01*
X86802794Y-67533288D01*
X86704523Y-67598951D01*
X86620951Y-67682523D01*
X86555288Y-67780794D01*
X86510059Y-67889987D01*
X86487001Y-68005906D01*
X85923913Y-68005906D01*
X86914819Y-67015001D01*
X90109184Y-67015001D01*
X90188536Y-67094353D01*
X90083350Y-67084321D01*
X89853082Y-67107720D01*
X89631802Y-67175593D01*
X89434085Y-67281274D01*
X89341319Y-67448608D01*
X90087001Y-68194290D01*
X90101143Y-68180148D01*
X90171854Y-68250859D01*
X90157712Y-68265001D01*
X90903394Y-69010683D01*
X91070728Y-68917917D01*
X91179204Y-68713455D01*
X91245706Y-68491760D01*
X91267681Y-68261350D01*
X91257744Y-68163562D01*
X92129011Y-69034829D01*
X92146225Y-69055804D01*
X92167200Y-69073018D01*
X92167209Y-69073027D01*
X92229971Y-69124534D01*
X92248755Y-69134574D01*
X92325521Y-69175606D01*
X92429196Y-69207056D01*
X92509997Y-69215014D01*
X92510005Y-69215014D01*
X92537013Y-69217674D01*
X92564021Y-69215014D01*
X97908739Y-69215012D01*
X97935757Y-69217673D01*
X97997347Y-69211607D01*
X98043576Y-69207054D01*
X98147251Y-69175604D01*
X98242799Y-69124534D01*
X98305561Y-69073026D01*
X98305567Y-69073020D01*
X98326547Y-69055802D01*
X98343765Y-69034822D01*
X98856817Y-68521770D01*
X98877803Y-68504547D01*
X98946534Y-68420799D01*
X98980116Y-68357971D01*
X98997605Y-68325252D01*
X99014774Y-68268652D01*
X99066321Y-68268652D01*
X99089720Y-68498920D01*
X99157593Y-68720200D01*
X99263274Y-68917917D01*
X99430608Y-69010683D01*
X100176290Y-68265001D01*
X100317712Y-68265001D01*
X101063394Y-69010683D01*
X101230728Y-68917917D01*
X101339204Y-68713455D01*
X101405706Y-68491760D01*
X101427681Y-68261350D01*
X101404282Y-68031082D01*
X101336409Y-67809802D01*
X101230728Y-67612085D01*
X101063394Y-67519319D01*
X100317712Y-68265001D01*
X100176290Y-68265001D01*
X99430608Y-67519319D01*
X99263274Y-67612085D01*
X99154798Y-67816547D01*
X99088296Y-68038242D01*
X99066321Y-68268652D01*
X99014774Y-68268652D01*
X99029055Y-68221576D01*
X99030639Y-68205492D01*
X99037013Y-68140775D01*
X99037013Y-68140768D01*
X99039673Y-68113757D01*
X99037013Y-68086746D01*
X99037013Y-67448608D01*
X99501319Y-67448608D01*
X100247001Y-68194290D01*
X100992683Y-67448608D01*
X100899917Y-67281274D01*
X100695455Y-67172798D01*
X100473760Y-67106296D01*
X100243350Y-67084321D01*
X100013082Y-67107720D01*
X99791802Y-67175593D01*
X99594085Y-67281274D01*
X99501319Y-67448608D01*
X99037013Y-67448608D01*
X99037013Y-65292020D01*
X99039673Y-65265012D01*
X99037013Y-65238004D01*
X99037013Y-65237995D01*
X99029055Y-65157194D01*
X98997605Y-65053519D01*
X98946534Y-64957971D01*
X98929128Y-64936762D01*
X98895026Y-64895208D01*
X98895021Y-64895203D01*
X98877803Y-64874223D01*
X98856823Y-64857005D01*
X97332202Y-63332384D01*
X100090328Y-63332384D01*
X100276100Y-63579090D01*
X100612339Y-63764802D01*
X100978348Y-63881348D01*
X101360061Y-63924250D01*
X101742809Y-63891859D01*
X102111884Y-63785421D01*
X102453102Y-63609024D01*
X102497902Y-63579090D01*
X102683674Y-63332384D01*
X101387001Y-62035712D01*
X100090328Y-63332384D01*
X97332202Y-63332384D01*
X94895014Y-60895197D01*
X94877791Y-60874211D01*
X94794043Y-60805480D01*
X94698495Y-60754409D01*
X94594820Y-60722959D01*
X94514019Y-60715001D01*
X94514009Y-60715001D01*
X94487001Y-60712341D01*
X94459993Y-60715001D01*
X93478010Y-60715001D01*
X93450999Y-60712341D01*
X93423988Y-60715001D01*
X93423981Y-60715001D01*
X93343180Y-60722959D01*
X93239504Y-60754409D01*
X93153575Y-60800339D01*
X93143957Y-60805480D01*
X93060209Y-60874211D01*
X93042986Y-60895197D01*
X92617863Y-61320320D01*
X92637003Y-61224096D01*
X92637003Y-61105906D01*
X92613945Y-60989987D01*
X92568716Y-60880794D01*
X92503053Y-60782523D01*
X92419481Y-60698951D01*
X92321210Y-60633288D01*
X92212017Y-60588059D01*
X92096098Y-60565001D01*
X91977908Y-60565001D01*
X91861989Y-60588059D01*
X91752796Y-60633288D01*
X91654525Y-60698951D01*
X91570953Y-60782523D01*
X91505290Y-60880794D01*
X91460061Y-60989987D01*
X91437003Y-61105906D01*
X91437003Y-61224096D01*
X91460061Y-61340015D01*
X91505290Y-61449208D01*
X91570953Y-61547479D01*
X91654525Y-61631051D01*
X91752796Y-61696714D01*
X91861989Y-61741943D01*
X91977908Y-61765001D01*
X92096098Y-61765001D01*
X92192322Y-61745861D01*
X91323182Y-62615001D01*
X90144130Y-62615001D01*
X90176208Y-62601714D01*
X90274479Y-62536051D01*
X90358051Y-62452479D01*
X90423714Y-62354208D01*
X90468943Y-62245015D01*
X90492001Y-62129096D01*
X90492001Y-62010906D01*
X90468943Y-61894987D01*
X90423714Y-61785794D01*
X90358051Y-61687523D01*
X90274479Y-61603951D01*
X90176208Y-61538288D01*
X90067015Y-61493059D01*
X89951096Y-61470001D01*
X89832906Y-61470001D01*
X89716987Y-61493059D01*
X89607794Y-61538288D01*
X89509523Y-61603951D01*
X89425951Y-61687523D01*
X89410770Y-61710242D01*
X89389479Y-61688951D01*
X89291208Y-61623288D01*
X89182015Y-61578059D01*
X89066096Y-61555001D01*
X88947906Y-61555001D01*
X88831987Y-61578059D01*
X88722794Y-61623288D01*
X88624523Y-61688951D01*
X88540951Y-61772523D01*
X88475288Y-61870794D01*
X88430059Y-61979987D01*
X88407001Y-62095906D01*
X88407001Y-62214096D01*
X88430059Y-62330015D01*
X88475288Y-62439208D01*
X88540951Y-62537479D01*
X88618473Y-62615001D01*
X87014819Y-62615001D01*
X86839819Y-62440001D01*
X87002728Y-62440001D01*
X87229736Y-62394846D01*
X87443572Y-62306272D01*
X87636020Y-62177683D01*
X87799683Y-62014020D01*
X87928272Y-61821572D01*
X88016846Y-61607736D01*
X88062001Y-61380728D01*
X88062001Y-61149274D01*
X88016846Y-60922266D01*
X87928272Y-60708430D01*
X87799683Y-60515982D01*
X87636020Y-60352319D01*
X87505339Y-60265001D01*
X96428663Y-60265001D01*
X96297982Y-60352319D01*
G36*
X71019553Y-60284185D02*
G01*
X70957042Y-60401134D01*
X70918548Y-60528032D01*
X70905550Y-60660001D01*
X70905550Y-61410001D01*
X70918548Y-61541970D01*
X70957042Y-61668868D01*
X71019553Y-61785817D01*
X71103678Y-61888324D01*
X71206185Y-61972449D01*
X71323134Y-62034960D01*
X71450032Y-62073454D01*
X71582001Y-62086452D01*
X72332001Y-62086452D01*
X72463970Y-62073454D01*
X72590868Y-62034960D01*
X72707817Y-61972449D01*
X72810324Y-61888324D01*
X72894449Y-61785817D01*
X72956960Y-61668868D01*
X72995454Y-61541970D01*
X73008452Y-61410001D01*
X73008452Y-60660001D01*
X72995454Y-60528032D01*
X72956960Y-60401134D01*
X72894449Y-60284185D01*
X72878705Y-60265001D01*
X73780125Y-60265001D01*
X73750947Y-60288947D01*
X73619734Y-60448830D01*
X73522234Y-60631239D01*
X73462194Y-60829165D01*
X73441921Y-61035001D01*
X73462194Y-61240837D01*
X73522234Y-61438763D01*
X73619734Y-61621172D01*
X73750947Y-61781055D01*
X73910830Y-61912268D01*
X74093239Y-62009768D01*
X74291165Y-62069808D01*
X74445423Y-62085001D01*
X74548579Y-62085001D01*
X74702837Y-62069808D01*
X74900763Y-62009768D01*
X75083172Y-61912268D01*
X75243055Y-61781055D01*
X75374268Y-61621172D01*
X75471768Y-61438763D01*
X75531808Y-61240837D01*
X75552081Y-61035001D01*
X75531808Y-60829165D01*
X75471768Y-60631239D01*
X75374268Y-60448830D01*
X75243055Y-60288947D01*
X75213877Y-60265001D01*
X76108663Y-60265001D01*
X75977982Y-60352319D01*
X75814319Y-60515982D01*
X75685730Y-60708430D01*
X75597156Y-60922266D01*
X75552001Y-61149274D01*
X75552001Y-61380728D01*
X75597156Y-61607736D01*
X75685730Y-61821572D01*
X75814319Y-62014020D01*
X75977982Y-62177683D01*
X76170430Y-62306272D01*
X76384266Y-62394846D01*
X76611274Y-62440001D01*
X76842728Y-62440001D01*
X77069736Y-62394846D01*
X77283572Y-62306272D01*
X77476020Y-62177683D01*
X77639683Y-62014020D01*
X77768272Y-61821572D01*
X77856846Y-61607736D01*
X77896992Y-61405906D01*
X78611263Y-61405906D01*
X78611263Y-61524096D01*
X78634321Y-61640015D01*
X78679550Y-61749208D01*
X78745213Y-61847479D01*
X78828785Y-61931051D01*
X78927056Y-61996714D01*
X79036249Y-62041943D01*
X79152168Y-62065001D01*
X79270358Y-62065001D01*
X79386277Y-62041943D01*
X79495470Y-61996714D01*
X79593741Y-61931051D01*
X79624132Y-61900660D01*
X79654523Y-61931051D01*
X79752794Y-61996714D01*
X79861987Y-62041943D01*
X79977906Y-62065001D01*
X80096096Y-62065001D01*
X80212015Y-62041943D01*
X80321208Y-61996714D01*
X80419479Y-61931051D01*
X80503051Y-61847479D01*
X80544797Y-61785001D01*
X81065549Y-61785001D01*
X81071341Y-61843811D01*
X81088496Y-61900362D01*
X81116353Y-61952479D01*
X81153842Y-61998160D01*
X81199523Y-62035649D01*
X81251640Y-62063506D01*
X81308191Y-62080661D01*
X81367001Y-62086453D01*
X81992001Y-62085001D01*
X82067001Y-62010001D01*
X82067001Y-61085001D01*
X82167001Y-61085001D01*
X82167001Y-62010001D01*
X82242001Y-62085001D01*
X82867001Y-62086453D01*
X82925811Y-62080661D01*
X82982362Y-62063506D01*
X83034479Y-62035649D01*
X83080160Y-61998160D01*
X83117649Y-61952479D01*
X83145506Y-61900362D01*
X83162661Y-61843811D01*
X83168453Y-61785001D01*
X83167001Y-61160001D01*
X83092001Y-61085001D01*
X82167001Y-61085001D01*
X82067001Y-61085001D01*
X81142001Y-61085001D01*
X81067001Y-61160001D01*
X81065549Y-61785001D01*
X80544797Y-61785001D01*
X80568714Y-61749208D01*
X80613943Y-61640015D01*
X80637001Y-61524096D01*
X80637001Y-61405906D01*
X80613943Y-61289987D01*
X80568714Y-61180794D01*
X80503051Y-61082523D01*
X80419479Y-60998951D01*
X80321208Y-60933288D01*
X80212015Y-60888059D01*
X80096096Y-60865001D01*
X79977906Y-60865001D01*
X79861987Y-60888059D01*
X79752794Y-60933288D01*
X79654523Y-60998951D01*
X79624132Y-61029342D01*
X79593741Y-60998951D01*
X79495470Y-60933288D01*
X79386277Y-60888059D01*
X79270358Y-60865001D01*
X79152168Y-60865001D01*
X79036249Y-60888059D01*
X78927056Y-60933288D01*
X78828785Y-60998951D01*
X78745213Y-61082523D01*
X78679550Y-61180794D01*
X78634321Y-61289987D01*
X78611263Y-61405906D01*
X77896992Y-61405906D01*
X77902001Y-61380728D01*
X77902001Y-61149274D01*
X77856846Y-60922266D01*
X77768272Y-60708430D01*
X77639683Y-60515982D01*
X77476020Y-60352319D01*
X77345339Y-60265001D01*
X81067519Y-60265001D01*
X81065549Y-60285001D01*
X81067001Y-60910001D01*
X81142001Y-60985001D01*
X82067001Y-60985001D01*
X82067001Y-60965001D01*
X82167001Y-60965001D01*
X82167001Y-60985001D01*
X83092001Y-60985001D01*
X83167001Y-60910001D01*
X83168453Y-60285001D01*
X83166483Y-60265001D01*
X83940125Y-60265001D01*
X83910947Y-60288947D01*
X83779734Y-60448830D01*
X83682234Y-60631239D01*
X83622194Y-60829165D01*
X83601921Y-61035001D01*
X83622194Y-61240837D01*
X83682234Y-61438763D01*
X83779734Y-61621172D01*
X83910947Y-61781055D01*
X84070830Y-61912268D01*
X84253239Y-62009768D01*
X84451165Y-62069808D01*
X84605423Y-62085001D01*
X84708579Y-62085001D01*
X84862837Y-62069808D01*
X84902085Y-62057902D01*
X86378993Y-63534811D01*
X86396211Y-63555791D01*
X86417191Y-63573009D01*
X86417196Y-63573014D01*
X86479158Y-63623865D01*
X86479959Y-63624522D01*
X86575507Y-63675593D01*
X86679182Y-63707043D01*
X86759983Y-63715001D01*
X86759993Y-63715001D01*
X86787001Y-63717661D01*
X86814009Y-63715001D01*
X91523991Y-63715001D01*
X91550999Y-63717661D01*
X91578007Y-63715001D01*
X91578017Y-63715001D01*
X91658818Y-63707043D01*
X91762493Y-63675593D01*
X91858041Y-63624522D01*
X91941789Y-63555791D01*
X91959012Y-63534805D01*
X93387001Y-62106816D01*
X93387001Y-62224096D01*
X93410059Y-62340015D01*
X93455288Y-62449208D01*
X93520951Y-62547479D01*
X93604523Y-62631051D01*
X93702794Y-62696714D01*
X93811987Y-62741943D01*
X93927906Y-62765001D01*
X94046096Y-62765001D01*
X94054917Y-62763246D01*
X97637003Y-66345333D01*
X97637002Y-67083084D01*
X97546096Y-67065001D01*
X97427906Y-67065001D01*
X97311987Y-67088059D01*
X97202794Y-67133288D01*
X97104523Y-67198951D01*
X97020951Y-67282523D01*
X97015954Y-67290001D01*
X95242331Y-67290001D01*
X92015117Y-64062788D01*
X92003370Y-64048474D01*
X91946269Y-64001613D01*
X91881122Y-63966791D01*
X91810435Y-63945348D01*
X91755341Y-63939922D01*
X91755338Y-63939922D01*
X91736922Y-63938108D01*
X91718506Y-63939922D01*
X70005038Y-63939922D01*
X69986622Y-63938108D01*
X69968206Y-63939922D01*
X69968204Y-63939922D01*
X69913110Y-63945348D01*
X69842423Y-63966791D01*
X69780815Y-63999721D01*
X69763943Y-63914901D01*
X69718714Y-63805708D01*
X69653051Y-63707437D01*
X69569479Y-63623865D01*
X69471208Y-63558202D01*
X69362015Y-63512973D01*
X69246096Y-63489915D01*
X69127906Y-63489915D01*
X69011987Y-63512973D01*
X68902794Y-63558202D01*
X68804523Y-63623865D01*
X68720951Y-63707437D01*
X68655288Y-63805708D01*
X68610059Y-63914901D01*
X68587001Y-64030820D01*
X68587001Y-64149010D01*
X68605087Y-64239932D01*
X68579764Y-64239932D01*
X68561348Y-64238118D01*
X68542932Y-64239932D01*
X68542929Y-64239932D01*
X68487835Y-64245358D01*
X68417148Y-64266801D01*
X68352001Y-64301623D01*
X68294900Y-64348484D01*
X68283158Y-64362792D01*
X67905927Y-64740024D01*
X67763935Y-64740024D01*
X67763939Y-64740015D01*
X67786997Y-64624096D01*
X67786997Y-64505906D01*
X67785242Y-64497085D01*
X68892327Y-63390001D01*
X71918585Y-63390001D01*
X71937001Y-63391815D01*
X71955417Y-63390001D01*
X71955420Y-63390001D01*
X72010514Y-63384575D01*
X72081201Y-63363132D01*
X72146348Y-63328310D01*
X72203449Y-63281449D01*
X72215196Y-63267135D01*
X72442331Y-63040001D01*
X72836297Y-63040001D01*
X72916290Y-63119994D01*
X73014561Y-63185657D01*
X73123754Y-63230886D01*
X73239673Y-63253944D01*
X73357863Y-63253944D01*
X73473782Y-63230886D01*
X73582975Y-63185657D01*
X73681246Y-63119994D01*
X73764818Y-63036422D01*
X73830481Y-62938151D01*
X73875710Y-62828958D01*
X73898768Y-62713039D01*
X73898768Y-62594849D01*
X73875710Y-62478930D01*
X73830481Y-62369737D01*
X73764818Y-62271466D01*
X73681246Y-62187894D01*
X73582975Y-62122231D01*
X73473782Y-62077002D01*
X73357863Y-62053944D01*
X73239673Y-62053944D01*
X73123754Y-62077002D01*
X73014561Y-62122231D01*
X72916290Y-62187894D01*
X72832718Y-62271466D01*
X72820333Y-62290001D01*
X72305417Y-62290001D01*
X72287001Y-62288187D01*
X72268585Y-62290001D01*
X72268582Y-62290001D01*
X72213488Y-62295427D01*
X72142801Y-62316870D01*
X72135449Y-62320800D01*
X72077654Y-62351691D01*
X72050048Y-62374347D01*
X72020553Y-62398553D01*
X72008812Y-62412860D01*
X71781672Y-62640001D01*
X69091435Y-62640001D01*
X69118714Y-62599175D01*
X69163943Y-62489982D01*
X69187001Y-62374063D01*
X69187001Y-62255873D01*
X69163943Y-62139954D01*
X69118714Y-62030761D01*
X69053051Y-61932490D01*
X68969479Y-61848918D01*
X68871208Y-61783255D01*
X68762015Y-61738026D01*
X68646096Y-61714968D01*
X68527906Y-61714968D01*
X68411987Y-61738026D01*
X68302794Y-61783255D01*
X68204523Y-61848918D01*
X68120951Y-61932490D01*
X68055288Y-62030761D01*
X68010059Y-62139954D01*
X67987001Y-62255873D01*
X67987001Y-62374063D01*
X68010059Y-62489982D01*
X68055288Y-62599175D01*
X68111941Y-62683962D01*
X67689576Y-63106328D01*
X67671411Y-63015009D01*
X67626182Y-62905816D01*
X67560519Y-62807545D01*
X67476947Y-62723973D01*
X67378676Y-62658310D01*
X67269483Y-62613081D01*
X67153564Y-62590023D01*
X67035374Y-62590023D01*
X67026553Y-62591778D01*
X66842913Y-62408138D01*
X66909736Y-62394846D01*
X67123572Y-62306272D01*
X67316020Y-62177683D01*
X67479683Y-62014020D01*
X67608272Y-61821572D01*
X67696846Y-61607736D01*
X67742001Y-61380728D01*
X67742001Y-61149274D01*
X67734373Y-61110924D01*
X69137001Y-61110924D01*
X69137001Y-61229114D01*
X69160059Y-61345033D01*
X69205288Y-61454226D01*
X69270951Y-61552497D01*
X69354523Y-61636069D01*
X69452794Y-61701732D01*
X69561987Y-61746961D01*
X69677906Y-61770019D01*
X69796096Y-61770019D01*
X69912015Y-61746961D01*
X70021208Y-61701732D01*
X70119479Y-61636069D01*
X70203051Y-61552497D01*
X70268714Y-61454226D01*
X70313943Y-61345033D01*
X70337001Y-61229114D01*
X70337001Y-61110924D01*
X70313943Y-60995005D01*
X70268714Y-60885812D01*
X70203051Y-60787541D01*
X70119479Y-60703969D01*
X70021208Y-60638306D01*
X69912015Y-60593077D01*
X69796096Y-60570019D01*
X69677906Y-60570019D01*
X69561987Y-60593077D01*
X69452794Y-60638306D01*
X69354523Y-60703969D01*
X69270951Y-60787541D01*
X69205288Y-60885812D01*
X69160059Y-60995005D01*
X69137001Y-61110924D01*
X67734373Y-61110924D01*
X67696846Y-60922266D01*
X67608272Y-60708430D01*
X67479683Y-60515982D01*
X67316020Y-60352319D01*
X67185339Y-60265001D01*
X71035297Y-60265001D01*
X71019553Y-60284185D01*
X71019553Y-60284185D01*
G37*
X71019553Y-60284185D02*
X70957042Y-60401134D01*
X70918548Y-60528032D01*
X70905550Y-60660001D01*
X70905550Y-61410001D01*
X70918548Y-61541970D01*
X70957042Y-61668868D01*
X71019553Y-61785817D01*
X71103678Y-61888324D01*
X71206185Y-61972449D01*
X71323134Y-62034960D01*
X71450032Y-62073454D01*
X71582001Y-62086452D01*
X72332001Y-62086452D01*
X72463970Y-62073454D01*
X72590868Y-62034960D01*
X72707817Y-61972449D01*
X72810324Y-61888324D01*
X72894449Y-61785817D01*
X72956960Y-61668868D01*
X72995454Y-61541970D01*
X73008452Y-61410001D01*
X73008452Y-60660001D01*
X72995454Y-60528032D01*
X72956960Y-60401134D01*
X72894449Y-60284185D01*
X72878705Y-60265001D01*
X73780125Y-60265001D01*
X73750947Y-60288947D01*
X73619734Y-60448830D01*
X73522234Y-60631239D01*
X73462194Y-60829165D01*
X73441921Y-61035001D01*
X73462194Y-61240837D01*
X73522234Y-61438763D01*
X73619734Y-61621172D01*
X73750947Y-61781055D01*
X73910830Y-61912268D01*
X74093239Y-62009768D01*
X74291165Y-62069808D01*
X74445423Y-62085001D01*
X74548579Y-62085001D01*
X74702837Y-62069808D01*
X74900763Y-62009768D01*
X75083172Y-61912268D01*
X75243055Y-61781055D01*
X75374268Y-61621172D01*
X75471768Y-61438763D01*
X75531808Y-61240837D01*
X75552081Y-61035001D01*
X75531808Y-60829165D01*
X75471768Y-60631239D01*
X75374268Y-60448830D01*
X75243055Y-60288947D01*
X75213877Y-60265001D01*
X76108663Y-60265001D01*
X75977982Y-60352319D01*
X75814319Y-60515982D01*
X75685730Y-60708430D01*
X75597156Y-60922266D01*
X75552001Y-61149274D01*
X75552001Y-61380728D01*
X75597156Y-61607736D01*
X75685730Y-61821572D01*
X75814319Y-62014020D01*
X75977982Y-62177683D01*
X76170430Y-62306272D01*
X76384266Y-62394846D01*
X76611274Y-62440001D01*
X76842728Y-62440001D01*
X77069736Y-62394846D01*
X77283572Y-62306272D01*
X77476020Y-62177683D01*
X77639683Y-62014020D01*
X77768272Y-61821572D01*
X77856846Y-61607736D01*
X77896992Y-61405906D01*
X78611263Y-61405906D01*
X78611263Y-61524096D01*
X78634321Y-61640015D01*
X78679550Y-61749208D01*
X78745213Y-61847479D01*
X78828785Y-61931051D01*
X78927056Y-61996714D01*
X79036249Y-62041943D01*
X79152168Y-62065001D01*
X79270358Y-62065001D01*
X79386277Y-62041943D01*
X79495470Y-61996714D01*
X79593741Y-61931051D01*
X79624132Y-61900660D01*
X79654523Y-61931051D01*
X79752794Y-61996714D01*
X79861987Y-62041943D01*
X79977906Y-62065001D01*
X80096096Y-62065001D01*
X80212015Y-62041943D01*
X80321208Y-61996714D01*
X80419479Y-61931051D01*
X80503051Y-61847479D01*
X80544797Y-61785001D01*
X81065549Y-61785001D01*
X81071341Y-61843811D01*
X81088496Y-61900362D01*
X81116353Y-61952479D01*
X81153842Y-61998160D01*
X81199523Y-62035649D01*
X81251640Y-62063506D01*
X81308191Y-62080661D01*
X81367001Y-62086453D01*
X81992001Y-62085001D01*
X82067001Y-62010001D01*
X82067001Y-61085001D01*
X82167001Y-61085001D01*
X82167001Y-62010001D01*
X82242001Y-62085001D01*
X82867001Y-62086453D01*
X82925811Y-62080661D01*
X82982362Y-62063506D01*
X83034479Y-62035649D01*
X83080160Y-61998160D01*
X83117649Y-61952479D01*
X83145506Y-61900362D01*
X83162661Y-61843811D01*
X83168453Y-61785001D01*
X83167001Y-61160001D01*
X83092001Y-61085001D01*
X82167001Y-61085001D01*
X82067001Y-61085001D01*
X81142001Y-61085001D01*
X81067001Y-61160001D01*
X81065549Y-61785001D01*
X80544797Y-61785001D01*
X80568714Y-61749208D01*
X80613943Y-61640015D01*
X80637001Y-61524096D01*
X80637001Y-61405906D01*
X80613943Y-61289987D01*
X80568714Y-61180794D01*
X80503051Y-61082523D01*
X80419479Y-60998951D01*
X80321208Y-60933288D01*
X80212015Y-60888059D01*
X80096096Y-60865001D01*
X79977906Y-60865001D01*
X79861987Y-60888059D01*
X79752794Y-60933288D01*
X79654523Y-60998951D01*
X79624132Y-61029342D01*
X79593741Y-60998951D01*
X79495470Y-60933288D01*
X79386277Y-60888059D01*
X79270358Y-60865001D01*
X79152168Y-60865001D01*
X79036249Y-60888059D01*
X78927056Y-60933288D01*
X78828785Y-60998951D01*
X78745213Y-61082523D01*
X78679550Y-61180794D01*
X78634321Y-61289987D01*
X78611263Y-61405906D01*
X77896992Y-61405906D01*
X77902001Y-61380728D01*
X77902001Y-61149274D01*
X77856846Y-60922266D01*
X77768272Y-60708430D01*
X77639683Y-60515982D01*
X77476020Y-60352319D01*
X77345339Y-60265001D01*
X81067519Y-60265001D01*
X81065549Y-60285001D01*
X81067001Y-60910001D01*
X81142001Y-60985001D01*
X82067001Y-60985001D01*
X82067001Y-60965001D01*
X82167001Y-60965001D01*
X82167001Y-60985001D01*
X83092001Y-60985001D01*
X83167001Y-60910001D01*
X83168453Y-60285001D01*
X83166483Y-60265001D01*
X83940125Y-60265001D01*
X83910947Y-60288947D01*
X83779734Y-60448830D01*
X83682234Y-60631239D01*
X83622194Y-60829165D01*
X83601921Y-61035001D01*
X83622194Y-61240837D01*
X83682234Y-61438763D01*
X83779734Y-61621172D01*
X83910947Y-61781055D01*
X84070830Y-61912268D01*
X84253239Y-62009768D01*
X84451165Y-62069808D01*
X84605423Y-62085001D01*
X84708579Y-62085001D01*
X84862837Y-62069808D01*
X84902085Y-62057902D01*
X86378993Y-63534811D01*
X86396211Y-63555791D01*
X86417191Y-63573009D01*
X86417196Y-63573014D01*
X86479158Y-63623865D01*
X86479959Y-63624522D01*
X86575507Y-63675593D01*
X86679182Y-63707043D01*
X86759983Y-63715001D01*
X86759993Y-63715001D01*
X86787001Y-63717661D01*
X86814009Y-63715001D01*
X91523991Y-63715001D01*
X91550999Y-63717661D01*
X91578007Y-63715001D01*
X91578017Y-63715001D01*
X91658818Y-63707043D01*
X91762493Y-63675593D01*
X91858041Y-63624522D01*
X91941789Y-63555791D01*
X91959012Y-63534805D01*
X93387001Y-62106816D01*
X93387001Y-62224096D01*
X93410059Y-62340015D01*
X93455288Y-62449208D01*
X93520951Y-62547479D01*
X93604523Y-62631051D01*
X93702794Y-62696714D01*
X93811987Y-62741943D01*
X93927906Y-62765001D01*
X94046096Y-62765001D01*
X94054917Y-62763246D01*
X97637003Y-66345333D01*
X97637002Y-67083084D01*
X97546096Y-67065001D01*
X97427906Y-67065001D01*
X97311987Y-67088059D01*
X97202794Y-67133288D01*
X97104523Y-67198951D01*
X97020951Y-67282523D01*
X97015954Y-67290001D01*
X95242331Y-67290001D01*
X92015117Y-64062788D01*
X92003370Y-64048474D01*
X91946269Y-64001613D01*
X91881122Y-63966791D01*
X91810435Y-63945348D01*
X91755341Y-63939922D01*
X91755338Y-63939922D01*
X91736922Y-63938108D01*
X91718506Y-63939922D01*
X70005038Y-63939922D01*
X69986622Y-63938108D01*
X69968206Y-63939922D01*
X69968204Y-63939922D01*
X69913110Y-63945348D01*
X69842423Y-63966791D01*
X69780815Y-63999721D01*
X69763943Y-63914901D01*
X69718714Y-63805708D01*
X69653051Y-63707437D01*
X69569479Y-63623865D01*
X69471208Y-63558202D01*
X69362015Y-63512973D01*
X69246096Y-63489915D01*
X69127906Y-63489915D01*
X69011987Y-63512973D01*
X68902794Y-63558202D01*
X68804523Y-63623865D01*
X68720951Y-63707437D01*
X68655288Y-63805708D01*
X68610059Y-63914901D01*
X68587001Y-64030820D01*
X68587001Y-64149010D01*
X68605087Y-64239932D01*
X68579764Y-64239932D01*
X68561348Y-64238118D01*
X68542932Y-64239932D01*
X68542929Y-64239932D01*
X68487835Y-64245358D01*
X68417148Y-64266801D01*
X68352001Y-64301623D01*
X68294900Y-64348484D01*
X68283158Y-64362792D01*
X67905927Y-64740024D01*
X67763935Y-64740024D01*
X67763939Y-64740015D01*
X67786997Y-64624096D01*
X67786997Y-64505906D01*
X67785242Y-64497085D01*
X68892327Y-63390001D01*
X71918585Y-63390001D01*
X71937001Y-63391815D01*
X71955417Y-63390001D01*
X71955420Y-63390001D01*
X72010514Y-63384575D01*
X72081201Y-63363132D01*
X72146348Y-63328310D01*
X72203449Y-63281449D01*
X72215196Y-63267135D01*
X72442331Y-63040001D01*
X72836297Y-63040001D01*
X72916290Y-63119994D01*
X73014561Y-63185657D01*
X73123754Y-63230886D01*
X73239673Y-63253944D01*
X73357863Y-63253944D01*
X73473782Y-63230886D01*
X73582975Y-63185657D01*
X73681246Y-63119994D01*
X73764818Y-63036422D01*
X73830481Y-62938151D01*
X73875710Y-62828958D01*
X73898768Y-62713039D01*
X73898768Y-62594849D01*
X73875710Y-62478930D01*
X73830481Y-62369737D01*
X73764818Y-62271466D01*
X73681246Y-62187894D01*
X73582975Y-62122231D01*
X73473782Y-62077002D01*
X73357863Y-62053944D01*
X73239673Y-62053944D01*
X73123754Y-62077002D01*
X73014561Y-62122231D01*
X72916290Y-62187894D01*
X72832718Y-62271466D01*
X72820333Y-62290001D01*
X72305417Y-62290001D01*
X72287001Y-62288187D01*
X72268585Y-62290001D01*
X72268582Y-62290001D01*
X72213488Y-62295427D01*
X72142801Y-62316870D01*
X72135449Y-62320800D01*
X72077654Y-62351691D01*
X72050048Y-62374347D01*
X72020553Y-62398553D01*
X72008812Y-62412860D01*
X71781672Y-62640001D01*
X69091435Y-62640001D01*
X69118714Y-62599175D01*
X69163943Y-62489982D01*
X69187001Y-62374063D01*
X69187001Y-62255873D01*
X69163943Y-62139954D01*
X69118714Y-62030761D01*
X69053051Y-61932490D01*
X68969479Y-61848918D01*
X68871208Y-61783255D01*
X68762015Y-61738026D01*
X68646096Y-61714968D01*
X68527906Y-61714968D01*
X68411987Y-61738026D01*
X68302794Y-61783255D01*
X68204523Y-61848918D01*
X68120951Y-61932490D01*
X68055288Y-62030761D01*
X68010059Y-62139954D01*
X67987001Y-62255873D01*
X67987001Y-62374063D01*
X68010059Y-62489982D01*
X68055288Y-62599175D01*
X68111941Y-62683962D01*
X67689576Y-63106328D01*
X67671411Y-63015009D01*
X67626182Y-62905816D01*
X67560519Y-62807545D01*
X67476947Y-62723973D01*
X67378676Y-62658310D01*
X67269483Y-62613081D01*
X67153564Y-62590023D01*
X67035374Y-62590023D01*
X67026553Y-62591778D01*
X66842913Y-62408138D01*
X66909736Y-62394846D01*
X67123572Y-62306272D01*
X67316020Y-62177683D01*
X67479683Y-62014020D01*
X67608272Y-61821572D01*
X67696846Y-61607736D01*
X67742001Y-61380728D01*
X67742001Y-61149274D01*
X67734373Y-61110924D01*
X69137001Y-61110924D01*
X69137001Y-61229114D01*
X69160059Y-61345033D01*
X69205288Y-61454226D01*
X69270951Y-61552497D01*
X69354523Y-61636069D01*
X69452794Y-61701732D01*
X69561987Y-61746961D01*
X69677906Y-61770019D01*
X69796096Y-61770019D01*
X69912015Y-61746961D01*
X70021208Y-61701732D01*
X70119479Y-61636069D01*
X70203051Y-61552497D01*
X70268714Y-61454226D01*
X70313943Y-61345033D01*
X70337001Y-61229114D01*
X70337001Y-61110924D01*
X70313943Y-60995005D01*
X70268714Y-60885812D01*
X70203051Y-60787541D01*
X70119479Y-60703969D01*
X70021208Y-60638306D01*
X69912015Y-60593077D01*
X69796096Y-60570019D01*
X69677906Y-60570019D01*
X69561987Y-60593077D01*
X69452794Y-60638306D01*
X69354523Y-60703969D01*
X69270951Y-60787541D01*
X69205288Y-60885812D01*
X69160059Y-60995005D01*
X69137001Y-61110924D01*
X67734373Y-61110924D01*
X67696846Y-60922266D01*
X67608272Y-60708430D01*
X67479683Y-60515982D01*
X67316020Y-60352319D01*
X67185339Y-60265001D01*
X71035297Y-60265001D01*
X71019553Y-60284185D01*
G36*
X65634560Y-63967169D02*
G01*
X65646298Y-63981472D01*
X65660601Y-63993210D01*
X65660604Y-63993213D01*
X65703399Y-64028333D01*
X65733756Y-64044559D01*
X65768546Y-64063155D01*
X65839233Y-64084598D01*
X65894327Y-64090024D01*
X65894329Y-64090024D01*
X65912745Y-64091838D01*
X65931161Y-64090024D01*
X66817879Y-64090024D01*
X66804519Y-64098951D01*
X66720947Y-64182523D01*
X66655284Y-64280794D01*
X66610055Y-64389987D01*
X66586997Y-64505906D01*
X66586997Y-64624096D01*
X66610055Y-64740015D01*
X66610059Y-64740024D01*
X64931114Y-64740024D01*
X64912698Y-64738210D01*
X64894282Y-64740024D01*
X64894280Y-64740024D01*
X64839186Y-64745450D01*
X64768499Y-64766893D01*
X64703352Y-64801715D01*
X64646251Y-64848576D01*
X64634509Y-64862884D01*
X63757393Y-65740001D01*
X62974117Y-65740001D01*
X62994840Y-65689971D01*
X63000876Y-65659624D01*
X63027906Y-65665001D01*
X63146096Y-65665001D01*
X63262015Y-65641943D01*
X63371208Y-65596714D01*
X63469479Y-65531051D01*
X63553051Y-65447479D01*
X63618714Y-65349208D01*
X63663943Y-65240015D01*
X63687001Y-65124096D01*
X63687001Y-65005906D01*
X63663943Y-64889987D01*
X63618714Y-64780794D01*
X63553051Y-64682523D01*
X63469479Y-64598951D01*
X63371208Y-64533288D01*
X63262015Y-64488059D01*
X63253286Y-64486323D01*
X63272149Y-64424141D01*
X63213396Y-64315001D01*
X62707714Y-64315001D01*
X62671855Y-64279142D01*
X62601142Y-64349855D01*
X62637001Y-64385714D01*
X62637001Y-64538710D01*
X62537001Y-64538710D01*
X62537001Y-64385714D01*
X62572860Y-64349855D01*
X62502147Y-64279142D01*
X62466288Y-64315001D01*
X61960606Y-64315001D01*
X61901853Y-64424141D01*
X61940636Y-64538710D01*
X60706155Y-64538710D01*
X60760091Y-64533398D01*
X60830778Y-64511955D01*
X60895925Y-64477133D01*
X60953026Y-64430272D01*
X60964773Y-64415958D01*
X61698311Y-63682421D01*
X61705288Y-63699266D01*
X61770951Y-63797537D01*
X61854523Y-63881109D01*
X61952794Y-63946772D01*
X61961642Y-63950437D01*
X61928908Y-64016673D01*
X61901853Y-64105861D01*
X61960606Y-64215001D01*
X62466288Y-64215001D01*
X62502147Y-64250860D01*
X62572860Y-64180147D01*
X62537001Y-64144288D01*
X62537001Y-63936219D01*
X62619479Y-63881109D01*
X62637001Y-63863587D01*
X62637001Y-64144288D01*
X62601142Y-64180147D01*
X62671855Y-64250860D01*
X62707714Y-64215001D01*
X63213396Y-64215001D01*
X63272149Y-64105861D01*
X63258772Y-64066343D01*
X63265178Y-64067617D01*
X63383368Y-64067617D01*
X63499287Y-64044559D01*
X63608480Y-63999330D01*
X63706751Y-63933667D01*
X63790323Y-63850095D01*
X63855986Y-63751824D01*
X63901215Y-63642631D01*
X63924273Y-63526712D01*
X63924273Y-63408522D01*
X63901215Y-63292603D01*
X63887182Y-63258725D01*
X64926118Y-63258725D01*
X65634560Y-63967169D01*
X65634560Y-63967169D01*
G37*
X65634560Y-63967169D02*
X65646298Y-63981472D01*
X65660601Y-63993210D01*
X65660604Y-63993213D01*
X65703399Y-64028333D01*
X65733756Y-64044559D01*
X65768546Y-64063155D01*
X65839233Y-64084598D01*
X65894327Y-64090024D01*
X65894329Y-64090024D01*
X65912745Y-64091838D01*
X65931161Y-64090024D01*
X66817879Y-64090024D01*
X66804519Y-64098951D01*
X66720947Y-64182523D01*
X66655284Y-64280794D01*
X66610055Y-64389987D01*
X66586997Y-64505906D01*
X66586997Y-64624096D01*
X66610055Y-64740015D01*
X66610059Y-64740024D01*
X64931114Y-64740024D01*
X64912698Y-64738210D01*
X64894282Y-64740024D01*
X64894280Y-64740024D01*
X64839186Y-64745450D01*
X64768499Y-64766893D01*
X64703352Y-64801715D01*
X64646251Y-64848576D01*
X64634509Y-64862884D01*
X63757393Y-65740001D01*
X62974117Y-65740001D01*
X62994840Y-65689971D01*
X63000876Y-65659624D01*
X63027906Y-65665001D01*
X63146096Y-65665001D01*
X63262015Y-65641943D01*
X63371208Y-65596714D01*
X63469479Y-65531051D01*
X63553051Y-65447479D01*
X63618714Y-65349208D01*
X63663943Y-65240015D01*
X63687001Y-65124096D01*
X63687001Y-65005906D01*
X63663943Y-64889987D01*
X63618714Y-64780794D01*
X63553051Y-64682523D01*
X63469479Y-64598951D01*
X63371208Y-64533288D01*
X63262015Y-64488059D01*
X63253286Y-64486323D01*
X63272149Y-64424141D01*
X63213396Y-64315001D01*
X62707714Y-64315001D01*
X62671855Y-64279142D01*
X62601142Y-64349855D01*
X62637001Y-64385714D01*
X62637001Y-64538710D01*
X62537001Y-64538710D01*
X62537001Y-64385714D01*
X62572860Y-64349855D01*
X62502147Y-64279142D01*
X62466288Y-64315001D01*
X61960606Y-64315001D01*
X61901853Y-64424141D01*
X61940636Y-64538710D01*
X60706155Y-64538710D01*
X60760091Y-64533398D01*
X60830778Y-64511955D01*
X60895925Y-64477133D01*
X60953026Y-64430272D01*
X60964773Y-64415958D01*
X61698311Y-63682421D01*
X61705288Y-63699266D01*
X61770951Y-63797537D01*
X61854523Y-63881109D01*
X61952794Y-63946772D01*
X61961642Y-63950437D01*
X61928908Y-64016673D01*
X61901853Y-64105861D01*
X61960606Y-64215001D01*
X62466288Y-64215001D01*
X62502147Y-64250860D01*
X62572860Y-64180147D01*
X62537001Y-64144288D01*
X62537001Y-63936219D01*
X62619479Y-63881109D01*
X62637001Y-63863587D01*
X62637001Y-64144288D01*
X62601142Y-64180147D01*
X62671855Y-64250860D01*
X62707714Y-64215001D01*
X63213396Y-64215001D01*
X63272149Y-64105861D01*
X63258772Y-64066343D01*
X63265178Y-64067617D01*
X63383368Y-64067617D01*
X63499287Y-64044559D01*
X63608480Y-63999330D01*
X63706751Y-63933667D01*
X63790323Y-63850095D01*
X63855986Y-63751824D01*
X63901215Y-63642631D01*
X63924273Y-63526712D01*
X63924273Y-63408522D01*
X63901215Y-63292603D01*
X63887182Y-63258725D01*
X64926118Y-63258725D01*
X65634560Y-63967169D01*
M02*
