G04 #@! TF.GenerationSoftware,KiCad,Pcbnew,(5.1.4)-1*
G04 #@! TF.CreationDate,2020-12-11T11:15:29+01:00*
G04 #@! TF.ProjectId,dot_flipper,646f745f-666c-4697-9070-65722e6b6963,rev?*
G04 #@! TF.SameCoordinates,Original*
G04 #@! TF.FileFunction,Soldermask,Top*
G04 #@! TF.FilePolarity,Negative*
%FSLAX46Y46*%
G04 Gerber Fmt 4.6, Leading zero omitted, Abs format (unit mm)*
G04 Created by KiCad (PCBNEW (5.1.4)-1) date 2020-12-11 11:15:29*
%MOMM*%
%LPD*%
G04 APERTURE LIST*
%ADD10C,0.100000*%
G04 APERTURE END LIST*
D10*
G36*
X64707886Y-68220306D02*
G01*
X64734820Y-68222959D01*
X64769378Y-68233442D01*
X64838497Y-68254409D01*
X64934040Y-68305478D01*
X64934041Y-68305479D01*
X64934043Y-68305480D01*
X64973880Y-68338174D01*
X65017791Y-68374211D01*
X65086524Y-68457962D01*
X65137593Y-68553505D01*
X65158560Y-68622624D01*
X65166466Y-68648686D01*
X65169043Y-68657183D01*
X65179662Y-68765001D01*
X65169043Y-68872819D01*
X65137593Y-68976497D01*
X65086524Y-69072040D01*
X65086522Y-69072043D01*
X65017791Y-69155791D01*
X64934043Y-69224522D01*
X64934041Y-69224523D01*
X64934040Y-69224524D01*
X64838497Y-69275593D01*
X64769378Y-69296560D01*
X64734820Y-69307043D01*
X64707886Y-69309696D01*
X64654021Y-69315001D01*
X64599981Y-69315001D01*
X64546116Y-69309696D01*
X64519182Y-69307043D01*
X64484624Y-69296560D01*
X64415505Y-69275593D01*
X64319962Y-69224524D01*
X64319961Y-69224523D01*
X64319959Y-69224522D01*
X64236211Y-69155791D01*
X64167480Y-69072043D01*
X64167478Y-69072040D01*
X64116409Y-68976497D01*
X64084959Y-68872819D01*
X64074340Y-68765001D01*
X64084959Y-68657183D01*
X64087537Y-68648686D01*
X64095442Y-68622624D01*
X64116409Y-68553505D01*
X64167478Y-68457962D01*
X64236211Y-68374211D01*
X64280122Y-68338174D01*
X64319959Y-68305480D01*
X64319961Y-68305479D01*
X64319962Y-68305478D01*
X64415505Y-68254409D01*
X64484624Y-68233442D01*
X64519182Y-68222959D01*
X64546116Y-68220306D01*
X64599981Y-68215001D01*
X64654021Y-68215001D01*
X64707886Y-68220306D01*
X64707886Y-68220306D01*
G37*
G36*
X65977886Y-68220306D02*
G01*
X66004820Y-68222959D01*
X66039378Y-68233442D01*
X66108497Y-68254409D01*
X66204040Y-68305478D01*
X66204041Y-68305479D01*
X66204043Y-68305480D01*
X66243880Y-68338174D01*
X66287791Y-68374211D01*
X66356524Y-68457962D01*
X66407593Y-68553505D01*
X66428560Y-68622624D01*
X66436466Y-68648686D01*
X66439043Y-68657183D01*
X66449662Y-68765001D01*
X66439043Y-68872819D01*
X66407593Y-68976497D01*
X66356524Y-69072040D01*
X66356522Y-69072043D01*
X66287791Y-69155791D01*
X66204043Y-69224522D01*
X66204041Y-69224523D01*
X66204040Y-69224524D01*
X66108497Y-69275593D01*
X66039378Y-69296560D01*
X66004820Y-69307043D01*
X65977886Y-69309696D01*
X65924021Y-69315001D01*
X65869981Y-69315001D01*
X65816116Y-69309696D01*
X65789182Y-69307043D01*
X65754624Y-69296560D01*
X65685505Y-69275593D01*
X65589962Y-69224524D01*
X65589961Y-69224523D01*
X65589959Y-69224522D01*
X65506211Y-69155791D01*
X65437480Y-69072043D01*
X65437478Y-69072040D01*
X65386409Y-68976497D01*
X65354959Y-68872819D01*
X65344340Y-68765001D01*
X65354959Y-68657183D01*
X65357537Y-68648686D01*
X65365442Y-68622624D01*
X65386409Y-68553505D01*
X65437478Y-68457962D01*
X65506211Y-68374211D01*
X65550122Y-68338174D01*
X65589959Y-68305480D01*
X65589961Y-68305479D01*
X65589962Y-68305478D01*
X65685505Y-68254409D01*
X65754624Y-68233442D01*
X65789182Y-68222959D01*
X65816116Y-68220306D01*
X65869981Y-68215001D01*
X65924021Y-68215001D01*
X65977886Y-68220306D01*
X65977886Y-68220306D01*
G37*
G36*
X67247886Y-68220306D02*
G01*
X67274820Y-68222959D01*
X67309378Y-68233442D01*
X67378497Y-68254409D01*
X67474040Y-68305478D01*
X67474041Y-68305479D01*
X67474043Y-68305480D01*
X67513880Y-68338174D01*
X67557791Y-68374211D01*
X67626524Y-68457962D01*
X67677593Y-68553505D01*
X67698560Y-68622624D01*
X67706466Y-68648686D01*
X67709043Y-68657183D01*
X67719662Y-68765001D01*
X67709043Y-68872819D01*
X67677593Y-68976497D01*
X67626524Y-69072040D01*
X67626522Y-69072043D01*
X67557791Y-69155791D01*
X67474043Y-69224522D01*
X67474041Y-69224523D01*
X67474040Y-69224524D01*
X67378497Y-69275593D01*
X67309378Y-69296560D01*
X67274820Y-69307043D01*
X67247886Y-69309696D01*
X67194021Y-69315001D01*
X67139981Y-69315001D01*
X67086116Y-69309696D01*
X67059182Y-69307043D01*
X67024624Y-69296560D01*
X66955505Y-69275593D01*
X66859962Y-69224524D01*
X66859961Y-69224523D01*
X66859959Y-69224522D01*
X66776211Y-69155791D01*
X66707480Y-69072043D01*
X66707478Y-69072040D01*
X66656409Y-68976497D01*
X66624959Y-68872819D01*
X66614340Y-68765001D01*
X66624959Y-68657183D01*
X66627537Y-68648686D01*
X66635442Y-68622624D01*
X66656409Y-68553505D01*
X66707478Y-68457962D01*
X66776211Y-68374211D01*
X66820122Y-68338174D01*
X66859959Y-68305480D01*
X66859961Y-68305479D01*
X66859962Y-68305478D01*
X66955505Y-68254409D01*
X67024624Y-68233442D01*
X67059182Y-68222959D01*
X67086116Y-68220306D01*
X67139981Y-68215001D01*
X67194021Y-68215001D01*
X67247886Y-68220306D01*
X67247886Y-68220306D01*
G37*
G36*
X63437886Y-68220306D02*
G01*
X63464820Y-68222959D01*
X63499378Y-68233442D01*
X63568497Y-68254409D01*
X63664040Y-68305478D01*
X63664041Y-68305479D01*
X63664043Y-68305480D01*
X63703880Y-68338174D01*
X63747791Y-68374211D01*
X63816524Y-68457962D01*
X63867593Y-68553505D01*
X63888560Y-68622624D01*
X63896466Y-68648686D01*
X63899043Y-68657183D01*
X63909662Y-68765001D01*
X63899043Y-68872819D01*
X63867593Y-68976497D01*
X63816524Y-69072040D01*
X63816522Y-69072043D01*
X63747791Y-69155791D01*
X63664043Y-69224522D01*
X63664041Y-69224523D01*
X63664040Y-69224524D01*
X63568497Y-69275593D01*
X63499378Y-69296560D01*
X63464820Y-69307043D01*
X63437886Y-69309696D01*
X63384021Y-69315001D01*
X63329981Y-69315001D01*
X63276116Y-69309696D01*
X63249182Y-69307043D01*
X63214624Y-69296560D01*
X63145505Y-69275593D01*
X63049962Y-69224524D01*
X63049961Y-69224523D01*
X63049959Y-69224522D01*
X62966211Y-69155791D01*
X62897480Y-69072043D01*
X62897478Y-69072040D01*
X62846409Y-68976497D01*
X62814959Y-68872819D01*
X62804340Y-68765001D01*
X62814959Y-68657183D01*
X62817537Y-68648686D01*
X62825442Y-68622624D01*
X62846409Y-68553505D01*
X62897478Y-68457962D01*
X62966211Y-68374211D01*
X63010122Y-68338174D01*
X63049959Y-68305480D01*
X63049961Y-68305479D01*
X63049962Y-68305478D01*
X63145505Y-68254409D01*
X63214624Y-68233442D01*
X63249182Y-68222959D01*
X63276116Y-68220306D01*
X63329981Y-68215001D01*
X63384021Y-68215001D01*
X63437886Y-68220306D01*
X63437886Y-68220306D01*
G37*
G36*
X62637001Y-69315001D02*
G01*
X61537001Y-69315001D01*
X61537001Y-68215001D01*
X62637001Y-68215001D01*
X62637001Y-69315001D01*
X62637001Y-69315001D01*
G37*
G36*
X72455112Y-67702443D02*
G01*
X72525416Y-67723770D01*
X72590204Y-67758399D01*
X72646995Y-67805007D01*
X72693603Y-67861798D01*
X72728232Y-67926586D01*
X72749559Y-67996890D01*
X72757001Y-68072455D01*
X72757001Y-68917547D01*
X72749559Y-68993112D01*
X72728232Y-69063416D01*
X72693603Y-69128204D01*
X72646995Y-69184995D01*
X72590204Y-69231603D01*
X72525416Y-69266232D01*
X72455112Y-69287559D01*
X72379547Y-69295001D01*
X71534455Y-69295001D01*
X71458890Y-69287559D01*
X71388586Y-69266232D01*
X71323798Y-69231603D01*
X71267007Y-69184995D01*
X71220399Y-69128204D01*
X71185770Y-69063416D01*
X71164443Y-68993112D01*
X71157001Y-68917547D01*
X71157001Y-68072455D01*
X71164443Y-67996890D01*
X71185770Y-67926586D01*
X71220399Y-67861798D01*
X71267007Y-67805007D01*
X71323798Y-67758399D01*
X71388586Y-67723770D01*
X71458890Y-67702443D01*
X71534455Y-67695001D01*
X72379547Y-67695001D01*
X72455112Y-67702443D01*
X72455112Y-67702443D01*
G37*
G36*
X41975112Y-67702443D02*
G01*
X42045416Y-67723770D01*
X42110204Y-67758399D01*
X42166995Y-67805007D01*
X42213603Y-67861798D01*
X42248232Y-67926586D01*
X42269559Y-67996890D01*
X42277001Y-68072455D01*
X42277001Y-68917547D01*
X42269559Y-68993112D01*
X42248232Y-69063416D01*
X42213603Y-69128204D01*
X42166995Y-69184995D01*
X42110204Y-69231603D01*
X42045416Y-69266232D01*
X41975112Y-69287559D01*
X41899547Y-69295001D01*
X41054455Y-69295001D01*
X40978890Y-69287559D01*
X40908586Y-69266232D01*
X40843798Y-69231603D01*
X40787007Y-69184995D01*
X40740399Y-69128204D01*
X40705770Y-69063416D01*
X40684443Y-68993112D01*
X40677001Y-68917547D01*
X40677001Y-68072455D01*
X40684443Y-67996890D01*
X40705770Y-67926586D01*
X40740399Y-67861798D01*
X40787007Y-67805007D01*
X40843798Y-67758399D01*
X40908586Y-67723770D01*
X40978890Y-67702443D01*
X41054455Y-67695001D01*
X41899547Y-67695001D01*
X41975112Y-67702443D01*
X41975112Y-67702443D01*
G37*
G36*
X44173828Y-67706577D02*
G01*
X44324630Y-67752322D01*
X44463606Y-67826606D01*
X44585423Y-67926579D01*
X44685396Y-68048396D01*
X44759680Y-68187372D01*
X44805425Y-68338174D01*
X44820871Y-68495001D01*
X44805425Y-68651828D01*
X44759680Y-68802630D01*
X44685396Y-68941606D01*
X44585423Y-69063423D01*
X44463606Y-69163396D01*
X44324630Y-69237680D01*
X44173828Y-69283425D01*
X44056296Y-69295001D01*
X43977706Y-69295001D01*
X43860174Y-69283425D01*
X43709372Y-69237680D01*
X43570396Y-69163396D01*
X43448579Y-69063423D01*
X43348606Y-68941606D01*
X43274322Y-68802630D01*
X43228577Y-68651828D01*
X43213131Y-68495001D01*
X43228577Y-68338174D01*
X43274322Y-68187372D01*
X43348606Y-68048396D01*
X43448579Y-67926579D01*
X43570396Y-67826606D01*
X43709372Y-67752322D01*
X43860174Y-67706577D01*
X43977706Y-67695001D01*
X44056296Y-67695001D01*
X44173828Y-67706577D01*
X44173828Y-67706577D01*
G37*
G36*
X74653828Y-67706577D02*
G01*
X74804630Y-67752322D01*
X74943606Y-67826606D01*
X75065423Y-67926579D01*
X75165396Y-68048396D01*
X75239680Y-68187372D01*
X75285425Y-68338174D01*
X75300871Y-68495001D01*
X75285425Y-68651828D01*
X75239680Y-68802630D01*
X75165396Y-68941606D01*
X75065423Y-69063423D01*
X74943606Y-69163396D01*
X74804630Y-69237680D01*
X74653828Y-69283425D01*
X74536296Y-69295001D01*
X74457706Y-69295001D01*
X74340174Y-69283425D01*
X74189372Y-69237680D01*
X74050396Y-69163396D01*
X73928579Y-69063423D01*
X73828606Y-68941606D01*
X73754322Y-68802630D01*
X73708577Y-68651828D01*
X73693131Y-68495001D01*
X73708577Y-68338174D01*
X73754322Y-68187372D01*
X73828606Y-68048396D01*
X73928579Y-67926579D01*
X74050396Y-67826606D01*
X74189372Y-67752322D01*
X74340174Y-67706577D01*
X74457706Y-67695001D01*
X74536296Y-67695001D01*
X74653828Y-67706577D01*
X74653828Y-67706577D01*
G37*
G36*
X82615112Y-67702443D02*
G01*
X82685416Y-67723770D01*
X82750204Y-67758399D01*
X82806995Y-67805007D01*
X82853603Y-67861798D01*
X82888232Y-67926586D01*
X82909559Y-67996890D01*
X82917001Y-68072455D01*
X82917001Y-68917547D01*
X82909559Y-68993112D01*
X82888232Y-69063416D01*
X82853603Y-69128204D01*
X82806995Y-69184995D01*
X82750204Y-69231603D01*
X82685416Y-69266232D01*
X82615112Y-69287559D01*
X82539547Y-69295001D01*
X81694455Y-69295001D01*
X81618890Y-69287559D01*
X81548586Y-69266232D01*
X81483798Y-69231603D01*
X81427007Y-69184995D01*
X81380399Y-69128204D01*
X81345770Y-69063416D01*
X81324443Y-68993112D01*
X81317001Y-68917547D01*
X81317001Y-68072455D01*
X81324443Y-67996890D01*
X81345770Y-67926586D01*
X81380399Y-67861798D01*
X81427007Y-67805007D01*
X81483798Y-67758399D01*
X81548586Y-67723770D01*
X81618890Y-67702443D01*
X81694455Y-67695001D01*
X82539547Y-67695001D01*
X82615112Y-67702443D01*
X82615112Y-67702443D01*
G37*
G36*
X84813828Y-67706577D02*
G01*
X84964630Y-67752322D01*
X85103606Y-67826606D01*
X85225423Y-67926579D01*
X85325396Y-68048396D01*
X85399680Y-68187372D01*
X85445425Y-68338174D01*
X85460871Y-68495001D01*
X85445425Y-68651828D01*
X85399680Y-68802630D01*
X85325396Y-68941606D01*
X85225423Y-69063423D01*
X85103606Y-69163396D01*
X84964630Y-69237680D01*
X84813828Y-69283425D01*
X84696296Y-69295001D01*
X84617706Y-69295001D01*
X84500174Y-69283425D01*
X84349372Y-69237680D01*
X84210396Y-69163396D01*
X84088579Y-69063423D01*
X83988606Y-68941606D01*
X83914322Y-68802630D01*
X83868577Y-68651828D01*
X83853131Y-68495001D01*
X83868577Y-68338174D01*
X83914322Y-68187372D01*
X83988606Y-68048396D01*
X84088579Y-67926579D01*
X84210396Y-67826606D01*
X84349372Y-67752322D01*
X84500174Y-67706577D01*
X84617706Y-67695001D01*
X84696296Y-67695001D01*
X84813828Y-67706577D01*
X84813828Y-67706577D01*
G37*
G36*
X35118654Y-65897666D02*
G01*
X35282873Y-65930331D01*
X35592253Y-66058480D01*
X35870688Y-66244524D01*
X36107478Y-66481314D01*
X36293522Y-66759749D01*
X36421671Y-67069129D01*
X36444951Y-67186168D01*
X36487001Y-67397564D01*
X36487001Y-67732438D01*
X36468269Y-67826608D01*
X36421671Y-68060873D01*
X36293522Y-68370253D01*
X36107478Y-68648688D01*
X35870688Y-68885478D01*
X35592253Y-69071522D01*
X35282873Y-69199671D01*
X35157938Y-69224522D01*
X34954438Y-69265001D01*
X34619564Y-69265001D01*
X34416064Y-69224522D01*
X34291129Y-69199671D01*
X33981749Y-69071522D01*
X33703314Y-68885478D01*
X33466524Y-68648688D01*
X33280480Y-68370253D01*
X33152331Y-68060873D01*
X33105733Y-67826608D01*
X33087001Y-67732438D01*
X33087001Y-67397564D01*
X33129051Y-67186168D01*
X33152331Y-67069129D01*
X33280480Y-66759749D01*
X33466524Y-66481314D01*
X33703314Y-66244524D01*
X33981749Y-66058480D01*
X34291129Y-65930331D01*
X34455348Y-65897666D01*
X34619564Y-65865001D01*
X34954438Y-65865001D01*
X35118654Y-65897666D01*
X35118654Y-65897666D01*
G37*
G36*
X90356812Y-67375547D02*
G01*
X90356815Y-67375548D01*
X90356814Y-67375548D01*
X90525153Y-67445276D01*
X90676654Y-67546506D01*
X90805496Y-67675348D01*
X90906726Y-67826849D01*
X90921202Y-67861798D01*
X90976455Y-67995190D01*
X91012001Y-68173895D01*
X91012001Y-68356107D01*
X90976455Y-68534812D01*
X90976454Y-68534814D01*
X90906726Y-68703153D01*
X90805496Y-68854654D01*
X90676654Y-68983496D01*
X90525153Y-69084726D01*
X90446683Y-69117229D01*
X90356812Y-69154455D01*
X90178107Y-69190001D01*
X89995895Y-69190001D01*
X89817190Y-69154455D01*
X89727319Y-69117229D01*
X89648849Y-69084726D01*
X89497348Y-68983496D01*
X89368506Y-68854654D01*
X89267276Y-68703153D01*
X89197548Y-68534814D01*
X89197547Y-68534812D01*
X89162001Y-68356107D01*
X89162001Y-68173895D01*
X89197547Y-67995190D01*
X89252800Y-67861798D01*
X89267276Y-67826849D01*
X89368506Y-67675348D01*
X89497348Y-67546506D01*
X89648849Y-67445276D01*
X89817188Y-67375548D01*
X89817187Y-67375548D01*
X89817190Y-67375547D01*
X89995895Y-67340001D01*
X90178107Y-67340001D01*
X90356812Y-67375547D01*
X90356812Y-67375547D01*
G37*
G36*
X39556812Y-67375547D02*
G01*
X39556815Y-67375548D01*
X39556814Y-67375548D01*
X39725153Y-67445276D01*
X39876654Y-67546506D01*
X40005496Y-67675348D01*
X40106726Y-67826849D01*
X40121202Y-67861798D01*
X40176455Y-67995190D01*
X40212001Y-68173895D01*
X40212001Y-68356107D01*
X40176455Y-68534812D01*
X40176454Y-68534814D01*
X40106726Y-68703153D01*
X40005496Y-68854654D01*
X39876654Y-68983496D01*
X39725153Y-69084726D01*
X39646683Y-69117229D01*
X39556812Y-69154455D01*
X39378107Y-69190001D01*
X39195895Y-69190001D01*
X39017190Y-69154455D01*
X38927319Y-69117229D01*
X38848849Y-69084726D01*
X38697348Y-68983496D01*
X38568506Y-68854654D01*
X38467276Y-68703153D01*
X38397548Y-68534814D01*
X38397547Y-68534812D01*
X38362001Y-68356107D01*
X38362001Y-68173895D01*
X38397547Y-67995190D01*
X38452800Y-67861798D01*
X38467276Y-67826849D01*
X38568506Y-67675348D01*
X38697348Y-67546506D01*
X38848849Y-67445276D01*
X39017188Y-67375548D01*
X39017187Y-67375548D01*
X39017190Y-67375547D01*
X39195895Y-67340001D01*
X39378107Y-67340001D01*
X39556812Y-67375547D01*
X39556812Y-67375547D01*
G37*
G36*
X100516812Y-67375547D02*
G01*
X100516815Y-67375548D01*
X100516814Y-67375548D01*
X100685153Y-67445276D01*
X100836654Y-67546506D01*
X100965496Y-67675348D01*
X101066726Y-67826849D01*
X101081202Y-67861798D01*
X101136455Y-67995190D01*
X101172001Y-68173895D01*
X101172001Y-68356107D01*
X101136455Y-68534812D01*
X101136454Y-68534814D01*
X101066726Y-68703153D01*
X100965496Y-68854654D01*
X100836654Y-68983496D01*
X100685153Y-69084726D01*
X100606683Y-69117229D01*
X100516812Y-69154455D01*
X100338107Y-69190001D01*
X100155895Y-69190001D01*
X99977190Y-69154455D01*
X99887319Y-69117229D01*
X99808849Y-69084726D01*
X99657348Y-68983496D01*
X99528506Y-68854654D01*
X99427276Y-68703153D01*
X99357548Y-68534814D01*
X99357547Y-68534812D01*
X99322001Y-68356107D01*
X99322001Y-68173895D01*
X99357547Y-67995190D01*
X99412800Y-67861798D01*
X99427276Y-67826849D01*
X99528506Y-67675348D01*
X99657348Y-67546506D01*
X99808849Y-67445276D01*
X99977188Y-67375548D01*
X99977187Y-67375548D01*
X99977190Y-67375547D01*
X100155895Y-67340001D01*
X100338107Y-67340001D01*
X100516812Y-67375547D01*
X100516812Y-67375547D01*
G37*
G36*
X80196812Y-67375547D02*
G01*
X80196815Y-67375548D01*
X80196814Y-67375548D01*
X80365153Y-67445276D01*
X80516654Y-67546506D01*
X80645496Y-67675348D01*
X80746726Y-67826849D01*
X80761202Y-67861798D01*
X80816455Y-67995190D01*
X80852001Y-68173895D01*
X80852001Y-68356107D01*
X80816455Y-68534812D01*
X80816454Y-68534814D01*
X80746726Y-68703153D01*
X80645496Y-68854654D01*
X80516654Y-68983496D01*
X80365153Y-69084726D01*
X80286683Y-69117229D01*
X80196812Y-69154455D01*
X80018107Y-69190001D01*
X79835895Y-69190001D01*
X79657190Y-69154455D01*
X79567319Y-69117229D01*
X79488849Y-69084726D01*
X79337348Y-68983496D01*
X79208506Y-68854654D01*
X79107276Y-68703153D01*
X79037548Y-68534814D01*
X79037547Y-68534812D01*
X79002001Y-68356107D01*
X79002001Y-68173895D01*
X79037547Y-67995190D01*
X79092800Y-67861798D01*
X79107276Y-67826849D01*
X79208506Y-67675348D01*
X79337348Y-67546506D01*
X79488849Y-67445276D01*
X79657188Y-67375548D01*
X79657187Y-67375548D01*
X79657190Y-67375547D01*
X79835895Y-67340001D01*
X80018107Y-67340001D01*
X80196812Y-67375547D01*
X80196812Y-67375547D01*
G37*
G36*
X70036812Y-67375547D02*
G01*
X70036815Y-67375548D01*
X70036814Y-67375548D01*
X70205153Y-67445276D01*
X70356654Y-67546506D01*
X70485496Y-67675348D01*
X70586726Y-67826849D01*
X70601202Y-67861798D01*
X70656455Y-67995190D01*
X70692001Y-68173895D01*
X70692001Y-68356107D01*
X70656455Y-68534812D01*
X70656454Y-68534814D01*
X70586726Y-68703153D01*
X70485496Y-68854654D01*
X70356654Y-68983496D01*
X70205153Y-69084726D01*
X70126683Y-69117229D01*
X70036812Y-69154455D01*
X69858107Y-69190001D01*
X69675895Y-69190001D01*
X69497190Y-69154455D01*
X69407319Y-69117229D01*
X69328849Y-69084726D01*
X69177348Y-68983496D01*
X69048506Y-68854654D01*
X68947276Y-68703153D01*
X68877548Y-68534814D01*
X68877547Y-68534812D01*
X68842001Y-68356107D01*
X68842001Y-68173895D01*
X68877547Y-67995190D01*
X68932800Y-67861798D01*
X68947276Y-67826849D01*
X69048506Y-67675348D01*
X69177348Y-67546506D01*
X69328849Y-67445276D01*
X69497188Y-67375548D01*
X69497187Y-67375548D01*
X69497190Y-67375547D01*
X69675895Y-67340001D01*
X69858107Y-67340001D01*
X70036812Y-67375547D01*
X70036812Y-67375547D01*
G37*
G36*
X59876812Y-67375547D02*
G01*
X59876815Y-67375548D01*
X59876814Y-67375548D01*
X60045153Y-67445276D01*
X60196654Y-67546506D01*
X60325496Y-67675348D01*
X60426726Y-67826849D01*
X60441202Y-67861798D01*
X60496455Y-67995190D01*
X60532001Y-68173895D01*
X60532001Y-68356107D01*
X60496455Y-68534812D01*
X60496454Y-68534814D01*
X60426726Y-68703153D01*
X60325496Y-68854654D01*
X60196654Y-68983496D01*
X60045153Y-69084726D01*
X59966683Y-69117229D01*
X59876812Y-69154455D01*
X59698107Y-69190001D01*
X59515895Y-69190001D01*
X59337190Y-69154455D01*
X59247319Y-69117229D01*
X59168849Y-69084726D01*
X59017348Y-68983496D01*
X58888506Y-68854654D01*
X58787276Y-68703153D01*
X58717548Y-68534814D01*
X58717547Y-68534812D01*
X58682001Y-68356107D01*
X58682001Y-68173895D01*
X58717547Y-67995190D01*
X58772800Y-67861798D01*
X58787276Y-67826849D01*
X58888506Y-67675348D01*
X59017348Y-67546506D01*
X59168849Y-67445276D01*
X59337188Y-67375548D01*
X59337187Y-67375548D01*
X59337190Y-67375547D01*
X59515895Y-67340001D01*
X59698107Y-67340001D01*
X59876812Y-67375547D01*
X59876812Y-67375547D01*
G37*
G36*
X49716812Y-67375547D02*
G01*
X49716815Y-67375548D01*
X49716814Y-67375548D01*
X49885153Y-67445276D01*
X50036654Y-67546506D01*
X50165496Y-67675348D01*
X50266726Y-67826849D01*
X50281202Y-67861798D01*
X50336455Y-67995190D01*
X50372001Y-68173895D01*
X50372001Y-68356107D01*
X50336455Y-68534812D01*
X50336454Y-68534814D01*
X50266726Y-68703153D01*
X50165496Y-68854654D01*
X50036654Y-68983496D01*
X49885153Y-69084726D01*
X49806683Y-69117229D01*
X49716812Y-69154455D01*
X49538107Y-69190001D01*
X49355895Y-69190001D01*
X49177190Y-69154455D01*
X49087319Y-69117229D01*
X49008849Y-69084726D01*
X48857348Y-68983496D01*
X48728506Y-68854654D01*
X48627276Y-68703153D01*
X48557548Y-68534814D01*
X48557547Y-68534812D01*
X48522001Y-68356107D01*
X48522001Y-68173895D01*
X48557547Y-67995190D01*
X48612800Y-67861798D01*
X48627276Y-67826849D01*
X48728506Y-67675348D01*
X48857348Y-67546506D01*
X49008849Y-67445276D01*
X49177188Y-67375548D01*
X49177187Y-67375548D01*
X49177190Y-67375547D01*
X49355895Y-67340001D01*
X49538107Y-67340001D01*
X49716812Y-67375547D01*
X49716812Y-67375547D01*
G37*
G36*
X64527001Y-67515001D02*
G01*
X63927001Y-67515001D01*
X63927001Y-66015001D01*
X64527001Y-66015001D01*
X64527001Y-67515001D01*
X64527001Y-67515001D01*
G37*
G36*
X53408168Y-66018312D02*
G01*
X53438139Y-66027404D01*
X53465756Y-66042165D01*
X53489967Y-66062035D01*
X53509837Y-66086246D01*
X53524598Y-66113863D01*
X53533690Y-66143834D01*
X53537001Y-66177455D01*
X53537001Y-67152547D01*
X53533690Y-67186168D01*
X53524598Y-67216139D01*
X53509837Y-67243756D01*
X53489967Y-67267967D01*
X53465756Y-67287837D01*
X53438139Y-67302598D01*
X53408168Y-67311690D01*
X53374547Y-67315001D01*
X51999455Y-67315001D01*
X51965834Y-67311690D01*
X51935863Y-67302598D01*
X51908246Y-67287837D01*
X51884035Y-67267967D01*
X51864165Y-67243756D01*
X51849404Y-67216139D01*
X51840312Y-67186168D01*
X51837001Y-67152547D01*
X51837001Y-66177455D01*
X51840312Y-66143834D01*
X51849404Y-66113863D01*
X51864165Y-66086246D01*
X51884035Y-66062035D01*
X51908246Y-66042165D01*
X51935863Y-66027404D01*
X51965834Y-66018312D01*
X51999455Y-66015001D01*
X53374547Y-66015001D01*
X53408168Y-66018312D01*
X53408168Y-66018312D01*
G37*
G36*
X65376340Y-66017640D02*
G01*
X65399743Y-66024739D01*
X65421313Y-66036269D01*
X65440218Y-66051784D01*
X65455733Y-66070689D01*
X65467263Y-66092259D01*
X65474362Y-66115662D01*
X65477001Y-66142455D01*
X65477001Y-67187547D01*
X65474362Y-67214340D01*
X65467263Y-67237743D01*
X65455733Y-67259313D01*
X65440218Y-67278218D01*
X65421313Y-67293733D01*
X65399743Y-67305263D01*
X65376340Y-67312362D01*
X65349547Y-67315001D01*
X65004455Y-67315001D01*
X64977662Y-67312362D01*
X64954259Y-67305263D01*
X64932689Y-67293733D01*
X64913784Y-67278218D01*
X64898269Y-67259313D01*
X64886739Y-67237743D01*
X64879640Y-67214340D01*
X64877001Y-67187547D01*
X64877001Y-66142455D01*
X64879640Y-66115662D01*
X64886739Y-66092259D01*
X64898269Y-66070689D01*
X64913784Y-66051784D01*
X64932689Y-66036269D01*
X64954259Y-66024739D01*
X64977662Y-66017640D01*
X65004455Y-66015001D01*
X65349547Y-66015001D01*
X65376340Y-66017640D01*
X65376340Y-66017640D01*
G37*
G36*
X66326340Y-66017640D02*
G01*
X66349743Y-66024739D01*
X66371313Y-66036269D01*
X66390218Y-66051784D01*
X66405733Y-66070689D01*
X66417263Y-66092259D01*
X66424362Y-66115662D01*
X66427001Y-66142455D01*
X66427001Y-67187547D01*
X66424362Y-67214340D01*
X66417263Y-67237743D01*
X66405733Y-67259313D01*
X66390218Y-67278218D01*
X66371313Y-67293733D01*
X66349743Y-67305263D01*
X66326340Y-67312362D01*
X66299547Y-67315001D01*
X65954455Y-67315001D01*
X65927662Y-67312362D01*
X65904259Y-67305263D01*
X65882689Y-67293733D01*
X65863784Y-67278218D01*
X65848269Y-67259313D01*
X65836739Y-67237743D01*
X65829640Y-67214340D01*
X65827001Y-67187547D01*
X65827001Y-66142455D01*
X65829640Y-66115662D01*
X65836739Y-66092259D01*
X65848269Y-66070689D01*
X65863784Y-66051784D01*
X65882689Y-66036269D01*
X65904259Y-66024739D01*
X65927662Y-66017640D01*
X65954455Y-66015001D01*
X66299547Y-66015001D01*
X66326340Y-66017640D01*
X66326340Y-66017640D01*
G37*
G36*
X56736340Y-65967640D02*
G01*
X56759743Y-65974739D01*
X56781313Y-65986269D01*
X56800218Y-66001784D01*
X56815733Y-66020689D01*
X56827263Y-66042259D01*
X56834362Y-66065662D01*
X56837001Y-66092455D01*
X56837001Y-67137547D01*
X56834362Y-67164340D01*
X56827263Y-67187743D01*
X56815733Y-67209313D01*
X56800218Y-67228218D01*
X56781313Y-67243733D01*
X56759743Y-67255263D01*
X56736340Y-67262362D01*
X56709547Y-67265001D01*
X56364455Y-67265001D01*
X56337662Y-67262362D01*
X56314259Y-67255263D01*
X56292689Y-67243733D01*
X56273784Y-67228218D01*
X56258269Y-67209313D01*
X56246739Y-67187743D01*
X56239640Y-67164340D01*
X56237001Y-67137547D01*
X56237001Y-66092455D01*
X56239640Y-66065662D01*
X56246739Y-66042259D01*
X56258269Y-66020689D01*
X56273784Y-66001784D01*
X56292689Y-65986269D01*
X56314259Y-65974739D01*
X56337662Y-65967640D01*
X56364455Y-65965001D01*
X56709547Y-65965001D01*
X56736340Y-65967640D01*
X56736340Y-65967640D01*
G37*
G36*
X54836340Y-65967640D02*
G01*
X54859743Y-65974739D01*
X54881313Y-65986269D01*
X54900218Y-66001784D01*
X54915733Y-66020689D01*
X54927263Y-66042259D01*
X54934362Y-66065662D01*
X54937001Y-66092455D01*
X54937001Y-67137547D01*
X54934362Y-67164340D01*
X54927263Y-67187743D01*
X54915733Y-67209313D01*
X54900218Y-67228218D01*
X54881313Y-67243733D01*
X54859743Y-67255263D01*
X54836340Y-67262362D01*
X54809547Y-67265001D01*
X54464455Y-67265001D01*
X54437662Y-67262362D01*
X54414259Y-67255263D01*
X54392689Y-67243733D01*
X54373784Y-67228218D01*
X54358269Y-67209313D01*
X54346739Y-67187743D01*
X54339640Y-67164340D01*
X54337001Y-67137547D01*
X54337001Y-66092455D01*
X54339640Y-66065662D01*
X54346739Y-66042259D01*
X54358269Y-66020689D01*
X54373784Y-66001784D01*
X54392689Y-65986269D01*
X54414259Y-65974739D01*
X54437662Y-65967640D01*
X54464455Y-65965001D01*
X54809547Y-65965001D01*
X54836340Y-65967640D01*
X54836340Y-65967640D01*
G37*
G36*
X55786340Y-65967640D02*
G01*
X55809743Y-65974739D01*
X55831313Y-65986269D01*
X55850218Y-66001784D01*
X55865733Y-66020689D01*
X55877263Y-66042259D01*
X55884362Y-66065662D01*
X55887001Y-66092455D01*
X55887001Y-67137547D01*
X55884362Y-67164340D01*
X55877263Y-67187743D01*
X55865733Y-67209313D01*
X55850218Y-67228218D01*
X55831313Y-67243733D01*
X55809743Y-67255263D01*
X55786340Y-67262362D01*
X55759547Y-67265001D01*
X55414455Y-67265001D01*
X55387662Y-67262362D01*
X55364259Y-67255263D01*
X55342689Y-67243733D01*
X55323784Y-67228218D01*
X55308269Y-67209313D01*
X55296739Y-67187743D01*
X55289640Y-67164340D01*
X55287001Y-67137547D01*
X55287001Y-66092455D01*
X55289640Y-66065662D01*
X55296739Y-66042259D01*
X55308269Y-66020689D01*
X55323784Y-66001784D01*
X55342689Y-65986269D01*
X55364259Y-65974739D01*
X55387662Y-65967640D01*
X55414455Y-65965001D01*
X55759547Y-65965001D01*
X55786340Y-65967640D01*
X55786340Y-65967640D01*
G37*
G36*
X82636340Y-65667640D02*
G01*
X82659743Y-65674739D01*
X82681313Y-65686269D01*
X82700218Y-65701784D01*
X82715733Y-65720689D01*
X82727263Y-65742259D01*
X82734362Y-65765662D01*
X82737001Y-65792455D01*
X82737001Y-66837547D01*
X82734362Y-66864340D01*
X82727263Y-66887743D01*
X82715733Y-66909313D01*
X82700218Y-66928218D01*
X82681313Y-66943733D01*
X82659743Y-66955263D01*
X82636340Y-66962362D01*
X82609547Y-66965001D01*
X82264455Y-66965001D01*
X82237662Y-66962362D01*
X82214259Y-66955263D01*
X82192689Y-66943733D01*
X82173784Y-66928218D01*
X82158269Y-66909313D01*
X82146739Y-66887743D01*
X82139640Y-66864340D01*
X82137001Y-66837547D01*
X82137001Y-65792455D01*
X82139640Y-65765662D01*
X82146739Y-65742259D01*
X82158269Y-65720689D01*
X82173784Y-65701784D01*
X82192689Y-65686269D01*
X82214259Y-65674739D01*
X82237662Y-65667640D01*
X82264455Y-65665001D01*
X82609547Y-65665001D01*
X82636340Y-65667640D01*
X82636340Y-65667640D01*
G37*
G36*
X75236340Y-65667640D02*
G01*
X75259743Y-65674739D01*
X75281313Y-65686269D01*
X75300218Y-65701784D01*
X75315733Y-65720689D01*
X75327263Y-65742259D01*
X75334362Y-65765662D01*
X75337001Y-65792455D01*
X75337001Y-66837547D01*
X75334362Y-66864340D01*
X75327263Y-66887743D01*
X75315733Y-66909313D01*
X75300218Y-66928218D01*
X75281313Y-66943733D01*
X75259743Y-66955263D01*
X75236340Y-66962362D01*
X75209547Y-66965001D01*
X74864455Y-66965001D01*
X74837662Y-66962362D01*
X74814259Y-66955263D01*
X74792689Y-66943733D01*
X74773784Y-66928218D01*
X74758269Y-66909313D01*
X74746739Y-66887743D01*
X74739640Y-66864340D01*
X74737001Y-66837547D01*
X74737001Y-65792455D01*
X74739640Y-65765662D01*
X74746739Y-65742259D01*
X74758269Y-65720689D01*
X74773784Y-65701784D01*
X74792689Y-65686269D01*
X74814259Y-65674739D01*
X74837662Y-65667640D01*
X74864455Y-65665001D01*
X75209547Y-65665001D01*
X75236340Y-65667640D01*
X75236340Y-65667640D01*
G37*
G36*
X83586340Y-65667640D02*
G01*
X83609743Y-65674739D01*
X83631313Y-65686269D01*
X83650218Y-65701784D01*
X83665733Y-65720689D01*
X83677263Y-65742259D01*
X83684362Y-65765662D01*
X83687001Y-65792455D01*
X83687001Y-66837547D01*
X83684362Y-66864340D01*
X83677263Y-66887743D01*
X83665733Y-66909313D01*
X83650218Y-66928218D01*
X83631313Y-66943733D01*
X83609743Y-66955263D01*
X83586340Y-66962362D01*
X83559547Y-66965001D01*
X83214455Y-66965001D01*
X83187662Y-66962362D01*
X83164259Y-66955263D01*
X83142689Y-66943733D01*
X83123784Y-66928218D01*
X83108269Y-66909313D01*
X83096739Y-66887743D01*
X83089640Y-66864340D01*
X83087001Y-66837547D01*
X83087001Y-65792455D01*
X83089640Y-65765662D01*
X83096739Y-65742259D01*
X83108269Y-65720689D01*
X83123784Y-65701784D01*
X83142689Y-65686269D01*
X83164259Y-65674739D01*
X83187662Y-65667640D01*
X83214455Y-65665001D01*
X83559547Y-65665001D01*
X83586340Y-65667640D01*
X83586340Y-65667640D01*
G37*
G36*
X77136340Y-65667640D02*
G01*
X77159743Y-65674739D01*
X77181313Y-65686269D01*
X77200218Y-65701784D01*
X77215733Y-65720689D01*
X77227263Y-65742259D01*
X77234362Y-65765662D01*
X77237001Y-65792455D01*
X77237001Y-66837547D01*
X77234362Y-66864340D01*
X77227263Y-66887743D01*
X77215733Y-66909313D01*
X77200218Y-66928218D01*
X77181313Y-66943733D01*
X77159743Y-66955263D01*
X77136340Y-66962362D01*
X77109547Y-66965001D01*
X76764455Y-66965001D01*
X76737662Y-66962362D01*
X76714259Y-66955263D01*
X76692689Y-66943733D01*
X76673784Y-66928218D01*
X76658269Y-66909313D01*
X76646739Y-66887743D01*
X76639640Y-66864340D01*
X76637001Y-66837547D01*
X76637001Y-65792455D01*
X76639640Y-65765662D01*
X76646739Y-65742259D01*
X76658269Y-65720689D01*
X76673784Y-65701784D01*
X76692689Y-65686269D01*
X76714259Y-65674739D01*
X76737662Y-65667640D01*
X76764455Y-65665001D01*
X77109547Y-65665001D01*
X77136340Y-65667640D01*
X77136340Y-65667640D01*
G37*
G36*
X76186340Y-65667640D02*
G01*
X76209743Y-65674739D01*
X76231313Y-65686269D01*
X76250218Y-65701784D01*
X76265733Y-65720689D01*
X76277263Y-65742259D01*
X76284362Y-65765662D01*
X76287001Y-65792455D01*
X76287001Y-66837547D01*
X76284362Y-66864340D01*
X76277263Y-66887743D01*
X76265733Y-66909313D01*
X76250218Y-66928218D01*
X76231313Y-66943733D01*
X76209743Y-66955263D01*
X76186340Y-66962362D01*
X76159547Y-66965001D01*
X75814455Y-66965001D01*
X75787662Y-66962362D01*
X75764259Y-66955263D01*
X75742689Y-66943733D01*
X75723784Y-66928218D01*
X75708269Y-66909313D01*
X75696739Y-66887743D01*
X75689640Y-66864340D01*
X75687001Y-66837547D01*
X75687001Y-65792455D01*
X75689640Y-65765662D01*
X75696739Y-65742259D01*
X75708269Y-65720689D01*
X75723784Y-65701784D01*
X75742689Y-65686269D01*
X75764259Y-65674739D01*
X75787662Y-65667640D01*
X75814455Y-65665001D01*
X76159547Y-65665001D01*
X76186340Y-65667640D01*
X76186340Y-65667640D01*
G37*
G36*
X84536340Y-65667640D02*
G01*
X84559743Y-65674739D01*
X84581313Y-65686269D01*
X84600218Y-65701784D01*
X84615733Y-65720689D01*
X84627263Y-65742259D01*
X84634362Y-65765662D01*
X84637001Y-65792455D01*
X84637001Y-66837547D01*
X84634362Y-66864340D01*
X84627263Y-66887743D01*
X84615733Y-66909313D01*
X84600218Y-66928218D01*
X84581313Y-66943733D01*
X84559743Y-66955263D01*
X84536340Y-66962362D01*
X84509547Y-66965001D01*
X84164455Y-66965001D01*
X84137662Y-66962362D01*
X84114259Y-66955263D01*
X84092689Y-66943733D01*
X84073784Y-66928218D01*
X84058269Y-66909313D01*
X84046739Y-66887743D01*
X84039640Y-66864340D01*
X84037001Y-66837547D01*
X84037001Y-65792455D01*
X84039640Y-65765662D01*
X84046739Y-65742259D01*
X84058269Y-65720689D01*
X84073784Y-65701784D01*
X84092689Y-65686269D01*
X84114259Y-65674739D01*
X84137662Y-65667640D01*
X84164455Y-65665001D01*
X84509547Y-65665001D01*
X84536340Y-65667640D01*
X84536340Y-65667640D01*
G37*
G36*
X61053168Y-65558312D02*
G01*
X61083139Y-65567404D01*
X61110756Y-65582165D01*
X61134967Y-65602035D01*
X61154837Y-65626246D01*
X61169598Y-65653863D01*
X61178690Y-65683834D01*
X61182001Y-65717455D01*
X61182001Y-66692547D01*
X61178690Y-66726168D01*
X61169598Y-66756139D01*
X61154837Y-66783756D01*
X61134967Y-66807967D01*
X61110756Y-66827837D01*
X61083139Y-66842598D01*
X61053168Y-66851690D01*
X61019547Y-66855001D01*
X59994455Y-66855001D01*
X59960834Y-66851690D01*
X59930863Y-66842598D01*
X59903246Y-66827837D01*
X59879035Y-66807967D01*
X59859165Y-66783756D01*
X59844404Y-66756139D01*
X59835312Y-66726168D01*
X59832001Y-66692547D01*
X59832001Y-65717455D01*
X59835312Y-65683834D01*
X59844404Y-65653863D01*
X59859165Y-65626246D01*
X59879035Y-65602035D01*
X59903246Y-65582165D01*
X59930863Y-65567404D01*
X59960834Y-65558312D01*
X59994455Y-65555001D01*
X61019547Y-65555001D01*
X61053168Y-65558312D01*
X61053168Y-65558312D01*
G37*
G36*
X45808168Y-65518312D02*
G01*
X45838139Y-65527404D01*
X45865756Y-65542165D01*
X45889967Y-65562035D01*
X45909837Y-65586246D01*
X45924598Y-65613863D01*
X45933690Y-65643834D01*
X45937001Y-65677455D01*
X45937001Y-66652547D01*
X45933690Y-66686168D01*
X45924598Y-66716139D01*
X45909837Y-66743756D01*
X45889967Y-66767967D01*
X45865756Y-66787837D01*
X45838139Y-66802598D01*
X45808168Y-66811690D01*
X45774547Y-66815001D01*
X44399455Y-66815001D01*
X44365834Y-66811690D01*
X44335863Y-66802598D01*
X44308246Y-66787837D01*
X44284035Y-66767967D01*
X44264165Y-66743756D01*
X44249404Y-66716139D01*
X44240312Y-66686168D01*
X44237001Y-66652547D01*
X44237001Y-65677455D01*
X44240312Y-65643834D01*
X44249404Y-65613863D01*
X44264165Y-65586246D01*
X44284035Y-65562035D01*
X44308246Y-65542165D01*
X44335863Y-65527404D01*
X44365834Y-65518312D01*
X44399455Y-65515001D01*
X45774547Y-65515001D01*
X45808168Y-65518312D01*
X45808168Y-65518312D01*
G37*
G36*
X72308168Y-65518312D02*
G01*
X72338139Y-65527404D01*
X72365756Y-65542165D01*
X72389967Y-65562035D01*
X72409837Y-65586246D01*
X72424598Y-65613863D01*
X72433690Y-65643834D01*
X72437001Y-65677455D01*
X72437001Y-66652547D01*
X72433690Y-66686168D01*
X72424598Y-66716139D01*
X72409837Y-66743756D01*
X72389967Y-66767967D01*
X72365756Y-66787837D01*
X72338139Y-66802598D01*
X72308168Y-66811690D01*
X72274547Y-66815001D01*
X70899455Y-66815001D01*
X70865834Y-66811690D01*
X70835863Y-66802598D01*
X70808246Y-66787837D01*
X70784035Y-66767967D01*
X70764165Y-66743756D01*
X70749404Y-66716139D01*
X70740312Y-66686168D01*
X70737001Y-66652547D01*
X70737001Y-65677455D01*
X70740312Y-65643834D01*
X70749404Y-65613863D01*
X70764165Y-65586246D01*
X70784035Y-65562035D01*
X70808246Y-65542165D01*
X70835863Y-65527404D01*
X70865834Y-65518312D01*
X70899455Y-65515001D01*
X72274547Y-65515001D01*
X72308168Y-65518312D01*
X72308168Y-65518312D01*
G37*
G36*
X79708168Y-65518312D02*
G01*
X79738139Y-65527404D01*
X79765756Y-65542165D01*
X79789967Y-65562035D01*
X79809837Y-65586246D01*
X79824598Y-65613863D01*
X79833690Y-65643834D01*
X79837001Y-65677455D01*
X79837001Y-66652547D01*
X79833690Y-66686168D01*
X79824598Y-66716139D01*
X79809837Y-66743756D01*
X79789967Y-66767967D01*
X79765756Y-66787837D01*
X79738139Y-66802598D01*
X79708168Y-66811690D01*
X79674547Y-66815001D01*
X78299455Y-66815001D01*
X78265834Y-66811690D01*
X78235863Y-66802598D01*
X78208246Y-66787837D01*
X78184035Y-66767967D01*
X78164165Y-66743756D01*
X78149404Y-66716139D01*
X78140312Y-66686168D01*
X78137001Y-66652547D01*
X78137001Y-65677455D01*
X78140312Y-65643834D01*
X78149404Y-65613863D01*
X78164165Y-65586246D01*
X78184035Y-65562035D01*
X78208246Y-65542165D01*
X78235863Y-65527404D01*
X78265834Y-65518312D01*
X78299455Y-65515001D01*
X79674547Y-65515001D01*
X79708168Y-65518312D01*
X79708168Y-65518312D01*
G37*
G36*
X99008168Y-65518312D02*
G01*
X99038139Y-65527404D01*
X99065756Y-65542165D01*
X99089967Y-65562035D01*
X99109837Y-65586246D01*
X99124598Y-65613863D01*
X99133690Y-65643834D01*
X99137001Y-65677455D01*
X99137001Y-66652547D01*
X99133690Y-66686168D01*
X99124598Y-66716139D01*
X99109837Y-66743756D01*
X99089967Y-66767967D01*
X99065756Y-66787837D01*
X99038139Y-66802598D01*
X99008168Y-66811690D01*
X98974547Y-66815001D01*
X97599455Y-66815001D01*
X97565834Y-66811690D01*
X97535863Y-66802598D01*
X97508246Y-66787837D01*
X97484035Y-66767967D01*
X97464165Y-66743756D01*
X97449404Y-66716139D01*
X97440312Y-66686168D01*
X97437001Y-66652547D01*
X97437001Y-65677455D01*
X97440312Y-65643834D01*
X97449404Y-65613863D01*
X97464165Y-65586246D01*
X97484035Y-65562035D01*
X97508246Y-65542165D01*
X97535863Y-65527404D01*
X97565834Y-65518312D01*
X97599455Y-65515001D01*
X98974547Y-65515001D01*
X99008168Y-65518312D01*
X99008168Y-65518312D01*
G37*
G36*
X91408168Y-65518312D02*
G01*
X91438139Y-65527404D01*
X91465756Y-65542165D01*
X91489967Y-65562035D01*
X91509837Y-65586246D01*
X91524598Y-65613863D01*
X91533690Y-65643834D01*
X91537001Y-65677455D01*
X91537001Y-66652547D01*
X91533690Y-66686168D01*
X91524598Y-66716139D01*
X91509837Y-66743756D01*
X91489967Y-66767967D01*
X91465756Y-66787837D01*
X91438139Y-66802598D01*
X91408168Y-66811690D01*
X91374547Y-66815001D01*
X89999455Y-66815001D01*
X89965834Y-66811690D01*
X89935863Y-66802598D01*
X89908246Y-66787837D01*
X89884035Y-66767967D01*
X89864165Y-66743756D01*
X89849404Y-66716139D01*
X89840312Y-66686168D01*
X89837001Y-66652547D01*
X89837001Y-65677455D01*
X89840312Y-65643834D01*
X89849404Y-65613863D01*
X89864165Y-65586246D01*
X89884035Y-65562035D01*
X89908246Y-65542165D01*
X89935863Y-65527404D01*
X89965834Y-65518312D01*
X89999455Y-65515001D01*
X91374547Y-65515001D01*
X91408168Y-65518312D01*
X91408168Y-65518312D01*
G37*
G36*
X88286340Y-65487640D02*
G01*
X88309743Y-65494739D01*
X88331313Y-65506269D01*
X88350218Y-65521784D01*
X88365733Y-65540689D01*
X88377263Y-65562259D01*
X88384362Y-65585662D01*
X88387001Y-65612455D01*
X88387001Y-66657547D01*
X88384362Y-66684340D01*
X88377263Y-66707743D01*
X88365733Y-66729313D01*
X88350218Y-66748218D01*
X88331313Y-66763733D01*
X88309743Y-66775263D01*
X88286340Y-66782362D01*
X88259547Y-66785001D01*
X87914455Y-66785001D01*
X87887662Y-66782362D01*
X87864259Y-66775263D01*
X87842689Y-66763733D01*
X87823784Y-66748218D01*
X87808269Y-66729313D01*
X87796739Y-66707743D01*
X87789640Y-66684340D01*
X87787001Y-66657547D01*
X87787001Y-65612455D01*
X87789640Y-65585662D01*
X87796739Y-65562259D01*
X87808269Y-65540689D01*
X87823784Y-65521784D01*
X87842689Y-65506269D01*
X87864259Y-65494739D01*
X87887662Y-65487640D01*
X87914455Y-65485001D01*
X88259547Y-65485001D01*
X88286340Y-65487640D01*
X88286340Y-65487640D01*
G37*
G36*
X89236340Y-65487640D02*
G01*
X89259743Y-65494739D01*
X89281313Y-65506269D01*
X89300218Y-65521784D01*
X89315733Y-65540689D01*
X89327263Y-65562259D01*
X89334362Y-65585662D01*
X89337001Y-65612455D01*
X89337001Y-66657547D01*
X89334362Y-66684340D01*
X89327263Y-66707743D01*
X89315733Y-66729313D01*
X89300218Y-66748218D01*
X89281313Y-66763733D01*
X89259743Y-66775263D01*
X89236340Y-66782362D01*
X89209547Y-66785001D01*
X88864455Y-66785001D01*
X88837662Y-66782362D01*
X88814259Y-66775263D01*
X88792689Y-66763733D01*
X88773784Y-66748218D01*
X88758269Y-66729313D01*
X88746739Y-66707743D01*
X88739640Y-66684340D01*
X88737001Y-66657547D01*
X88737001Y-65612455D01*
X88739640Y-65585662D01*
X88746739Y-65562259D01*
X88758269Y-65540689D01*
X88773784Y-65521784D01*
X88792689Y-65506269D01*
X88814259Y-65494739D01*
X88837662Y-65487640D01*
X88864455Y-65485001D01*
X89209547Y-65485001D01*
X89236340Y-65487640D01*
X89236340Y-65487640D01*
G37*
G36*
X87336340Y-65487640D02*
G01*
X87359743Y-65494739D01*
X87381313Y-65506269D01*
X87400218Y-65521784D01*
X87415733Y-65540689D01*
X87427263Y-65562259D01*
X87434362Y-65585662D01*
X87437001Y-65612455D01*
X87437001Y-66657547D01*
X87434362Y-66684340D01*
X87427263Y-66707743D01*
X87415733Y-66729313D01*
X87400218Y-66748218D01*
X87381313Y-66763733D01*
X87359743Y-66775263D01*
X87336340Y-66782362D01*
X87309547Y-66785001D01*
X86964455Y-66785001D01*
X86937662Y-66782362D01*
X86914259Y-66775263D01*
X86892689Y-66763733D01*
X86873784Y-66748218D01*
X86858269Y-66729313D01*
X86846739Y-66707743D01*
X86839640Y-66684340D01*
X86837001Y-66657547D01*
X86837001Y-65612455D01*
X86839640Y-65585662D01*
X86846739Y-65562259D01*
X86858269Y-65540689D01*
X86873784Y-65521784D01*
X86892689Y-65506269D01*
X86914259Y-65494739D01*
X86937662Y-65487640D01*
X86964455Y-65485001D01*
X87309547Y-65485001D01*
X87336340Y-65487640D01*
X87336340Y-65487640D01*
G37*
G36*
X48286340Y-65467640D02*
G01*
X48309743Y-65474739D01*
X48331313Y-65486269D01*
X48350218Y-65501784D01*
X48365733Y-65520689D01*
X48377263Y-65542259D01*
X48384362Y-65565662D01*
X48387001Y-65592455D01*
X48387001Y-66637547D01*
X48384362Y-66664340D01*
X48377263Y-66687743D01*
X48365733Y-66709313D01*
X48350218Y-66728218D01*
X48331313Y-66743733D01*
X48309743Y-66755263D01*
X48286340Y-66762362D01*
X48259547Y-66765001D01*
X47914455Y-66765001D01*
X47887662Y-66762362D01*
X47864259Y-66755263D01*
X47842689Y-66743733D01*
X47823784Y-66728218D01*
X47808269Y-66709313D01*
X47796739Y-66687743D01*
X47789640Y-66664340D01*
X47787001Y-66637547D01*
X47787001Y-65592455D01*
X47789640Y-65565662D01*
X47796739Y-65542259D01*
X47808269Y-65520689D01*
X47823784Y-65501784D01*
X47842689Y-65486269D01*
X47864259Y-65474739D01*
X47887662Y-65467640D01*
X47914455Y-65465001D01*
X48259547Y-65465001D01*
X48286340Y-65467640D01*
X48286340Y-65467640D01*
G37*
G36*
X96336340Y-65467640D02*
G01*
X96359743Y-65474739D01*
X96381313Y-65486269D01*
X96400218Y-65501784D01*
X96415733Y-65520689D01*
X96427263Y-65542259D01*
X96434362Y-65565662D01*
X96437001Y-65592455D01*
X96437001Y-66637547D01*
X96434362Y-66664340D01*
X96427263Y-66687743D01*
X96415733Y-66709313D01*
X96400218Y-66728218D01*
X96381313Y-66743733D01*
X96359743Y-66755263D01*
X96336340Y-66762362D01*
X96309547Y-66765001D01*
X95964455Y-66765001D01*
X95937662Y-66762362D01*
X95914259Y-66755263D01*
X95892689Y-66743733D01*
X95873784Y-66728218D01*
X95858269Y-66709313D01*
X95846739Y-66687743D01*
X95839640Y-66664340D01*
X95837001Y-66637547D01*
X95837001Y-65592455D01*
X95839640Y-65565662D01*
X95846739Y-65542259D01*
X95858269Y-65520689D01*
X95873784Y-65501784D01*
X95892689Y-65486269D01*
X95914259Y-65474739D01*
X95937662Y-65467640D01*
X95964455Y-65465001D01*
X96309547Y-65465001D01*
X96336340Y-65467640D01*
X96336340Y-65467640D01*
G37*
G36*
X95386340Y-65467640D02*
G01*
X95409743Y-65474739D01*
X95431313Y-65486269D01*
X95450218Y-65501784D01*
X95465733Y-65520689D01*
X95477263Y-65542259D01*
X95484362Y-65565662D01*
X95487001Y-65592455D01*
X95487001Y-66637547D01*
X95484362Y-66664340D01*
X95477263Y-66687743D01*
X95465733Y-66709313D01*
X95450218Y-66728218D01*
X95431313Y-66743733D01*
X95409743Y-66755263D01*
X95386340Y-66762362D01*
X95359547Y-66765001D01*
X95014455Y-66765001D01*
X94987662Y-66762362D01*
X94964259Y-66755263D01*
X94942689Y-66743733D01*
X94923784Y-66728218D01*
X94908269Y-66709313D01*
X94896739Y-66687743D01*
X94889640Y-66664340D01*
X94887001Y-66637547D01*
X94887001Y-65592455D01*
X94889640Y-65565662D01*
X94896739Y-65542259D01*
X94908269Y-65520689D01*
X94923784Y-65501784D01*
X94942689Y-65486269D01*
X94964259Y-65474739D01*
X94987662Y-65467640D01*
X95014455Y-65465001D01*
X95359547Y-65465001D01*
X95386340Y-65467640D01*
X95386340Y-65467640D01*
G37*
G36*
X94436340Y-65467640D02*
G01*
X94459743Y-65474739D01*
X94481313Y-65486269D01*
X94500218Y-65501784D01*
X94515733Y-65520689D01*
X94527263Y-65542259D01*
X94534362Y-65565662D01*
X94537001Y-65592455D01*
X94537001Y-66637547D01*
X94534362Y-66664340D01*
X94527263Y-66687743D01*
X94515733Y-66709313D01*
X94500218Y-66728218D01*
X94481313Y-66743733D01*
X94459743Y-66755263D01*
X94436340Y-66762362D01*
X94409547Y-66765001D01*
X94064455Y-66765001D01*
X94037662Y-66762362D01*
X94014259Y-66755263D01*
X93992689Y-66743733D01*
X93973784Y-66728218D01*
X93958269Y-66709313D01*
X93946739Y-66687743D01*
X93939640Y-66664340D01*
X93937001Y-66637547D01*
X93937001Y-65592455D01*
X93939640Y-65565662D01*
X93946739Y-65542259D01*
X93958269Y-65520689D01*
X93973784Y-65501784D01*
X93992689Y-65486269D01*
X94014259Y-65474739D01*
X94037662Y-65467640D01*
X94064455Y-65465001D01*
X94409547Y-65465001D01*
X94436340Y-65467640D01*
X94436340Y-65467640D01*
G37*
G36*
X39836340Y-65467640D02*
G01*
X39859743Y-65474739D01*
X39881313Y-65486269D01*
X39900218Y-65501784D01*
X39915733Y-65520689D01*
X39927263Y-65542259D01*
X39934362Y-65565662D01*
X39937001Y-65592455D01*
X39937001Y-66637547D01*
X39934362Y-66664340D01*
X39927263Y-66687743D01*
X39915733Y-66709313D01*
X39900218Y-66728218D01*
X39881313Y-66743733D01*
X39859743Y-66755263D01*
X39836340Y-66762362D01*
X39809547Y-66765001D01*
X39464455Y-66765001D01*
X39437662Y-66762362D01*
X39414259Y-66755263D01*
X39392689Y-66743733D01*
X39373784Y-66728218D01*
X39358269Y-66709313D01*
X39346739Y-66687743D01*
X39339640Y-66664340D01*
X39337001Y-66637547D01*
X39337001Y-65592455D01*
X39339640Y-65565662D01*
X39346739Y-65542259D01*
X39358269Y-65520689D01*
X39373784Y-65501784D01*
X39392689Y-65486269D01*
X39414259Y-65474739D01*
X39437662Y-65467640D01*
X39464455Y-65465001D01*
X39809547Y-65465001D01*
X39836340Y-65467640D01*
X39836340Y-65467640D01*
G37*
G36*
X41736340Y-65467640D02*
G01*
X41759743Y-65474739D01*
X41781313Y-65486269D01*
X41800218Y-65501784D01*
X41815733Y-65520689D01*
X41827263Y-65542259D01*
X41834362Y-65565662D01*
X41837001Y-65592455D01*
X41837001Y-66637547D01*
X41834362Y-66664340D01*
X41827263Y-66687743D01*
X41815733Y-66709313D01*
X41800218Y-66728218D01*
X41781313Y-66743733D01*
X41759743Y-66755263D01*
X41736340Y-66762362D01*
X41709547Y-66765001D01*
X41364455Y-66765001D01*
X41337662Y-66762362D01*
X41314259Y-66755263D01*
X41292689Y-66743733D01*
X41273784Y-66728218D01*
X41258269Y-66709313D01*
X41246739Y-66687743D01*
X41239640Y-66664340D01*
X41237001Y-66637547D01*
X41237001Y-65592455D01*
X41239640Y-65565662D01*
X41246739Y-65542259D01*
X41258269Y-65520689D01*
X41273784Y-65501784D01*
X41292689Y-65486269D01*
X41314259Y-65474739D01*
X41337662Y-65467640D01*
X41364455Y-65465001D01*
X41709547Y-65465001D01*
X41736340Y-65467640D01*
X41736340Y-65467640D01*
G37*
G36*
X40786340Y-65467640D02*
G01*
X40809743Y-65474739D01*
X40831313Y-65486269D01*
X40850218Y-65501784D01*
X40865733Y-65520689D01*
X40877263Y-65542259D01*
X40884362Y-65565662D01*
X40887001Y-65592455D01*
X40887001Y-66637547D01*
X40884362Y-66664340D01*
X40877263Y-66687743D01*
X40865733Y-66709313D01*
X40850218Y-66728218D01*
X40831313Y-66743733D01*
X40809743Y-66755263D01*
X40786340Y-66762362D01*
X40759547Y-66765001D01*
X40414455Y-66765001D01*
X40387662Y-66762362D01*
X40364259Y-66755263D01*
X40342689Y-66743733D01*
X40323784Y-66728218D01*
X40308269Y-66709313D01*
X40296739Y-66687743D01*
X40289640Y-66664340D01*
X40287001Y-66637547D01*
X40287001Y-65592455D01*
X40289640Y-65565662D01*
X40296739Y-65542259D01*
X40308269Y-65520689D01*
X40323784Y-65501784D01*
X40342689Y-65486269D01*
X40364259Y-65474739D01*
X40387662Y-65467640D01*
X40414455Y-65465001D01*
X40759547Y-65465001D01*
X40786340Y-65467640D01*
X40786340Y-65467640D01*
G37*
G36*
X49236340Y-65467640D02*
G01*
X49259743Y-65474739D01*
X49281313Y-65486269D01*
X49300218Y-65501784D01*
X49315733Y-65520689D01*
X49327263Y-65542259D01*
X49334362Y-65565662D01*
X49337001Y-65592455D01*
X49337001Y-66637547D01*
X49334362Y-66664340D01*
X49327263Y-66687743D01*
X49315733Y-66709313D01*
X49300218Y-66728218D01*
X49281313Y-66743733D01*
X49259743Y-66755263D01*
X49236340Y-66762362D01*
X49209547Y-66765001D01*
X48864455Y-66765001D01*
X48837662Y-66762362D01*
X48814259Y-66755263D01*
X48792689Y-66743733D01*
X48773784Y-66728218D01*
X48758269Y-66709313D01*
X48746739Y-66687743D01*
X48739640Y-66664340D01*
X48737001Y-66637547D01*
X48737001Y-65592455D01*
X48739640Y-65565662D01*
X48746739Y-65542259D01*
X48758269Y-65520689D01*
X48773784Y-65501784D01*
X48792689Y-65486269D01*
X48814259Y-65474739D01*
X48837662Y-65467640D01*
X48864455Y-65465001D01*
X49209547Y-65465001D01*
X49236340Y-65467640D01*
X49236340Y-65467640D01*
G37*
G36*
X47336340Y-65467640D02*
G01*
X47359743Y-65474739D01*
X47381313Y-65486269D01*
X47400218Y-65501784D01*
X47415733Y-65520689D01*
X47427263Y-65542259D01*
X47434362Y-65565662D01*
X47437001Y-65592455D01*
X47437001Y-66637547D01*
X47434362Y-66664340D01*
X47427263Y-66687743D01*
X47415733Y-66709313D01*
X47400218Y-66728218D01*
X47381313Y-66743733D01*
X47359743Y-66755263D01*
X47336340Y-66762362D01*
X47309547Y-66765001D01*
X46964455Y-66765001D01*
X46937662Y-66762362D01*
X46914259Y-66755263D01*
X46892689Y-66743733D01*
X46873784Y-66728218D01*
X46858269Y-66709313D01*
X46846739Y-66687743D01*
X46839640Y-66664340D01*
X46837001Y-66637547D01*
X46837001Y-65592455D01*
X46839640Y-65565662D01*
X46846739Y-65542259D01*
X46858269Y-65520689D01*
X46873784Y-65501784D01*
X46892689Y-65486269D01*
X46914259Y-65474739D01*
X46937662Y-65467640D01*
X46964455Y-65465001D01*
X47309547Y-65465001D01*
X47336340Y-65467640D01*
X47336340Y-65467640D01*
G37*
G36*
X74462001Y-66415001D02*
G01*
X73112001Y-66415001D01*
X73112001Y-65215001D01*
X74462001Y-65215001D01*
X74462001Y-66415001D01*
X74462001Y-66415001D01*
G37*
G36*
X81862001Y-66415001D02*
G01*
X80512001Y-66415001D01*
X80512001Y-65215001D01*
X81862001Y-65215001D01*
X81862001Y-66415001D01*
X81862001Y-66415001D01*
G37*
G36*
X86582001Y-66415001D02*
G01*
X85232001Y-66415001D01*
X85232001Y-65215001D01*
X86582001Y-65215001D01*
X86582001Y-66415001D01*
X86582001Y-66415001D01*
G37*
G36*
X93562001Y-66415001D02*
G01*
X92212001Y-66415001D01*
X92212001Y-65215001D01*
X93562001Y-65215001D01*
X93562001Y-66415001D01*
X93562001Y-66415001D01*
G37*
G36*
X51012001Y-66415001D02*
G01*
X49662001Y-66415001D01*
X49662001Y-65215001D01*
X51012001Y-65215001D01*
X51012001Y-66415001D01*
X51012001Y-66415001D01*
G37*
G36*
X43512001Y-66415001D02*
G01*
X42162001Y-66415001D01*
X42162001Y-65215001D01*
X43512001Y-65215001D01*
X43512001Y-66415001D01*
X43512001Y-66415001D01*
G37*
G36*
X38308168Y-65018312D02*
G01*
X38338139Y-65027404D01*
X38365756Y-65042165D01*
X38389967Y-65062035D01*
X38409837Y-65086246D01*
X38424598Y-65113863D01*
X38433690Y-65143834D01*
X38437001Y-65177455D01*
X38437001Y-66152547D01*
X38433690Y-66186168D01*
X38424598Y-66216139D01*
X38409837Y-66243756D01*
X38389967Y-66267967D01*
X38365756Y-66287837D01*
X38338139Y-66302598D01*
X38308168Y-66311690D01*
X38274547Y-66315001D01*
X36899455Y-66315001D01*
X36865834Y-66311690D01*
X36835863Y-66302598D01*
X36808246Y-66287837D01*
X36784035Y-66267967D01*
X36764165Y-66243756D01*
X36749404Y-66216139D01*
X36740312Y-66186168D01*
X36737001Y-66152547D01*
X36737001Y-65177455D01*
X36740312Y-65143834D01*
X36749404Y-65113863D01*
X36764165Y-65086246D01*
X36784035Y-65062035D01*
X36808246Y-65042165D01*
X36835863Y-65027404D01*
X36865834Y-65018312D01*
X36899455Y-65015001D01*
X38274547Y-65015001D01*
X38308168Y-65018312D01*
X38308168Y-65018312D01*
G37*
G36*
X61053168Y-63558312D02*
G01*
X61083139Y-63567404D01*
X61110756Y-63582165D01*
X61134967Y-63602035D01*
X61154837Y-63626246D01*
X61169598Y-63653863D01*
X61178690Y-63683834D01*
X61182001Y-63717455D01*
X61182001Y-64692547D01*
X61178690Y-64726168D01*
X61169598Y-64756139D01*
X61154837Y-64783756D01*
X61134967Y-64807967D01*
X61110756Y-64827837D01*
X61083139Y-64842598D01*
X61053168Y-64851690D01*
X61019547Y-64855001D01*
X59994455Y-64855001D01*
X59960834Y-64851690D01*
X59930863Y-64842598D01*
X59903246Y-64827837D01*
X59879035Y-64807967D01*
X59859165Y-64783756D01*
X59844404Y-64756139D01*
X59835312Y-64726168D01*
X59832001Y-64692547D01*
X59832001Y-63717455D01*
X59835312Y-63683834D01*
X59844404Y-63653863D01*
X59859165Y-63626246D01*
X59879035Y-63602035D01*
X59903246Y-63582165D01*
X59930863Y-63567404D01*
X59960834Y-63558312D01*
X59994455Y-63555001D01*
X61019547Y-63555001D01*
X61053168Y-63558312D01*
X61053168Y-63558312D01*
G37*
G36*
X62718260Y-63832294D02*
G01*
X62752183Y-63846345D01*
X62800156Y-63866216D01*
X62873859Y-63915463D01*
X62936539Y-63978143D01*
X62985786Y-64051846D01*
X62999519Y-64085001D01*
X63019708Y-64133742D01*
X63037001Y-64220679D01*
X63037001Y-64309323D01*
X63019708Y-64396260D01*
X63011945Y-64415001D01*
X62985786Y-64478156D01*
X62936539Y-64551859D01*
X62873859Y-64614539D01*
X62800156Y-64663786D01*
X62752183Y-64683657D01*
X62718260Y-64697708D01*
X62631323Y-64715001D01*
X62542679Y-64715001D01*
X62455742Y-64697708D01*
X62421819Y-64683657D01*
X62373846Y-64663786D01*
X62300143Y-64614539D01*
X62237463Y-64551859D01*
X62188216Y-64478156D01*
X62162057Y-64415001D01*
X62154294Y-64396260D01*
X62137001Y-64309323D01*
X62137001Y-64220679D01*
X62154294Y-64133742D01*
X62174483Y-64085001D01*
X62188216Y-64051846D01*
X62237463Y-63978143D01*
X62300143Y-63915463D01*
X62373846Y-63866216D01*
X62421819Y-63846345D01*
X62455742Y-63832294D01*
X62542679Y-63815001D01*
X62631323Y-63815001D01*
X62718260Y-63832294D01*
X62718260Y-63832294D01*
G37*
G36*
X66371154Y-63318360D02*
G01*
X66401596Y-63327595D01*
X66429644Y-63342587D01*
X66454234Y-63362768D01*
X66474415Y-63387358D01*
X66489407Y-63415406D01*
X66498642Y-63445848D01*
X66502001Y-63479955D01*
X66502001Y-64450047D01*
X66498642Y-64484154D01*
X66489407Y-64514596D01*
X66474415Y-64542644D01*
X66454234Y-64567234D01*
X66429644Y-64587415D01*
X66401596Y-64602407D01*
X66371154Y-64611642D01*
X66337047Y-64615001D01*
X65916955Y-64615001D01*
X65882848Y-64611642D01*
X65852406Y-64602407D01*
X65824358Y-64587415D01*
X65799768Y-64567234D01*
X65779587Y-64542644D01*
X65764595Y-64514596D01*
X65755360Y-64484154D01*
X65752001Y-64450047D01*
X65752001Y-63479955D01*
X65755360Y-63445848D01*
X65764595Y-63415406D01*
X65779587Y-63387358D01*
X65799768Y-63362768D01*
X65824358Y-63342587D01*
X65852406Y-63327595D01*
X65882848Y-63318360D01*
X65916955Y-63315001D01*
X66337047Y-63315001D01*
X66371154Y-63318360D01*
X66371154Y-63318360D01*
G37*
G36*
X64471154Y-63318360D02*
G01*
X64501596Y-63327595D01*
X64529644Y-63342587D01*
X64554234Y-63362768D01*
X64574415Y-63387358D01*
X64589407Y-63415406D01*
X64598642Y-63445848D01*
X64602001Y-63479955D01*
X64602001Y-64450047D01*
X64598642Y-64484154D01*
X64589407Y-64514596D01*
X64574415Y-64542644D01*
X64554234Y-64567234D01*
X64529644Y-64587415D01*
X64501596Y-64602407D01*
X64471154Y-64611642D01*
X64437047Y-64615001D01*
X64016955Y-64615001D01*
X63982848Y-64611642D01*
X63952406Y-64602407D01*
X63924358Y-64587415D01*
X63899768Y-64567234D01*
X63879587Y-64542644D01*
X63864595Y-64514596D01*
X63855360Y-64484154D01*
X63852001Y-64450047D01*
X63852001Y-63479955D01*
X63855360Y-63445848D01*
X63864595Y-63415406D01*
X63879587Y-63387358D01*
X63899768Y-63362768D01*
X63924358Y-63342587D01*
X63952406Y-63327595D01*
X63982848Y-63318360D01*
X64016955Y-63315001D01*
X64437047Y-63315001D01*
X64471154Y-63318360D01*
X64471154Y-63318360D01*
G37*
G36*
X55786340Y-63267640D02*
G01*
X55809743Y-63274739D01*
X55831313Y-63286269D01*
X55850218Y-63301784D01*
X55865733Y-63320689D01*
X55877263Y-63342259D01*
X55884362Y-63365662D01*
X55887001Y-63392455D01*
X55887001Y-64437547D01*
X55884362Y-64464340D01*
X55877263Y-64487743D01*
X55865733Y-64509313D01*
X55850218Y-64528218D01*
X55831313Y-64543733D01*
X55809743Y-64555263D01*
X55786340Y-64562362D01*
X55759547Y-64565001D01*
X55414455Y-64565001D01*
X55387662Y-64562362D01*
X55364259Y-64555263D01*
X55342689Y-64543733D01*
X55323784Y-64528218D01*
X55308269Y-64509313D01*
X55296739Y-64487743D01*
X55289640Y-64464340D01*
X55287001Y-64437547D01*
X55287001Y-63392455D01*
X55289640Y-63365662D01*
X55296739Y-63342259D01*
X55308269Y-63320689D01*
X55323784Y-63301784D01*
X55342689Y-63286269D01*
X55364259Y-63274739D01*
X55387662Y-63267640D01*
X55414455Y-63265001D01*
X55759547Y-63265001D01*
X55786340Y-63267640D01*
X55786340Y-63267640D01*
G37*
G36*
X54836340Y-63267640D02*
G01*
X54859743Y-63274739D01*
X54881313Y-63286269D01*
X54900218Y-63301784D01*
X54915733Y-63320689D01*
X54927263Y-63342259D01*
X54934362Y-63365662D01*
X54937001Y-63392455D01*
X54937001Y-64437547D01*
X54934362Y-64464340D01*
X54927263Y-64487743D01*
X54915733Y-64509313D01*
X54900218Y-64528218D01*
X54881313Y-64543733D01*
X54859743Y-64555263D01*
X54836340Y-64562362D01*
X54809547Y-64565001D01*
X54464455Y-64565001D01*
X54437662Y-64562362D01*
X54414259Y-64555263D01*
X54392689Y-64543733D01*
X54373784Y-64528218D01*
X54358269Y-64509313D01*
X54346739Y-64487743D01*
X54339640Y-64464340D01*
X54337001Y-64437547D01*
X54337001Y-63392455D01*
X54339640Y-63365662D01*
X54346739Y-63342259D01*
X54358269Y-63320689D01*
X54373784Y-63301784D01*
X54392689Y-63286269D01*
X54414259Y-63274739D01*
X54437662Y-63267640D01*
X54464455Y-63265001D01*
X54809547Y-63265001D01*
X54836340Y-63267640D01*
X54836340Y-63267640D01*
G37*
G36*
X56837001Y-64565001D02*
G01*
X56237001Y-64565001D01*
X56237001Y-63065001D01*
X56837001Y-63065001D01*
X56837001Y-64565001D01*
X56837001Y-64565001D01*
G37*
G36*
X53408168Y-63218312D02*
G01*
X53438139Y-63227404D01*
X53465756Y-63242165D01*
X53489967Y-63262035D01*
X53509837Y-63286246D01*
X53524598Y-63313863D01*
X53533690Y-63343834D01*
X53537001Y-63377455D01*
X53537001Y-64352547D01*
X53533690Y-64386168D01*
X53524598Y-64416139D01*
X53509837Y-64443756D01*
X53489967Y-64467967D01*
X53465756Y-64487837D01*
X53438139Y-64502598D01*
X53408168Y-64511690D01*
X53374547Y-64515001D01*
X51999455Y-64515001D01*
X51965834Y-64511690D01*
X51935863Y-64502598D01*
X51908246Y-64487837D01*
X51884035Y-64467967D01*
X51864165Y-64443756D01*
X51849404Y-64416139D01*
X51840312Y-64386168D01*
X51837001Y-64352547D01*
X51837001Y-63377455D01*
X51840312Y-63343834D01*
X51849404Y-63313863D01*
X51864165Y-63286246D01*
X51884035Y-63262035D01*
X51908246Y-63242165D01*
X51935863Y-63227404D01*
X51965834Y-63218312D01*
X51999455Y-63215001D01*
X53374547Y-63215001D01*
X53408168Y-63218312D01*
X53408168Y-63218312D01*
G37*
G36*
X43512001Y-64315001D02*
G01*
X42162001Y-64315001D01*
X42162001Y-63115001D01*
X43512001Y-63115001D01*
X43512001Y-64315001D01*
X43512001Y-64315001D01*
G37*
G36*
X51012001Y-64315001D02*
G01*
X49662001Y-64315001D01*
X49662001Y-63115001D01*
X51012001Y-63115001D01*
X51012001Y-64315001D01*
X51012001Y-64315001D01*
G37*
G36*
X74462001Y-64315001D02*
G01*
X73112001Y-64315001D01*
X73112001Y-63115001D01*
X74462001Y-63115001D01*
X74462001Y-64315001D01*
X74462001Y-64315001D01*
G37*
G36*
X81862001Y-64315001D02*
G01*
X80512001Y-64315001D01*
X80512001Y-63115001D01*
X81862001Y-63115001D01*
X81862001Y-64315001D01*
X81862001Y-64315001D01*
G37*
G36*
X86582001Y-64315001D02*
G01*
X85232001Y-64315001D01*
X85232001Y-63115001D01*
X86582001Y-63115001D01*
X86582001Y-64315001D01*
X86582001Y-64315001D01*
G37*
G36*
X93562001Y-64315001D02*
G01*
X92212001Y-64315001D01*
X92212001Y-63115001D01*
X93562001Y-63115001D01*
X93562001Y-64315001D01*
X93562001Y-64315001D01*
G37*
G36*
X76186340Y-62967640D02*
G01*
X76209743Y-62974739D01*
X76231313Y-62986269D01*
X76250218Y-63001784D01*
X76265733Y-63020689D01*
X76277263Y-63042259D01*
X76284362Y-63065662D01*
X76287001Y-63092455D01*
X76287001Y-64137547D01*
X76284362Y-64164340D01*
X76277263Y-64187743D01*
X76265733Y-64209313D01*
X76250218Y-64228218D01*
X76231313Y-64243733D01*
X76209743Y-64255263D01*
X76186340Y-64262362D01*
X76159547Y-64265001D01*
X75814455Y-64265001D01*
X75787662Y-64262362D01*
X75764259Y-64255263D01*
X75742689Y-64243733D01*
X75723784Y-64228218D01*
X75708269Y-64209313D01*
X75696739Y-64187743D01*
X75689640Y-64164340D01*
X75687001Y-64137547D01*
X75687001Y-63092455D01*
X75689640Y-63065662D01*
X75696739Y-63042259D01*
X75708269Y-63020689D01*
X75723784Y-63001784D01*
X75742689Y-62986269D01*
X75764259Y-62974739D01*
X75787662Y-62967640D01*
X75814455Y-62965001D01*
X76159547Y-62965001D01*
X76186340Y-62967640D01*
X76186340Y-62967640D01*
G37*
G36*
X77237001Y-64265001D02*
G01*
X76637001Y-64265001D01*
X76637001Y-62765001D01*
X77237001Y-62765001D01*
X77237001Y-64265001D01*
X77237001Y-64265001D01*
G37*
G36*
X82636340Y-62967640D02*
G01*
X82659743Y-62974739D01*
X82681313Y-62986269D01*
X82700218Y-63001784D01*
X82715733Y-63020689D01*
X82727263Y-63042259D01*
X82734362Y-63065662D01*
X82737001Y-63092455D01*
X82737001Y-64137547D01*
X82734362Y-64164340D01*
X82727263Y-64187743D01*
X82715733Y-64209313D01*
X82700218Y-64228218D01*
X82681313Y-64243733D01*
X82659743Y-64255263D01*
X82636340Y-64262362D01*
X82609547Y-64265001D01*
X82264455Y-64265001D01*
X82237662Y-64262362D01*
X82214259Y-64255263D01*
X82192689Y-64243733D01*
X82173784Y-64228218D01*
X82158269Y-64209313D01*
X82146739Y-64187743D01*
X82139640Y-64164340D01*
X82137001Y-64137547D01*
X82137001Y-63092455D01*
X82139640Y-63065662D01*
X82146739Y-63042259D01*
X82158269Y-63020689D01*
X82173784Y-63001784D01*
X82192689Y-62986269D01*
X82214259Y-62974739D01*
X82237662Y-62967640D01*
X82264455Y-62965001D01*
X82609547Y-62965001D01*
X82636340Y-62967640D01*
X82636340Y-62967640D01*
G37*
G36*
X75236340Y-62967640D02*
G01*
X75259743Y-62974739D01*
X75281313Y-62986269D01*
X75300218Y-63001784D01*
X75315733Y-63020689D01*
X75327263Y-63042259D01*
X75334362Y-63065662D01*
X75337001Y-63092455D01*
X75337001Y-64137547D01*
X75334362Y-64164340D01*
X75327263Y-64187743D01*
X75315733Y-64209313D01*
X75300218Y-64228218D01*
X75281313Y-64243733D01*
X75259743Y-64255263D01*
X75236340Y-64262362D01*
X75209547Y-64265001D01*
X74864455Y-64265001D01*
X74837662Y-64262362D01*
X74814259Y-64255263D01*
X74792689Y-64243733D01*
X74773784Y-64228218D01*
X74758269Y-64209313D01*
X74746739Y-64187743D01*
X74739640Y-64164340D01*
X74737001Y-64137547D01*
X74737001Y-63092455D01*
X74739640Y-63065662D01*
X74746739Y-63042259D01*
X74758269Y-63020689D01*
X74773784Y-63001784D01*
X74792689Y-62986269D01*
X74814259Y-62974739D01*
X74837662Y-62967640D01*
X74864455Y-62965001D01*
X75209547Y-62965001D01*
X75236340Y-62967640D01*
X75236340Y-62967640D01*
G37*
G36*
X83586340Y-62967640D02*
G01*
X83609743Y-62974739D01*
X83631313Y-62986269D01*
X83650218Y-63001784D01*
X83665733Y-63020689D01*
X83677263Y-63042259D01*
X83684362Y-63065662D01*
X83687001Y-63092455D01*
X83687001Y-64137547D01*
X83684362Y-64164340D01*
X83677263Y-64187743D01*
X83665733Y-64209313D01*
X83650218Y-64228218D01*
X83631313Y-64243733D01*
X83609743Y-64255263D01*
X83586340Y-64262362D01*
X83559547Y-64265001D01*
X83214455Y-64265001D01*
X83187662Y-64262362D01*
X83164259Y-64255263D01*
X83142689Y-64243733D01*
X83123784Y-64228218D01*
X83108269Y-64209313D01*
X83096739Y-64187743D01*
X83089640Y-64164340D01*
X83087001Y-64137547D01*
X83087001Y-63092455D01*
X83089640Y-63065662D01*
X83096739Y-63042259D01*
X83108269Y-63020689D01*
X83123784Y-63001784D01*
X83142689Y-62986269D01*
X83164259Y-62974739D01*
X83187662Y-62967640D01*
X83214455Y-62965001D01*
X83559547Y-62965001D01*
X83586340Y-62967640D01*
X83586340Y-62967640D01*
G37*
G36*
X84637001Y-64265001D02*
G01*
X84037001Y-64265001D01*
X84037001Y-62765001D01*
X84637001Y-62765001D01*
X84637001Y-64265001D01*
X84637001Y-64265001D01*
G37*
G36*
X88286340Y-62787640D02*
G01*
X88309743Y-62794739D01*
X88331313Y-62806269D01*
X88350218Y-62821784D01*
X88365733Y-62840689D01*
X88377263Y-62862259D01*
X88384362Y-62885662D01*
X88387001Y-62912455D01*
X88387001Y-63957547D01*
X88384362Y-63984340D01*
X88377263Y-64007743D01*
X88365733Y-64029313D01*
X88350218Y-64048218D01*
X88331313Y-64063733D01*
X88309743Y-64075263D01*
X88286340Y-64082362D01*
X88259547Y-64085001D01*
X87914455Y-64085001D01*
X87887662Y-64082362D01*
X87864259Y-64075263D01*
X87842689Y-64063733D01*
X87823784Y-64048218D01*
X87808269Y-64029313D01*
X87796739Y-64007743D01*
X87789640Y-63984340D01*
X87787001Y-63957547D01*
X87787001Y-62912455D01*
X87789640Y-62885662D01*
X87796739Y-62862259D01*
X87808269Y-62840689D01*
X87823784Y-62821784D01*
X87842689Y-62806269D01*
X87864259Y-62794739D01*
X87887662Y-62787640D01*
X87914455Y-62785001D01*
X88259547Y-62785001D01*
X88286340Y-62787640D01*
X88286340Y-62787640D01*
G37*
G36*
X87336340Y-62787640D02*
G01*
X87359743Y-62794739D01*
X87381313Y-62806269D01*
X87400218Y-62821784D01*
X87415733Y-62840689D01*
X87427263Y-62862259D01*
X87434362Y-62885662D01*
X87437001Y-62912455D01*
X87437001Y-63957547D01*
X87434362Y-63984340D01*
X87427263Y-64007743D01*
X87415733Y-64029313D01*
X87400218Y-64048218D01*
X87381313Y-64063733D01*
X87359743Y-64075263D01*
X87336340Y-64082362D01*
X87309547Y-64085001D01*
X86964455Y-64085001D01*
X86937662Y-64082362D01*
X86914259Y-64075263D01*
X86892689Y-64063733D01*
X86873784Y-64048218D01*
X86858269Y-64029313D01*
X86846739Y-64007743D01*
X86839640Y-63984340D01*
X86837001Y-63957547D01*
X86837001Y-62912455D01*
X86839640Y-62885662D01*
X86846739Y-62862259D01*
X86858269Y-62840689D01*
X86873784Y-62821784D01*
X86892689Y-62806269D01*
X86914259Y-62794739D01*
X86937662Y-62787640D01*
X86964455Y-62785001D01*
X87309547Y-62785001D01*
X87336340Y-62787640D01*
X87336340Y-62787640D01*
G37*
G36*
X89337001Y-64085001D02*
G01*
X88737001Y-64085001D01*
X88737001Y-62585001D01*
X89337001Y-62585001D01*
X89337001Y-64085001D01*
X89337001Y-64085001D01*
G37*
G36*
X39836340Y-62767640D02*
G01*
X39859743Y-62774739D01*
X39881313Y-62786269D01*
X39900218Y-62801784D01*
X39915733Y-62820689D01*
X39927263Y-62842259D01*
X39934362Y-62865662D01*
X39937001Y-62892455D01*
X39937001Y-63937547D01*
X39934362Y-63964340D01*
X39927263Y-63987743D01*
X39915733Y-64009313D01*
X39900218Y-64028218D01*
X39881313Y-64043733D01*
X39859743Y-64055263D01*
X39836340Y-64062362D01*
X39809547Y-64065001D01*
X39464455Y-64065001D01*
X39437662Y-64062362D01*
X39414259Y-64055263D01*
X39392689Y-64043733D01*
X39373784Y-64028218D01*
X39358269Y-64009313D01*
X39346739Y-63987743D01*
X39339640Y-63964340D01*
X39337001Y-63937547D01*
X39337001Y-62892455D01*
X39339640Y-62865662D01*
X39346739Y-62842259D01*
X39358269Y-62820689D01*
X39373784Y-62801784D01*
X39392689Y-62786269D01*
X39414259Y-62774739D01*
X39437662Y-62767640D01*
X39464455Y-62765001D01*
X39809547Y-62765001D01*
X39836340Y-62767640D01*
X39836340Y-62767640D01*
G37*
G36*
X40786340Y-62767640D02*
G01*
X40809743Y-62774739D01*
X40831313Y-62786269D01*
X40850218Y-62801784D01*
X40865733Y-62820689D01*
X40877263Y-62842259D01*
X40884362Y-62865662D01*
X40887001Y-62892455D01*
X40887001Y-63937547D01*
X40884362Y-63964340D01*
X40877263Y-63987743D01*
X40865733Y-64009313D01*
X40850218Y-64028218D01*
X40831313Y-64043733D01*
X40809743Y-64055263D01*
X40786340Y-64062362D01*
X40759547Y-64065001D01*
X40414455Y-64065001D01*
X40387662Y-64062362D01*
X40364259Y-64055263D01*
X40342689Y-64043733D01*
X40323784Y-64028218D01*
X40308269Y-64009313D01*
X40296739Y-63987743D01*
X40289640Y-63964340D01*
X40287001Y-63937547D01*
X40287001Y-62892455D01*
X40289640Y-62865662D01*
X40296739Y-62842259D01*
X40308269Y-62820689D01*
X40323784Y-62801784D01*
X40342689Y-62786269D01*
X40364259Y-62774739D01*
X40387662Y-62767640D01*
X40414455Y-62765001D01*
X40759547Y-62765001D01*
X40786340Y-62767640D01*
X40786340Y-62767640D01*
G37*
G36*
X41837001Y-64065001D02*
G01*
X41237001Y-64065001D01*
X41237001Y-62565001D01*
X41837001Y-62565001D01*
X41837001Y-64065001D01*
X41837001Y-64065001D01*
G37*
G36*
X95386340Y-62767640D02*
G01*
X95409743Y-62774739D01*
X95431313Y-62786269D01*
X95450218Y-62801784D01*
X95465733Y-62820689D01*
X95477263Y-62842259D01*
X95484362Y-62865662D01*
X95487001Y-62892455D01*
X95487001Y-63937547D01*
X95484362Y-63964340D01*
X95477263Y-63987743D01*
X95465733Y-64009313D01*
X95450218Y-64028218D01*
X95431313Y-64043733D01*
X95409743Y-64055263D01*
X95386340Y-64062362D01*
X95359547Y-64065001D01*
X95014455Y-64065001D01*
X94987662Y-64062362D01*
X94964259Y-64055263D01*
X94942689Y-64043733D01*
X94923784Y-64028218D01*
X94908269Y-64009313D01*
X94896739Y-63987743D01*
X94889640Y-63964340D01*
X94887001Y-63937547D01*
X94887001Y-62892455D01*
X94889640Y-62865662D01*
X94896739Y-62842259D01*
X94908269Y-62820689D01*
X94923784Y-62801784D01*
X94942689Y-62786269D01*
X94964259Y-62774739D01*
X94987662Y-62767640D01*
X95014455Y-62765001D01*
X95359547Y-62765001D01*
X95386340Y-62767640D01*
X95386340Y-62767640D01*
G37*
G36*
X48286340Y-62767640D02*
G01*
X48309743Y-62774739D01*
X48331313Y-62786269D01*
X48350218Y-62801784D01*
X48365733Y-62820689D01*
X48377263Y-62842259D01*
X48384362Y-62865662D01*
X48387001Y-62892455D01*
X48387001Y-63937547D01*
X48384362Y-63964340D01*
X48377263Y-63987743D01*
X48365733Y-64009313D01*
X48350218Y-64028218D01*
X48331313Y-64043733D01*
X48309743Y-64055263D01*
X48286340Y-64062362D01*
X48259547Y-64065001D01*
X47914455Y-64065001D01*
X47887662Y-64062362D01*
X47864259Y-64055263D01*
X47842689Y-64043733D01*
X47823784Y-64028218D01*
X47808269Y-64009313D01*
X47796739Y-63987743D01*
X47789640Y-63964340D01*
X47787001Y-63937547D01*
X47787001Y-62892455D01*
X47789640Y-62865662D01*
X47796739Y-62842259D01*
X47808269Y-62820689D01*
X47823784Y-62801784D01*
X47842689Y-62786269D01*
X47864259Y-62774739D01*
X47887662Y-62767640D01*
X47914455Y-62765001D01*
X48259547Y-62765001D01*
X48286340Y-62767640D01*
X48286340Y-62767640D01*
G37*
G36*
X49337001Y-64065001D02*
G01*
X48737001Y-64065001D01*
X48737001Y-62565001D01*
X49337001Y-62565001D01*
X49337001Y-64065001D01*
X49337001Y-64065001D01*
G37*
G36*
X94436340Y-62767640D02*
G01*
X94459743Y-62774739D01*
X94481313Y-62786269D01*
X94500218Y-62801784D01*
X94515733Y-62820689D01*
X94527263Y-62842259D01*
X94534362Y-62865662D01*
X94537001Y-62892455D01*
X94537001Y-63937547D01*
X94534362Y-63964340D01*
X94527263Y-63987743D01*
X94515733Y-64009313D01*
X94500218Y-64028218D01*
X94481313Y-64043733D01*
X94459743Y-64055263D01*
X94436340Y-64062362D01*
X94409547Y-64065001D01*
X94064455Y-64065001D01*
X94037662Y-64062362D01*
X94014259Y-64055263D01*
X93992689Y-64043733D01*
X93973784Y-64028218D01*
X93958269Y-64009313D01*
X93946739Y-63987743D01*
X93939640Y-63964340D01*
X93937001Y-63937547D01*
X93937001Y-62892455D01*
X93939640Y-62865662D01*
X93946739Y-62842259D01*
X93958269Y-62820689D01*
X93973784Y-62801784D01*
X93992689Y-62786269D01*
X94014259Y-62774739D01*
X94037662Y-62767640D01*
X94064455Y-62765001D01*
X94409547Y-62765001D01*
X94436340Y-62767640D01*
X94436340Y-62767640D01*
G37*
G36*
X96437001Y-64065001D02*
G01*
X95837001Y-64065001D01*
X95837001Y-62565001D01*
X96437001Y-62565001D01*
X96437001Y-64065001D01*
X96437001Y-64065001D01*
G37*
G36*
X47336340Y-62767640D02*
G01*
X47359743Y-62774739D01*
X47381313Y-62786269D01*
X47400218Y-62801784D01*
X47415733Y-62820689D01*
X47427263Y-62842259D01*
X47434362Y-62865662D01*
X47437001Y-62892455D01*
X47437001Y-63937547D01*
X47434362Y-63964340D01*
X47427263Y-63987743D01*
X47415733Y-64009313D01*
X47400218Y-64028218D01*
X47381313Y-64043733D01*
X47359743Y-64055263D01*
X47336340Y-64062362D01*
X47309547Y-64065001D01*
X46964455Y-64065001D01*
X46937662Y-64062362D01*
X46914259Y-64055263D01*
X46892689Y-64043733D01*
X46873784Y-64028218D01*
X46858269Y-64009313D01*
X46846739Y-63987743D01*
X46839640Y-63964340D01*
X46837001Y-63937547D01*
X46837001Y-62892455D01*
X46839640Y-62865662D01*
X46846739Y-62842259D01*
X46858269Y-62820689D01*
X46873784Y-62801784D01*
X46892689Y-62786269D01*
X46914259Y-62774739D01*
X46937662Y-62767640D01*
X46964455Y-62765001D01*
X47309547Y-62765001D01*
X47336340Y-62767640D01*
X47336340Y-62767640D01*
G37*
G36*
X99008168Y-62718312D02*
G01*
X99038139Y-62727404D01*
X99065756Y-62742165D01*
X99089967Y-62762035D01*
X99109837Y-62786246D01*
X99124598Y-62813863D01*
X99133690Y-62843834D01*
X99137001Y-62877455D01*
X99137001Y-63852547D01*
X99133690Y-63886168D01*
X99124598Y-63916139D01*
X99109837Y-63943756D01*
X99089967Y-63967967D01*
X99065756Y-63987837D01*
X99038139Y-64002598D01*
X99008168Y-64011690D01*
X98974547Y-64015001D01*
X97599455Y-64015001D01*
X97565834Y-64011690D01*
X97535863Y-64002598D01*
X97508246Y-63987837D01*
X97484035Y-63967967D01*
X97464165Y-63943756D01*
X97449404Y-63916139D01*
X97440312Y-63886168D01*
X97437001Y-63852547D01*
X97437001Y-62877455D01*
X97440312Y-62843834D01*
X97449404Y-62813863D01*
X97464165Y-62786246D01*
X97484035Y-62762035D01*
X97508246Y-62742165D01*
X97535863Y-62727404D01*
X97565834Y-62718312D01*
X97599455Y-62715001D01*
X98974547Y-62715001D01*
X99008168Y-62718312D01*
X99008168Y-62718312D01*
G37*
G36*
X45808168Y-62718312D02*
G01*
X45838139Y-62727404D01*
X45865756Y-62742165D01*
X45889967Y-62762035D01*
X45909837Y-62786246D01*
X45924598Y-62813863D01*
X45933690Y-62843834D01*
X45937001Y-62877455D01*
X45937001Y-63852547D01*
X45933690Y-63886168D01*
X45924598Y-63916139D01*
X45909837Y-63943756D01*
X45889967Y-63967967D01*
X45865756Y-63987837D01*
X45838139Y-64002598D01*
X45808168Y-64011690D01*
X45774547Y-64015001D01*
X44399455Y-64015001D01*
X44365834Y-64011690D01*
X44335863Y-64002598D01*
X44308246Y-63987837D01*
X44284035Y-63967967D01*
X44264165Y-63943756D01*
X44249404Y-63916139D01*
X44240312Y-63886168D01*
X44237001Y-63852547D01*
X44237001Y-62877455D01*
X44240312Y-62843834D01*
X44249404Y-62813863D01*
X44264165Y-62786246D01*
X44284035Y-62762035D01*
X44308246Y-62742165D01*
X44335863Y-62727404D01*
X44365834Y-62718312D01*
X44399455Y-62715001D01*
X45774547Y-62715001D01*
X45808168Y-62718312D01*
X45808168Y-62718312D01*
G37*
G36*
X72308168Y-62718312D02*
G01*
X72338139Y-62727404D01*
X72365756Y-62742165D01*
X72389967Y-62762035D01*
X72409837Y-62786246D01*
X72424598Y-62813863D01*
X72433690Y-62843834D01*
X72437001Y-62877455D01*
X72437001Y-63852547D01*
X72433690Y-63886168D01*
X72424598Y-63916139D01*
X72409837Y-63943756D01*
X72389967Y-63967967D01*
X72365756Y-63987837D01*
X72338139Y-64002598D01*
X72308168Y-64011690D01*
X72274547Y-64015001D01*
X70899455Y-64015001D01*
X70865834Y-64011690D01*
X70835863Y-64002598D01*
X70808246Y-63987837D01*
X70784035Y-63967967D01*
X70764165Y-63943756D01*
X70749404Y-63916139D01*
X70740312Y-63886168D01*
X70737001Y-63852547D01*
X70737001Y-62877455D01*
X70740312Y-62843834D01*
X70749404Y-62813863D01*
X70764165Y-62786246D01*
X70784035Y-62762035D01*
X70808246Y-62742165D01*
X70835863Y-62727404D01*
X70865834Y-62718312D01*
X70899455Y-62715001D01*
X72274547Y-62715001D01*
X72308168Y-62718312D01*
X72308168Y-62718312D01*
G37*
G36*
X79708168Y-62718312D02*
G01*
X79738139Y-62727404D01*
X79765756Y-62742165D01*
X79789967Y-62762035D01*
X79809837Y-62786246D01*
X79824598Y-62813863D01*
X79833690Y-62843834D01*
X79837001Y-62877455D01*
X79837001Y-63852547D01*
X79833690Y-63886168D01*
X79824598Y-63916139D01*
X79809837Y-63943756D01*
X79789967Y-63967967D01*
X79765756Y-63987837D01*
X79738139Y-64002598D01*
X79708168Y-64011690D01*
X79674547Y-64015001D01*
X78299455Y-64015001D01*
X78265834Y-64011690D01*
X78235863Y-64002598D01*
X78208246Y-63987837D01*
X78184035Y-63967967D01*
X78164165Y-63943756D01*
X78149404Y-63916139D01*
X78140312Y-63886168D01*
X78137001Y-63852547D01*
X78137001Y-62877455D01*
X78140312Y-62843834D01*
X78149404Y-62813863D01*
X78164165Y-62786246D01*
X78184035Y-62762035D01*
X78208246Y-62742165D01*
X78235863Y-62727404D01*
X78265834Y-62718312D01*
X78299455Y-62715001D01*
X79674547Y-62715001D01*
X79708168Y-62718312D01*
X79708168Y-62718312D01*
G37*
G36*
X91408168Y-62718312D02*
G01*
X91438139Y-62727404D01*
X91465756Y-62742165D01*
X91489967Y-62762035D01*
X91509837Y-62786246D01*
X91524598Y-62813863D01*
X91533690Y-62843834D01*
X91537001Y-62877455D01*
X91537001Y-63852547D01*
X91533690Y-63886168D01*
X91524598Y-63916139D01*
X91509837Y-63943756D01*
X91489967Y-63967967D01*
X91465756Y-63987837D01*
X91438139Y-64002598D01*
X91408168Y-64011690D01*
X91374547Y-64015001D01*
X89999455Y-64015001D01*
X89965834Y-64011690D01*
X89935863Y-64002598D01*
X89908246Y-63987837D01*
X89884035Y-63967967D01*
X89864165Y-63943756D01*
X89849404Y-63916139D01*
X89840312Y-63886168D01*
X89837001Y-63852547D01*
X89837001Y-62877455D01*
X89840312Y-62843834D01*
X89849404Y-62813863D01*
X89864165Y-62786246D01*
X89884035Y-62762035D01*
X89908246Y-62742165D01*
X89935863Y-62727404D01*
X89965834Y-62718312D01*
X89999455Y-62715001D01*
X91374547Y-62715001D01*
X91408168Y-62718312D01*
X91408168Y-62718312D01*
G37*
G36*
X101718654Y-60297666D02*
G01*
X101882873Y-60330331D01*
X102192253Y-60458480D01*
X102470688Y-60644524D01*
X102707478Y-60881314D01*
X102893522Y-61159749D01*
X103021671Y-61469129D01*
X103045714Y-61590001D01*
X103087001Y-61797564D01*
X103087001Y-62132438D01*
X103065175Y-62242165D01*
X103021671Y-62460873D01*
X102893522Y-62770253D01*
X102707478Y-63048688D01*
X102470688Y-63285478D01*
X102192253Y-63471522D01*
X101882873Y-63599671D01*
X101749271Y-63626246D01*
X101554438Y-63665001D01*
X101219564Y-63665001D01*
X101024731Y-63626246D01*
X100891129Y-63599671D01*
X100581749Y-63471522D01*
X100303314Y-63285478D01*
X100066524Y-63048688D01*
X99880480Y-62770253D01*
X99752331Y-62460873D01*
X99708827Y-62242165D01*
X99687001Y-62132438D01*
X99687001Y-61797564D01*
X99728288Y-61590001D01*
X99752331Y-61469129D01*
X99880480Y-61159749D01*
X100066524Y-60881314D01*
X100303314Y-60644524D01*
X100581749Y-60458480D01*
X100891129Y-60330331D01*
X101055348Y-60297666D01*
X101219564Y-60265001D01*
X101554438Y-60265001D01*
X101718654Y-60297666D01*
X101718654Y-60297666D01*
G37*
G36*
X38308168Y-62218312D02*
G01*
X38338139Y-62227404D01*
X38365756Y-62242165D01*
X38389967Y-62262035D01*
X38409837Y-62286246D01*
X38424598Y-62313863D01*
X38433690Y-62343834D01*
X38437001Y-62377455D01*
X38437001Y-63352547D01*
X38433690Y-63386168D01*
X38424598Y-63416139D01*
X38409837Y-63443756D01*
X38389967Y-63467967D01*
X38365756Y-63487837D01*
X38338139Y-63502598D01*
X38308168Y-63511690D01*
X38274547Y-63515001D01*
X36899455Y-63515001D01*
X36865834Y-63511690D01*
X36835863Y-63502598D01*
X36808246Y-63487837D01*
X36784035Y-63467967D01*
X36764165Y-63443756D01*
X36749404Y-63416139D01*
X36740312Y-63386168D01*
X36737001Y-63352547D01*
X36737001Y-62377455D01*
X36740312Y-62343834D01*
X36749404Y-62313863D01*
X36764165Y-62286246D01*
X36784035Y-62262035D01*
X36808246Y-62242165D01*
X36835863Y-62227404D01*
X36865834Y-62218312D01*
X36899455Y-62215001D01*
X38274547Y-62215001D01*
X38308168Y-62218312D01*
X38308168Y-62218312D01*
G37*
G36*
X64388168Y-61643312D02*
G01*
X64418139Y-61652404D01*
X64445756Y-61667165D01*
X64469967Y-61687035D01*
X64489837Y-61711246D01*
X64504598Y-61738863D01*
X64513690Y-61768834D01*
X64517001Y-61802455D01*
X64517001Y-62827547D01*
X64513690Y-62861168D01*
X64504598Y-62891139D01*
X64489837Y-62918756D01*
X64469967Y-62942967D01*
X64445756Y-62962837D01*
X64418139Y-62977598D01*
X64388168Y-62986690D01*
X64354547Y-62990001D01*
X63379455Y-62990001D01*
X63345834Y-62986690D01*
X63315863Y-62977598D01*
X63288246Y-62962837D01*
X63264035Y-62942967D01*
X63244165Y-62918756D01*
X63229404Y-62891139D01*
X63220312Y-62861168D01*
X63217001Y-62827547D01*
X63217001Y-61802455D01*
X63220312Y-61768834D01*
X63229404Y-61738863D01*
X63244165Y-61711246D01*
X63264035Y-61687035D01*
X63288246Y-61667165D01*
X63315863Y-61652404D01*
X63345834Y-61643312D01*
X63379455Y-61640001D01*
X64354547Y-61640001D01*
X64388168Y-61643312D01*
X64388168Y-61643312D01*
G37*
G36*
X62388168Y-61643312D02*
G01*
X62418139Y-61652404D01*
X62445756Y-61667165D01*
X62469967Y-61687035D01*
X62489837Y-61711246D01*
X62504598Y-61738863D01*
X62513690Y-61768834D01*
X62517001Y-61802455D01*
X62517001Y-62827547D01*
X62513690Y-62861168D01*
X62504598Y-62891139D01*
X62489837Y-62918756D01*
X62469967Y-62942967D01*
X62445756Y-62962837D01*
X62418139Y-62977598D01*
X62388168Y-62986690D01*
X62354547Y-62990001D01*
X61379455Y-62990001D01*
X61345834Y-62986690D01*
X61315863Y-62977598D01*
X61288246Y-62962837D01*
X61264035Y-62942967D01*
X61244165Y-62918756D01*
X61229404Y-62891139D01*
X61220312Y-62861168D01*
X61217001Y-62827547D01*
X61217001Y-61802455D01*
X61220312Y-61768834D01*
X61229404Y-61738863D01*
X61244165Y-61711246D01*
X61264035Y-61687035D01*
X61288246Y-61667165D01*
X61315863Y-61652404D01*
X61345834Y-61643312D01*
X61379455Y-61640001D01*
X62354547Y-61640001D01*
X62388168Y-61643312D01*
X62388168Y-61643312D01*
G37*
G36*
X52787001Y-62940001D02*
G01*
X51587001Y-62940001D01*
X51587001Y-61590001D01*
X52787001Y-61590001D01*
X52787001Y-62940001D01*
X52787001Y-62940001D01*
G37*
G36*
X54887001Y-62940001D02*
G01*
X53687001Y-62940001D01*
X53687001Y-61590001D01*
X54887001Y-61590001D01*
X54887001Y-62940001D01*
X54887001Y-62940001D01*
G37*
G36*
X97316812Y-60375547D02*
G01*
X97316815Y-60375548D01*
X97316814Y-60375548D01*
X97485153Y-60445276D01*
X97636654Y-60546506D01*
X97765496Y-60675348D01*
X97866726Y-60826849D01*
X97924491Y-60966307D01*
X97936455Y-60995190D01*
X97972001Y-61173895D01*
X97972001Y-61356107D01*
X97936455Y-61534812D01*
X97936454Y-61534814D01*
X97866726Y-61703153D01*
X97765496Y-61854654D01*
X97636654Y-61983496D01*
X97485153Y-62084726D01*
X97345695Y-62142491D01*
X97316812Y-62154455D01*
X97138107Y-62190001D01*
X96955895Y-62190001D01*
X96777190Y-62154455D01*
X96748307Y-62142491D01*
X96608849Y-62084726D01*
X96457348Y-61983496D01*
X96328506Y-61854654D01*
X96227276Y-61703153D01*
X96157548Y-61534814D01*
X96157547Y-61534812D01*
X96122001Y-61356107D01*
X96122001Y-61173895D01*
X96157547Y-60995190D01*
X96169511Y-60966307D01*
X96227276Y-60826849D01*
X96328506Y-60675348D01*
X96457348Y-60546506D01*
X96608849Y-60445276D01*
X96777188Y-60375548D01*
X96777187Y-60375548D01*
X96777190Y-60375547D01*
X96955895Y-60340001D01*
X97138107Y-60340001D01*
X97316812Y-60375547D01*
X97316812Y-60375547D01*
G37*
G36*
X87156812Y-60375547D02*
G01*
X87156815Y-60375548D01*
X87156814Y-60375548D01*
X87325153Y-60445276D01*
X87476654Y-60546506D01*
X87605496Y-60675348D01*
X87706726Y-60826849D01*
X87764491Y-60966307D01*
X87776455Y-60995190D01*
X87812001Y-61173895D01*
X87812001Y-61356107D01*
X87776455Y-61534812D01*
X87776454Y-61534814D01*
X87706726Y-61703153D01*
X87605496Y-61854654D01*
X87476654Y-61983496D01*
X87325153Y-62084726D01*
X87185695Y-62142491D01*
X87156812Y-62154455D01*
X86978107Y-62190001D01*
X86795895Y-62190001D01*
X86617190Y-62154455D01*
X86588307Y-62142491D01*
X86448849Y-62084726D01*
X86297348Y-61983496D01*
X86168506Y-61854654D01*
X86067276Y-61703153D01*
X85997548Y-61534814D01*
X85997547Y-61534812D01*
X85962001Y-61356107D01*
X85962001Y-61173895D01*
X85997547Y-60995190D01*
X86009511Y-60966307D01*
X86067276Y-60826849D01*
X86168506Y-60675348D01*
X86297348Y-60546506D01*
X86448849Y-60445276D01*
X86617188Y-60375548D01*
X86617187Y-60375548D01*
X86617190Y-60375547D01*
X86795895Y-60340001D01*
X86978107Y-60340001D01*
X87156812Y-60375547D01*
X87156812Y-60375547D01*
G37*
G36*
X76996812Y-60375547D02*
G01*
X76996815Y-60375548D01*
X76996814Y-60375548D01*
X77165153Y-60445276D01*
X77316654Y-60546506D01*
X77445496Y-60675348D01*
X77546726Y-60826849D01*
X77604491Y-60966307D01*
X77616455Y-60995190D01*
X77652001Y-61173895D01*
X77652001Y-61356107D01*
X77616455Y-61534812D01*
X77616454Y-61534814D01*
X77546726Y-61703153D01*
X77445496Y-61854654D01*
X77316654Y-61983496D01*
X77165153Y-62084726D01*
X77025695Y-62142491D01*
X76996812Y-62154455D01*
X76818107Y-62190001D01*
X76635895Y-62190001D01*
X76457190Y-62154455D01*
X76428307Y-62142491D01*
X76288849Y-62084726D01*
X76137348Y-61983496D01*
X76008506Y-61854654D01*
X75907276Y-61703153D01*
X75837548Y-61534814D01*
X75837547Y-61534812D01*
X75802001Y-61356107D01*
X75802001Y-61173895D01*
X75837547Y-60995190D01*
X75849511Y-60966307D01*
X75907276Y-60826849D01*
X76008506Y-60675348D01*
X76137348Y-60546506D01*
X76288849Y-60445276D01*
X76457188Y-60375548D01*
X76457187Y-60375548D01*
X76457190Y-60375547D01*
X76635895Y-60340001D01*
X76818107Y-60340001D01*
X76996812Y-60375547D01*
X76996812Y-60375547D01*
G37*
G36*
X66836812Y-60375547D02*
G01*
X66836815Y-60375548D01*
X66836814Y-60375548D01*
X67005153Y-60445276D01*
X67156654Y-60546506D01*
X67285496Y-60675348D01*
X67386726Y-60826849D01*
X67444491Y-60966307D01*
X67456455Y-60995190D01*
X67492001Y-61173895D01*
X67492001Y-61356107D01*
X67456455Y-61534812D01*
X67456454Y-61534814D01*
X67386726Y-61703153D01*
X67285496Y-61854654D01*
X67156654Y-61983496D01*
X67005153Y-62084726D01*
X66865695Y-62142491D01*
X66836812Y-62154455D01*
X66658107Y-62190001D01*
X66475895Y-62190001D01*
X66297190Y-62154455D01*
X66268307Y-62142491D01*
X66128849Y-62084726D01*
X65977348Y-61983496D01*
X65848506Y-61854654D01*
X65747276Y-61703153D01*
X65677548Y-61534814D01*
X65677547Y-61534812D01*
X65642001Y-61356107D01*
X65642001Y-61173895D01*
X65677547Y-60995190D01*
X65689511Y-60966307D01*
X65747276Y-60826849D01*
X65848506Y-60675348D01*
X65977348Y-60546506D01*
X66128849Y-60445276D01*
X66297188Y-60375548D01*
X66297187Y-60375548D01*
X66297190Y-60375547D01*
X66475895Y-60340001D01*
X66658107Y-60340001D01*
X66836812Y-60375547D01*
X66836812Y-60375547D01*
G37*
G36*
X56676812Y-60375547D02*
G01*
X56676815Y-60375548D01*
X56676814Y-60375548D01*
X56845153Y-60445276D01*
X56996654Y-60546506D01*
X57125496Y-60675348D01*
X57226726Y-60826849D01*
X57284491Y-60966307D01*
X57296455Y-60995190D01*
X57332001Y-61173895D01*
X57332001Y-61356107D01*
X57296455Y-61534812D01*
X57296454Y-61534814D01*
X57226726Y-61703153D01*
X57125496Y-61854654D01*
X56996654Y-61983496D01*
X56845153Y-62084726D01*
X56705695Y-62142491D01*
X56676812Y-62154455D01*
X56498107Y-62190001D01*
X56315895Y-62190001D01*
X56137190Y-62154455D01*
X56108307Y-62142491D01*
X55968849Y-62084726D01*
X55817348Y-61983496D01*
X55688506Y-61854654D01*
X55587276Y-61703153D01*
X55517548Y-61534814D01*
X55517547Y-61534812D01*
X55482001Y-61356107D01*
X55482001Y-61173895D01*
X55517547Y-60995190D01*
X55529511Y-60966307D01*
X55587276Y-60826849D01*
X55688506Y-60675348D01*
X55817348Y-60546506D01*
X55968849Y-60445276D01*
X56137188Y-60375548D01*
X56137187Y-60375548D01*
X56137190Y-60375547D01*
X56315895Y-60340001D01*
X56498107Y-60340001D01*
X56676812Y-60375547D01*
X56676812Y-60375547D01*
G37*
G36*
X46516812Y-60375547D02*
G01*
X46516815Y-60375548D01*
X46516814Y-60375548D01*
X46685153Y-60445276D01*
X46836654Y-60546506D01*
X46965496Y-60675348D01*
X47066726Y-60826849D01*
X47124491Y-60966307D01*
X47136455Y-60995190D01*
X47172001Y-61173895D01*
X47172001Y-61356107D01*
X47136455Y-61534812D01*
X47136454Y-61534814D01*
X47066726Y-61703153D01*
X46965496Y-61854654D01*
X46836654Y-61983496D01*
X46685153Y-62084726D01*
X46545695Y-62142491D01*
X46516812Y-62154455D01*
X46338107Y-62190001D01*
X46155895Y-62190001D01*
X45977190Y-62154455D01*
X45948307Y-62142491D01*
X45808849Y-62084726D01*
X45657348Y-61983496D01*
X45528506Y-61854654D01*
X45427276Y-61703153D01*
X45357548Y-61534814D01*
X45357547Y-61534812D01*
X45322001Y-61356107D01*
X45322001Y-61173895D01*
X45357547Y-60995190D01*
X45369511Y-60966307D01*
X45427276Y-60826849D01*
X45528506Y-60675348D01*
X45657348Y-60546506D01*
X45808849Y-60445276D01*
X45977188Y-60375548D01*
X45977187Y-60375548D01*
X45977190Y-60375547D01*
X46155895Y-60340001D01*
X46338107Y-60340001D01*
X46516812Y-60375547D01*
X46516812Y-60375547D01*
G37*
G36*
X36356812Y-60375547D02*
G01*
X36356815Y-60375548D01*
X36356814Y-60375548D01*
X36525153Y-60445276D01*
X36676654Y-60546506D01*
X36805496Y-60675348D01*
X36906726Y-60826849D01*
X36964491Y-60966307D01*
X36976455Y-60995190D01*
X37012001Y-61173895D01*
X37012001Y-61356107D01*
X36976455Y-61534812D01*
X36976454Y-61534814D01*
X36906726Y-61703153D01*
X36805496Y-61854654D01*
X36676654Y-61983496D01*
X36525153Y-62084726D01*
X36385695Y-62142491D01*
X36356812Y-62154455D01*
X36178107Y-62190001D01*
X35995895Y-62190001D01*
X35817190Y-62154455D01*
X35788307Y-62142491D01*
X35648849Y-62084726D01*
X35497348Y-61983496D01*
X35368506Y-61854654D01*
X35267276Y-61703153D01*
X35197548Y-61534814D01*
X35197547Y-61534812D01*
X35162001Y-61356107D01*
X35162001Y-61173895D01*
X35197547Y-60995190D01*
X35209511Y-60966307D01*
X35267276Y-60826849D01*
X35368506Y-60675348D01*
X35497348Y-60546506D01*
X35648849Y-60445276D01*
X35817188Y-60375548D01*
X35817187Y-60375548D01*
X35817190Y-60375547D01*
X35995895Y-60340001D01*
X36178107Y-60340001D01*
X36356812Y-60375547D01*
X36356812Y-60375547D01*
G37*
G36*
X84813828Y-60246577D02*
G01*
X84964630Y-60292322D01*
X85103606Y-60366606D01*
X85225423Y-60466579D01*
X85325396Y-60588396D01*
X85399680Y-60727372D01*
X85445425Y-60878174D01*
X85460871Y-61035001D01*
X85445425Y-61191828D01*
X85399680Y-61342630D01*
X85325396Y-61481606D01*
X85225423Y-61603423D01*
X85103606Y-61703396D01*
X84964630Y-61777680D01*
X84813828Y-61823425D01*
X84696296Y-61835001D01*
X84617706Y-61835001D01*
X84500174Y-61823425D01*
X84349372Y-61777680D01*
X84210396Y-61703396D01*
X84088579Y-61603423D01*
X83988606Y-61481606D01*
X83914322Y-61342630D01*
X83868577Y-61191828D01*
X83853131Y-61035001D01*
X83868577Y-60878174D01*
X83914322Y-60727372D01*
X83988606Y-60588396D01*
X84088579Y-60466579D01*
X84210396Y-60366606D01*
X84349372Y-60292322D01*
X84500174Y-60246577D01*
X84617706Y-60235001D01*
X84696296Y-60235001D01*
X84813828Y-60246577D01*
X84813828Y-60246577D01*
G37*
G36*
X82615112Y-60242443D02*
G01*
X82685416Y-60263770D01*
X82750204Y-60298399D01*
X82806995Y-60345007D01*
X82853603Y-60401798D01*
X82888232Y-60466586D01*
X82909559Y-60536890D01*
X82917001Y-60612455D01*
X82917001Y-61457547D01*
X82909559Y-61533112D01*
X82888232Y-61603416D01*
X82853603Y-61668204D01*
X82806995Y-61724995D01*
X82750204Y-61771603D01*
X82685416Y-61806232D01*
X82615112Y-61827559D01*
X82539547Y-61835001D01*
X81694455Y-61835001D01*
X81618890Y-61827559D01*
X81548586Y-61806232D01*
X81483798Y-61771603D01*
X81427007Y-61724995D01*
X81380399Y-61668204D01*
X81345770Y-61603416D01*
X81324443Y-61533112D01*
X81317001Y-61457547D01*
X81317001Y-60612455D01*
X81324443Y-60536890D01*
X81345770Y-60466586D01*
X81380399Y-60401798D01*
X81427007Y-60345007D01*
X81483798Y-60298399D01*
X81548586Y-60263770D01*
X81618890Y-60242443D01*
X81694455Y-60235001D01*
X82539547Y-60235001D01*
X82615112Y-60242443D01*
X82615112Y-60242443D01*
G37*
G36*
X74653828Y-60246577D02*
G01*
X74804630Y-60292322D01*
X74943606Y-60366606D01*
X75065423Y-60466579D01*
X75165396Y-60588396D01*
X75239680Y-60727372D01*
X75285425Y-60878174D01*
X75300871Y-61035001D01*
X75285425Y-61191828D01*
X75239680Y-61342630D01*
X75165396Y-61481606D01*
X75065423Y-61603423D01*
X74943606Y-61703396D01*
X74804630Y-61777680D01*
X74653828Y-61823425D01*
X74536296Y-61835001D01*
X74457706Y-61835001D01*
X74340174Y-61823425D01*
X74189372Y-61777680D01*
X74050396Y-61703396D01*
X73928579Y-61603423D01*
X73828606Y-61481606D01*
X73754322Y-61342630D01*
X73708577Y-61191828D01*
X73693131Y-61035001D01*
X73708577Y-60878174D01*
X73754322Y-60727372D01*
X73828606Y-60588396D01*
X73928579Y-60466579D01*
X74050396Y-60366606D01*
X74189372Y-60292322D01*
X74340174Y-60246577D01*
X74457706Y-60235001D01*
X74536296Y-60235001D01*
X74653828Y-60246577D01*
X74653828Y-60246577D01*
G37*
G36*
X72455112Y-60242443D02*
G01*
X72525416Y-60263770D01*
X72590204Y-60298399D01*
X72646995Y-60345007D01*
X72693603Y-60401798D01*
X72728232Y-60466586D01*
X72749559Y-60536890D01*
X72757001Y-60612455D01*
X72757001Y-61457547D01*
X72749559Y-61533112D01*
X72728232Y-61603416D01*
X72693603Y-61668204D01*
X72646995Y-61724995D01*
X72590204Y-61771603D01*
X72525416Y-61806232D01*
X72455112Y-61827559D01*
X72379547Y-61835001D01*
X71534455Y-61835001D01*
X71458890Y-61827559D01*
X71388586Y-61806232D01*
X71323798Y-61771603D01*
X71267007Y-61724995D01*
X71220399Y-61668204D01*
X71185770Y-61603416D01*
X71164443Y-61533112D01*
X71157001Y-61457547D01*
X71157001Y-60612455D01*
X71164443Y-60536890D01*
X71185770Y-60466586D01*
X71220399Y-60401798D01*
X71267007Y-60345007D01*
X71323798Y-60298399D01*
X71388586Y-60263770D01*
X71458890Y-60242443D01*
X71534455Y-60235001D01*
X72379547Y-60235001D01*
X72455112Y-60242443D01*
X72455112Y-60242443D01*
G37*
G36*
X44173828Y-60246577D02*
G01*
X44324630Y-60292322D01*
X44463606Y-60366606D01*
X44585423Y-60466579D01*
X44685396Y-60588396D01*
X44759680Y-60727372D01*
X44805425Y-60878174D01*
X44820871Y-61035001D01*
X44805425Y-61191828D01*
X44759680Y-61342630D01*
X44685396Y-61481606D01*
X44585423Y-61603423D01*
X44463606Y-61703396D01*
X44324630Y-61777680D01*
X44173828Y-61823425D01*
X44056296Y-61835001D01*
X43977706Y-61835001D01*
X43860174Y-61823425D01*
X43709372Y-61777680D01*
X43570396Y-61703396D01*
X43448579Y-61603423D01*
X43348606Y-61481606D01*
X43274322Y-61342630D01*
X43228577Y-61191828D01*
X43213131Y-61035001D01*
X43228577Y-60878174D01*
X43274322Y-60727372D01*
X43348606Y-60588396D01*
X43448579Y-60466579D01*
X43570396Y-60366606D01*
X43709372Y-60292322D01*
X43860174Y-60246577D01*
X43977706Y-60235001D01*
X44056296Y-60235001D01*
X44173828Y-60246577D01*
X44173828Y-60246577D01*
G37*
G36*
X41975112Y-60242443D02*
G01*
X42045416Y-60263770D01*
X42110204Y-60298399D01*
X42166995Y-60345007D01*
X42213603Y-60401798D01*
X42248232Y-60466586D01*
X42269559Y-60536890D01*
X42277001Y-60612455D01*
X42277001Y-61457547D01*
X42269559Y-61533112D01*
X42248232Y-61603416D01*
X42213603Y-61668204D01*
X42166995Y-61724995D01*
X42110204Y-61771603D01*
X42045416Y-61806232D01*
X41975112Y-61827559D01*
X41899547Y-61835001D01*
X41054455Y-61835001D01*
X40978890Y-61827559D01*
X40908586Y-61806232D01*
X40843798Y-61771603D01*
X40787007Y-61724995D01*
X40740399Y-61668204D01*
X40705770Y-61603416D01*
X40684443Y-61533112D01*
X40677001Y-61457547D01*
X40677001Y-60612455D01*
X40684443Y-60536890D01*
X40705770Y-60466586D01*
X40740399Y-60401798D01*
X40787007Y-60345007D01*
X40843798Y-60298399D01*
X40908586Y-60263770D01*
X40978890Y-60242443D01*
X41054455Y-60235001D01*
X41899547Y-60235001D01*
X41975112Y-60242443D01*
X41975112Y-60242443D01*
G37*
M02*
