G04 #@! TF.GenerationSoftware,KiCad,Pcbnew,(5.1.4)-1*
G04 #@! TF.CreationDate,2020-12-11T11:15:29+01:00*
G04 #@! TF.ProjectId,dot_flipper,646f745f-666c-4697-9070-65722e6b6963,rev?*
G04 #@! TF.SameCoordinates,Original*
G04 #@! TF.FileFunction,Soldermask,Bot*
G04 #@! TF.FilePolarity,Negative*
%FSLAX46Y46*%
G04 Gerber Fmt 4.6, Leading zero omitted, Abs format (unit mm)*
G04 Created by KiCad (PCBNEW (5.1.4)-1) date 2020-12-11 11:15:29*
%MOMM*%
%LPD*%
G04 APERTURE LIST*
%ADD10C,0.127000*%
%ADD11C,0.100000*%
G04 APERTURE END LIST*
D10*
X99037784Y-68979286D02*
X99004451Y-69007858D01*
X99037784Y-69036429D01*
X99071117Y-69007858D01*
X99037784Y-68979286D01*
X99037784Y-69036429D01*
X98771117Y-68636429D02*
X98637784Y-69036429D01*
X98504451Y-68750715D01*
X98371117Y-69036429D01*
X98237784Y-68636429D01*
X97871117Y-69036429D02*
X97937784Y-69007858D01*
X97971117Y-68979286D01*
X98004451Y-68922143D01*
X98004451Y-68750715D01*
X97971117Y-68693572D01*
X97937784Y-68665001D01*
X97871117Y-68636429D01*
X97771117Y-68636429D01*
X97704451Y-68665001D01*
X97671117Y-68693572D01*
X97637784Y-68750715D01*
X97637784Y-68922143D01*
X97671117Y-68979286D01*
X97704451Y-69007858D01*
X97771117Y-69036429D01*
X97871117Y-69036429D01*
X97337784Y-69036429D02*
X97337784Y-68636429D01*
X97337784Y-68750715D02*
X97304451Y-68693572D01*
X97271117Y-68665001D01*
X97204451Y-68636429D01*
X97137784Y-68636429D01*
X96604451Y-69036429D02*
X96604451Y-68436429D01*
X96604451Y-69007858D02*
X96671117Y-69036429D01*
X96804451Y-69036429D01*
X96871117Y-69007858D01*
X96904451Y-68979286D01*
X96937784Y-68922143D01*
X96937784Y-68750715D01*
X96904451Y-68693572D01*
X96871117Y-68665001D01*
X96804451Y-68636429D01*
X96671117Y-68636429D01*
X96604451Y-68665001D01*
X96271117Y-68636429D02*
X96271117Y-69236429D01*
X96271117Y-68665001D02*
X96204451Y-68636429D01*
X96071117Y-68636429D01*
X96004451Y-68665001D01*
X95971117Y-68693572D01*
X95937784Y-68750715D01*
X95937784Y-68922143D01*
X95971117Y-68979286D01*
X96004451Y-69007858D01*
X96071117Y-69036429D01*
X96204451Y-69036429D01*
X96271117Y-69007858D01*
X95637784Y-69036429D02*
X95637784Y-68636429D01*
X95637784Y-68750715D02*
X95604451Y-68693572D01*
X95571117Y-68665001D01*
X95504451Y-68636429D01*
X95437784Y-68636429D01*
X94937784Y-69007858D02*
X95004451Y-69036429D01*
X95137784Y-69036429D01*
X95204451Y-69007858D01*
X95237784Y-68950715D01*
X95237784Y-68722143D01*
X95204451Y-68665001D01*
X95137784Y-68636429D01*
X95004451Y-68636429D01*
X94937784Y-68665001D01*
X94904451Y-68722143D01*
X94904451Y-68779286D01*
X95237784Y-68836429D01*
X94637784Y-69007858D02*
X94571117Y-69036429D01*
X94437784Y-69036429D01*
X94371117Y-69007858D01*
X94337784Y-68950715D01*
X94337784Y-68922143D01*
X94371117Y-68865001D01*
X94437784Y-68836429D01*
X94537784Y-68836429D01*
X94604451Y-68807858D01*
X94637784Y-68750715D01*
X94637784Y-68722143D01*
X94604451Y-68665001D01*
X94537784Y-68636429D01*
X94437784Y-68636429D01*
X94371117Y-68665001D01*
X94071117Y-69007858D02*
X94004451Y-69036429D01*
X93871117Y-69036429D01*
X93804451Y-69007858D01*
X93771117Y-68950715D01*
X93771117Y-68922143D01*
X93804451Y-68865001D01*
X93871117Y-68836429D01*
X93971117Y-68836429D01*
X94037784Y-68807858D01*
X94071117Y-68750715D01*
X94071117Y-68722143D01*
X94037784Y-68665001D01*
X93971117Y-68636429D01*
X93871117Y-68636429D01*
X93804451Y-68665001D01*
X93471117Y-68979286D02*
X93437784Y-69007858D01*
X93471117Y-69036429D01*
X93504451Y-69007858D01*
X93471117Y-68979286D01*
X93471117Y-69036429D01*
X92837784Y-69007858D02*
X92904451Y-69036429D01*
X93037784Y-69036429D01*
X93104451Y-69007858D01*
X93137784Y-68979286D01*
X93171117Y-68922143D01*
X93171117Y-68750715D01*
X93137784Y-68693572D01*
X93104451Y-68665001D01*
X93037784Y-68636429D01*
X92904451Y-68636429D01*
X92837784Y-68665001D01*
X92437784Y-69036429D02*
X92504451Y-69007858D01*
X92537784Y-68979286D01*
X92571117Y-68922143D01*
X92571117Y-68750715D01*
X92537784Y-68693572D01*
X92504451Y-68665001D01*
X92437784Y-68636429D01*
X92337784Y-68636429D01*
X92271117Y-68665001D01*
X92237784Y-68693572D01*
X92204451Y-68750715D01*
X92204451Y-68922143D01*
X92237784Y-68979286D01*
X92271117Y-69007858D01*
X92337784Y-69036429D01*
X92437784Y-69036429D01*
X91904451Y-69036429D02*
X91904451Y-68636429D01*
X91904451Y-68693572D02*
X91871117Y-68665001D01*
X91804451Y-68636429D01*
X91704451Y-68636429D01*
X91637784Y-68665001D01*
X91604451Y-68722143D01*
X91604451Y-69036429D01*
X91604451Y-68722143D02*
X91571117Y-68665001D01*
X91504451Y-68636429D01*
X91404451Y-68636429D01*
X91337784Y-68665001D01*
X91304451Y-68722143D01*
X91304451Y-69036429D01*
X96830641Y-68236429D02*
X96830641Y-67636429D01*
X96552546Y-67636429D01*
X96483022Y-67665001D01*
X96448260Y-67693572D01*
X96413498Y-67750715D01*
X96413498Y-67836429D01*
X96448260Y-67893572D01*
X96483022Y-67922143D01*
X96552546Y-67950715D01*
X96830641Y-67950715D01*
X96100641Y-68236429D02*
X96100641Y-67836429D01*
X96100641Y-67636429D02*
X96135403Y-67665001D01*
X96100641Y-67693572D01*
X96065879Y-67665001D01*
X96100641Y-67636429D01*
X96100641Y-67693572D01*
X95474927Y-68207858D02*
X95544451Y-68236429D01*
X95683498Y-68236429D01*
X95753022Y-68207858D01*
X95787784Y-68150715D01*
X95787784Y-67922143D01*
X95753022Y-67865001D01*
X95683498Y-67836429D01*
X95544451Y-67836429D01*
X95474927Y-67865001D01*
X95440165Y-67922143D01*
X95440165Y-67979286D01*
X95787784Y-68036429D01*
X95127308Y-68236429D02*
X95127308Y-67836429D01*
X95127308Y-67950715D02*
X95092546Y-67893572D01*
X95057784Y-67865001D01*
X94988260Y-67836429D01*
X94918736Y-67836429D01*
X94675403Y-68236429D02*
X94675403Y-67836429D01*
X94675403Y-67950715D02*
X94640641Y-67893572D01*
X94605879Y-67865001D01*
X94536355Y-67836429D01*
X94466831Y-67836429D01*
X93945403Y-68207858D02*
X94014927Y-68236429D01*
X94153974Y-68236429D01*
X94223498Y-68207858D01*
X94258260Y-68150715D01*
X94258260Y-67922143D01*
X94223498Y-67865001D01*
X94153974Y-67836429D01*
X94014927Y-67836429D01*
X93945403Y-67865001D01*
X93910641Y-67922143D01*
X93910641Y-67979286D01*
X94258260Y-68036429D01*
X93597784Y-68236429D02*
X93597784Y-67636429D01*
X93354451Y-68065001D01*
X93111117Y-67636429D01*
X93111117Y-68236429D01*
X92450641Y-67836429D02*
X92450641Y-68236429D01*
X92763498Y-67836429D02*
X92763498Y-68150715D01*
X92728736Y-68207858D01*
X92659212Y-68236429D01*
X92554927Y-68236429D01*
X92485403Y-68207858D01*
X92450641Y-68179286D01*
X92207308Y-67836429D02*
X91929212Y-67836429D01*
X92103022Y-67636429D02*
X92103022Y-68150715D01*
X92068260Y-68207858D01*
X91998736Y-68236429D01*
X91929212Y-68236429D01*
X91685879Y-68236429D02*
X91685879Y-67636429D01*
X91373022Y-68236429D02*
X91373022Y-67922143D01*
X91407784Y-67865001D01*
X91477308Y-67836429D01*
X91581593Y-67836429D01*
X91651117Y-67865001D01*
X91685879Y-67893572D01*
D11*
G36*
X62637001Y-69315001D02*
G01*
X61537001Y-69315001D01*
X61537001Y-68215001D01*
X62637001Y-68215001D01*
X62637001Y-69315001D01*
X62637001Y-69315001D01*
G37*
G36*
X63437886Y-68220306D02*
G01*
X63464820Y-68222959D01*
X63499378Y-68233442D01*
X63568497Y-68254409D01*
X63664040Y-68305478D01*
X63664041Y-68305479D01*
X63664043Y-68305480D01*
X63703880Y-68338174D01*
X63747791Y-68374211D01*
X63816524Y-68457962D01*
X63867593Y-68553505D01*
X63888560Y-68622624D01*
X63896466Y-68648686D01*
X63899043Y-68657183D01*
X63909662Y-68765001D01*
X63899043Y-68872819D01*
X63867593Y-68976497D01*
X63816524Y-69072040D01*
X63816522Y-69072043D01*
X63747791Y-69155791D01*
X63664043Y-69224522D01*
X63664041Y-69224523D01*
X63664040Y-69224524D01*
X63568497Y-69275593D01*
X63499378Y-69296560D01*
X63464820Y-69307043D01*
X63437886Y-69309696D01*
X63384021Y-69315001D01*
X63329981Y-69315001D01*
X63276116Y-69309696D01*
X63249182Y-69307043D01*
X63214624Y-69296560D01*
X63145505Y-69275593D01*
X63049962Y-69224524D01*
X63049961Y-69224523D01*
X63049959Y-69224522D01*
X62966211Y-69155791D01*
X62897480Y-69072043D01*
X62897478Y-69072040D01*
X62846409Y-68976497D01*
X62814959Y-68872819D01*
X62804340Y-68765001D01*
X62814959Y-68657183D01*
X62817537Y-68648686D01*
X62825442Y-68622624D01*
X62846409Y-68553505D01*
X62897478Y-68457962D01*
X62966211Y-68374211D01*
X63010122Y-68338174D01*
X63049959Y-68305480D01*
X63049961Y-68305479D01*
X63049962Y-68305478D01*
X63145505Y-68254409D01*
X63214624Y-68233442D01*
X63249182Y-68222959D01*
X63276116Y-68220306D01*
X63329981Y-68215001D01*
X63384021Y-68215001D01*
X63437886Y-68220306D01*
X63437886Y-68220306D01*
G37*
G36*
X64707886Y-68220306D02*
G01*
X64734820Y-68222959D01*
X64769378Y-68233442D01*
X64838497Y-68254409D01*
X64934040Y-68305478D01*
X64934041Y-68305479D01*
X64934043Y-68305480D01*
X64973880Y-68338174D01*
X65017791Y-68374211D01*
X65086524Y-68457962D01*
X65137593Y-68553505D01*
X65158560Y-68622624D01*
X65166466Y-68648686D01*
X65169043Y-68657183D01*
X65179662Y-68765001D01*
X65169043Y-68872819D01*
X65137593Y-68976497D01*
X65086524Y-69072040D01*
X65086522Y-69072043D01*
X65017791Y-69155791D01*
X64934043Y-69224522D01*
X64934041Y-69224523D01*
X64934040Y-69224524D01*
X64838497Y-69275593D01*
X64769378Y-69296560D01*
X64734820Y-69307043D01*
X64707886Y-69309696D01*
X64654021Y-69315001D01*
X64599981Y-69315001D01*
X64546116Y-69309696D01*
X64519182Y-69307043D01*
X64484624Y-69296560D01*
X64415505Y-69275593D01*
X64319962Y-69224524D01*
X64319961Y-69224523D01*
X64319959Y-69224522D01*
X64236211Y-69155791D01*
X64167480Y-69072043D01*
X64167478Y-69072040D01*
X64116409Y-68976497D01*
X64084959Y-68872819D01*
X64074340Y-68765001D01*
X64084959Y-68657183D01*
X64087537Y-68648686D01*
X64095442Y-68622624D01*
X64116409Y-68553505D01*
X64167478Y-68457962D01*
X64236211Y-68374211D01*
X64280122Y-68338174D01*
X64319959Y-68305480D01*
X64319961Y-68305479D01*
X64319962Y-68305478D01*
X64415505Y-68254409D01*
X64484624Y-68233442D01*
X64519182Y-68222959D01*
X64546116Y-68220306D01*
X64599981Y-68215001D01*
X64654021Y-68215001D01*
X64707886Y-68220306D01*
X64707886Y-68220306D01*
G37*
G36*
X67247886Y-68220306D02*
G01*
X67274820Y-68222959D01*
X67309378Y-68233442D01*
X67378497Y-68254409D01*
X67474040Y-68305478D01*
X67474041Y-68305479D01*
X67474043Y-68305480D01*
X67513880Y-68338174D01*
X67557791Y-68374211D01*
X67626524Y-68457962D01*
X67677593Y-68553505D01*
X67698560Y-68622624D01*
X67706466Y-68648686D01*
X67709043Y-68657183D01*
X67719662Y-68765001D01*
X67709043Y-68872819D01*
X67677593Y-68976497D01*
X67626524Y-69072040D01*
X67626522Y-69072043D01*
X67557791Y-69155791D01*
X67474043Y-69224522D01*
X67474041Y-69224523D01*
X67474040Y-69224524D01*
X67378497Y-69275593D01*
X67309378Y-69296560D01*
X67274820Y-69307043D01*
X67247886Y-69309696D01*
X67194021Y-69315001D01*
X67139981Y-69315001D01*
X67086116Y-69309696D01*
X67059182Y-69307043D01*
X67024624Y-69296560D01*
X66955505Y-69275593D01*
X66859962Y-69224524D01*
X66859961Y-69224523D01*
X66859959Y-69224522D01*
X66776211Y-69155791D01*
X66707480Y-69072043D01*
X66707478Y-69072040D01*
X66656409Y-68976497D01*
X66624959Y-68872819D01*
X66614340Y-68765001D01*
X66624959Y-68657183D01*
X66627537Y-68648686D01*
X66635442Y-68622624D01*
X66656409Y-68553505D01*
X66707478Y-68457962D01*
X66776211Y-68374211D01*
X66820122Y-68338174D01*
X66859959Y-68305480D01*
X66859961Y-68305479D01*
X66859962Y-68305478D01*
X66955505Y-68254409D01*
X67024624Y-68233442D01*
X67059182Y-68222959D01*
X67086116Y-68220306D01*
X67139981Y-68215001D01*
X67194021Y-68215001D01*
X67247886Y-68220306D01*
X67247886Y-68220306D01*
G37*
G36*
X65977886Y-68220306D02*
G01*
X66004820Y-68222959D01*
X66039378Y-68233442D01*
X66108497Y-68254409D01*
X66204040Y-68305478D01*
X66204041Y-68305479D01*
X66204043Y-68305480D01*
X66243880Y-68338174D01*
X66287791Y-68374211D01*
X66356524Y-68457962D01*
X66407593Y-68553505D01*
X66428560Y-68622624D01*
X66436466Y-68648686D01*
X66439043Y-68657183D01*
X66449662Y-68765001D01*
X66439043Y-68872819D01*
X66407593Y-68976497D01*
X66356524Y-69072040D01*
X66356522Y-69072043D01*
X66287791Y-69155791D01*
X66204043Y-69224522D01*
X66204041Y-69224523D01*
X66204040Y-69224524D01*
X66108497Y-69275593D01*
X66039378Y-69296560D01*
X66004820Y-69307043D01*
X65977886Y-69309696D01*
X65924021Y-69315001D01*
X65869981Y-69315001D01*
X65816116Y-69309696D01*
X65789182Y-69307043D01*
X65754624Y-69296560D01*
X65685505Y-69275593D01*
X65589962Y-69224524D01*
X65589961Y-69224523D01*
X65589959Y-69224522D01*
X65506211Y-69155791D01*
X65437480Y-69072043D01*
X65437478Y-69072040D01*
X65386409Y-68976497D01*
X65354959Y-68872819D01*
X65344340Y-68765001D01*
X65354959Y-68657183D01*
X65357537Y-68648686D01*
X65365442Y-68622624D01*
X65386409Y-68553505D01*
X65437478Y-68457962D01*
X65506211Y-68374211D01*
X65550122Y-68338174D01*
X65589959Y-68305480D01*
X65589961Y-68305479D01*
X65589962Y-68305478D01*
X65685505Y-68254409D01*
X65754624Y-68233442D01*
X65789182Y-68222959D01*
X65816116Y-68220306D01*
X65869981Y-68215001D01*
X65924021Y-68215001D01*
X65977886Y-68220306D01*
X65977886Y-68220306D01*
G37*
G36*
X72455112Y-67702443D02*
G01*
X72525416Y-67723770D01*
X72590204Y-67758399D01*
X72646995Y-67805007D01*
X72693603Y-67861798D01*
X72728232Y-67926586D01*
X72749559Y-67996890D01*
X72757001Y-68072455D01*
X72757001Y-68917547D01*
X72749559Y-68993112D01*
X72728232Y-69063416D01*
X72693603Y-69128204D01*
X72646995Y-69184995D01*
X72590204Y-69231603D01*
X72525416Y-69266232D01*
X72455112Y-69287559D01*
X72379547Y-69295001D01*
X71534455Y-69295001D01*
X71458890Y-69287559D01*
X71388586Y-69266232D01*
X71323798Y-69231603D01*
X71267007Y-69184995D01*
X71220399Y-69128204D01*
X71185770Y-69063416D01*
X71164443Y-68993112D01*
X71157001Y-68917547D01*
X71157001Y-68072455D01*
X71164443Y-67996890D01*
X71185770Y-67926586D01*
X71220399Y-67861798D01*
X71267007Y-67805007D01*
X71323798Y-67758399D01*
X71388586Y-67723770D01*
X71458890Y-67702443D01*
X71534455Y-67695001D01*
X72379547Y-67695001D01*
X72455112Y-67702443D01*
X72455112Y-67702443D01*
G37*
G36*
X41975112Y-67702443D02*
G01*
X42045416Y-67723770D01*
X42110204Y-67758399D01*
X42166995Y-67805007D01*
X42213603Y-67861798D01*
X42248232Y-67926586D01*
X42269559Y-67996890D01*
X42277001Y-68072455D01*
X42277001Y-68917547D01*
X42269559Y-68993112D01*
X42248232Y-69063416D01*
X42213603Y-69128204D01*
X42166995Y-69184995D01*
X42110204Y-69231603D01*
X42045416Y-69266232D01*
X41975112Y-69287559D01*
X41899547Y-69295001D01*
X41054455Y-69295001D01*
X40978890Y-69287559D01*
X40908586Y-69266232D01*
X40843798Y-69231603D01*
X40787007Y-69184995D01*
X40740399Y-69128204D01*
X40705770Y-69063416D01*
X40684443Y-68993112D01*
X40677001Y-68917547D01*
X40677001Y-68072455D01*
X40684443Y-67996890D01*
X40705770Y-67926586D01*
X40740399Y-67861798D01*
X40787007Y-67805007D01*
X40843798Y-67758399D01*
X40908586Y-67723770D01*
X40978890Y-67702443D01*
X41054455Y-67695001D01*
X41899547Y-67695001D01*
X41975112Y-67702443D01*
X41975112Y-67702443D01*
G37*
G36*
X44173828Y-67706577D02*
G01*
X44324630Y-67752322D01*
X44463606Y-67826606D01*
X44585423Y-67926579D01*
X44685396Y-68048396D01*
X44759680Y-68187372D01*
X44805425Y-68338174D01*
X44820871Y-68495001D01*
X44805425Y-68651828D01*
X44759680Y-68802630D01*
X44685396Y-68941606D01*
X44585423Y-69063423D01*
X44463606Y-69163396D01*
X44324630Y-69237680D01*
X44173828Y-69283425D01*
X44056296Y-69295001D01*
X43977706Y-69295001D01*
X43860174Y-69283425D01*
X43709372Y-69237680D01*
X43570396Y-69163396D01*
X43448579Y-69063423D01*
X43348606Y-68941606D01*
X43274322Y-68802630D01*
X43228577Y-68651828D01*
X43213131Y-68495001D01*
X43228577Y-68338174D01*
X43274322Y-68187372D01*
X43348606Y-68048396D01*
X43448579Y-67926579D01*
X43570396Y-67826606D01*
X43709372Y-67752322D01*
X43860174Y-67706577D01*
X43977706Y-67695001D01*
X44056296Y-67695001D01*
X44173828Y-67706577D01*
X44173828Y-67706577D01*
G37*
G36*
X74653828Y-67706577D02*
G01*
X74804630Y-67752322D01*
X74943606Y-67826606D01*
X75065423Y-67926579D01*
X75165396Y-68048396D01*
X75239680Y-68187372D01*
X75285425Y-68338174D01*
X75300871Y-68495001D01*
X75285425Y-68651828D01*
X75239680Y-68802630D01*
X75165396Y-68941606D01*
X75065423Y-69063423D01*
X74943606Y-69163396D01*
X74804630Y-69237680D01*
X74653828Y-69283425D01*
X74536296Y-69295001D01*
X74457706Y-69295001D01*
X74340174Y-69283425D01*
X74189372Y-69237680D01*
X74050396Y-69163396D01*
X73928579Y-69063423D01*
X73828606Y-68941606D01*
X73754322Y-68802630D01*
X73708577Y-68651828D01*
X73693131Y-68495001D01*
X73708577Y-68338174D01*
X73754322Y-68187372D01*
X73828606Y-68048396D01*
X73928579Y-67926579D01*
X74050396Y-67826606D01*
X74189372Y-67752322D01*
X74340174Y-67706577D01*
X74457706Y-67695001D01*
X74536296Y-67695001D01*
X74653828Y-67706577D01*
X74653828Y-67706577D01*
G37*
G36*
X84813828Y-67706577D02*
G01*
X84964630Y-67752322D01*
X85103606Y-67826606D01*
X85225423Y-67926579D01*
X85325396Y-68048396D01*
X85399680Y-68187372D01*
X85445425Y-68338174D01*
X85460871Y-68495001D01*
X85445425Y-68651828D01*
X85399680Y-68802630D01*
X85325396Y-68941606D01*
X85225423Y-69063423D01*
X85103606Y-69163396D01*
X84964630Y-69237680D01*
X84813828Y-69283425D01*
X84696296Y-69295001D01*
X84617706Y-69295001D01*
X84500174Y-69283425D01*
X84349372Y-69237680D01*
X84210396Y-69163396D01*
X84088579Y-69063423D01*
X83988606Y-68941606D01*
X83914322Y-68802630D01*
X83868577Y-68651828D01*
X83853131Y-68495001D01*
X83868577Y-68338174D01*
X83914322Y-68187372D01*
X83988606Y-68048396D01*
X84088579Y-67926579D01*
X84210396Y-67826606D01*
X84349372Y-67752322D01*
X84500174Y-67706577D01*
X84617706Y-67695001D01*
X84696296Y-67695001D01*
X84813828Y-67706577D01*
X84813828Y-67706577D01*
G37*
G36*
X82615112Y-67702443D02*
G01*
X82685416Y-67723770D01*
X82750204Y-67758399D01*
X82806995Y-67805007D01*
X82853603Y-67861798D01*
X82888232Y-67926586D01*
X82909559Y-67996890D01*
X82917001Y-68072455D01*
X82917001Y-68917547D01*
X82909559Y-68993112D01*
X82888232Y-69063416D01*
X82853603Y-69128204D01*
X82806995Y-69184995D01*
X82750204Y-69231603D01*
X82685416Y-69266232D01*
X82615112Y-69287559D01*
X82539547Y-69295001D01*
X81694455Y-69295001D01*
X81618890Y-69287559D01*
X81548586Y-69266232D01*
X81483798Y-69231603D01*
X81427007Y-69184995D01*
X81380399Y-69128204D01*
X81345770Y-69063416D01*
X81324443Y-68993112D01*
X81317001Y-68917547D01*
X81317001Y-68072455D01*
X81324443Y-67996890D01*
X81345770Y-67926586D01*
X81380399Y-67861798D01*
X81427007Y-67805007D01*
X81483798Y-67758399D01*
X81548586Y-67723770D01*
X81618890Y-67702443D01*
X81694455Y-67695001D01*
X82539547Y-67695001D01*
X82615112Y-67702443D01*
X82615112Y-67702443D01*
G37*
G36*
X35118654Y-65897666D02*
G01*
X35282873Y-65930331D01*
X35592253Y-66058480D01*
X35870688Y-66244524D01*
X36107478Y-66481314D01*
X36293522Y-66759749D01*
X36421671Y-67069129D01*
X36421671Y-67069131D01*
X36487001Y-67397564D01*
X36487001Y-67732438D01*
X36468269Y-67826608D01*
X36421671Y-68060873D01*
X36293522Y-68370253D01*
X36107478Y-68648688D01*
X35870688Y-68885478D01*
X35592253Y-69071522D01*
X35282873Y-69199671D01*
X35157938Y-69224522D01*
X34954438Y-69265001D01*
X34619564Y-69265001D01*
X34416064Y-69224522D01*
X34291129Y-69199671D01*
X33981749Y-69071522D01*
X33703314Y-68885478D01*
X33466524Y-68648688D01*
X33280480Y-68370253D01*
X33152331Y-68060873D01*
X33105733Y-67826608D01*
X33087001Y-67732438D01*
X33087001Y-67397564D01*
X33152331Y-67069131D01*
X33152331Y-67069129D01*
X33280480Y-66759749D01*
X33466524Y-66481314D01*
X33703314Y-66244524D01*
X33981749Y-66058480D01*
X34291129Y-65930331D01*
X34455348Y-65897666D01*
X34619564Y-65865001D01*
X34954438Y-65865001D01*
X35118654Y-65897666D01*
X35118654Y-65897666D01*
G37*
G36*
X100516812Y-67375547D02*
G01*
X100516815Y-67375548D01*
X100516814Y-67375548D01*
X100685153Y-67445276D01*
X100836654Y-67546506D01*
X100965496Y-67675348D01*
X101066726Y-67826849D01*
X101081202Y-67861798D01*
X101136455Y-67995190D01*
X101172001Y-68173895D01*
X101172001Y-68356107D01*
X101136455Y-68534812D01*
X101136454Y-68534814D01*
X101066726Y-68703153D01*
X100965496Y-68854654D01*
X100836654Y-68983496D01*
X100685153Y-69084726D01*
X100606683Y-69117229D01*
X100516812Y-69154455D01*
X100338107Y-69190001D01*
X100155895Y-69190001D01*
X99977190Y-69154455D01*
X99887319Y-69117229D01*
X99808849Y-69084726D01*
X99657348Y-68983496D01*
X99528506Y-68854654D01*
X99427276Y-68703153D01*
X99357548Y-68534814D01*
X99357547Y-68534812D01*
X99322001Y-68356107D01*
X99322001Y-68173895D01*
X99357547Y-67995190D01*
X99412800Y-67861798D01*
X99427276Y-67826849D01*
X99528506Y-67675348D01*
X99657348Y-67546506D01*
X99808849Y-67445276D01*
X99977188Y-67375548D01*
X99977187Y-67375548D01*
X99977190Y-67375547D01*
X100155895Y-67340001D01*
X100338107Y-67340001D01*
X100516812Y-67375547D01*
X100516812Y-67375547D01*
G37*
G36*
X49716812Y-67375547D02*
G01*
X49716815Y-67375548D01*
X49716814Y-67375548D01*
X49885153Y-67445276D01*
X50036654Y-67546506D01*
X50165496Y-67675348D01*
X50266726Y-67826849D01*
X50281202Y-67861798D01*
X50336455Y-67995190D01*
X50372001Y-68173895D01*
X50372001Y-68356107D01*
X50336455Y-68534812D01*
X50336454Y-68534814D01*
X50266726Y-68703153D01*
X50165496Y-68854654D01*
X50036654Y-68983496D01*
X49885153Y-69084726D01*
X49806683Y-69117229D01*
X49716812Y-69154455D01*
X49538107Y-69190001D01*
X49355895Y-69190001D01*
X49177190Y-69154455D01*
X49087319Y-69117229D01*
X49008849Y-69084726D01*
X48857348Y-68983496D01*
X48728506Y-68854654D01*
X48627276Y-68703153D01*
X48557548Y-68534814D01*
X48557547Y-68534812D01*
X48522001Y-68356107D01*
X48522001Y-68173895D01*
X48557547Y-67995190D01*
X48612800Y-67861798D01*
X48627276Y-67826849D01*
X48728506Y-67675348D01*
X48857348Y-67546506D01*
X49008849Y-67445276D01*
X49177188Y-67375548D01*
X49177187Y-67375548D01*
X49177190Y-67375547D01*
X49355895Y-67340001D01*
X49538107Y-67340001D01*
X49716812Y-67375547D01*
X49716812Y-67375547D01*
G37*
G36*
X59876812Y-67375547D02*
G01*
X59876815Y-67375548D01*
X59876814Y-67375548D01*
X60045153Y-67445276D01*
X60196654Y-67546506D01*
X60325496Y-67675348D01*
X60426726Y-67826849D01*
X60441202Y-67861798D01*
X60496455Y-67995190D01*
X60532001Y-68173895D01*
X60532001Y-68356107D01*
X60496455Y-68534812D01*
X60496454Y-68534814D01*
X60426726Y-68703153D01*
X60325496Y-68854654D01*
X60196654Y-68983496D01*
X60045153Y-69084726D01*
X59966683Y-69117229D01*
X59876812Y-69154455D01*
X59698107Y-69190001D01*
X59515895Y-69190001D01*
X59337190Y-69154455D01*
X59247319Y-69117229D01*
X59168849Y-69084726D01*
X59017348Y-68983496D01*
X58888506Y-68854654D01*
X58787276Y-68703153D01*
X58717548Y-68534814D01*
X58717547Y-68534812D01*
X58682001Y-68356107D01*
X58682001Y-68173895D01*
X58717547Y-67995190D01*
X58772800Y-67861798D01*
X58787276Y-67826849D01*
X58888506Y-67675348D01*
X59017348Y-67546506D01*
X59168849Y-67445276D01*
X59337188Y-67375548D01*
X59337187Y-67375548D01*
X59337190Y-67375547D01*
X59515895Y-67340001D01*
X59698107Y-67340001D01*
X59876812Y-67375547D01*
X59876812Y-67375547D01*
G37*
G36*
X80196812Y-67375547D02*
G01*
X80196815Y-67375548D01*
X80196814Y-67375548D01*
X80365153Y-67445276D01*
X80516654Y-67546506D01*
X80645496Y-67675348D01*
X80746726Y-67826849D01*
X80761202Y-67861798D01*
X80816455Y-67995190D01*
X80852001Y-68173895D01*
X80852001Y-68356107D01*
X80816455Y-68534812D01*
X80816454Y-68534814D01*
X80746726Y-68703153D01*
X80645496Y-68854654D01*
X80516654Y-68983496D01*
X80365153Y-69084726D01*
X80286683Y-69117229D01*
X80196812Y-69154455D01*
X80018107Y-69190001D01*
X79835895Y-69190001D01*
X79657190Y-69154455D01*
X79567319Y-69117229D01*
X79488849Y-69084726D01*
X79337348Y-68983496D01*
X79208506Y-68854654D01*
X79107276Y-68703153D01*
X79037548Y-68534814D01*
X79037547Y-68534812D01*
X79002001Y-68356107D01*
X79002001Y-68173895D01*
X79037547Y-67995190D01*
X79092800Y-67861798D01*
X79107276Y-67826849D01*
X79208506Y-67675348D01*
X79337348Y-67546506D01*
X79488849Y-67445276D01*
X79657188Y-67375548D01*
X79657187Y-67375548D01*
X79657190Y-67375547D01*
X79835895Y-67340001D01*
X80018107Y-67340001D01*
X80196812Y-67375547D01*
X80196812Y-67375547D01*
G37*
G36*
X90356812Y-67375547D02*
G01*
X90356815Y-67375548D01*
X90356814Y-67375548D01*
X90525153Y-67445276D01*
X90676654Y-67546506D01*
X90805496Y-67675348D01*
X90906726Y-67826849D01*
X90921202Y-67861798D01*
X90976455Y-67995190D01*
X91012001Y-68173895D01*
X91012001Y-68356107D01*
X90976455Y-68534812D01*
X90976454Y-68534814D01*
X90906726Y-68703153D01*
X90805496Y-68854654D01*
X90676654Y-68983496D01*
X90525153Y-69084726D01*
X90446683Y-69117229D01*
X90356812Y-69154455D01*
X90178107Y-69190001D01*
X89995895Y-69190001D01*
X89817190Y-69154455D01*
X89727319Y-69117229D01*
X89648849Y-69084726D01*
X89497348Y-68983496D01*
X89368506Y-68854654D01*
X89267276Y-68703153D01*
X89197548Y-68534814D01*
X89197547Y-68534812D01*
X89162001Y-68356107D01*
X89162001Y-68173895D01*
X89197547Y-67995190D01*
X89252800Y-67861798D01*
X89267276Y-67826849D01*
X89368506Y-67675348D01*
X89497348Y-67546506D01*
X89648849Y-67445276D01*
X89817188Y-67375548D01*
X89817187Y-67375548D01*
X89817190Y-67375547D01*
X89995895Y-67340001D01*
X90178107Y-67340001D01*
X90356812Y-67375547D01*
X90356812Y-67375547D01*
G37*
G36*
X70036812Y-67375547D02*
G01*
X70036815Y-67375548D01*
X70036814Y-67375548D01*
X70205153Y-67445276D01*
X70356654Y-67546506D01*
X70485496Y-67675348D01*
X70586726Y-67826849D01*
X70601202Y-67861798D01*
X70656455Y-67995190D01*
X70692001Y-68173895D01*
X70692001Y-68356107D01*
X70656455Y-68534812D01*
X70656454Y-68534814D01*
X70586726Y-68703153D01*
X70485496Y-68854654D01*
X70356654Y-68983496D01*
X70205153Y-69084726D01*
X70126683Y-69117229D01*
X70036812Y-69154455D01*
X69858107Y-69190001D01*
X69675895Y-69190001D01*
X69497190Y-69154455D01*
X69407319Y-69117229D01*
X69328849Y-69084726D01*
X69177348Y-68983496D01*
X69048506Y-68854654D01*
X68947276Y-68703153D01*
X68877548Y-68534814D01*
X68877547Y-68534812D01*
X68842001Y-68356107D01*
X68842001Y-68173895D01*
X68877547Y-67995190D01*
X68932800Y-67861798D01*
X68947276Y-67826849D01*
X69048506Y-67675348D01*
X69177348Y-67546506D01*
X69328849Y-67445276D01*
X69497188Y-67375548D01*
X69497187Y-67375548D01*
X69497190Y-67375547D01*
X69675895Y-67340001D01*
X69858107Y-67340001D01*
X70036812Y-67375547D01*
X70036812Y-67375547D01*
G37*
G36*
X39556812Y-67375547D02*
G01*
X39556815Y-67375548D01*
X39556814Y-67375548D01*
X39725153Y-67445276D01*
X39876654Y-67546506D01*
X40005496Y-67675348D01*
X40106726Y-67826849D01*
X40121202Y-67861798D01*
X40176455Y-67995190D01*
X40212001Y-68173895D01*
X40212001Y-68356107D01*
X40176455Y-68534812D01*
X40176454Y-68534814D01*
X40106726Y-68703153D01*
X40005496Y-68854654D01*
X39876654Y-68983496D01*
X39725153Y-69084726D01*
X39646683Y-69117229D01*
X39556812Y-69154455D01*
X39378107Y-69190001D01*
X39195895Y-69190001D01*
X39017190Y-69154455D01*
X38927319Y-69117229D01*
X38848849Y-69084726D01*
X38697348Y-68983496D01*
X38568506Y-68854654D01*
X38467276Y-68703153D01*
X38397548Y-68534814D01*
X38397547Y-68534812D01*
X38362001Y-68356107D01*
X38362001Y-68173895D01*
X38397547Y-67995190D01*
X38452800Y-67861798D01*
X38467276Y-67826849D01*
X38568506Y-67675348D01*
X38697348Y-67546506D01*
X38848849Y-67445276D01*
X39017188Y-67375548D01*
X39017187Y-67375548D01*
X39017190Y-67375547D01*
X39195895Y-67340001D01*
X39378107Y-67340001D01*
X39556812Y-67375547D01*
X39556812Y-67375547D01*
G37*
G36*
X62339514Y-66421677D02*
G01*
X61278854Y-67482337D01*
X61066722Y-67270205D01*
X62127382Y-66209545D01*
X62339514Y-66421677D01*
X62339514Y-66421677D01*
G37*
G36*
X64808296Y-64612857D02*
G01*
X64836435Y-64621393D01*
X64862368Y-64635255D01*
X64885098Y-64653909D01*
X65592205Y-65361016D01*
X65610859Y-65383746D01*
X65624721Y-65409679D01*
X65633257Y-65437818D01*
X65636139Y-65467082D01*
X65633257Y-65496346D01*
X65624721Y-65524485D01*
X65610859Y-65550418D01*
X65592205Y-65573148D01*
X65592204Y-65573149D01*
X65569474Y-65591803D01*
X65543541Y-65605665D01*
X65515402Y-65614201D01*
X65486138Y-65617083D01*
X65456874Y-65614201D01*
X65428735Y-65605665D01*
X65402802Y-65591803D01*
X65380072Y-65573149D01*
X65378336Y-65571413D01*
X65376441Y-65569858D01*
X65368291Y-65564413D01*
X65359236Y-65560663D01*
X65349623Y-65558751D01*
X65339821Y-65558751D01*
X65330208Y-65560663D01*
X65321153Y-65564414D01*
X65313003Y-65569860D01*
X65306072Y-65576791D01*
X65300627Y-65584941D01*
X65296877Y-65593996D01*
X65294965Y-65603609D01*
X65294965Y-65613411D01*
X65296877Y-65623024D01*
X65300628Y-65632079D01*
X65306072Y-65640227D01*
X65307627Y-65642122D01*
X65309363Y-65643858D01*
X65328017Y-65666588D01*
X65341879Y-65692521D01*
X65350415Y-65720660D01*
X65353297Y-65749924D01*
X65350415Y-65779188D01*
X65341879Y-65807327D01*
X65328017Y-65833260D01*
X65309363Y-65855990D01*
X65309361Y-65855992D01*
X65286631Y-65874646D01*
X65260698Y-65888508D01*
X65232559Y-65897044D01*
X65203295Y-65899926D01*
X65174031Y-65897044D01*
X65145892Y-65888508D01*
X65119959Y-65874646D01*
X65097229Y-65855992D01*
X65095493Y-65854256D01*
X65093598Y-65852701D01*
X65085448Y-65847256D01*
X65076393Y-65843506D01*
X65066780Y-65841594D01*
X65056978Y-65841594D01*
X65047365Y-65843506D01*
X65038310Y-65847257D01*
X65030160Y-65852703D01*
X65023229Y-65859634D01*
X65017784Y-65867784D01*
X65014034Y-65876839D01*
X65012122Y-65886452D01*
X65012122Y-65896254D01*
X65014034Y-65905867D01*
X65017785Y-65914922D01*
X65023229Y-65923070D01*
X65024784Y-65924965D01*
X65026520Y-65926701D01*
X65045174Y-65949431D01*
X65059036Y-65975364D01*
X65067572Y-66003503D01*
X65070454Y-66032767D01*
X65067572Y-66062031D01*
X65059036Y-66090170D01*
X65045174Y-66116103D01*
X65026520Y-66138833D01*
X65026518Y-66138835D01*
X65003788Y-66157489D01*
X64977855Y-66171351D01*
X64949716Y-66179887D01*
X64920452Y-66182769D01*
X64891188Y-66179887D01*
X64863049Y-66171351D01*
X64837116Y-66157489D01*
X64814386Y-66138835D01*
X64812654Y-66137103D01*
X64810758Y-66135547D01*
X64802609Y-66130101D01*
X64793553Y-66126351D01*
X64783940Y-66124439D01*
X64774139Y-66124439D01*
X64764525Y-66126351D01*
X64755470Y-66130102D01*
X64747320Y-66135548D01*
X64740390Y-66142479D01*
X64734944Y-66150628D01*
X64731194Y-66159684D01*
X64729282Y-66169297D01*
X64729282Y-66179098D01*
X64731194Y-66188712D01*
X64734945Y-66197767D01*
X64740389Y-66205915D01*
X64741944Y-66207810D01*
X64743678Y-66209544D01*
X64762332Y-66232274D01*
X64776194Y-66258207D01*
X64784730Y-66286346D01*
X64787612Y-66315610D01*
X64784730Y-66344874D01*
X64776194Y-66373013D01*
X64762332Y-66398946D01*
X64743678Y-66421676D01*
X64743676Y-66421678D01*
X64720946Y-66440332D01*
X64695013Y-66454194D01*
X64666874Y-66462730D01*
X64637610Y-66465612D01*
X64608346Y-66462730D01*
X64580207Y-66454194D01*
X64554274Y-66440332D01*
X64531544Y-66421678D01*
X64529810Y-66419944D01*
X64527915Y-66418389D01*
X64519765Y-66412944D01*
X64510709Y-66409193D01*
X64501096Y-66407282D01*
X64491295Y-66407282D01*
X64481682Y-66409194D01*
X64472626Y-66412946D01*
X64464477Y-66418391D01*
X64457546Y-66425322D01*
X64452101Y-66433472D01*
X64448350Y-66442528D01*
X64446439Y-66452141D01*
X64446439Y-66461942D01*
X64448351Y-66471555D01*
X64452103Y-66480611D01*
X64457547Y-66488758D01*
X64459103Y-66490654D01*
X64460835Y-66492386D01*
X64479489Y-66515116D01*
X64493351Y-66541049D01*
X64501887Y-66569188D01*
X64504769Y-66598452D01*
X64501887Y-66627716D01*
X64493351Y-66655855D01*
X64479489Y-66681788D01*
X64460835Y-66704518D01*
X64460833Y-66704520D01*
X64438103Y-66723174D01*
X64412170Y-66737036D01*
X64384031Y-66745572D01*
X64354767Y-66748454D01*
X64325503Y-66745572D01*
X64297364Y-66737036D01*
X64271431Y-66723174D01*
X64248701Y-66704520D01*
X64246965Y-66702784D01*
X64245070Y-66701229D01*
X64236920Y-66695784D01*
X64227865Y-66692034D01*
X64218252Y-66690122D01*
X64208450Y-66690122D01*
X64198837Y-66692034D01*
X64189782Y-66695785D01*
X64181632Y-66701231D01*
X64174701Y-66708162D01*
X64169256Y-66716312D01*
X64165506Y-66725367D01*
X64163594Y-66734980D01*
X64163594Y-66744782D01*
X64165506Y-66754395D01*
X64169257Y-66763450D01*
X64174701Y-66771598D01*
X64176256Y-66773493D01*
X64177992Y-66775229D01*
X64196646Y-66797959D01*
X64210508Y-66823892D01*
X64219044Y-66852031D01*
X64221926Y-66881295D01*
X64219044Y-66910559D01*
X64210508Y-66938698D01*
X64196646Y-66964631D01*
X64177992Y-66987361D01*
X64177990Y-66987363D01*
X64155260Y-67006017D01*
X64129327Y-67019879D01*
X64101188Y-67028415D01*
X64071924Y-67031297D01*
X64042660Y-67028415D01*
X64014521Y-67019879D01*
X63988588Y-67006017D01*
X63965858Y-66987363D01*
X63964122Y-66985627D01*
X63962227Y-66984072D01*
X63954077Y-66978627D01*
X63945022Y-66974877D01*
X63935409Y-66972965D01*
X63925607Y-66972965D01*
X63915994Y-66974877D01*
X63906939Y-66978628D01*
X63898789Y-66984074D01*
X63891858Y-66991005D01*
X63886413Y-66999155D01*
X63882663Y-67008210D01*
X63880751Y-67017823D01*
X63880751Y-67027625D01*
X63882663Y-67037238D01*
X63886414Y-67046293D01*
X63891858Y-67054441D01*
X63893413Y-67056336D01*
X63895149Y-67058072D01*
X63913803Y-67080802D01*
X63927665Y-67106735D01*
X63936201Y-67134874D01*
X63939083Y-67164138D01*
X63936201Y-67193402D01*
X63927665Y-67221541D01*
X63913803Y-67247474D01*
X63895149Y-67270204D01*
X63895148Y-67270205D01*
X63872418Y-67288859D01*
X63846485Y-67302721D01*
X63818346Y-67311257D01*
X63789082Y-67314139D01*
X63759818Y-67311257D01*
X63731679Y-67302721D01*
X63705746Y-67288859D01*
X63683016Y-67270205D01*
X62975909Y-66563098D01*
X62957255Y-66540368D01*
X62943393Y-66514435D01*
X62934857Y-66486296D01*
X62931975Y-66457032D01*
X62934857Y-66427768D01*
X62943393Y-66399629D01*
X62957255Y-66373696D01*
X62975909Y-66350966D01*
X62975910Y-66350965D01*
X62998640Y-66332311D01*
X63024573Y-66318449D01*
X63052712Y-66309913D01*
X63081976Y-66307031D01*
X63111240Y-66309913D01*
X63139379Y-66318449D01*
X63165312Y-66332311D01*
X63188042Y-66350965D01*
X63189772Y-66352695D01*
X63191668Y-66354251D01*
X63199818Y-66359697D01*
X63208873Y-66363447D01*
X63218486Y-66365359D01*
X63228288Y-66365359D01*
X63237901Y-66363447D01*
X63246956Y-66359696D01*
X63255106Y-66354250D01*
X63262036Y-66347319D01*
X63267482Y-66339169D01*
X63271232Y-66330114D01*
X63273144Y-66320501D01*
X63273144Y-66310699D01*
X63271232Y-66301086D01*
X63267481Y-66292031D01*
X63258741Y-66280246D01*
X63117330Y-66138835D01*
X63098676Y-66116105D01*
X63084814Y-66090172D01*
X63076278Y-66062033D01*
X63073396Y-66032769D01*
X63076278Y-66003505D01*
X63084814Y-65975366D01*
X63098676Y-65949433D01*
X63117330Y-65926703D01*
X63117332Y-65926701D01*
X63140062Y-65908047D01*
X63165995Y-65894185D01*
X63194134Y-65885649D01*
X63223398Y-65882767D01*
X63252662Y-65885649D01*
X63280801Y-65894185D01*
X63306734Y-65908047D01*
X63329464Y-65926701D01*
X63331200Y-65928437D01*
X63333095Y-65929992D01*
X63341245Y-65935437D01*
X63350300Y-65939187D01*
X63359913Y-65941099D01*
X63369715Y-65941099D01*
X63379328Y-65939187D01*
X63388383Y-65935436D01*
X63396533Y-65929990D01*
X63403464Y-65923059D01*
X63408909Y-65914909D01*
X63412659Y-65905854D01*
X63414571Y-65896241D01*
X63414571Y-65886439D01*
X63412659Y-65876826D01*
X63408908Y-65867771D01*
X63403464Y-65859623D01*
X63401909Y-65857728D01*
X63400173Y-65855992D01*
X63381519Y-65833262D01*
X63367657Y-65807329D01*
X63359121Y-65779190D01*
X63356239Y-65749926D01*
X63359121Y-65720662D01*
X63367657Y-65692523D01*
X63381519Y-65666590D01*
X63400173Y-65643860D01*
X63400175Y-65643858D01*
X63422905Y-65625204D01*
X63448838Y-65611342D01*
X63476977Y-65602806D01*
X63506241Y-65599924D01*
X63535505Y-65602806D01*
X63563644Y-65611342D01*
X63589577Y-65625204D01*
X63612307Y-65643858D01*
X63614041Y-65645592D01*
X63615936Y-65647147D01*
X63624086Y-65652592D01*
X63633142Y-65656343D01*
X63642755Y-65658254D01*
X63652556Y-65658254D01*
X63662169Y-65656342D01*
X63671225Y-65652590D01*
X63679374Y-65647145D01*
X63686305Y-65640214D01*
X63691750Y-65632064D01*
X63695501Y-65623008D01*
X63697412Y-65613395D01*
X63697412Y-65603594D01*
X63695500Y-65593981D01*
X63691748Y-65584925D01*
X63686304Y-65576778D01*
X63684748Y-65574882D01*
X63683016Y-65573150D01*
X63664362Y-65550420D01*
X63650500Y-65524487D01*
X63641964Y-65496348D01*
X63639082Y-65467084D01*
X63641964Y-65437820D01*
X63650500Y-65409681D01*
X63664362Y-65383748D01*
X63683016Y-65361018D01*
X63683018Y-65361016D01*
X63705748Y-65342362D01*
X63731681Y-65328500D01*
X63759820Y-65319964D01*
X63789084Y-65317082D01*
X63818348Y-65319964D01*
X63846487Y-65328500D01*
X63872420Y-65342362D01*
X63895150Y-65361016D01*
X63896882Y-65362748D01*
X63898778Y-65364304D01*
X63906927Y-65369750D01*
X63915983Y-65373500D01*
X63925596Y-65375412D01*
X63935397Y-65375412D01*
X63945011Y-65373500D01*
X63954066Y-65369749D01*
X63962216Y-65364303D01*
X63969146Y-65357372D01*
X63974592Y-65349223D01*
X63978342Y-65340167D01*
X63980254Y-65330554D01*
X63980254Y-65320753D01*
X63978342Y-65311139D01*
X63974591Y-65302084D01*
X63969147Y-65293936D01*
X63967592Y-65292041D01*
X63965858Y-65290307D01*
X63947204Y-65267577D01*
X63933342Y-65241644D01*
X63924806Y-65213505D01*
X63921924Y-65184241D01*
X63924806Y-65154977D01*
X63933342Y-65126838D01*
X63947204Y-65100905D01*
X63965858Y-65078175D01*
X63965860Y-65078173D01*
X63988590Y-65059519D01*
X64014523Y-65045657D01*
X64042662Y-65037121D01*
X64071926Y-65034239D01*
X64101190Y-65037121D01*
X64129329Y-65045657D01*
X64155262Y-65059519D01*
X64177992Y-65078173D01*
X64179728Y-65079909D01*
X64181623Y-65081464D01*
X64189773Y-65086909D01*
X64198828Y-65090659D01*
X64208441Y-65092571D01*
X64218243Y-65092571D01*
X64227856Y-65090659D01*
X64236911Y-65086908D01*
X64245061Y-65081462D01*
X64251992Y-65074531D01*
X64257437Y-65066381D01*
X64261187Y-65057326D01*
X64263099Y-65047713D01*
X64263099Y-65037911D01*
X64261187Y-65028298D01*
X64257436Y-65019243D01*
X64251992Y-65011095D01*
X64250437Y-65009200D01*
X64248701Y-65007464D01*
X64230047Y-64984734D01*
X64216185Y-64958801D01*
X64207649Y-64930662D01*
X64204767Y-64901398D01*
X64207649Y-64872134D01*
X64216185Y-64843995D01*
X64230047Y-64818062D01*
X64248701Y-64795332D01*
X64248703Y-64795330D01*
X64271433Y-64776676D01*
X64297366Y-64762814D01*
X64325505Y-64754278D01*
X64354769Y-64751396D01*
X64384033Y-64754278D01*
X64412172Y-64762814D01*
X64438105Y-64776676D01*
X64460835Y-64795330D01*
X64602246Y-64936741D01*
X64609823Y-64942959D01*
X64618467Y-64947579D01*
X64627847Y-64950424D01*
X64637601Y-64951385D01*
X64647355Y-64950424D01*
X64656735Y-64947579D01*
X64665379Y-64942959D01*
X64672956Y-64936741D01*
X64679174Y-64929164D01*
X64683794Y-64920520D01*
X64686639Y-64911140D01*
X64687600Y-64901386D01*
X64686639Y-64891632D01*
X64683794Y-64882252D01*
X64676251Y-64869668D01*
X64674695Y-64867772D01*
X64672965Y-64866042D01*
X64654311Y-64843312D01*
X64640449Y-64817379D01*
X64631913Y-64789240D01*
X64629031Y-64759976D01*
X64631913Y-64730712D01*
X64640449Y-64702573D01*
X64654311Y-64676640D01*
X64672965Y-64653910D01*
X64672966Y-64653909D01*
X64695696Y-64635255D01*
X64721629Y-64621393D01*
X64749768Y-64612857D01*
X64779032Y-64609975D01*
X64808296Y-64612857D01*
X64808296Y-64612857D01*
G37*
G36*
X60424234Y-64612857D02*
G01*
X60452373Y-64621393D01*
X60478306Y-64635255D01*
X60501036Y-64653909D01*
X60501037Y-64653910D01*
X60519691Y-64676640D01*
X60533553Y-64702573D01*
X60542089Y-64730712D01*
X60544971Y-64759976D01*
X60542089Y-64789240D01*
X60533553Y-64817379D01*
X60519691Y-64843312D01*
X60501037Y-64866042D01*
X60499307Y-64867772D01*
X60497751Y-64869668D01*
X60492305Y-64877818D01*
X60488555Y-64886873D01*
X60486643Y-64896486D01*
X60486643Y-64906288D01*
X60488555Y-64915901D01*
X60492306Y-64924956D01*
X60497752Y-64933106D01*
X60504683Y-64940036D01*
X60512833Y-64945482D01*
X60521888Y-64949232D01*
X60531501Y-64951144D01*
X60541303Y-64951144D01*
X60550916Y-64949232D01*
X60559971Y-64945481D01*
X60571756Y-64936741D01*
X60713167Y-64795330D01*
X60735897Y-64776676D01*
X60761830Y-64762814D01*
X60789969Y-64754278D01*
X60819233Y-64751396D01*
X60848497Y-64754278D01*
X60876636Y-64762814D01*
X60902569Y-64776676D01*
X60925299Y-64795330D01*
X60925301Y-64795332D01*
X60943955Y-64818062D01*
X60957817Y-64843995D01*
X60966353Y-64872134D01*
X60969235Y-64901398D01*
X60966353Y-64930662D01*
X60957817Y-64958801D01*
X60943955Y-64984734D01*
X60925301Y-65007464D01*
X60923565Y-65009200D01*
X60922010Y-65011095D01*
X60916565Y-65019245D01*
X60912815Y-65028300D01*
X60910903Y-65037913D01*
X60910903Y-65047715D01*
X60912815Y-65057328D01*
X60916566Y-65066383D01*
X60922012Y-65074533D01*
X60928943Y-65081464D01*
X60937093Y-65086909D01*
X60946148Y-65090659D01*
X60955761Y-65092571D01*
X60965563Y-65092571D01*
X60975176Y-65090659D01*
X60984231Y-65086908D01*
X60992379Y-65081464D01*
X60994274Y-65079909D01*
X60996010Y-65078173D01*
X61018740Y-65059519D01*
X61044673Y-65045657D01*
X61072812Y-65037121D01*
X61102076Y-65034239D01*
X61131340Y-65037121D01*
X61159479Y-65045657D01*
X61185412Y-65059519D01*
X61208142Y-65078173D01*
X61208144Y-65078175D01*
X61226798Y-65100905D01*
X61240660Y-65126838D01*
X61249196Y-65154977D01*
X61252078Y-65184241D01*
X61249196Y-65213505D01*
X61240660Y-65241644D01*
X61226798Y-65267577D01*
X61208144Y-65290307D01*
X61206410Y-65292041D01*
X61204855Y-65293936D01*
X61199410Y-65302086D01*
X61195659Y-65311142D01*
X61193748Y-65320755D01*
X61193748Y-65330556D01*
X61195660Y-65340169D01*
X61199412Y-65349225D01*
X61204857Y-65357374D01*
X61211788Y-65364305D01*
X61219938Y-65369750D01*
X61228994Y-65373501D01*
X61238607Y-65375412D01*
X61248408Y-65375412D01*
X61258021Y-65373500D01*
X61267077Y-65369748D01*
X61275224Y-65364304D01*
X61277120Y-65362748D01*
X61278852Y-65361016D01*
X61301582Y-65342362D01*
X61327515Y-65328500D01*
X61355654Y-65319964D01*
X61384918Y-65317082D01*
X61414182Y-65319964D01*
X61442321Y-65328500D01*
X61468254Y-65342362D01*
X61490984Y-65361016D01*
X61490986Y-65361018D01*
X61509640Y-65383748D01*
X61523502Y-65409681D01*
X61532038Y-65437820D01*
X61534920Y-65467084D01*
X61532038Y-65496348D01*
X61523502Y-65524487D01*
X61509640Y-65550420D01*
X61490986Y-65573150D01*
X61489254Y-65574882D01*
X61487698Y-65576778D01*
X61482252Y-65584927D01*
X61478502Y-65593983D01*
X61476590Y-65603596D01*
X61476590Y-65613397D01*
X61478502Y-65623011D01*
X61482253Y-65632066D01*
X61487699Y-65640216D01*
X61494630Y-65647146D01*
X61502779Y-65652592D01*
X61511835Y-65656342D01*
X61521448Y-65658254D01*
X61531249Y-65658254D01*
X61540863Y-65656342D01*
X61549918Y-65652591D01*
X61558066Y-65647147D01*
X61559961Y-65645592D01*
X61561695Y-65643858D01*
X61584425Y-65625204D01*
X61610358Y-65611342D01*
X61638497Y-65602806D01*
X61667761Y-65599924D01*
X61697025Y-65602806D01*
X61725164Y-65611342D01*
X61751097Y-65625204D01*
X61773827Y-65643858D01*
X61773829Y-65643860D01*
X61792483Y-65666590D01*
X61806345Y-65692523D01*
X61814881Y-65720662D01*
X61817763Y-65749926D01*
X61814881Y-65779190D01*
X61806345Y-65807329D01*
X61792483Y-65833262D01*
X61773829Y-65855992D01*
X61772093Y-65857728D01*
X61770538Y-65859623D01*
X61765093Y-65867773D01*
X61761343Y-65876828D01*
X61759431Y-65886441D01*
X61759431Y-65896243D01*
X61761343Y-65905856D01*
X61765094Y-65914911D01*
X61770540Y-65923061D01*
X61777471Y-65929992D01*
X61785621Y-65935437D01*
X61794676Y-65939187D01*
X61804289Y-65941099D01*
X61814091Y-65941099D01*
X61823704Y-65939187D01*
X61832759Y-65935436D01*
X61840907Y-65929992D01*
X61842802Y-65928437D01*
X61844538Y-65926701D01*
X61867268Y-65908047D01*
X61893201Y-65894185D01*
X61921340Y-65885649D01*
X61950604Y-65882767D01*
X61979868Y-65885649D01*
X62008007Y-65894185D01*
X62033940Y-65908047D01*
X62056670Y-65926701D01*
X62056672Y-65926703D01*
X62075326Y-65949433D01*
X62089188Y-65975366D01*
X62097724Y-66003505D01*
X62100606Y-66032769D01*
X62097724Y-66062033D01*
X62089188Y-66090172D01*
X62075326Y-66116105D01*
X62056672Y-66138835D01*
X61208144Y-66987363D01*
X61185414Y-67006017D01*
X61159481Y-67019879D01*
X61131342Y-67028415D01*
X61102078Y-67031297D01*
X61072814Y-67028415D01*
X61044675Y-67019879D01*
X61018742Y-67006017D01*
X60996012Y-66987363D01*
X60996010Y-66987361D01*
X60977356Y-66964631D01*
X60963494Y-66938698D01*
X60954958Y-66910559D01*
X60952076Y-66881295D01*
X60954958Y-66852031D01*
X60963494Y-66823892D01*
X60977356Y-66797959D01*
X60996010Y-66775229D01*
X60997746Y-66773493D01*
X60999301Y-66771598D01*
X61004746Y-66763448D01*
X61008496Y-66754393D01*
X61010408Y-66744780D01*
X61010408Y-66734978D01*
X61008496Y-66725365D01*
X61004745Y-66716310D01*
X60999299Y-66708160D01*
X60992368Y-66701229D01*
X60984218Y-66695784D01*
X60975163Y-66692034D01*
X60965550Y-66690122D01*
X60955748Y-66690122D01*
X60946135Y-66692034D01*
X60937080Y-66695785D01*
X60928932Y-66701229D01*
X60927037Y-66702784D01*
X60925301Y-66704520D01*
X60902571Y-66723174D01*
X60876638Y-66737036D01*
X60848499Y-66745572D01*
X60819235Y-66748454D01*
X60789971Y-66745572D01*
X60761832Y-66737036D01*
X60735899Y-66723174D01*
X60713169Y-66704520D01*
X60713167Y-66704518D01*
X60694513Y-66681788D01*
X60680651Y-66655855D01*
X60672115Y-66627716D01*
X60669233Y-66598452D01*
X60672115Y-66569188D01*
X60680651Y-66541049D01*
X60694513Y-66515116D01*
X60713167Y-66492386D01*
X60714899Y-66490654D01*
X60716455Y-66488758D01*
X60721901Y-66480609D01*
X60725651Y-66471553D01*
X60727563Y-66461940D01*
X60727563Y-66452139D01*
X60725651Y-66442525D01*
X60721900Y-66433470D01*
X60716454Y-66425320D01*
X60709523Y-66418390D01*
X60701374Y-66412944D01*
X60692318Y-66409194D01*
X60682705Y-66407282D01*
X60672904Y-66407282D01*
X60663290Y-66409194D01*
X60654235Y-66412945D01*
X60646087Y-66418389D01*
X60644192Y-66419944D01*
X60642458Y-66421678D01*
X60619728Y-66440332D01*
X60593795Y-66454194D01*
X60565656Y-66462730D01*
X60536392Y-66465612D01*
X60507128Y-66462730D01*
X60478989Y-66454194D01*
X60453056Y-66440332D01*
X60430326Y-66421678D01*
X60430324Y-66421676D01*
X60411670Y-66398946D01*
X60397808Y-66373013D01*
X60389272Y-66344874D01*
X60386390Y-66315610D01*
X60389272Y-66286346D01*
X60397808Y-66258207D01*
X60411670Y-66232274D01*
X60430324Y-66209544D01*
X60432058Y-66207810D01*
X60433613Y-66205915D01*
X60439058Y-66197765D01*
X60442809Y-66188709D01*
X60444720Y-66179096D01*
X60444720Y-66169295D01*
X60442808Y-66159682D01*
X60439056Y-66150626D01*
X60433611Y-66142477D01*
X60426680Y-66135546D01*
X60418530Y-66130101D01*
X60409474Y-66126350D01*
X60399861Y-66124439D01*
X60390060Y-66124439D01*
X60380447Y-66126351D01*
X60371391Y-66130103D01*
X60363244Y-66135547D01*
X60361348Y-66137103D01*
X60359616Y-66138835D01*
X60336886Y-66157489D01*
X60310953Y-66171351D01*
X60282814Y-66179887D01*
X60253550Y-66182769D01*
X60224286Y-66179887D01*
X60196147Y-66171351D01*
X60170214Y-66157489D01*
X60147484Y-66138835D01*
X60147482Y-66138833D01*
X60128828Y-66116103D01*
X60114966Y-66090170D01*
X60106430Y-66062031D01*
X60103548Y-66032767D01*
X60106430Y-66003503D01*
X60114966Y-65975364D01*
X60128828Y-65949431D01*
X60147482Y-65926701D01*
X60149218Y-65924965D01*
X60150773Y-65923070D01*
X60156218Y-65914920D01*
X60159968Y-65905865D01*
X60161880Y-65896252D01*
X60161880Y-65886450D01*
X60159968Y-65876837D01*
X60156217Y-65867782D01*
X60150771Y-65859632D01*
X60143840Y-65852701D01*
X60135690Y-65847256D01*
X60126635Y-65843506D01*
X60117022Y-65841594D01*
X60107220Y-65841594D01*
X60097607Y-65843506D01*
X60088552Y-65847257D01*
X60080404Y-65852701D01*
X60078509Y-65854256D01*
X60076773Y-65855992D01*
X60054043Y-65874646D01*
X60028110Y-65888508D01*
X59999971Y-65897044D01*
X59970707Y-65899926D01*
X59941443Y-65897044D01*
X59913304Y-65888508D01*
X59887371Y-65874646D01*
X59864641Y-65855992D01*
X59864639Y-65855990D01*
X59845985Y-65833260D01*
X59832123Y-65807327D01*
X59823587Y-65779188D01*
X59820705Y-65749924D01*
X59823587Y-65720660D01*
X59832123Y-65692521D01*
X59845985Y-65666588D01*
X59864639Y-65643858D01*
X59866375Y-65642122D01*
X59867930Y-65640227D01*
X59873375Y-65632077D01*
X59877125Y-65623022D01*
X59879037Y-65613409D01*
X59879037Y-65603607D01*
X59877125Y-65593994D01*
X59873374Y-65584939D01*
X59867928Y-65576789D01*
X59860997Y-65569858D01*
X59852847Y-65564413D01*
X59843792Y-65560663D01*
X59834179Y-65558751D01*
X59824377Y-65558751D01*
X59814764Y-65560663D01*
X59805709Y-65564414D01*
X59797561Y-65569858D01*
X59795666Y-65571413D01*
X59793930Y-65573149D01*
X59771200Y-65591803D01*
X59745267Y-65605665D01*
X59717128Y-65614201D01*
X59687864Y-65617083D01*
X59658600Y-65614201D01*
X59630461Y-65605665D01*
X59604528Y-65591803D01*
X59581798Y-65573149D01*
X59581797Y-65573148D01*
X59563143Y-65550418D01*
X59549281Y-65524485D01*
X59540745Y-65496346D01*
X59537863Y-65467082D01*
X59540745Y-65437818D01*
X59549281Y-65409679D01*
X59563143Y-65383746D01*
X59581797Y-65361016D01*
X60288904Y-64653909D01*
X60311634Y-64635255D01*
X60337567Y-64621393D01*
X60365706Y-64612857D01*
X60394970Y-64609975D01*
X60424234Y-64612857D01*
X60424234Y-64612857D01*
G37*
G36*
X98287001Y-66915001D02*
G01*
X97387001Y-66915001D01*
X97387001Y-65415001D01*
X98287001Y-65415001D01*
X98287001Y-66915001D01*
X98287001Y-66915001D01*
G37*
G36*
X99425971Y-65419081D02*
G01*
X99463447Y-65430449D01*
X99497979Y-65448906D01*
X99528251Y-65473751D01*
X99553096Y-65504023D01*
X99571553Y-65538555D01*
X99582921Y-65576031D01*
X99587001Y-65617455D01*
X99587001Y-66712547D01*
X99582921Y-66753971D01*
X99571553Y-66791447D01*
X99553096Y-66825979D01*
X99528251Y-66856251D01*
X99497979Y-66881096D01*
X99463447Y-66899553D01*
X99425971Y-66910921D01*
X99384547Y-66915001D01*
X98889455Y-66915001D01*
X98848031Y-66910921D01*
X98810555Y-66899553D01*
X98776023Y-66881096D01*
X98745751Y-66856251D01*
X98720906Y-66825979D01*
X98702449Y-66791447D01*
X98691081Y-66753971D01*
X98687001Y-66712547D01*
X98687001Y-65617455D01*
X98691081Y-65576031D01*
X98702449Y-65538555D01*
X98720906Y-65504023D01*
X98745751Y-65473751D01*
X98776023Y-65448906D01*
X98810555Y-65430449D01*
X98848031Y-65419081D01*
X98889455Y-65415001D01*
X99384547Y-65415001D01*
X99425971Y-65419081D01*
X99425971Y-65419081D01*
G37*
G36*
X91437001Y-66765001D02*
G01*
X90537001Y-66765001D01*
X90537001Y-65265001D01*
X91437001Y-65265001D01*
X91437001Y-66765001D01*
X91437001Y-66765001D01*
G37*
G36*
X92575971Y-65269081D02*
G01*
X92613447Y-65280449D01*
X92647979Y-65298906D01*
X92678251Y-65323751D01*
X92703096Y-65354023D01*
X92721553Y-65388555D01*
X92732921Y-65426031D01*
X92737001Y-65467455D01*
X92737001Y-66562547D01*
X92732921Y-66603971D01*
X92721553Y-66641447D01*
X92703096Y-66675979D01*
X92678251Y-66706251D01*
X92647979Y-66731096D01*
X92613447Y-66749553D01*
X92575971Y-66760921D01*
X92534547Y-66765001D01*
X92039455Y-66765001D01*
X91998031Y-66760921D01*
X91960555Y-66749553D01*
X91926023Y-66731096D01*
X91895751Y-66706251D01*
X91870906Y-66675979D01*
X91852449Y-66641447D01*
X91841081Y-66603971D01*
X91837001Y-66562547D01*
X91837001Y-65467455D01*
X91841081Y-65426031D01*
X91852449Y-65388555D01*
X91870906Y-65354023D01*
X91895751Y-65323751D01*
X91926023Y-65298906D01*
X91960555Y-65280449D01*
X91998031Y-65269081D01*
X92039455Y-65265001D01*
X92534547Y-65265001D01*
X92575971Y-65269081D01*
X92575971Y-65269081D01*
G37*
G36*
X77337001Y-66715001D02*
G01*
X76437001Y-66715001D01*
X76437001Y-65215001D01*
X77337001Y-65215001D01*
X77337001Y-66715001D01*
X77337001Y-66715001D01*
G37*
G36*
X85925971Y-65219081D02*
G01*
X85963447Y-65230449D01*
X85997979Y-65248906D01*
X86028251Y-65273751D01*
X86053096Y-65304023D01*
X86071553Y-65338555D01*
X86082921Y-65376031D01*
X86087001Y-65417455D01*
X86087001Y-66512547D01*
X86082921Y-66553971D01*
X86071553Y-66591447D01*
X86053096Y-66625979D01*
X86028251Y-66656251D01*
X85997979Y-66681096D01*
X85963447Y-66699553D01*
X85925971Y-66710921D01*
X85884547Y-66715001D01*
X85389455Y-66715001D01*
X85348031Y-66710921D01*
X85310555Y-66699553D01*
X85276023Y-66681096D01*
X85245751Y-66656251D01*
X85220906Y-66625979D01*
X85202449Y-66591447D01*
X85191081Y-66553971D01*
X85187001Y-66512547D01*
X85187001Y-65417455D01*
X85191081Y-65376031D01*
X85202449Y-65338555D01*
X85220906Y-65304023D01*
X85245751Y-65273751D01*
X85276023Y-65248906D01*
X85310555Y-65230449D01*
X85348031Y-65219081D01*
X85389455Y-65215001D01*
X85884547Y-65215001D01*
X85925971Y-65219081D01*
X85925971Y-65219081D01*
G37*
G36*
X78475971Y-65219081D02*
G01*
X78513447Y-65230449D01*
X78547979Y-65248906D01*
X78578251Y-65273751D01*
X78603096Y-65304023D01*
X78621553Y-65338555D01*
X78632921Y-65376031D01*
X78637001Y-65417455D01*
X78637001Y-66512547D01*
X78632921Y-66553971D01*
X78621553Y-66591447D01*
X78603096Y-66625979D01*
X78578251Y-66656251D01*
X78547979Y-66681096D01*
X78513447Y-66699553D01*
X78475971Y-66710921D01*
X78434547Y-66715001D01*
X77939455Y-66715001D01*
X77898031Y-66710921D01*
X77860555Y-66699553D01*
X77826023Y-66681096D01*
X77795751Y-66656251D01*
X77770906Y-66625979D01*
X77752449Y-66591447D01*
X77741081Y-66553971D01*
X77737001Y-66512547D01*
X77737001Y-65417455D01*
X77741081Y-65376031D01*
X77752449Y-65338555D01*
X77770906Y-65304023D01*
X77795751Y-65273751D01*
X77826023Y-65248906D01*
X77860555Y-65230449D01*
X77898031Y-65219081D01*
X77939455Y-65215001D01*
X78434547Y-65215001D01*
X78475971Y-65219081D01*
X78475971Y-65219081D01*
G37*
G36*
X84787001Y-66715001D02*
G01*
X83887001Y-66715001D01*
X83887001Y-65215001D01*
X84787001Y-65215001D01*
X84787001Y-66715001D01*
X84787001Y-66715001D01*
G37*
G36*
X51637001Y-66615001D02*
G01*
X50737001Y-66615001D01*
X50737001Y-65115001D01*
X51637001Y-65115001D01*
X51637001Y-66615001D01*
X51637001Y-66615001D01*
G37*
G36*
X46125971Y-65119081D02*
G01*
X46163447Y-65130449D01*
X46197979Y-65148906D01*
X46228251Y-65173751D01*
X46253096Y-65204023D01*
X46271553Y-65238555D01*
X46282921Y-65276031D01*
X46287001Y-65317455D01*
X46287001Y-66412547D01*
X46282921Y-66453971D01*
X46271553Y-66491447D01*
X46253096Y-66525979D01*
X46228251Y-66556251D01*
X46197979Y-66581096D01*
X46163447Y-66599553D01*
X46125971Y-66610921D01*
X46084547Y-66615001D01*
X45589455Y-66615001D01*
X45548031Y-66610921D01*
X45510555Y-66599553D01*
X45476023Y-66581096D01*
X45445751Y-66556251D01*
X45420906Y-66525979D01*
X45402449Y-66491447D01*
X45391081Y-66453971D01*
X45387001Y-66412547D01*
X45387001Y-65317455D01*
X45391081Y-65276031D01*
X45402449Y-65238555D01*
X45420906Y-65204023D01*
X45445751Y-65173751D01*
X45476023Y-65148906D01*
X45510555Y-65130449D01*
X45548031Y-65119081D01*
X45589455Y-65115001D01*
X46084547Y-65115001D01*
X46125971Y-65119081D01*
X46125971Y-65119081D01*
G37*
G36*
X44987001Y-66615001D02*
G01*
X44087001Y-66615001D01*
X44087001Y-65115001D01*
X44987001Y-65115001D01*
X44987001Y-66615001D01*
X44987001Y-66615001D01*
G37*
G36*
X52775971Y-65119081D02*
G01*
X52813447Y-65130449D01*
X52847979Y-65148906D01*
X52878251Y-65173751D01*
X52903096Y-65204023D01*
X52921553Y-65238555D01*
X52932921Y-65276031D01*
X52937001Y-65317455D01*
X52937001Y-66412547D01*
X52932921Y-66453971D01*
X52921553Y-66491447D01*
X52903096Y-66525979D01*
X52878251Y-66556251D01*
X52847979Y-66581096D01*
X52813447Y-66599553D01*
X52775971Y-66610921D01*
X52734547Y-66615001D01*
X52239455Y-66615001D01*
X52198031Y-66610921D01*
X52160555Y-66599553D01*
X52126023Y-66581096D01*
X52095751Y-66556251D01*
X52070906Y-66525979D01*
X52052449Y-66491447D01*
X52041081Y-66453971D01*
X52037001Y-66412547D01*
X52037001Y-65317455D01*
X52041081Y-65276031D01*
X52052449Y-65238555D01*
X52070906Y-65204023D01*
X52095751Y-65173751D01*
X52126023Y-65148906D01*
X52160555Y-65130449D01*
X52198031Y-65119081D01*
X52239455Y-65115001D01*
X52734547Y-65115001D01*
X52775971Y-65119081D01*
X52775971Y-65119081D01*
G37*
G36*
X89862001Y-66515001D02*
G01*
X88512001Y-66515001D01*
X88512001Y-65315001D01*
X89862001Y-65315001D01*
X89862001Y-66515001D01*
X89862001Y-66515001D01*
G37*
G36*
X88062001Y-66515001D02*
G01*
X86712001Y-66515001D01*
X86712001Y-65315001D01*
X88062001Y-65315001D01*
X88062001Y-66515001D01*
X88062001Y-66515001D01*
G37*
G36*
X50062001Y-66415001D02*
G01*
X48712001Y-66415001D01*
X48712001Y-65215001D01*
X50062001Y-65215001D01*
X50062001Y-66415001D01*
X50062001Y-66415001D01*
G37*
G36*
X94862001Y-66415001D02*
G01*
X93512001Y-66415001D01*
X93512001Y-65215001D01*
X94862001Y-65215001D01*
X94862001Y-66415001D01*
X94862001Y-66415001D01*
G37*
G36*
X96562001Y-66415001D02*
G01*
X95212001Y-66415001D01*
X95212001Y-65215001D01*
X96562001Y-65215001D01*
X96562001Y-66415001D01*
X96562001Y-66415001D01*
G37*
G36*
X41462001Y-66415001D02*
G01*
X40112001Y-66415001D01*
X40112001Y-65215001D01*
X41462001Y-65215001D01*
X41462001Y-66415001D01*
X41462001Y-66415001D01*
G37*
G36*
X81462001Y-66415001D02*
G01*
X80112001Y-66415001D01*
X80112001Y-65215001D01*
X81462001Y-65215001D01*
X81462001Y-66415001D01*
X81462001Y-66415001D01*
G37*
G36*
X83162001Y-66415001D02*
G01*
X81812001Y-66415001D01*
X81812001Y-65215001D01*
X83162001Y-65215001D01*
X83162001Y-66415001D01*
X83162001Y-66415001D01*
G37*
G36*
X73862001Y-66415001D02*
G01*
X72512001Y-66415001D01*
X72512001Y-65215001D01*
X73862001Y-65215001D01*
X73862001Y-66415001D01*
X73862001Y-66415001D01*
G37*
G36*
X75562001Y-66415001D02*
G01*
X74212001Y-66415001D01*
X74212001Y-65215001D01*
X75562001Y-65215001D01*
X75562001Y-66415001D01*
X75562001Y-66415001D01*
G37*
G36*
X56662001Y-66415001D02*
G01*
X55312001Y-66415001D01*
X55312001Y-65215001D01*
X56662001Y-65215001D01*
X56662001Y-66415001D01*
X56662001Y-66415001D01*
G37*
G36*
X48262001Y-66415001D02*
G01*
X46912001Y-66415001D01*
X46912001Y-65215001D01*
X48262001Y-65215001D01*
X48262001Y-66415001D01*
X48262001Y-66415001D01*
G37*
G36*
X43262001Y-66415001D02*
G01*
X41912001Y-66415001D01*
X41912001Y-65215001D01*
X43262001Y-65215001D01*
X43262001Y-66415001D01*
X43262001Y-66415001D01*
G37*
G36*
X54862001Y-66415001D02*
G01*
X53512001Y-66415001D01*
X53512001Y-65215001D01*
X54862001Y-65215001D01*
X54862001Y-66415001D01*
X54862001Y-66415001D01*
G37*
G36*
X39125971Y-64619081D02*
G01*
X39163447Y-64630449D01*
X39197979Y-64648906D01*
X39228251Y-64673751D01*
X39253096Y-64704023D01*
X39271553Y-64738555D01*
X39282921Y-64776031D01*
X39287001Y-64817455D01*
X39287001Y-65912547D01*
X39282921Y-65953971D01*
X39271553Y-65991447D01*
X39253096Y-66025979D01*
X39228251Y-66056251D01*
X39197979Y-66081096D01*
X39163447Y-66099553D01*
X39125971Y-66110921D01*
X39084547Y-66115001D01*
X38589455Y-66115001D01*
X38548031Y-66110921D01*
X38510555Y-66099553D01*
X38476023Y-66081096D01*
X38445751Y-66056251D01*
X38420906Y-66025979D01*
X38402449Y-65991447D01*
X38391081Y-65953971D01*
X38387001Y-65912547D01*
X38387001Y-64817455D01*
X38391081Y-64776031D01*
X38402449Y-64738555D01*
X38420906Y-64704023D01*
X38445751Y-64673751D01*
X38476023Y-64648906D01*
X38510555Y-64630449D01*
X38548031Y-64619081D01*
X38589455Y-64615001D01*
X39084547Y-64615001D01*
X39125971Y-64619081D01*
X39125971Y-64619081D01*
G37*
G36*
X37987001Y-66115001D02*
G01*
X37087001Y-66115001D01*
X37087001Y-64615001D01*
X37987001Y-64615001D01*
X37987001Y-66115001D01*
X37987001Y-66115001D01*
G37*
G36*
X62718260Y-63832294D02*
G01*
X62752183Y-63846345D01*
X62800156Y-63866216D01*
X62873859Y-63915463D01*
X62936539Y-63978143D01*
X62985786Y-64051846D01*
X62995834Y-64076105D01*
X63019708Y-64133742D01*
X63037001Y-64220679D01*
X63037001Y-64309323D01*
X63019708Y-64396260D01*
X63011945Y-64415001D01*
X62985786Y-64478156D01*
X62936539Y-64551859D01*
X62873859Y-64614539D01*
X62800156Y-64663786D01*
X62758833Y-64680902D01*
X62718260Y-64697708D01*
X62631323Y-64715001D01*
X62542679Y-64715001D01*
X62455742Y-64697708D01*
X62415169Y-64680902D01*
X62373846Y-64663786D01*
X62300143Y-64614539D01*
X62237463Y-64551859D01*
X62188216Y-64478156D01*
X62162057Y-64415001D01*
X62154294Y-64396260D01*
X62137001Y-64309323D01*
X62137001Y-64220679D01*
X62154294Y-64133742D01*
X62178168Y-64076105D01*
X62188216Y-64051846D01*
X62237463Y-63978143D01*
X62300143Y-63915463D01*
X62373846Y-63866216D01*
X62421819Y-63846345D01*
X62455742Y-63832294D01*
X62542679Y-63815001D01*
X62631323Y-63815001D01*
X62718260Y-63832294D01*
X62718260Y-63832294D01*
G37*
G36*
X98775971Y-63019081D02*
G01*
X98813447Y-63030449D01*
X98847979Y-63048906D01*
X98878251Y-63073751D01*
X98903096Y-63104023D01*
X98921553Y-63138555D01*
X98932921Y-63176031D01*
X98937001Y-63217455D01*
X98937001Y-64312547D01*
X98932921Y-64353971D01*
X98921553Y-64391447D01*
X98903096Y-64425979D01*
X98878251Y-64456251D01*
X98847979Y-64481096D01*
X98813447Y-64499553D01*
X98775971Y-64510921D01*
X98734547Y-64515001D01*
X98239455Y-64515001D01*
X98198031Y-64510921D01*
X98160555Y-64499553D01*
X98126023Y-64481096D01*
X98095751Y-64456251D01*
X98070906Y-64425979D01*
X98052449Y-64391447D01*
X98041081Y-64353971D01*
X98037001Y-64312547D01*
X98037001Y-63217455D01*
X98041081Y-63176031D01*
X98052449Y-63138555D01*
X98070906Y-63104023D01*
X98095751Y-63073751D01*
X98126023Y-63048906D01*
X98160555Y-63030449D01*
X98198031Y-63019081D01*
X98239455Y-63015001D01*
X98734547Y-63015001D01*
X98775971Y-63019081D01*
X98775971Y-63019081D01*
G37*
G36*
X89862001Y-64415001D02*
G01*
X88512001Y-64415001D01*
X88512001Y-63215001D01*
X89862001Y-63215001D01*
X89862001Y-64415001D01*
X89862001Y-64415001D01*
G37*
G36*
X88062001Y-64415001D02*
G01*
X86712001Y-64415001D01*
X86712001Y-63215001D01*
X88062001Y-63215001D01*
X88062001Y-64415001D01*
X88062001Y-64415001D01*
G37*
G36*
X91925971Y-62869081D02*
G01*
X91963447Y-62880449D01*
X91997979Y-62898906D01*
X92028251Y-62923751D01*
X92053096Y-62954023D01*
X92071553Y-62988555D01*
X92082921Y-63026031D01*
X92087001Y-63067455D01*
X92087001Y-64162547D01*
X92082921Y-64203971D01*
X92071553Y-64241447D01*
X92053096Y-64275979D01*
X92028251Y-64306251D01*
X91997979Y-64331096D01*
X91963447Y-64349553D01*
X91925971Y-64360921D01*
X91884547Y-64365001D01*
X91389455Y-64365001D01*
X91348031Y-64360921D01*
X91310555Y-64349553D01*
X91276023Y-64331096D01*
X91245751Y-64306251D01*
X91220906Y-64275979D01*
X91202449Y-64241447D01*
X91191081Y-64203971D01*
X91187001Y-64162547D01*
X91187001Y-63067455D01*
X91191081Y-63026031D01*
X91202449Y-62988555D01*
X91220906Y-62954023D01*
X91245751Y-62923751D01*
X91276023Y-62898906D01*
X91310555Y-62880449D01*
X91348031Y-62869081D01*
X91389455Y-62865001D01*
X91884547Y-62865001D01*
X91925971Y-62869081D01*
X91925971Y-62869081D01*
G37*
G36*
X54862001Y-64315001D02*
G01*
X53512001Y-64315001D01*
X53512001Y-63115001D01*
X54862001Y-63115001D01*
X54862001Y-64315001D01*
X54862001Y-64315001D01*
G37*
G36*
X85275971Y-62819081D02*
G01*
X85313447Y-62830449D01*
X85347979Y-62848906D01*
X85378251Y-62873751D01*
X85403096Y-62904023D01*
X85421553Y-62938555D01*
X85432921Y-62976031D01*
X85437001Y-63017455D01*
X85437001Y-64112547D01*
X85432921Y-64153971D01*
X85421553Y-64191447D01*
X85403096Y-64225979D01*
X85378251Y-64256251D01*
X85347979Y-64281096D01*
X85313447Y-64299553D01*
X85275971Y-64310921D01*
X85234547Y-64315001D01*
X84739455Y-64315001D01*
X84698031Y-64310921D01*
X84660555Y-64299553D01*
X84626023Y-64281096D01*
X84595751Y-64256251D01*
X84570906Y-64225979D01*
X84552449Y-64191447D01*
X84541081Y-64153971D01*
X84537001Y-64112547D01*
X84537001Y-63017455D01*
X84541081Y-62976031D01*
X84552449Y-62938555D01*
X84570906Y-62904023D01*
X84595751Y-62873751D01*
X84626023Y-62848906D01*
X84660555Y-62830449D01*
X84698031Y-62819081D01*
X84739455Y-62815001D01*
X85234547Y-62815001D01*
X85275971Y-62819081D01*
X85275971Y-62819081D01*
G37*
G36*
X77825971Y-62819081D02*
G01*
X77863447Y-62830449D01*
X77897979Y-62848906D01*
X77928251Y-62873751D01*
X77953096Y-62904023D01*
X77971553Y-62938555D01*
X77982921Y-62976031D01*
X77987001Y-63017455D01*
X77987001Y-64112547D01*
X77982921Y-64153971D01*
X77971553Y-64191447D01*
X77953096Y-64225979D01*
X77928251Y-64256251D01*
X77897979Y-64281096D01*
X77863447Y-64299553D01*
X77825971Y-64310921D01*
X77784547Y-64315001D01*
X77289455Y-64315001D01*
X77248031Y-64310921D01*
X77210555Y-64299553D01*
X77176023Y-64281096D01*
X77145751Y-64256251D01*
X77120906Y-64225979D01*
X77102449Y-64191447D01*
X77091081Y-64153971D01*
X77087001Y-64112547D01*
X77087001Y-63017455D01*
X77091081Y-62976031D01*
X77102449Y-62938555D01*
X77120906Y-62904023D01*
X77145751Y-62873751D01*
X77176023Y-62848906D01*
X77210555Y-62830449D01*
X77248031Y-62819081D01*
X77289455Y-62815001D01*
X77784547Y-62815001D01*
X77825971Y-62819081D01*
X77825971Y-62819081D01*
G37*
G36*
X73862001Y-64315001D02*
G01*
X72512001Y-64315001D01*
X72512001Y-63115001D01*
X73862001Y-63115001D01*
X73862001Y-64315001D01*
X73862001Y-64315001D01*
G37*
G36*
X83162001Y-64315001D02*
G01*
X81812001Y-64315001D01*
X81812001Y-63115001D01*
X83162001Y-63115001D01*
X83162001Y-64315001D01*
X83162001Y-64315001D01*
G37*
G36*
X56662001Y-64315001D02*
G01*
X55312001Y-64315001D01*
X55312001Y-63115001D01*
X56662001Y-63115001D01*
X56662001Y-64315001D01*
X56662001Y-64315001D01*
G37*
G36*
X81462001Y-64315001D02*
G01*
X80112001Y-64315001D01*
X80112001Y-63115001D01*
X81462001Y-63115001D01*
X81462001Y-64315001D01*
X81462001Y-64315001D01*
G37*
G36*
X96562001Y-64315001D02*
G01*
X95212001Y-64315001D01*
X95212001Y-63115001D01*
X96562001Y-63115001D01*
X96562001Y-64315001D01*
X96562001Y-64315001D01*
G37*
G36*
X50062001Y-64315001D02*
G01*
X48712001Y-64315001D01*
X48712001Y-63115001D01*
X50062001Y-63115001D01*
X50062001Y-64315001D01*
X50062001Y-64315001D01*
G37*
G36*
X94862001Y-64315001D02*
G01*
X93512001Y-64315001D01*
X93512001Y-63115001D01*
X94862001Y-63115001D01*
X94862001Y-64315001D01*
X94862001Y-64315001D01*
G37*
G36*
X48262001Y-64315001D02*
G01*
X46912001Y-64315001D01*
X46912001Y-63115001D01*
X48262001Y-63115001D01*
X48262001Y-64315001D01*
X48262001Y-64315001D01*
G37*
G36*
X43262001Y-64315001D02*
G01*
X41912001Y-64315001D01*
X41912001Y-63115001D01*
X43262001Y-63115001D01*
X43262001Y-64315001D01*
X43262001Y-64315001D01*
G37*
G36*
X75562001Y-64315001D02*
G01*
X74212001Y-64315001D01*
X74212001Y-63115001D01*
X75562001Y-63115001D01*
X75562001Y-64315001D01*
X75562001Y-64315001D01*
G37*
G36*
X41462001Y-64315001D02*
G01*
X40112001Y-64315001D01*
X40112001Y-63115001D01*
X41462001Y-63115001D01*
X41462001Y-64315001D01*
X41462001Y-64315001D01*
G37*
G36*
X45475971Y-62719081D02*
G01*
X45513447Y-62730449D01*
X45547979Y-62748906D01*
X45578251Y-62773751D01*
X45603096Y-62804023D01*
X45621553Y-62838555D01*
X45632921Y-62876031D01*
X45637001Y-62917455D01*
X45637001Y-64012547D01*
X45632921Y-64053971D01*
X45621553Y-64091447D01*
X45603096Y-64125979D01*
X45578251Y-64156251D01*
X45547979Y-64181096D01*
X45513447Y-64199553D01*
X45475971Y-64210921D01*
X45434547Y-64215001D01*
X44939455Y-64215001D01*
X44898031Y-64210921D01*
X44860555Y-64199553D01*
X44826023Y-64181096D01*
X44795751Y-64156251D01*
X44770906Y-64125979D01*
X44752449Y-64091447D01*
X44741081Y-64053971D01*
X44737001Y-64012547D01*
X44737001Y-62917455D01*
X44741081Y-62876031D01*
X44752449Y-62838555D01*
X44770906Y-62804023D01*
X44795751Y-62773751D01*
X44826023Y-62748906D01*
X44860555Y-62730449D01*
X44898031Y-62719081D01*
X44939455Y-62715001D01*
X45434547Y-62715001D01*
X45475971Y-62719081D01*
X45475971Y-62719081D01*
G37*
G36*
X52125971Y-62719081D02*
G01*
X52163447Y-62730449D01*
X52197979Y-62748906D01*
X52228251Y-62773751D01*
X52253096Y-62804023D01*
X52271553Y-62838555D01*
X52282921Y-62876031D01*
X52287001Y-62917455D01*
X52287001Y-64012547D01*
X52282921Y-64053971D01*
X52271553Y-64091447D01*
X52253096Y-64125979D01*
X52228251Y-64156251D01*
X52197979Y-64181096D01*
X52163447Y-64199553D01*
X52125971Y-64210921D01*
X52084547Y-64215001D01*
X51589455Y-64215001D01*
X51548031Y-64210921D01*
X51510555Y-64199553D01*
X51476023Y-64181096D01*
X51445751Y-64156251D01*
X51420906Y-64125979D01*
X51402449Y-64091447D01*
X51391081Y-64053971D01*
X51387001Y-64012547D01*
X51387001Y-62917455D01*
X51391081Y-62876031D01*
X51402449Y-62838555D01*
X51420906Y-62804023D01*
X51445751Y-62773751D01*
X51476023Y-62748906D01*
X51510555Y-62730449D01*
X51548031Y-62719081D01*
X51589455Y-62715001D01*
X52084547Y-62715001D01*
X52125971Y-62719081D01*
X52125971Y-62719081D01*
G37*
G36*
X61414184Y-61218745D02*
G01*
X61442323Y-61227281D01*
X61468256Y-61241143D01*
X61490986Y-61259797D01*
X62198093Y-61966904D01*
X62216747Y-61989634D01*
X62230609Y-62015567D01*
X62239145Y-62043706D01*
X62242027Y-62072970D01*
X62239145Y-62102234D01*
X62230609Y-62130373D01*
X62216747Y-62156306D01*
X62198093Y-62179036D01*
X62198092Y-62179037D01*
X62175362Y-62197691D01*
X62149429Y-62211553D01*
X62121290Y-62220089D01*
X62092026Y-62222971D01*
X62062762Y-62220089D01*
X62034623Y-62211553D01*
X62008690Y-62197691D01*
X61985960Y-62179037D01*
X61984230Y-62177307D01*
X61982334Y-62175751D01*
X61974184Y-62170305D01*
X61965129Y-62166555D01*
X61955516Y-62164643D01*
X61945714Y-62164643D01*
X61936101Y-62166555D01*
X61927046Y-62170306D01*
X61918896Y-62175752D01*
X61911966Y-62182683D01*
X61906520Y-62190833D01*
X61902770Y-62199888D01*
X61900858Y-62209501D01*
X61900858Y-62219303D01*
X61902770Y-62228916D01*
X61906521Y-62237971D01*
X61915261Y-62249756D01*
X62056672Y-62391167D01*
X62075326Y-62413897D01*
X62089188Y-62439830D01*
X62097724Y-62467969D01*
X62100606Y-62497233D01*
X62097724Y-62526497D01*
X62089188Y-62554636D01*
X62075326Y-62580569D01*
X62056672Y-62603299D01*
X62056670Y-62603301D01*
X62033940Y-62621955D01*
X62008007Y-62635817D01*
X61979868Y-62644353D01*
X61950604Y-62647235D01*
X61921340Y-62644353D01*
X61893201Y-62635817D01*
X61867268Y-62621955D01*
X61844538Y-62603301D01*
X61842802Y-62601565D01*
X61840907Y-62600010D01*
X61832757Y-62594565D01*
X61823702Y-62590815D01*
X61814089Y-62588903D01*
X61804287Y-62588903D01*
X61794674Y-62590815D01*
X61785619Y-62594566D01*
X61777469Y-62600012D01*
X61770538Y-62606943D01*
X61765093Y-62615093D01*
X61761343Y-62624148D01*
X61759431Y-62633761D01*
X61759431Y-62643563D01*
X61761343Y-62653176D01*
X61765094Y-62662231D01*
X61770538Y-62670379D01*
X61772093Y-62672274D01*
X61773829Y-62674010D01*
X61792483Y-62696740D01*
X61806345Y-62722673D01*
X61814881Y-62750812D01*
X61817763Y-62780076D01*
X61814881Y-62809340D01*
X61806345Y-62837479D01*
X61792483Y-62863412D01*
X61773829Y-62886142D01*
X61773827Y-62886144D01*
X61751097Y-62904798D01*
X61725164Y-62918660D01*
X61697025Y-62927196D01*
X61667761Y-62930078D01*
X61638497Y-62927196D01*
X61610358Y-62918660D01*
X61584425Y-62904798D01*
X61561695Y-62886144D01*
X61559961Y-62884410D01*
X61558066Y-62882855D01*
X61549916Y-62877410D01*
X61540860Y-62873659D01*
X61531247Y-62871748D01*
X61521446Y-62871748D01*
X61511833Y-62873660D01*
X61502777Y-62877412D01*
X61494628Y-62882857D01*
X61487697Y-62889788D01*
X61482252Y-62897938D01*
X61478501Y-62906994D01*
X61476590Y-62916607D01*
X61476590Y-62926408D01*
X61478502Y-62936021D01*
X61482254Y-62945077D01*
X61487698Y-62953224D01*
X61489254Y-62955120D01*
X61490986Y-62956852D01*
X61509640Y-62979582D01*
X61523502Y-63005515D01*
X61532038Y-63033654D01*
X61534920Y-63062918D01*
X61532038Y-63092182D01*
X61523502Y-63120321D01*
X61509640Y-63146254D01*
X61490986Y-63168984D01*
X61490984Y-63168986D01*
X61468254Y-63187640D01*
X61442321Y-63201502D01*
X61414182Y-63210038D01*
X61384918Y-63212920D01*
X61355654Y-63210038D01*
X61327515Y-63201502D01*
X61301582Y-63187640D01*
X61278852Y-63168986D01*
X61277120Y-63167254D01*
X61275224Y-63165698D01*
X61267075Y-63160252D01*
X61258019Y-63156502D01*
X61248406Y-63154590D01*
X61238605Y-63154590D01*
X61228991Y-63156502D01*
X61219936Y-63160253D01*
X61211786Y-63165699D01*
X61204856Y-63172630D01*
X61199410Y-63180779D01*
X61195660Y-63189835D01*
X61193748Y-63199448D01*
X61193748Y-63209249D01*
X61195660Y-63218863D01*
X61199411Y-63227918D01*
X61204855Y-63236066D01*
X61206410Y-63237961D01*
X61208144Y-63239695D01*
X61226798Y-63262425D01*
X61240660Y-63288358D01*
X61249196Y-63316497D01*
X61252078Y-63345761D01*
X61249196Y-63375025D01*
X61240660Y-63403164D01*
X61226798Y-63429097D01*
X61208144Y-63451827D01*
X61208142Y-63451829D01*
X61185412Y-63470483D01*
X61159479Y-63484345D01*
X61131340Y-63492881D01*
X61102076Y-63495763D01*
X61072812Y-63492881D01*
X61044673Y-63484345D01*
X61018740Y-63470483D01*
X60996010Y-63451829D01*
X60994274Y-63450093D01*
X60992379Y-63448538D01*
X60984229Y-63443093D01*
X60975174Y-63439343D01*
X60965561Y-63437431D01*
X60955759Y-63437431D01*
X60946146Y-63439343D01*
X60937091Y-63443094D01*
X60928941Y-63448540D01*
X60922010Y-63455471D01*
X60916565Y-63463621D01*
X60912815Y-63472676D01*
X60910903Y-63482289D01*
X60910903Y-63492091D01*
X60912815Y-63501704D01*
X60916566Y-63510759D01*
X60922010Y-63518907D01*
X60923565Y-63520802D01*
X60925301Y-63522538D01*
X60943955Y-63545268D01*
X60957817Y-63571201D01*
X60966353Y-63599340D01*
X60969235Y-63628604D01*
X60966353Y-63657868D01*
X60957817Y-63686007D01*
X60943955Y-63711940D01*
X60925301Y-63734670D01*
X60925299Y-63734672D01*
X60902569Y-63753326D01*
X60876636Y-63767188D01*
X60848497Y-63775724D01*
X60819233Y-63778606D01*
X60789969Y-63775724D01*
X60761830Y-63767188D01*
X60735897Y-63753326D01*
X60713167Y-63734672D01*
X60571756Y-63593261D01*
X60564179Y-63587043D01*
X60555535Y-63582423D01*
X60546155Y-63579578D01*
X60536401Y-63578617D01*
X60526647Y-63579578D01*
X60517267Y-63582423D01*
X60508623Y-63587043D01*
X60501046Y-63593261D01*
X60494828Y-63600838D01*
X60490208Y-63609482D01*
X60487363Y-63618862D01*
X60486402Y-63628616D01*
X60487363Y-63638370D01*
X60490208Y-63647750D01*
X60497751Y-63660334D01*
X60499307Y-63662230D01*
X60501037Y-63663960D01*
X60519691Y-63686690D01*
X60533553Y-63712623D01*
X60542089Y-63740762D01*
X60544971Y-63770026D01*
X60542089Y-63799290D01*
X60533553Y-63827429D01*
X60519691Y-63853362D01*
X60501037Y-63876092D01*
X60501036Y-63876093D01*
X60478306Y-63894747D01*
X60452373Y-63908609D01*
X60424234Y-63917145D01*
X60394970Y-63920027D01*
X60365706Y-63917145D01*
X60337567Y-63908609D01*
X60311634Y-63894747D01*
X60288904Y-63876093D01*
X59581797Y-63168986D01*
X59563143Y-63146256D01*
X59549281Y-63120323D01*
X59540745Y-63092184D01*
X59537863Y-63062920D01*
X59540745Y-63033656D01*
X59549281Y-63005517D01*
X59563143Y-62979584D01*
X59581797Y-62956854D01*
X59581798Y-62956853D01*
X59604528Y-62938199D01*
X59630461Y-62924337D01*
X59658600Y-62915801D01*
X59687864Y-62912919D01*
X59717128Y-62915801D01*
X59745267Y-62924337D01*
X59771200Y-62938199D01*
X59793930Y-62956853D01*
X59795666Y-62958589D01*
X59797561Y-62960144D01*
X59805711Y-62965589D01*
X59814766Y-62969339D01*
X59824379Y-62971251D01*
X59834181Y-62971251D01*
X59843794Y-62969339D01*
X59852849Y-62965588D01*
X59860999Y-62960142D01*
X59867930Y-62953211D01*
X59873375Y-62945061D01*
X59877125Y-62936006D01*
X59879037Y-62926393D01*
X59879037Y-62916591D01*
X59877125Y-62906978D01*
X59873374Y-62897923D01*
X59867930Y-62889775D01*
X59866375Y-62887880D01*
X59864639Y-62886144D01*
X59845985Y-62863414D01*
X59832123Y-62837481D01*
X59823587Y-62809342D01*
X59820705Y-62780078D01*
X59823587Y-62750814D01*
X59832123Y-62722675D01*
X59845985Y-62696742D01*
X59864639Y-62674012D01*
X59864641Y-62674010D01*
X59887371Y-62655356D01*
X59913304Y-62641494D01*
X59941443Y-62632958D01*
X59970707Y-62630076D01*
X59999971Y-62632958D01*
X60028110Y-62641494D01*
X60054043Y-62655356D01*
X60076773Y-62674010D01*
X60078509Y-62675746D01*
X60080404Y-62677301D01*
X60088554Y-62682746D01*
X60097609Y-62686496D01*
X60107222Y-62688408D01*
X60117024Y-62688408D01*
X60126637Y-62686496D01*
X60135692Y-62682745D01*
X60143842Y-62677299D01*
X60150773Y-62670368D01*
X60156218Y-62662218D01*
X60159968Y-62653163D01*
X60161880Y-62643550D01*
X60161880Y-62633748D01*
X60159968Y-62624135D01*
X60156217Y-62615080D01*
X60150773Y-62606932D01*
X60149218Y-62605037D01*
X60147482Y-62603301D01*
X60128828Y-62580571D01*
X60114966Y-62554638D01*
X60106430Y-62526499D01*
X60103548Y-62497235D01*
X60106430Y-62467971D01*
X60114966Y-62439832D01*
X60128828Y-62413899D01*
X60147482Y-62391169D01*
X60147484Y-62391167D01*
X60170214Y-62372513D01*
X60196147Y-62358651D01*
X60224286Y-62350115D01*
X60253550Y-62347233D01*
X60282814Y-62350115D01*
X60310953Y-62358651D01*
X60336886Y-62372513D01*
X60359616Y-62391167D01*
X60361348Y-62392899D01*
X60363244Y-62394455D01*
X60371393Y-62399901D01*
X60380449Y-62403651D01*
X60390062Y-62405563D01*
X60399863Y-62405563D01*
X60409477Y-62403651D01*
X60418532Y-62399900D01*
X60426682Y-62394454D01*
X60433612Y-62387523D01*
X60439058Y-62379374D01*
X60442808Y-62370318D01*
X60444720Y-62360705D01*
X60444720Y-62350904D01*
X60442808Y-62341290D01*
X60439057Y-62332235D01*
X60433613Y-62324087D01*
X60432058Y-62322192D01*
X60430324Y-62320458D01*
X60411670Y-62297728D01*
X60397808Y-62271795D01*
X60389272Y-62243656D01*
X60386390Y-62214392D01*
X60389272Y-62185128D01*
X60397808Y-62156989D01*
X60411670Y-62131056D01*
X60430324Y-62108326D01*
X60430326Y-62108324D01*
X60453056Y-62089670D01*
X60478989Y-62075808D01*
X60507128Y-62067272D01*
X60536392Y-62064390D01*
X60565656Y-62067272D01*
X60593795Y-62075808D01*
X60619728Y-62089670D01*
X60642458Y-62108324D01*
X60644192Y-62110058D01*
X60646087Y-62111613D01*
X60654237Y-62117058D01*
X60663293Y-62120809D01*
X60672906Y-62122720D01*
X60682707Y-62122720D01*
X60692320Y-62120808D01*
X60701376Y-62117056D01*
X60709525Y-62111611D01*
X60716456Y-62104680D01*
X60721901Y-62096530D01*
X60725652Y-62087474D01*
X60727563Y-62077861D01*
X60727563Y-62068060D01*
X60725651Y-62058447D01*
X60721899Y-62049391D01*
X60716455Y-62041244D01*
X60714899Y-62039348D01*
X60713167Y-62037616D01*
X60694513Y-62014886D01*
X60680651Y-61988953D01*
X60672115Y-61960814D01*
X60669233Y-61931550D01*
X60672115Y-61902286D01*
X60680651Y-61874147D01*
X60694513Y-61848214D01*
X60713167Y-61825484D01*
X60713169Y-61825482D01*
X60735899Y-61806828D01*
X60761832Y-61792966D01*
X60789971Y-61784430D01*
X60819235Y-61781548D01*
X60848499Y-61784430D01*
X60876638Y-61792966D01*
X60902571Y-61806828D01*
X60925301Y-61825482D01*
X60927037Y-61827218D01*
X60928932Y-61828773D01*
X60937082Y-61834218D01*
X60946137Y-61837968D01*
X60955750Y-61839880D01*
X60965552Y-61839880D01*
X60975165Y-61837968D01*
X60984220Y-61834217D01*
X60992370Y-61828771D01*
X60999301Y-61821840D01*
X61004746Y-61813690D01*
X61008496Y-61804635D01*
X61010408Y-61795022D01*
X61010408Y-61785220D01*
X61008496Y-61775607D01*
X61004745Y-61766552D01*
X60999301Y-61758404D01*
X60997746Y-61756509D01*
X60996010Y-61754773D01*
X60977356Y-61732043D01*
X60963494Y-61706110D01*
X60954958Y-61677971D01*
X60952076Y-61648707D01*
X60954958Y-61619443D01*
X60963494Y-61591304D01*
X60977356Y-61565371D01*
X60996010Y-61542641D01*
X60996012Y-61542639D01*
X61018742Y-61523985D01*
X61044675Y-61510123D01*
X61072814Y-61501587D01*
X61102078Y-61498705D01*
X61131342Y-61501587D01*
X61159481Y-61510123D01*
X61185414Y-61523985D01*
X61208144Y-61542639D01*
X61209880Y-61544375D01*
X61211775Y-61545930D01*
X61219925Y-61551375D01*
X61228980Y-61555125D01*
X61238593Y-61557037D01*
X61248395Y-61557037D01*
X61258008Y-61555125D01*
X61267063Y-61551374D01*
X61275213Y-61545928D01*
X61282144Y-61538997D01*
X61287589Y-61530847D01*
X61291339Y-61521792D01*
X61293251Y-61512179D01*
X61293251Y-61502377D01*
X61291339Y-61492764D01*
X61287588Y-61483709D01*
X61282144Y-61475561D01*
X61280589Y-61473666D01*
X61278853Y-61471930D01*
X61260199Y-61449200D01*
X61246337Y-61423267D01*
X61237801Y-61395128D01*
X61234919Y-61365864D01*
X61237801Y-61336600D01*
X61246337Y-61308461D01*
X61260199Y-61282528D01*
X61278853Y-61259798D01*
X61278854Y-61259797D01*
X61301584Y-61241143D01*
X61327517Y-61227281D01*
X61355656Y-61218745D01*
X61384920Y-61215863D01*
X61414184Y-61218745D01*
X61414184Y-61218745D01*
G37*
G36*
X63818346Y-61218745D02*
G01*
X63846485Y-61227281D01*
X63872418Y-61241143D01*
X63895148Y-61259797D01*
X63895149Y-61259798D01*
X63913803Y-61282528D01*
X63927665Y-61308461D01*
X63936201Y-61336600D01*
X63939083Y-61365864D01*
X63936201Y-61395128D01*
X63927665Y-61423267D01*
X63913803Y-61449200D01*
X63895149Y-61471930D01*
X63893413Y-61473666D01*
X63891858Y-61475561D01*
X63886413Y-61483711D01*
X63882663Y-61492766D01*
X63880751Y-61502379D01*
X63880751Y-61512181D01*
X63882663Y-61521794D01*
X63886414Y-61530849D01*
X63891860Y-61538999D01*
X63898791Y-61545930D01*
X63906941Y-61551375D01*
X63915996Y-61555125D01*
X63925609Y-61557037D01*
X63935411Y-61557037D01*
X63945024Y-61555125D01*
X63954079Y-61551374D01*
X63962227Y-61545930D01*
X63964122Y-61544375D01*
X63965858Y-61542639D01*
X63988588Y-61523985D01*
X64014521Y-61510123D01*
X64042660Y-61501587D01*
X64071924Y-61498705D01*
X64101188Y-61501587D01*
X64129327Y-61510123D01*
X64155260Y-61523985D01*
X64177990Y-61542639D01*
X64177992Y-61542641D01*
X64196646Y-61565371D01*
X64210508Y-61591304D01*
X64219044Y-61619443D01*
X64221926Y-61648707D01*
X64219044Y-61677971D01*
X64210508Y-61706110D01*
X64196646Y-61732043D01*
X64177992Y-61754773D01*
X64176256Y-61756509D01*
X64174701Y-61758404D01*
X64169256Y-61766554D01*
X64165506Y-61775609D01*
X64163594Y-61785222D01*
X64163594Y-61795024D01*
X64165506Y-61804637D01*
X64169257Y-61813692D01*
X64174703Y-61821842D01*
X64181634Y-61828773D01*
X64189784Y-61834218D01*
X64198839Y-61837968D01*
X64208452Y-61839880D01*
X64218254Y-61839880D01*
X64227867Y-61837968D01*
X64236922Y-61834217D01*
X64245070Y-61828773D01*
X64246965Y-61827218D01*
X64248701Y-61825482D01*
X64271431Y-61806828D01*
X64297364Y-61792966D01*
X64325503Y-61784430D01*
X64354767Y-61781548D01*
X64384031Y-61784430D01*
X64412170Y-61792966D01*
X64438103Y-61806828D01*
X64460833Y-61825482D01*
X64460835Y-61825484D01*
X64479489Y-61848214D01*
X64493351Y-61874147D01*
X64501887Y-61902286D01*
X64504769Y-61931550D01*
X64501887Y-61960814D01*
X64493351Y-61988953D01*
X64479489Y-62014886D01*
X64460835Y-62037616D01*
X64459103Y-62039348D01*
X64457547Y-62041244D01*
X64452101Y-62049393D01*
X64448351Y-62058449D01*
X64446439Y-62068062D01*
X64446439Y-62077863D01*
X64448351Y-62087477D01*
X64452102Y-62096532D01*
X64457548Y-62104682D01*
X64464479Y-62111612D01*
X64472628Y-62117058D01*
X64481684Y-62120808D01*
X64491297Y-62122720D01*
X64501098Y-62122720D01*
X64510712Y-62120808D01*
X64519767Y-62117057D01*
X64527915Y-62111613D01*
X64529810Y-62110058D01*
X64531544Y-62108324D01*
X64554274Y-62089670D01*
X64580207Y-62075808D01*
X64608346Y-62067272D01*
X64637610Y-62064390D01*
X64666874Y-62067272D01*
X64695013Y-62075808D01*
X64720946Y-62089670D01*
X64743676Y-62108324D01*
X64743678Y-62108326D01*
X64762332Y-62131056D01*
X64776194Y-62156989D01*
X64784730Y-62185128D01*
X64787612Y-62214392D01*
X64784730Y-62243656D01*
X64776194Y-62271795D01*
X64762332Y-62297728D01*
X64743678Y-62320458D01*
X64741944Y-62322192D01*
X64740389Y-62324087D01*
X64734944Y-62332237D01*
X64731193Y-62341293D01*
X64729282Y-62350906D01*
X64729282Y-62360707D01*
X64731194Y-62370320D01*
X64734946Y-62379376D01*
X64740391Y-62387525D01*
X64747322Y-62394456D01*
X64755472Y-62399901D01*
X64764528Y-62403652D01*
X64774141Y-62405563D01*
X64783942Y-62405563D01*
X64793555Y-62403651D01*
X64802611Y-62399899D01*
X64810758Y-62394455D01*
X64812654Y-62392899D01*
X64814386Y-62391167D01*
X64837116Y-62372513D01*
X64863049Y-62358651D01*
X64891188Y-62350115D01*
X64920452Y-62347233D01*
X64949716Y-62350115D01*
X64977855Y-62358651D01*
X65003788Y-62372513D01*
X65026518Y-62391167D01*
X65026520Y-62391169D01*
X65045174Y-62413899D01*
X65059036Y-62439832D01*
X65067572Y-62467971D01*
X65070454Y-62497235D01*
X65067572Y-62526499D01*
X65059036Y-62554638D01*
X65045174Y-62580571D01*
X65026520Y-62603301D01*
X65024784Y-62605037D01*
X65023229Y-62606932D01*
X65017784Y-62615082D01*
X65014034Y-62624137D01*
X65012122Y-62633750D01*
X65012122Y-62643552D01*
X65014034Y-62653165D01*
X65017785Y-62662220D01*
X65023231Y-62670370D01*
X65030162Y-62677301D01*
X65038312Y-62682746D01*
X65047367Y-62686496D01*
X65056980Y-62688408D01*
X65066782Y-62688408D01*
X65076395Y-62686496D01*
X65085450Y-62682745D01*
X65093598Y-62677301D01*
X65095493Y-62675746D01*
X65097229Y-62674010D01*
X65119959Y-62655356D01*
X65145892Y-62641494D01*
X65174031Y-62632958D01*
X65203295Y-62630076D01*
X65232559Y-62632958D01*
X65260698Y-62641494D01*
X65286631Y-62655356D01*
X65309361Y-62674010D01*
X65309363Y-62674012D01*
X65328017Y-62696742D01*
X65341879Y-62722675D01*
X65350415Y-62750814D01*
X65353297Y-62780078D01*
X65350415Y-62809342D01*
X65341879Y-62837481D01*
X65328017Y-62863414D01*
X65309363Y-62886144D01*
X65307627Y-62887880D01*
X65306072Y-62889775D01*
X65300627Y-62897925D01*
X65296877Y-62906980D01*
X65294965Y-62916593D01*
X65294965Y-62926395D01*
X65296877Y-62936008D01*
X65300628Y-62945063D01*
X65306074Y-62953213D01*
X65313005Y-62960144D01*
X65321155Y-62965589D01*
X65330210Y-62969339D01*
X65339823Y-62971251D01*
X65349625Y-62971251D01*
X65359238Y-62969339D01*
X65368293Y-62965588D01*
X65376441Y-62960144D01*
X65378336Y-62958589D01*
X65380072Y-62956853D01*
X65402802Y-62938199D01*
X65428735Y-62924337D01*
X65456874Y-62915801D01*
X65486138Y-62912919D01*
X65515402Y-62915801D01*
X65543541Y-62924337D01*
X65569474Y-62938199D01*
X65592204Y-62956853D01*
X65592205Y-62956854D01*
X65610859Y-62979584D01*
X65624721Y-63005517D01*
X65633257Y-63033656D01*
X65636139Y-63062920D01*
X65633257Y-63092184D01*
X65624721Y-63120323D01*
X65610859Y-63146256D01*
X65592205Y-63168986D01*
X64885098Y-63876093D01*
X64862368Y-63894747D01*
X64836435Y-63908609D01*
X64808296Y-63917145D01*
X64779032Y-63920027D01*
X64749768Y-63917145D01*
X64721629Y-63908609D01*
X64695696Y-63894747D01*
X64672966Y-63876093D01*
X64672965Y-63876092D01*
X64654311Y-63853362D01*
X64640449Y-63827429D01*
X64631913Y-63799290D01*
X64629031Y-63770026D01*
X64631913Y-63740762D01*
X64640449Y-63712623D01*
X64654311Y-63686690D01*
X64672965Y-63663960D01*
X64674695Y-63662230D01*
X64676251Y-63660334D01*
X64681697Y-63652184D01*
X64685447Y-63643129D01*
X64687359Y-63633516D01*
X64687359Y-63623714D01*
X64685447Y-63614101D01*
X64681696Y-63605046D01*
X64676250Y-63596896D01*
X64669319Y-63589966D01*
X64661169Y-63584520D01*
X64652114Y-63580770D01*
X64642501Y-63578858D01*
X64632699Y-63578858D01*
X64623086Y-63580770D01*
X64614031Y-63584521D01*
X64602246Y-63593261D01*
X64460835Y-63734672D01*
X64438105Y-63753326D01*
X64412172Y-63767188D01*
X64384033Y-63775724D01*
X64354769Y-63778606D01*
X64325505Y-63775724D01*
X64297366Y-63767188D01*
X64271433Y-63753326D01*
X64248703Y-63734672D01*
X64248701Y-63734670D01*
X64230047Y-63711940D01*
X64216185Y-63686007D01*
X64207649Y-63657868D01*
X64204767Y-63628604D01*
X64207649Y-63599340D01*
X64216185Y-63571201D01*
X64230047Y-63545268D01*
X64248701Y-63522538D01*
X64250437Y-63520802D01*
X64251992Y-63518907D01*
X64257437Y-63510757D01*
X64261187Y-63501702D01*
X64263099Y-63492089D01*
X64263099Y-63482287D01*
X64261187Y-63472674D01*
X64257436Y-63463619D01*
X64251990Y-63455469D01*
X64245059Y-63448538D01*
X64236909Y-63443093D01*
X64227854Y-63439343D01*
X64218241Y-63437431D01*
X64208439Y-63437431D01*
X64198826Y-63439343D01*
X64189771Y-63443094D01*
X64181623Y-63448538D01*
X64179728Y-63450093D01*
X64177992Y-63451829D01*
X64155262Y-63470483D01*
X64129329Y-63484345D01*
X64101190Y-63492881D01*
X64071926Y-63495763D01*
X64042662Y-63492881D01*
X64014523Y-63484345D01*
X63988590Y-63470483D01*
X63965860Y-63451829D01*
X63965858Y-63451827D01*
X63947204Y-63429097D01*
X63933342Y-63403164D01*
X63924806Y-63375025D01*
X63921924Y-63345761D01*
X63924806Y-63316497D01*
X63933342Y-63288358D01*
X63947204Y-63262425D01*
X63965858Y-63239695D01*
X63967592Y-63237961D01*
X63969147Y-63236066D01*
X63974592Y-63227916D01*
X63978343Y-63218860D01*
X63980254Y-63209247D01*
X63980254Y-63199446D01*
X63978342Y-63189833D01*
X63974590Y-63180777D01*
X63969145Y-63172628D01*
X63962214Y-63165697D01*
X63954064Y-63160252D01*
X63945008Y-63156501D01*
X63935395Y-63154590D01*
X63925594Y-63154590D01*
X63915981Y-63156502D01*
X63906925Y-63160254D01*
X63898778Y-63165698D01*
X63896882Y-63167254D01*
X63895150Y-63168986D01*
X63872420Y-63187640D01*
X63846487Y-63201502D01*
X63818348Y-63210038D01*
X63789084Y-63212920D01*
X63759820Y-63210038D01*
X63731681Y-63201502D01*
X63705748Y-63187640D01*
X63683018Y-63168986D01*
X63683016Y-63168984D01*
X63664362Y-63146254D01*
X63650500Y-63120321D01*
X63641964Y-63092182D01*
X63639082Y-63062918D01*
X63641964Y-63033654D01*
X63650500Y-63005515D01*
X63664362Y-62979582D01*
X63683016Y-62956852D01*
X63684748Y-62955120D01*
X63686304Y-62953224D01*
X63691750Y-62945075D01*
X63695500Y-62936019D01*
X63697412Y-62926406D01*
X63697412Y-62916605D01*
X63695500Y-62906991D01*
X63691749Y-62897936D01*
X63686303Y-62889786D01*
X63679372Y-62882856D01*
X63671223Y-62877410D01*
X63662167Y-62873660D01*
X63652554Y-62871748D01*
X63642753Y-62871748D01*
X63633139Y-62873660D01*
X63624084Y-62877411D01*
X63615936Y-62882855D01*
X63614041Y-62884410D01*
X63612307Y-62886144D01*
X63589577Y-62904798D01*
X63563644Y-62918660D01*
X63535505Y-62927196D01*
X63506241Y-62930078D01*
X63476977Y-62927196D01*
X63448838Y-62918660D01*
X63422905Y-62904798D01*
X63400175Y-62886144D01*
X63400173Y-62886142D01*
X63381519Y-62863412D01*
X63367657Y-62837479D01*
X63359121Y-62809340D01*
X63356239Y-62780076D01*
X63359121Y-62750812D01*
X63367657Y-62722673D01*
X63381519Y-62696740D01*
X63400173Y-62674010D01*
X63401909Y-62672274D01*
X63403464Y-62670379D01*
X63408909Y-62662229D01*
X63412659Y-62653174D01*
X63414571Y-62643561D01*
X63414571Y-62633759D01*
X63412659Y-62624146D01*
X63408908Y-62615091D01*
X63403462Y-62606941D01*
X63396531Y-62600010D01*
X63388381Y-62594565D01*
X63379326Y-62590815D01*
X63369713Y-62588903D01*
X63359911Y-62588903D01*
X63350298Y-62590815D01*
X63341243Y-62594566D01*
X63333095Y-62600010D01*
X63331200Y-62601565D01*
X63329464Y-62603301D01*
X63306734Y-62621955D01*
X63280801Y-62635817D01*
X63252662Y-62644353D01*
X63223398Y-62647235D01*
X63194134Y-62644353D01*
X63165995Y-62635817D01*
X63140062Y-62621955D01*
X63117332Y-62603301D01*
X63117330Y-62603299D01*
X63098676Y-62580569D01*
X63084814Y-62554636D01*
X63076278Y-62526497D01*
X63073396Y-62497233D01*
X63076278Y-62467969D01*
X63084814Y-62439830D01*
X63098676Y-62413897D01*
X63117330Y-62391167D01*
X63258741Y-62249756D01*
X63264959Y-62242179D01*
X63269579Y-62233535D01*
X63272424Y-62224155D01*
X63273385Y-62214401D01*
X63272424Y-62204647D01*
X63269579Y-62195267D01*
X63264959Y-62186623D01*
X63258741Y-62179046D01*
X63251164Y-62172828D01*
X63242520Y-62168208D01*
X63233140Y-62165363D01*
X63223386Y-62164402D01*
X63213632Y-62165363D01*
X63204252Y-62168208D01*
X63191668Y-62175751D01*
X63189772Y-62177307D01*
X63188042Y-62179037D01*
X63165312Y-62197691D01*
X63139379Y-62211553D01*
X63111240Y-62220089D01*
X63081976Y-62222971D01*
X63052712Y-62220089D01*
X63024573Y-62211553D01*
X62998640Y-62197691D01*
X62975910Y-62179037D01*
X62975909Y-62179036D01*
X62957255Y-62156306D01*
X62943393Y-62130373D01*
X62934857Y-62102234D01*
X62931975Y-62072970D01*
X62934857Y-62043706D01*
X62943393Y-62015567D01*
X62957255Y-61989634D01*
X62975909Y-61966904D01*
X63683016Y-61259797D01*
X63705746Y-61241143D01*
X63731679Y-61227281D01*
X63759818Y-61218745D01*
X63789082Y-61215863D01*
X63818346Y-61218745D01*
X63818346Y-61218745D01*
G37*
G36*
X38475971Y-62219081D02*
G01*
X38513447Y-62230449D01*
X38547979Y-62248906D01*
X38578251Y-62273751D01*
X38603096Y-62304023D01*
X38621553Y-62338555D01*
X38632921Y-62376031D01*
X38637001Y-62417455D01*
X38637001Y-63512547D01*
X38632921Y-63553971D01*
X38621553Y-63591447D01*
X38603096Y-63625979D01*
X38578251Y-63656251D01*
X38547979Y-63681096D01*
X38513447Y-63699553D01*
X38475971Y-63710921D01*
X38434547Y-63715001D01*
X37939455Y-63715001D01*
X37898031Y-63710921D01*
X37860555Y-63699553D01*
X37826023Y-63681096D01*
X37795751Y-63656251D01*
X37770906Y-63625979D01*
X37752449Y-63591447D01*
X37741081Y-63553971D01*
X37737001Y-63512547D01*
X37737001Y-62417455D01*
X37741081Y-62376031D01*
X37752449Y-62338555D01*
X37770906Y-62304023D01*
X37795751Y-62273751D01*
X37826023Y-62248906D01*
X37860555Y-62230449D01*
X37898031Y-62219081D01*
X37939455Y-62215001D01*
X38434547Y-62215001D01*
X38475971Y-62219081D01*
X38475971Y-62219081D01*
G37*
G36*
X101718654Y-60297666D02*
G01*
X101882873Y-60330331D01*
X102192253Y-60458480D01*
X102470688Y-60644524D01*
X102707478Y-60881314D01*
X102893522Y-61159749D01*
X103021671Y-61469129D01*
X103045973Y-61591304D01*
X103087001Y-61797564D01*
X103087001Y-62132438D01*
X103071672Y-62209501D01*
X103021671Y-62460873D01*
X102893522Y-62770253D01*
X102707478Y-63048688D01*
X102470688Y-63285478D01*
X102192253Y-63471522D01*
X101882873Y-63599671D01*
X101737356Y-63628616D01*
X101554438Y-63665001D01*
X101219564Y-63665001D01*
X101036646Y-63628616D01*
X100891129Y-63599671D01*
X100581749Y-63471522D01*
X100303314Y-63285478D01*
X100066524Y-63048688D01*
X99880480Y-62770253D01*
X99752331Y-62460873D01*
X99702330Y-62209501D01*
X99687001Y-62132438D01*
X99687001Y-61797564D01*
X99728029Y-61591304D01*
X99752331Y-61469129D01*
X99880480Y-61159749D01*
X100066524Y-60881314D01*
X100303314Y-60644524D01*
X100581749Y-60458480D01*
X100891129Y-60330331D01*
X101055348Y-60297666D01*
X101219564Y-60265001D01*
X101554438Y-60265001D01*
X101718654Y-60297666D01*
X101718654Y-60297666D01*
G37*
G36*
X87156812Y-60375547D02*
G01*
X87156815Y-60375548D01*
X87156814Y-60375548D01*
X87325153Y-60445276D01*
X87476654Y-60546506D01*
X87605496Y-60675348D01*
X87706726Y-60826849D01*
X87764491Y-60966307D01*
X87776455Y-60995190D01*
X87812001Y-61173895D01*
X87812001Y-61356107D01*
X87776455Y-61534812D01*
X87771850Y-61545930D01*
X87706726Y-61703153D01*
X87605496Y-61854654D01*
X87476654Y-61983496D01*
X87325153Y-62084726D01*
X87185695Y-62142491D01*
X87156812Y-62154455D01*
X86978107Y-62190001D01*
X86795895Y-62190001D01*
X86617190Y-62154455D01*
X86588307Y-62142491D01*
X86448849Y-62084726D01*
X86297348Y-61983496D01*
X86168506Y-61854654D01*
X86067276Y-61703153D01*
X86002152Y-61545930D01*
X85997547Y-61534812D01*
X85962001Y-61356107D01*
X85962001Y-61173895D01*
X85997547Y-60995190D01*
X86009511Y-60966307D01*
X86067276Y-60826849D01*
X86168506Y-60675348D01*
X86297348Y-60546506D01*
X86448849Y-60445276D01*
X86617188Y-60375548D01*
X86617187Y-60375548D01*
X86617190Y-60375547D01*
X86795895Y-60340001D01*
X86978107Y-60340001D01*
X87156812Y-60375547D01*
X87156812Y-60375547D01*
G37*
G36*
X76996812Y-60375547D02*
G01*
X76996815Y-60375548D01*
X76996814Y-60375548D01*
X77165153Y-60445276D01*
X77316654Y-60546506D01*
X77445496Y-60675348D01*
X77546726Y-60826849D01*
X77604491Y-60966307D01*
X77616455Y-60995190D01*
X77652001Y-61173895D01*
X77652001Y-61356107D01*
X77616455Y-61534812D01*
X77611850Y-61545930D01*
X77546726Y-61703153D01*
X77445496Y-61854654D01*
X77316654Y-61983496D01*
X77165153Y-62084726D01*
X77025695Y-62142491D01*
X76996812Y-62154455D01*
X76818107Y-62190001D01*
X76635895Y-62190001D01*
X76457190Y-62154455D01*
X76428307Y-62142491D01*
X76288849Y-62084726D01*
X76137348Y-61983496D01*
X76008506Y-61854654D01*
X75907276Y-61703153D01*
X75842152Y-61545930D01*
X75837547Y-61534812D01*
X75802001Y-61356107D01*
X75802001Y-61173895D01*
X75837547Y-60995190D01*
X75849511Y-60966307D01*
X75907276Y-60826849D01*
X76008506Y-60675348D01*
X76137348Y-60546506D01*
X76288849Y-60445276D01*
X76457188Y-60375548D01*
X76457187Y-60375548D01*
X76457190Y-60375547D01*
X76635895Y-60340001D01*
X76818107Y-60340001D01*
X76996812Y-60375547D01*
X76996812Y-60375547D01*
G37*
G36*
X66836812Y-60375547D02*
G01*
X66836815Y-60375548D01*
X66836814Y-60375548D01*
X67005153Y-60445276D01*
X67156654Y-60546506D01*
X67285496Y-60675348D01*
X67386726Y-60826849D01*
X67444491Y-60966307D01*
X67456455Y-60995190D01*
X67492001Y-61173895D01*
X67492001Y-61356107D01*
X67456455Y-61534812D01*
X67451850Y-61545930D01*
X67386726Y-61703153D01*
X67285496Y-61854654D01*
X67156654Y-61983496D01*
X67005153Y-62084726D01*
X66865695Y-62142491D01*
X66836812Y-62154455D01*
X66658107Y-62190001D01*
X66475895Y-62190001D01*
X66297190Y-62154455D01*
X66268307Y-62142491D01*
X66128849Y-62084726D01*
X65977348Y-61983496D01*
X65848506Y-61854654D01*
X65747276Y-61703153D01*
X65682152Y-61545930D01*
X65677547Y-61534812D01*
X65642001Y-61356107D01*
X65642001Y-61173895D01*
X65677547Y-60995190D01*
X65689511Y-60966307D01*
X65747276Y-60826849D01*
X65848506Y-60675348D01*
X65977348Y-60546506D01*
X66128849Y-60445276D01*
X66297188Y-60375548D01*
X66297187Y-60375548D01*
X66297190Y-60375547D01*
X66475895Y-60340001D01*
X66658107Y-60340001D01*
X66836812Y-60375547D01*
X66836812Y-60375547D01*
G37*
G36*
X46516812Y-60375547D02*
G01*
X46516815Y-60375548D01*
X46516814Y-60375548D01*
X46685153Y-60445276D01*
X46836654Y-60546506D01*
X46965496Y-60675348D01*
X47066726Y-60826849D01*
X47124491Y-60966307D01*
X47136455Y-60995190D01*
X47172001Y-61173895D01*
X47172001Y-61356107D01*
X47136455Y-61534812D01*
X47131850Y-61545930D01*
X47066726Y-61703153D01*
X46965496Y-61854654D01*
X46836654Y-61983496D01*
X46685153Y-62084726D01*
X46545695Y-62142491D01*
X46516812Y-62154455D01*
X46338107Y-62190001D01*
X46155895Y-62190001D01*
X45977190Y-62154455D01*
X45948307Y-62142491D01*
X45808849Y-62084726D01*
X45657348Y-61983496D01*
X45528506Y-61854654D01*
X45427276Y-61703153D01*
X45362152Y-61545930D01*
X45357547Y-61534812D01*
X45322001Y-61356107D01*
X45322001Y-61173895D01*
X45357547Y-60995190D01*
X45369511Y-60966307D01*
X45427276Y-60826849D01*
X45528506Y-60675348D01*
X45657348Y-60546506D01*
X45808849Y-60445276D01*
X45977188Y-60375548D01*
X45977187Y-60375548D01*
X45977190Y-60375547D01*
X46155895Y-60340001D01*
X46338107Y-60340001D01*
X46516812Y-60375547D01*
X46516812Y-60375547D01*
G37*
G36*
X36356812Y-60375547D02*
G01*
X36356815Y-60375548D01*
X36356814Y-60375548D01*
X36525153Y-60445276D01*
X36676654Y-60546506D01*
X36805496Y-60675348D01*
X36906726Y-60826849D01*
X36964491Y-60966307D01*
X36976455Y-60995190D01*
X37012001Y-61173895D01*
X37012001Y-61356107D01*
X36976455Y-61534812D01*
X36971850Y-61545930D01*
X36906726Y-61703153D01*
X36805496Y-61854654D01*
X36676654Y-61983496D01*
X36525153Y-62084726D01*
X36385695Y-62142491D01*
X36356812Y-62154455D01*
X36178107Y-62190001D01*
X35995895Y-62190001D01*
X35817190Y-62154455D01*
X35788307Y-62142491D01*
X35648849Y-62084726D01*
X35497348Y-61983496D01*
X35368506Y-61854654D01*
X35267276Y-61703153D01*
X35202152Y-61545930D01*
X35197547Y-61534812D01*
X35162001Y-61356107D01*
X35162001Y-61173895D01*
X35197547Y-60995190D01*
X35209511Y-60966307D01*
X35267276Y-60826849D01*
X35368506Y-60675348D01*
X35497348Y-60546506D01*
X35648849Y-60445276D01*
X35817188Y-60375548D01*
X35817187Y-60375548D01*
X35817190Y-60375547D01*
X35995895Y-60340001D01*
X36178107Y-60340001D01*
X36356812Y-60375547D01*
X36356812Y-60375547D01*
G37*
G36*
X97316812Y-60375547D02*
G01*
X97316815Y-60375548D01*
X97316814Y-60375548D01*
X97485153Y-60445276D01*
X97636654Y-60546506D01*
X97765496Y-60675348D01*
X97866726Y-60826849D01*
X97924491Y-60966307D01*
X97936455Y-60995190D01*
X97972001Y-61173895D01*
X97972001Y-61356107D01*
X97936455Y-61534812D01*
X97931850Y-61545930D01*
X97866726Y-61703153D01*
X97765496Y-61854654D01*
X97636654Y-61983496D01*
X97485153Y-62084726D01*
X97345695Y-62142491D01*
X97316812Y-62154455D01*
X97138107Y-62190001D01*
X96955895Y-62190001D01*
X96777190Y-62154455D01*
X96748307Y-62142491D01*
X96608849Y-62084726D01*
X96457348Y-61983496D01*
X96328506Y-61854654D01*
X96227276Y-61703153D01*
X96162152Y-61545930D01*
X96157547Y-61534812D01*
X96122001Y-61356107D01*
X96122001Y-61173895D01*
X96157547Y-60995190D01*
X96169511Y-60966307D01*
X96227276Y-60826849D01*
X96328506Y-60675348D01*
X96457348Y-60546506D01*
X96608849Y-60445276D01*
X96777188Y-60375548D01*
X96777187Y-60375548D01*
X96777190Y-60375547D01*
X96955895Y-60340001D01*
X97138107Y-60340001D01*
X97316812Y-60375547D01*
X97316812Y-60375547D01*
G37*
G36*
X56676812Y-60375547D02*
G01*
X56676815Y-60375548D01*
X56676814Y-60375548D01*
X56845153Y-60445276D01*
X56996654Y-60546506D01*
X57125496Y-60675348D01*
X57226726Y-60826849D01*
X57284491Y-60966307D01*
X57296455Y-60995190D01*
X57332001Y-61173895D01*
X57332001Y-61356107D01*
X57296455Y-61534812D01*
X57291850Y-61545930D01*
X57226726Y-61703153D01*
X57125496Y-61854654D01*
X56996654Y-61983496D01*
X56845153Y-62084726D01*
X56705695Y-62142491D01*
X56676812Y-62154455D01*
X56498107Y-62190001D01*
X56315895Y-62190001D01*
X56137190Y-62154455D01*
X56108307Y-62142491D01*
X55968849Y-62084726D01*
X55817348Y-61983496D01*
X55688506Y-61854654D01*
X55587276Y-61703153D01*
X55522152Y-61545930D01*
X55517547Y-61534812D01*
X55482001Y-61356107D01*
X55482001Y-61173895D01*
X55517547Y-60995190D01*
X55529511Y-60966307D01*
X55587276Y-60826849D01*
X55688506Y-60675348D01*
X55817348Y-60546506D01*
X55968849Y-60445276D01*
X56137188Y-60375548D01*
X56137187Y-60375548D01*
X56137190Y-60375547D01*
X56315895Y-60340001D01*
X56498107Y-60340001D01*
X56676812Y-60375547D01*
X56676812Y-60375547D01*
G37*
G36*
X74653828Y-60246577D02*
G01*
X74804630Y-60292322D01*
X74943606Y-60366606D01*
X75065423Y-60466579D01*
X75165396Y-60588396D01*
X75239680Y-60727372D01*
X75285425Y-60878174D01*
X75300871Y-61035001D01*
X75285425Y-61191828D01*
X75239680Y-61342630D01*
X75165396Y-61481606D01*
X75065423Y-61603423D01*
X74943606Y-61703396D01*
X74804630Y-61777680D01*
X74653828Y-61823425D01*
X74536296Y-61835001D01*
X74457706Y-61835001D01*
X74340174Y-61823425D01*
X74189372Y-61777680D01*
X74050396Y-61703396D01*
X73928579Y-61603423D01*
X73828606Y-61481606D01*
X73754322Y-61342630D01*
X73708577Y-61191828D01*
X73693131Y-61035001D01*
X73708577Y-60878174D01*
X73754322Y-60727372D01*
X73828606Y-60588396D01*
X73928579Y-60466579D01*
X74050396Y-60366606D01*
X74189372Y-60292322D01*
X74340174Y-60246577D01*
X74457706Y-60235001D01*
X74536296Y-60235001D01*
X74653828Y-60246577D01*
X74653828Y-60246577D01*
G37*
G36*
X82615112Y-60242443D02*
G01*
X82685416Y-60263770D01*
X82750204Y-60298399D01*
X82806995Y-60345007D01*
X82853603Y-60401798D01*
X82888232Y-60466586D01*
X82909559Y-60536890D01*
X82917001Y-60612455D01*
X82917001Y-61457547D01*
X82909559Y-61533112D01*
X82888232Y-61603416D01*
X82853603Y-61668204D01*
X82806995Y-61724995D01*
X82750204Y-61771603D01*
X82685416Y-61806232D01*
X82615112Y-61827559D01*
X82539547Y-61835001D01*
X81694455Y-61835001D01*
X81618890Y-61827559D01*
X81548586Y-61806232D01*
X81483798Y-61771603D01*
X81427007Y-61724995D01*
X81380399Y-61668204D01*
X81345770Y-61603416D01*
X81324443Y-61533112D01*
X81317001Y-61457547D01*
X81317001Y-60612455D01*
X81324443Y-60536890D01*
X81345770Y-60466586D01*
X81380399Y-60401798D01*
X81427007Y-60345007D01*
X81483798Y-60298399D01*
X81548586Y-60263770D01*
X81618890Y-60242443D01*
X81694455Y-60235001D01*
X82539547Y-60235001D01*
X82615112Y-60242443D01*
X82615112Y-60242443D01*
G37*
G36*
X84813828Y-60246577D02*
G01*
X84964630Y-60292322D01*
X85103606Y-60366606D01*
X85225423Y-60466579D01*
X85325396Y-60588396D01*
X85399680Y-60727372D01*
X85445425Y-60878174D01*
X85460871Y-61035001D01*
X85445425Y-61191828D01*
X85399680Y-61342630D01*
X85325396Y-61481606D01*
X85225423Y-61603423D01*
X85103606Y-61703396D01*
X84964630Y-61777680D01*
X84813828Y-61823425D01*
X84696296Y-61835001D01*
X84617706Y-61835001D01*
X84500174Y-61823425D01*
X84349372Y-61777680D01*
X84210396Y-61703396D01*
X84088579Y-61603423D01*
X83988606Y-61481606D01*
X83914322Y-61342630D01*
X83868577Y-61191828D01*
X83853131Y-61035001D01*
X83868577Y-60878174D01*
X83914322Y-60727372D01*
X83988606Y-60588396D01*
X84088579Y-60466579D01*
X84210396Y-60366606D01*
X84349372Y-60292322D01*
X84500174Y-60246577D01*
X84617706Y-60235001D01*
X84696296Y-60235001D01*
X84813828Y-60246577D01*
X84813828Y-60246577D01*
G37*
G36*
X72455112Y-60242443D02*
G01*
X72525416Y-60263770D01*
X72590204Y-60298399D01*
X72646995Y-60345007D01*
X72693603Y-60401798D01*
X72728232Y-60466586D01*
X72749559Y-60536890D01*
X72757001Y-60612455D01*
X72757001Y-61457547D01*
X72749559Y-61533112D01*
X72728232Y-61603416D01*
X72693603Y-61668204D01*
X72646995Y-61724995D01*
X72590204Y-61771603D01*
X72525416Y-61806232D01*
X72455112Y-61827559D01*
X72379547Y-61835001D01*
X71534455Y-61835001D01*
X71458890Y-61827559D01*
X71388586Y-61806232D01*
X71323798Y-61771603D01*
X71267007Y-61724995D01*
X71220399Y-61668204D01*
X71185770Y-61603416D01*
X71164443Y-61533112D01*
X71157001Y-61457547D01*
X71157001Y-60612455D01*
X71164443Y-60536890D01*
X71185770Y-60466586D01*
X71220399Y-60401798D01*
X71267007Y-60345007D01*
X71323798Y-60298399D01*
X71388586Y-60263770D01*
X71458890Y-60242443D01*
X71534455Y-60235001D01*
X72379547Y-60235001D01*
X72455112Y-60242443D01*
X72455112Y-60242443D01*
G37*
G36*
X44173828Y-60246577D02*
G01*
X44324630Y-60292322D01*
X44463606Y-60366606D01*
X44585423Y-60466579D01*
X44685396Y-60588396D01*
X44759680Y-60727372D01*
X44805425Y-60878174D01*
X44820871Y-61035001D01*
X44805425Y-61191828D01*
X44759680Y-61342630D01*
X44685396Y-61481606D01*
X44585423Y-61603423D01*
X44463606Y-61703396D01*
X44324630Y-61777680D01*
X44173828Y-61823425D01*
X44056296Y-61835001D01*
X43977706Y-61835001D01*
X43860174Y-61823425D01*
X43709372Y-61777680D01*
X43570396Y-61703396D01*
X43448579Y-61603423D01*
X43348606Y-61481606D01*
X43274322Y-61342630D01*
X43228577Y-61191828D01*
X43213131Y-61035001D01*
X43228577Y-60878174D01*
X43274322Y-60727372D01*
X43348606Y-60588396D01*
X43448579Y-60466579D01*
X43570396Y-60366606D01*
X43709372Y-60292322D01*
X43860174Y-60246577D01*
X43977706Y-60235001D01*
X44056296Y-60235001D01*
X44173828Y-60246577D01*
X44173828Y-60246577D01*
G37*
G36*
X41975112Y-60242443D02*
G01*
X42045416Y-60263770D01*
X42110204Y-60298399D01*
X42166995Y-60345007D01*
X42213603Y-60401798D01*
X42248232Y-60466586D01*
X42269559Y-60536890D01*
X42277001Y-60612455D01*
X42277001Y-61457547D01*
X42269559Y-61533112D01*
X42248232Y-61603416D01*
X42213603Y-61668204D01*
X42166995Y-61724995D01*
X42110204Y-61771603D01*
X42045416Y-61806232D01*
X41975112Y-61827559D01*
X41899547Y-61835001D01*
X41054455Y-61835001D01*
X40978890Y-61827559D01*
X40908586Y-61806232D01*
X40843798Y-61771603D01*
X40787007Y-61724995D01*
X40740399Y-61668204D01*
X40705770Y-61603416D01*
X40684443Y-61533112D01*
X40677001Y-61457547D01*
X40677001Y-60612455D01*
X40684443Y-60536890D01*
X40705770Y-60466586D01*
X40740399Y-60401798D01*
X40787007Y-60345007D01*
X40843798Y-60298399D01*
X40908586Y-60263770D01*
X40978890Y-60242443D01*
X41054455Y-60235001D01*
X41899547Y-60235001D01*
X41975112Y-60242443D01*
X41975112Y-60242443D01*
G37*
M02*
